<svg width="36" height="45" viewBox="0 0 36 45" fill="none" xmlns="http://www.w3.org/2000/svg">
<path d="M17.9353 44.0976C27.8407 44.0976 35.8706 36.0677 35.8706 26.1623C35.8706 16.2569 27.8407 8.22705 17.9353 8.22705C8.0299 8.22705 0 16.2569 0 26.1623C0 36.0677 8.0299 44.0976 17.9353 44.0976Z" fill="#84D1C9"/>
<path d="M20.0128 20.0568V17.4092H15.8596V20.0568L14.8213 20.3461L15.8596 26.8329H20.0128L21.0511 20.3461L20.0128 20.0568Z" fill="#F7CDB9"/>
<g style="mix-blend-mode:multiply">
<path d="M15.8604 17.4263V18.3879L20.0135 20.0566V17.4263H15.8604Z" fill="#DEB4A0"/>
</g>
<mask id="mask0_1358_5254" style="mask-type:alpha" maskUnits="userSpaceOnUse" x="0" y="8" width="36" height="37">
<path d="M17.9353 44.0976C27.8407 44.0976 35.8706 36.0677 35.8706 26.1623C35.8706 16.2569 27.8407 8.22705 17.9353 8.22705C8.0299 8.22705 0 16.2569 0 26.1623C0 36.0677 8.0299 44.0976 17.9353 44.0976Z" fill="#84D1C9"/>
</mask>
<g mask="url(#mask0_1358_5254)">
<g style="mix-blend-mode:multiply">
<path d="M24.9581 32.8541C31.2076 32.3004 31.0519 29.942 29.4351 27.0793C28.2015 24.8939 25.3067 21.3291 23.4031 20.6764C22.9136 20.402 22.1374 20.2117 20.9384 20.14L20.8568 20.0807L20.842 20.1474L20.5083 20.0535V17.8953C20.6887 17.7643 20.8692 17.6209 21.0397 17.4651C21.2301 17.2946 21.413 17.1116 21.5861 16.9188C21.7023 16.7903 21.8135 16.6568 21.9198 16.5183C21.9742 16.4491 22.0261 16.3799 22.0756 16.3107C22.1769 16.1698 22.2734 16.0264 22.3648 15.8805C22.8617 15.0796 23.1757 14.2094 23.1757 13.4208C23.7591 13.4208 24.2337 12.956 24.2337 12.3825V11.3021C24.2337 11.2131 24.2189 11.1291 24.1991 11.0475C24.9606 9.46287 25.1979 6.77319 24.2239 4.64963C24.5922 4.16262 24.8122 3.55944 24.8122 2.90185C24.8122 1.29744 23.5094 -0.00537109 21.905 -0.00537109C20.8024 -0.00537109 19.8457 0.607718 19.3513 1.51004C19.2672 1.5051 19.1832 1.49521 19.0967 1.49274C11.4331 1.26036 11.6951 9.45298 12.2266 11.4505C12.3502 11.4109 12.4788 11.359 12.6073 11.2997V12.3775C12.6073 12.951 13.0795 13.4158 13.6654 13.4158C13.6654 14.9807 14.9039 16.8669 16.3576 17.9077V18.3798V20.0485L16.0213 20.1425L16.0065 20.0757L15.9249 20.135C14.726 20.2043 13.9497 20.3946 13.4602 20.6715C11.5567 21.3241 8.66428 24.8914 7.42822 27.0743C5.81145 29.937 5.65571 32.293 11.9053 32.8492C12.2266 32.8492 12.8793 32.8319 13.1883 32.8072L13.166 32.4833L13.2328 32.4784C13.0375 34.1322 12.4961 37.6056 11.1018 41.7414H11.396C11.1933 42.8761 11.0449 44.3495 11.0622 46.2086H25.8011C25.8208 44.3495 25.6725 42.8786 25.4673 41.7414H25.7615C24.3672 37.608 23.8258 34.1322 23.6305 32.4784L23.6998 32.4833L23.6775 32.8072C23.9865 32.8319 24.6367 32.8492 24.9606 32.8492L24.9581 32.8541ZM26.6663 28.607C27.0347 29.1633 26.9358 29.272 26.9234 29.2819C26.7528 29.4228 25.7294 29.5118 24.827 29.5242C25.1979 28.518 25.2102 27.235 24.2239 25.6949C25.3141 26.5774 25.8851 27.4328 26.6663 28.6095V28.607ZM9.93496 29.2819C9.93496 29.2819 9.82372 29.1633 10.1921 28.607C10.9733 27.4303 11.5443 26.5774 12.6345 25.6949C11.6481 27.235 11.6605 28.518 12.0313 29.5242C11.129 29.5143 10.108 29.4228 9.93496 29.2819Z" fill="#C8C8C8"/>
</g>
<path d="M25.3063 46.2142C25.3607 40.7384 23.9689 38.605 23.9689 38.605H11.9024C11.9024 38.605 10.5106 40.7384 10.565 46.2142H25.3039H25.3063Z" fill="#2A2932"/>
</g>
<path d="M22.1962 23.5586H13.7588V38.604H22.1962V23.5586Z" fill="white"/>
<path d="M16.898 26.7601L15.5161 20.1348C9.67198 20.4413 13.6348 23.5438 12.3073 25.4424C10.243 28.3991 11.8524 30.4411 12.8388 31.4472C12.8388 31.4472 12.5619 35.949 10.6064 41.7436H16.7942V39.6349L16.9005 26.7576L16.898 26.7601Z" fill="#42404D"/>
<path d="M13.1377 21.7715L15.4145 22.6342L14.5196 23.8802L16.8978 26.7602L15.5109 20.083L13.1377 21.7715Z" fill="#2A2932"/>
<path d="M18.9761 26.7601L20.358 20.1348C26.2021 20.4413 22.2393 23.5438 23.5668 25.4424C25.6311 28.3991 24.0217 30.4411 23.0354 31.4472C23.0354 31.4472 23.3122 35.949 25.2677 41.7436H19.0799V39.6349L18.9736 26.7576L18.9761 26.7601Z" fill="#42404D"/>
<path d="M22.7367 21.7715L20.4598 22.6342L21.3547 23.8802L18.9766 26.7602L20.3634 20.083L22.7367 21.7715Z" fill="#2A2932"/>
<path d="M21.6503 33.1159H14.2784C13.6826 33.1159 13.2006 32.6339 13.2006 32.0381L12.7383 25.885C12.7383 25.2892 13.2203 24.8071 13.8161 24.8071H22.1101C22.7059 24.8071 23.188 25.2892 23.188 25.885L22.7257 32.0381C22.7257 32.6339 22.2436 33.1159 21.6478 33.1159H21.6503Z" fill="#E6E7E8"/>
<g style="mix-blend-mode:multiply">
<path d="M22.1301 24.8101H13.7966C13.4283 24.8101 13.1019 25.0004 12.9141 25.2872C13.0797 25.1784 13.2799 25.1117 13.495 25.1117H21.8286C22.412 25.1117 22.8866 25.5838 22.8866 26.1697L22.4243 32.3624C22.4243 32.5775 22.36 32.7752 22.2513 32.9433C22.538 32.7555 22.7284 32.4291 22.7284 32.0608L23.1907 25.8681C23.1907 25.2847 22.7185 24.8101 22.1326 24.8101H22.1301Z" fill="#C8C8C8"/>
</g>
<path d="M14.0713 28.5103H14.0293C13.7904 28.5103 13.5967 28.7039 13.5967 28.9429V28.9849C13.5967 29.2238 13.7904 29.4175 14.0293 29.4175H14.0713C14.3103 29.4175 14.504 29.2238 14.504 28.9849V28.9429C14.504 28.7039 14.3103 28.5103 14.0713 28.5103Z" fill="#686671"/>
<path d="M14.3029 29.8457C14.3029 29.8457 13.5217 29.9322 12.9135 29.9767C12.7627 29.9866 12.6119 29.994 12.471 30.0039C12.3301 30.0088 12.1991 30.0113 12.0878 30.0163H11.7195L11.6602 32.5057C11.6602 32.5057 11.8456 32.5057 12.12 32.5057C12.2559 32.5007 12.4117 32.4958 12.5798 32.4909C12.7454 32.481 12.9209 32.4711 13.0965 32.4587C13.7936 32.4068 14.6292 32.3104 14.6292 32.3104C15.1656 32.2412 15.4969 31.6157 15.3832 30.9384C15.267 30.256 14.7825 29.7765 14.3004 29.8407L14.3029 29.8457Z" fill="#F7CDB9"/>
<path d="M13.4725 29.2031C13.0596 29.2501 12.7407 29.5418 12.5009 29.8335C12.2636 30.1203 12.1103 30.4046 12.098 30.4293C12.0016 30.6098 12.0238 30.8743 12.1623 31.0102C12.2982 31.1462 12.496 31.1091 12.5899 30.9213C12.5899 30.9163 12.6196 30.8644 12.669 30.7828C12.7185 30.7037 12.7877 30.5974 12.8742 30.4936C13.0473 30.2785 13.2797 30.0634 13.5639 30.0313C13.7271 30.014 13.8359 29.8138 13.8062 29.5863C13.779 29.3589 13.6282 29.1883 13.4725 29.2056V29.2031Z" fill="#F7CDB9"/>
<path d="M11.4111 32.8545C5.16156 32.3007 5.31731 29.9423 6.93408 27.0796C8.16767 24.8942 11.0625 21.3294 12.9661 20.6768L12.793 22.5556L13.8857 24.516C11.5001 25.9053 10.8178 26.9288 9.70039 28.6073C9.33205 29.1636 9.43092 29.2723 9.44328 29.2822C9.67813 29.4751 11.5174 29.5764 12.4519 29.4998L12.6917 32.8124C12.3826 32.8372 11.7325 32.8545 11.4086 32.8545H11.4111Z" fill="#42404D"/>
<path d="M21.5724 29.8457C21.5724 29.8457 22.3536 29.9322 22.9617 29.9767C23.1125 29.9866 23.2633 29.994 23.4042 30.0039C23.5451 30.0088 23.6762 30.0113 23.7874 30.0163H24.1557L24.2151 32.5057C24.2151 32.5057 24.0297 32.5057 23.7553 32.5057C23.6193 32.5007 23.4636 32.4958 23.2954 32.4909C23.1298 32.481 22.9543 32.4711 22.7788 32.4587C22.0816 32.4068 21.246 32.3104 21.246 32.3104C20.7096 32.2412 20.3783 31.6157 20.4921 30.9384C20.6082 30.256 21.0928 29.7765 21.5748 29.8407L21.5724 29.8457Z" fill="#F7CDB9"/>
<path d="M22.4006 29.2031C22.8134 29.2501 23.1323 29.5418 23.3721 29.8335C23.6095 30.1203 23.7627 30.4046 23.7751 30.4293C23.8715 30.6098 23.8493 30.8743 23.7108 31.0102C23.5724 31.1462 23.3771 31.1091 23.2831 30.9213C23.2831 30.9163 23.2535 30.8644 23.204 30.7828C23.1546 30.7012 23.0854 30.5974 22.9989 30.4936C22.8258 30.2785 22.5934 30.0634 22.3116 30.0313C22.1484 30.014 22.0397 29.8138 22.0693 29.5863C22.0965 29.3589 22.2473 29.1883 22.4031 29.2056L22.4006 29.2031Z" fill="#F7CDB9"/>
<path d="M24.4658 32.8545C30.7154 32.3007 30.5596 29.9423 28.9428 27.0796C27.7092 24.8942 24.8144 21.3294 22.9109 20.6768L23.2471 22.7435L21.9912 24.5135C24.3768 25.9028 25.0591 26.9263 26.1765 28.6049C26.5449 29.1611 26.446 29.2699 26.4336 29.2798C26.1988 29.4726 24.3595 29.5739 23.425 29.4973L23.1853 32.81C23.4943 32.8347 24.1444 32.852 24.4683 32.852L24.4658 32.8545Z" fill="#42404D"/>
<path d="M22.6821 10.2667V8.10602C22.6821 5.81188 20.0271 2.91455 17.9258 2.91455C15.8245 2.91455 13.1694 5.81188 13.1694 8.10602V10.2667C12.586 10.2667 12.1113 10.7314 12.1113 11.305V12.3853C12.1113 12.9588 12.5835 13.4236 13.1694 13.4236C13.1694 15.7177 15.8245 18.6991 17.9258 18.6991C20.0271 18.6991 22.6821 15.7177 22.6821 13.4236C23.2656 13.4236 23.7402 12.9588 23.7402 12.3853V11.305C23.7402 10.7314 23.268 10.2667 22.6821 10.2667Z" fill="#F7CDB9"/>
<g style="mix-blend-mode:multiply" opacity="0.8">
<path d="M17.9233 14.8574V18.6991C20.0246 18.6991 22.6797 15.7177 22.6797 13.4236C23.2631 13.4236 23.7377 12.9588 23.7377 12.3853V11.305C23.7377 10.7314 23.2656 10.2667 22.6797 10.2667V8.10602C22.6797 5.81188 20.0246 2.91455 17.9233 2.91455V11.3247C17.152 12.9365 16.8652 14.6473 16.8652 14.6473L17.9233 14.8549V14.8574Z" fill="#F7CDB9"/>
</g>
<g style="mix-blend-mode:multiply">
<path d="M16.1483 12.0591C16.1631 12.5115 15.8096 12.8922 15.3572 12.907C14.9048 12.9219 14.5241 12.5684 14.5092 12.116C14.4944 11.6636 14.8479 11.2829 15.3003 11.268C15.7527 11.2532 16.1334 11.6067 16.1483 12.0591Z" fill="#F7CDB9"/>
</g>
<path d="M16.1483 11.8511C16.1631 12.3035 15.8096 12.6842 15.3572 12.699C14.9048 12.7139 14.5241 12.3604 14.5092 11.908C14.4944 11.4556 14.8479 11.0749 15.3003 11.06C15.7527 11.0452 16.1334 11.3987 16.1483 11.8511Z" fill="#3C2417"/>
<path d="M15.8119 12.0315C15.8169 12.1452 15.7279 12.2391 15.6142 12.2441C15.5005 12.249 15.4065 12.16 15.4016 12.0463C15.3966 11.9326 15.4856 11.8386 15.5993 11.8337C15.7131 11.8287 15.807 11.9177 15.8119 12.0315Z" fill="white"/>
<path d="M16.3264 11.2232C16.1756 10.8721 15.7874 10.6052 15.3622 10.5607C15.1002 10.5335 14.6107 10.5705 14.1905 11.1045C14.1707 11.1045 14.1509 11.1045 14.1286 11.1045C14.0817 11.0996 14.0174 11.0848 13.9531 11.0576C13.8246 11.0056 13.7158 10.8969 13.7158 10.8969C13.7084 10.8894 13.696 10.887 13.6861 10.8919C13.6738 10.8993 13.6688 10.9142 13.6738 10.9265C13.6738 10.9265 13.6911 10.9611 13.7207 11.0131C13.7504 11.065 13.7998 11.1317 13.8592 11.1886C13.9185 11.2479 13.9927 11.2973 14.052 11.327C14.0817 11.3418 14.1089 11.3542 14.1311 11.3591C14.1509 11.3666 14.1707 11.369 14.1682 11.369C14.2251 11.374 14.277 11.3443 14.3017 11.2973C14.5761 10.9117 14.9469 10.7238 15.34 10.7658C15.6886 10.8029 16.0149 11.0254 16.136 11.3048C16.1583 11.3567 16.2201 11.3814 16.272 11.3591C16.3239 11.3369 16.3486 11.2751 16.3264 11.2232Z" fill="#3C2417"/>
<g style="mix-blend-mode:multiply">
<path d="M21.3387 12.0586C21.3535 12.511 21 12.8917 20.5476 12.9066C20.0952 12.9214 19.7145 12.5679 19.6997 12.1155C19.6848 11.6631 20.0384 11.2824 20.4908 11.2675C20.9432 11.2527 21.3239 11.6062 21.3387 12.0586Z" fill="#F7CDB9"/>
</g>
<path d="M21.3387 11.8511C21.3535 12.3035 21 12.6842 20.5476 12.699C20.0952 12.7139 19.7145 12.3604 19.6997 11.908C19.6848 11.4556 20.0384 11.0749 20.4908 11.06C20.9432 11.0452 21.3239 11.3987 21.3387 11.8511Z" fill="#3C2417"/>
<path d="M21.0034 12.0315C21.0083 12.1452 20.9193 12.2391 20.8056 12.2441C20.6919 12.249 20.5979 12.16 20.593 12.0463C20.588 11.9326 20.677 11.8386 20.7908 11.8337C20.9045 11.8287 20.9984 11.9177 21.0034 12.0315Z" fill="white"/>
<path d="M19.5228 11.2232C19.6736 10.8721 20.0618 10.6052 20.487 10.5607C20.749 10.5335 21.2385 10.5705 21.6587 11.1045C21.6785 11.1045 21.6983 11.1045 21.7205 11.1045C21.7675 11.0996 21.8318 11.0848 21.8961 11.0576C22.0246 11.0056 22.1334 10.8969 22.1334 10.8969C22.1408 10.8894 22.1532 10.887 22.1631 10.8919C22.1754 10.8993 22.1804 10.9142 22.1754 10.9265C22.1754 10.9265 22.1581 10.9611 22.1285 11.0131C22.0988 11.065 22.0493 11.1317 21.99 11.1886C21.9307 11.2479 21.8565 11.2973 21.7972 11.327C21.7675 11.3418 21.7403 11.3542 21.7181 11.3591C21.6983 11.3666 21.6785 11.369 21.681 11.369C21.6241 11.374 21.5722 11.3443 21.5475 11.2973C21.2731 10.9117 20.9023 10.7238 20.5092 10.7658C20.1606 10.8029 19.8343 11.0254 19.7132 11.3048C19.6909 11.3567 19.6291 11.3814 19.5772 11.3591C19.5253 11.3369 19.5006 11.2751 19.5228 11.2232Z" fill="#3C2417"/>
<path d="M19.5774 15.623C19.5774 16.4388 18.8333 17.0989 17.9162 17.0989C16.999 17.0989 16.2549 16.4388 16.2549 15.623H19.5774Z" fill="#F05D44"/>
<path d="M16.5146 15.623H19.2834V15.9296C19.2834 16.0656 19.1722 16.1768 19.0362 16.1768H16.7619C16.6259 16.1768 16.5146 16.0656 16.5146 15.9296V15.623Z" fill="white"/>
<path d="M21.4092 5.81445C23.0148 5.81445 24.3164 4.51284 24.3164 2.90722C24.3164 1.30161 23.0148 0 21.4092 0C19.8036 0 18.502 1.30161 18.502 2.90722C18.502 4.51284 19.8036 5.81445 21.4092 5.81445Z" fill="#3C2415"/>
<path d="M22.6606 10.0024C22.2428 9.71815 21.479 9.71815 20.7892 9.72062C19.6273 9.72062 18.8486 9.94805 18.4729 10.398C18.3443 10.3238 18.1515 10.3016 17.9364 10.3016C17.7213 10.3016 17.531 10.3238 17.4024 10.398C17.0267 9.95052 16.2479 9.72062 15.086 9.72062C14.3963 9.72062 13.6324 9.72062 13.2146 10.0024H12.4854V10.7911L12.8018 10.9666C12.8092 12.1977 13.4099 13.6241 15.0885 13.6241C16.468 13.6241 17.3233 12.8751 17.6298 11.3992C17.6521 11.2929 17.662 11.1891 17.6595 11.0877C17.6793 11.0061 17.7881 10.9245 17.9413 10.9245C18.0946 10.9245 18.2034 11.0061 18.2232 11.0877C18.2232 11.1891 18.2306 11.2904 18.2528 11.3992C18.5594 12.8751 19.4147 13.6241 20.7942 13.6241C22.4727 13.6241 23.0735 12.1977 23.0809 10.9666L23.3973 10.7911V10.0024H22.668H22.6606ZM17.259 11.3226C16.9896 12.6204 16.2776 13.2508 15.0836 13.2508C13.2616 13.2508 13.1701 11.33 13.1701 10.9468C13.1701 10.6773 13.2319 10.4845 13.358 10.3584C13.6003 10.1162 14.4878 10.0964 15.0836 10.0964C16.3987 10.0964 16.9179 10.3955 17.1231 10.6477C17.2689 10.8281 17.3159 11.0556 17.259 11.325V11.3226ZM20.7892 13.2508C19.5952 13.2508 18.8832 12.6204 18.6138 11.3226C18.5569 11.0531 18.6039 10.8232 18.7497 10.6452C18.9549 10.393 19.4741 10.0939 20.7892 10.0939C21.4641 10.0939 22.2453 10.089 22.5148 10.356C22.6409 10.482 22.7027 10.6749 22.7027 10.9443C22.7027 11.33 22.6112 13.2483 20.7892 13.2483V13.2508Z" fill="white"/>
<path d="M15.8148 8.19498C15.6739 8.70176 15.397 9.36924 14.9174 9.76972C16.329 9.40879 17.5329 8.57322 18.4031 7.58437C18.319 8.0961 17.9952 8.65233 17.4934 9.14428C17.8741 8.97617 18.2424 8.75863 18.5959 8.50894C19.3821 7.95766 19.874 7.24074 20.3932 6.51393C20.8999 8.36803 21.7133 10.1331 23.6786 11.1096C25.0902 8.26666 24.7886 1.68833 18.6009 1.50045C10.9373 1.26807 11.1993 9.46071 11.7308 11.4582C13.3352 10.9514 15.4885 8.67951 15.8148 8.19498Z" fill="#4F3C30"/>
</svg>
