<svg width="36" height="45" viewBox="0 0 36 45" fill="none" xmlns="http://www.w3.org/2000/svg">
<path d="M18.2497 46.5795C28.1551 46.5795 36.185 38.5496 36.185 28.6443C36.185 18.7389 28.1551 10.709 18.2497 10.709C8.34435 10.709 0.314453 18.7389 0.314453 28.6443C0.314453 38.5496 8.34435 46.5795 18.2497 46.5795Z" fill="#FFCAAC"/>
<g style="mix-blend-mode:multiply">
<path d="M31.7822 42.9606H28.791C28.9838 42.9037 29.1272 42.7282 29.1272 42.5156C29.1272 42.3426 29.0308 42.1918 28.8898 42.1127C28.9492 42.0434 29.006 41.9693 29.0579 41.8926C29.8045 40.7827 31.5375 37.2846 32.3805 34.7111C32.7612 33.5467 32.7562 32.2909 32.3632 31.129C31.5993 28.8769 30.1432 24.1428 29.7353 23.2404C28.9665 21.5619 26.7539 21.3493 23.8788 20.5681L23.8863 20.3308L21.7899 19.2529L21.691 19.7201L21.2658 19.5075L21.2411 19.5323V18.6077C24.1211 17.3766 24.2076 14.0145 24.2719 12.9564C24.6823 12.818 24.9789 12.4348 24.9789 11.9774V11.3025C25.5871 8.42993 26.3979 -1.8467 16.6454 1.15199C11.4787 -0.566135 11.9706 8.36566 12.5194 11.2111V11.9774C12.5194 12.4397 12.8235 12.8254 13.2413 12.9613C13.3031 14.0244 13.3946 17.3691 16.2597 18.6027V19.5347L16.2326 19.51L15.8049 19.7226L15.706 19.2554L13.6096 20.3332L13.617 20.5705C10.742 21.3517 8.52941 21.5668 7.76057 23.2429C7.35267 24.1452 5.89659 28.8794 5.1327 31.1315C4.73963 32.2934 4.73469 33.5492 5.1154 34.7136C5.9584 37.2871 7.68888 40.7851 8.43793 41.8951C8.48985 41.9742 8.54671 42.0459 8.60604 42.1151C8.46513 42.1942 8.36872 42.345 8.36872 42.5181C8.36872 42.7307 8.50963 42.9062 8.70493 42.9631H5.71365C4.6803 42.9631 3.84473 43.7987 3.84473 44.832C3.84473 45.8654 4.6803 46.7009 5.71365 46.7009H31.7897C32.823 46.7009 33.6586 45.8654 33.6586 44.832C33.6586 43.7987 32.823 42.9631 31.7897 42.9631L31.7822 42.9606Z" fill="#C8C8C8"/>
</g>
<path d="M21.5192 20.024L20.743 19.6656V16.9907H15.7592V19.6656L14.9805 20.0042L15.1881 27.0028H15.7592V28.0782H20.743V27.0028H21.3116L21.5192 20.024Z" fill="#F6CCB8"/>
<g style="mix-blend-mode:multiply">
<path d="M15.7598 16.9907V19.1934L20.7436 19.5049V16.9907H15.7598Z" fill="#F6CCB8"/>
</g>
<path d="M21.5887 20.04L21.4033 20.7347C21.0819 21.6519 20.2611 23.1549 18.3106 23.1549C16.1104 23.1549 15.2699 21.244 15.0103 20.4158L14.9115 20.04C10.8572 21.5629 12.1006 34.2572 12.1006 34.2572L12.0759 44.8009H24.7777L24.6071 34.2572C24.6071 34.2572 25.643 21.5629 21.5887 20.04Z" fill="white"/>
<path d="M19.4502 22.8115L18.9707 23.7286H17.5146L17.0498 22.8115L18.2488 21.8325L19.4502 22.8115Z" fill="#F15D44"/>
<path d="M18.2489 21.8326L16.7162 23.4469L14.0957 20.3197L15.7323 19.5063L16.3478 20.0749L18.2513 21.8326H18.2489Z" fill="#E6E7E8"/>
<path d="M20.7681 19.5039L18.249 21.8302L19.7817 23.447L22.4022 20.3172L20.7681 19.5039Z" fill="#E6E7E8"/>
<path d="M18.9701 23.9463L19.5634 43.0262L18.2482 44.4798L16.9355 43.0262L17.514 23.9463H18.9701Z" fill="#F15D44"/>
<path d="M31.8862 34.7112C32.2669 33.5468 32.2619 32.2909 31.8689 31.129C31.105 28.8769 29.6489 24.1428 29.241 23.2405C28.3263 21.2479 25.3845 21.3221 21.7084 20.0589C21.5774 20.0144 21.4439 19.9674 21.3104 19.9204C21.0953 21.1837 18.2474 33.3861 18.2474 33.3861C18.2474 33.3861 15.3996 21.1837 15.1845 19.9204C15.051 19.9674 14.9175 20.0144 14.7865 20.0589C11.1104 21.3246 8.16859 21.2504 7.2539 23.2405C6.846 24.1428 5.38991 28.8769 4.62603 31.129C4.23296 32.2909 4.22802 33.5468 4.60872 34.7112C5.45172 37.2846 7.18221 40.7827 7.93126 41.8927C8.59626 42.8815 9.75816 43.24 10.5987 42.9606C10.485 43.4921 10.4479 43.8877 10.5665 43.8877H18.2425H25.9209C26.0421 43.8877 26.005 43.4921 25.8888 42.9606C26.7293 43.2375 27.8912 42.8815 28.5562 41.8927C29.3028 40.7827 31.0358 37.2846 31.8788 34.7112H31.8862Z" fill="#42404D"/>
<path d="M13.1074 20.3279L13.189 22.7085L14.3781 23.6875L13.4535 24.9532L18.2198 33.3832L15.2063 19.25L13.1074 20.3279Z" fill="#4F4C4D"/>
<path d="M23.3931 20.3279L23.3115 22.7085L22.1224 23.6875L23.0495 24.9532L18.2832 33.3832L21.2967 19.25L23.3931 20.3279Z" fill="#4F4C4D"/>
<path d="M23.6889 9.88717L23.8571 7.6944C23.8571 4.82673 21.1155 2.50293 18.2503 2.50293C15.3851 2.50293 12.6435 4.82673 12.6435 7.6944L12.8116 9.8847C12.6509 9.92425 12.5075 9.99594 12.3864 10.0998C12.1614 10.2901 12.0205 10.5744 12.0205 10.8909V11.9712C12.0205 12.5422 12.4803 13.0045 13.0514 13.0095C13.0514 15.7164 16.3047 18.285 18.2503 18.285C20.1958 18.285 23.4492 15.7189 23.4492 13.0095C24.0202 13.0045 24.48 12.5422 24.48 11.9712V10.8909C24.48 10.4038 24.1413 9.99594 23.6889 9.8847V9.88717Z" fill="#F6CCB8"/>
<g style="mix-blend-mode:multiply" opacity="0.8">
<path d="M23.6885 9.88717L23.8566 7.6944C23.8566 4.82673 21.1151 2.50293 18.2499 2.50293V9.87481C17.4909 11.4866 17.0039 13.8203 17.0039 13.8203H18.2499V18.285C20.1954 18.285 23.4487 15.7189 23.4487 13.0095C24.0198 13.0045 24.4796 12.5422 24.4796 11.9712V10.8909C24.4796 10.4038 24.1409 9.99594 23.6885 9.8847V9.88717Z" fill="#F6CCB8"/>
</g>
<g style="mix-blend-mode:multiply">
<path d="M16.6971 11.0713C16.7119 11.5237 16.3584 11.9044 15.906 11.9193C15.4536 11.9341 15.0729 11.5806 15.0581 11.1282C15.0432 10.6758 15.3968 10.2951 15.8492 10.2802C16.3016 10.2654 16.6823 10.6189 16.6971 11.0713Z" fill="#F7CDB9"/>
</g>
<path d="M16.6971 10.8638C16.7119 11.3162 16.3584 11.6969 15.906 11.7117C15.4536 11.7266 15.0729 11.3731 15.0581 10.9207C15.0432 10.4683 15.3968 10.0875 15.8492 10.0727C16.3016 10.0579 16.6823 10.4114 16.6971 10.8638Z" fill="#3C2415"/>
<path d="M16.3608 11.2517C16.3657 11.3654 16.2767 11.4593 16.163 11.4643C16.0493 11.4692 15.9553 11.3802 15.9504 11.2665C15.9454 11.1528 16.0344 11.0589 16.1482 11.0539C16.2619 11.049 16.3558 11.138 16.3608 11.2517Z" fill="white"/>
<g style="mix-blend-mode:multiply">
<path d="M21.4735 11.0718C21.4883 11.5242 21.1348 11.9049 20.6824 11.9197C20.23 11.9346 19.8493 11.5811 19.8344 11.1287C19.8196 10.6763 20.1731 10.2956 20.6255 10.2807C21.0779 10.2659 21.4586 10.6194 21.4735 11.0718Z" fill="#F7CDB9"/>
</g>
<path d="M21.4735 10.8638C21.4883 11.3162 21.1348 11.6969 20.6824 11.7117C20.23 11.7266 19.8493 11.3731 19.8344 10.9207C19.8196 10.4683 20.1731 10.0875 20.6255 10.0727C21.0779 10.0579 21.4586 10.4114 21.4735 10.8638Z" fill="#3C2415"/>
<path d="M21.1381 11.2522C21.1431 11.3659 21.0541 11.4598 20.9403 11.4648C20.8266 11.4697 20.7327 11.3807 20.7277 11.267C20.7228 11.1533 20.8118 11.0593 20.9255 11.0544C21.0392 11.0495 21.1332 11.1384 21.1381 11.2522Z" fill="white"/>
<path d="M16.1469 1.149C10.5253 -0.719925 11.6031 10.0215 12.1618 11.8088C12.2632 12.1351 12.7007 12.6395 12.7032 12.6395C12.8738 12.9584 12.2533 19.062 18.2581 19.062C24.2629 19.062 23.6424 12.9584 23.8129 12.6395C23.8129 12.6395 24.253 12.1351 24.3543 11.8088C24.913 10.0215 26.6213 -2.06971 16.1494 1.149H16.1469ZM23.1331 12.4615C23.1331 13.1413 22.7153 14.1499 22.1195 14.5974C21.8649 14.7902 21.5238 14.8223 21.2296 14.6963C20.7351 14.4837 19.6276 14.2958 18.2556 14.2958C16.8836 14.2958 15.7785 14.4861 15.2816 14.6963C14.9875 14.8223 14.6463 14.7902 14.3917 14.5974C13.7984 14.1499 13.3781 13.1413 13.3781 12.4615C13.3781 12.4615 12.5499 9.4776 13.1729 7.2873C13.4819 6.20204 14.8119 5.59142 15.9046 5.86583C16.6982 6.0636 17.5239 6.13034 18.2531 6.13281C18.9849 6.13281 19.8081 6.06607 20.6017 5.86583C21.6968 5.59142 23.0268 6.20204 23.3334 7.2873C23.9563 9.48008 23.1282 12.4615 23.1282 12.4615H23.1331Z" fill="#4F3C30"/>
<path d="M16.8938 15.269H19.6081C19.6947 15.269 19.7367 15.3753 19.6724 15.4322C19.4771 15.6077 19.0569 15.8624 18.2485 15.8624C17.4401 15.8624 17.0198 15.6077 16.8245 15.4322C16.7603 15.3753 16.8048 15.269 16.8888 15.269H16.8938Z" fill="#F6CCB8"/>
<path d="M23.8867 9.43546H22.7619C22.4059 9.25005 21.909 9.13138 21.2143 9.13138C20.0574 9.13138 19.2712 9.35387 18.8683 9.78649C18.6779 9.68266 18.3936 9.56153 18.0723 9.56153C17.7509 9.56153 17.4715 9.67772 17.2812 9.78155C16.8782 9.3514 16.0921 9.12891 14.9376 9.12891C14.2429 9.12891 13.7436 9.24757 13.39 9.43298H12.2578V10.2414L12.6286 10.3724C12.5915 10.5232 12.5742 10.6789 12.5742 10.8273C12.5742 12.0485 12.9599 12.7555 14.9351 12.7555C16.6038 12.7555 17.2663 12.2784 17.558 10.8693C17.5927 10.6962 17.5976 10.5331 17.5729 10.3773C17.6644 10.318 17.8176 10.2661 18.0698 10.2661C18.3219 10.2661 18.4826 10.3205 18.5741 10.3823C18.5518 10.5355 18.5543 10.6987 18.5914 10.8693C18.8831 12.2784 19.5456 12.7555 21.2143 12.7555C23.1896 12.7555 23.5752 12.0485 23.5752 10.8273C23.5752 10.6789 23.5604 10.5232 23.5208 10.3699L23.8842 10.2414V9.43298L23.8867 9.43546ZM17.1551 10.7877C16.9029 12.0089 16.4258 12.3427 14.9401 12.3427C13.128 12.3427 12.9945 11.7444 12.9945 10.8297C12.9945 10.5133 12.9945 9.5467 14.9401 9.5467C16.2824 9.5467 16.8115 9.85077 17.0191 10.1054C17.165 10.2859 17.212 10.5158 17.1551 10.7877ZM21.2168 12.3427C19.7311 12.3427 19.2539 12.0089 19.0018 10.7877C18.9449 10.5158 18.9919 10.2859 19.1377 10.1054C19.3454 9.85077 19.8744 9.5467 21.2168 9.5467C23.1624 9.5467 23.1624 10.5133 23.1624 10.8297C23.1624 11.7444 23.0264 12.3427 21.2168 12.3427Z" fill="#43414D"/>
<path d="M31.2867 42.9604H5.21072C4.17738 42.9604 3.3418 43.796 3.3418 44.8294C3.3418 45.8627 4.17738 46.6983 5.21072 46.6983H31.2867C32.3201 46.6983 33.1556 45.8627 33.1556 44.8294C33.1556 43.796 32.3201 42.9604 31.2867 42.9604Z" fill="#686671"/>
<path d="M28.1663 42.9808H8.33C8.07289 42.9808 7.86523 42.7731 7.86523 42.516C7.86523 42.2589 8.07289 42.0513 8.33 42.0513H28.1663C28.4234 42.0513 28.6311 42.2589 28.6311 42.516C28.6311 42.7731 28.4234 42.9808 28.1663 42.9808Z" fill="#ADADAE"/>
<path d="M27.395 27.0083H9.1013C8.41864 27.0083 7.86523 27.5617 7.86523 28.2444V40.8473C7.86523 41.5299 8.41864 42.0833 9.1013 42.0833H27.395C28.0777 42.0833 28.6311 41.5299 28.6311 40.8473V28.2444C28.6311 27.5617 28.0777 27.0083 27.395 27.0083Z" fill="#E1E1E1"/>
<path opacity="0.5" d="M19.9465 34.069C19.9465 35.0059 19.1851 35.7673 18.2482 35.7673C17.3112 35.7673 16.5498 35.0059 16.5498 34.069C16.5498 33.132 17.3112 32.3706 18.2482 32.3706C19.1851 32.3706 19.9465 33.1295 19.9465 34.069Z" fill="white"/>
<path opacity="0.2" d="M23.9093 27.0083H8.73048C8.25336 27.0083 7.86523 27.3964 7.86523 27.8735V41.2181C7.86523 41.6952 8.25336 42.0833 8.73048 42.0833H11.7218C12.3348 34.8993 17.2865 28.9712 23.9093 27.0083Z" fill="white"/>
</svg>
