<svg width="37" height="44" viewBox="0 0 37 44" fill="none" xmlns="http://www.w3.org/2000/svg">
<path d="M18.8474 43.6152C28.7528 43.6152 36.7827 35.5853 36.7827 25.6799C36.7827 15.7745 28.7528 7.74463 18.8474 7.74463C8.94201 7.74463 0.912109 15.7745 0.912109 25.6799C0.912109 35.5853 8.94201 43.6152 18.8474 43.6152Z" fill="#F4B350"/>
<g style="mix-blend-mode:multiply">
<path d="M32.752 39.9957H29.3875C29.5803 39.9388 29.7237 39.7633 29.7237 39.5507C29.7237 39.2936 29.516 39.0859 29.2589 39.0859H28.7645C29.3133 38.9598 29.7237 38.4704 29.7237 37.8845V36.8511L31.4294 33.3011C32.0598 32.253 32.1439 30.9675 31.6569 29.8476C31.3849 29.2246 31.0191 28.4681 30.6062 27.6647C31.3924 27.1109 32.0722 26.3174 31.9387 25.3162C31.7731 24.0529 30.3615 23.4522 30.0623 22.1692C29.8572 21.2915 30.2033 20.3571 29.9709 19.4844C29.7632 18.6983 29.0636 18.0234 28.6532 17.3238C27.5902 15.5191 28.6607 14.7355 28.495 12.9506C28.3368 11.2522 26.8684 9.92718 26.5544 8.25108C26.2652 6.706 25.9957 5.15351 25.2367 3.77653C24.6385 2.6888 24.2133 2.35753 23.526 1.86311C22.8808 1.39835 19.274 -1.09356 16.7673 1.57387C15.0219 0.70615 13.4002 2.62452 12.4979 5.77648C12.0826 7.22515 12.2779 8.59224 11.6228 9.98899C11.5956 10.0483 11.5659 10.1076 11.5387 10.1645C10.9355 11.3932 9.87743 12.5452 9.73404 13.9444C9.62774 14.9777 10.1543 16.0457 9.89474 17.0519C9.59067 18.2261 8.54496 18.7032 8.32494 19.8948C8.1074 21.0715 8.72789 22.5968 8.14942 23.645C7.71679 24.4287 6.68839 25.0788 6.55984 25.9639C6.48815 26.4583 6.53512 27.5263 7.8404 28.1245C7.52397 28.7549 7.24215 29.3433 7.0246 29.8451C6.53759 30.965 6.62164 32.253 7.25203 33.2987L8.95781 36.8511V38.2553C8.95781 38.6533 9.22973 38.987 9.59808 39.0859H9.42503C9.16793 39.0859 8.96027 39.2936 8.96027 39.5507C8.96027 39.7633 9.10366 39.9388 9.29649 39.9957H6.6785C5.64515 39.9957 4.80957 40.8312 4.80957 41.8646C4.80957 42.8979 5.64515 43.7335 6.6785 43.7335H32.7545C33.7878 43.7335 34.6234 42.8979 34.6234 41.8646C34.6234 40.8312 33.7878 39.9957 32.7545 39.9957H32.752Z" fill="#C8C8C8"/>
</g>
<path d="M11.0437 10.1655C11.0733 10.1062 11.1005 10.0493 11.1277 9.98996C11.7828 8.59074 11.59 7.22365 12.0028 5.77746C12.9052 2.6255 14.5269 0.707127 16.2722 1.57484C18.7789 -1.09258 22.3858 1.39932 23.031 1.86408C23.7158 2.35851 24.141 2.6873 24.7417 3.77751C25.4982 5.15448 25.7701 6.70698 26.0594 8.25206C26.3733 9.92816 27.8418 11.2532 28 12.9516C28.1656 14.7364 27.0952 15.5201 28.1582 17.3248C28.571 18.0244 29.2682 18.6993 29.4758 19.4854C29.7057 20.3581 29.3596 21.2925 29.5673 22.1701C29.8689 23.4532 31.278 24.0539 31.4437 25.3172C31.6093 26.573 30.5018 27.5025 29.508 28.039C27.9283 28.8918 26.0272 28.788 24.2374 28.6619C19.1473 28.3035 14.025 29.0056 8.94729 28.5186C6.07715 28.2442 5.97086 26.6175 6.0648 25.9673C6.19335 25.0823 7.22175 24.4297 7.65438 23.6485C8.23285 22.6003 7.61236 21.0775 7.8299 19.8983C8.04992 18.7067 9.09563 18.2296 9.3997 17.0553C9.65927 16.0491 9.1327 14.9812 9.239 13.9478C9.38239 12.5486 10.4405 11.3966 11.0437 10.168V10.1655Z" fill="#4F3C30"/>
<path d="M20.9229 19.4289V16.7812H16.7697V19.4289L15.7314 19.5105L16.7697 26.205H20.9229L21.9612 19.5105L20.9229 19.4289Z" fill="#F6CCB8"/>
<g style="mix-blend-mode:multiply">
<path d="M16.7705 16.7983V17.76L20.9237 19.4287V16.7983H16.7705Z" fill="#F6CCB8"/>
</g>
<path d="M31.1625 29.8464C29.9685 27.1073 26.9599 21.8244 26.0501 20.9492C24.5644 19.5228 22.8364 19.5747 21.2715 19.4561L21.2641 19.5228L18.8583 20.8431L16.4286 19.5228L16.4212 19.4561C14.8564 19.5747 13.1283 19.5253 11.6426 20.9492C10.7304 21.8244 7.72428 27.1073 6.53024 29.8464C6.04323 30.9663 6.12728 32.2543 6.75767 33.3L9.81569 39.6657H18.1863L18.8464 37.1738L19.5064 39.6657H27.877L30.9351 33.3C31.5655 32.2518 31.6495 30.9663 31.1625 29.8464Z" fill="#4D6996"/>
<path d="M23.5103 9.78033V7.61969C23.5103 5.32555 20.8552 2.42822 18.7539 2.42822C16.6526 2.42822 13.9975 5.32555 13.9975 7.61969V9.78033C13.4141 9.78033 12.9395 10.2451 12.9395 10.8186V11.8989C12.9395 12.4725 13.4116 12.9372 13.9975 12.9372C13.9975 15.2314 16.6526 18.2128 18.7539 18.2128C20.8552 18.2128 23.5103 15.2314 23.5103 12.9372C24.0937 12.9372 24.5683 12.4725 24.5683 11.8989V10.8186C24.5683 10.2451 24.0961 9.78033 23.5103 9.78033Z" fill="#F6CCB8"/>
<g style="mix-blend-mode:multiply" opacity="0.8">
<path d="M18.7524 14.3691V18.2108C20.8537 18.2108 23.5088 15.2294 23.5088 12.9353C24.0922 12.9353 24.5668 12.4705 24.5668 11.897V10.8167C24.5668 10.2431 24.0946 9.77838 23.5088 9.77838V7.61774C23.5088 5.3236 20.8537 2.42627 18.7524 2.42627V10.8364C17.9811 12.4483 17.6943 14.159 17.6943 14.159L18.7524 14.3666V14.3691Z" fill="#F6CCB8"/>
</g>
<g style="mix-blend-mode:multiply">
<path d="M17.0701 10.9937C17.085 11.4461 16.7315 11.8268 16.2791 11.8416C15.8267 11.8565 15.4459 11.5029 15.4311 11.0505C15.4163 10.5981 15.7698 10.2174 16.2222 10.2026C16.6746 10.1878 17.0553 10.5413 17.0701 10.9937Z" fill="#F6CCB8"/>
</g>
<path d="M17.0701 10.7866C17.085 11.239 16.7315 11.6198 16.2791 11.6346C15.8267 11.6494 15.4459 11.2959 15.4311 10.8435C15.4163 10.3911 15.7698 10.0104 16.2222 9.99557C16.6746 9.98073 17.0553 10.3342 17.0701 10.7866Z" fill="#3C2417"/>
<path d="M16.7338 10.5515C16.7388 10.6652 16.6498 10.7591 16.536 10.7641C16.4223 10.769 16.3284 10.68 16.3234 10.5663C16.3185 10.4526 16.4075 10.3587 16.5212 10.3537C16.6349 10.3488 16.7289 10.4378 16.7338 10.5515Z" fill="white"/>
<path d="M17.2482 10.1582C17.0974 9.8072 16.7093 9.54021 16.2841 9.49572C16.0221 9.46852 15.5326 9.5056 15.1123 10.0396C15.0925 10.0396 15.0728 10.0396 15.0505 10.0396C15.0035 10.0346 14.9393 10.0198 14.875 9.99261C14.7464 9.9407 14.6377 9.83193 14.6377 9.83193C14.6303 9.82451 14.6179 9.82204 14.608 9.82698C14.5956 9.8344 14.5907 9.84923 14.5956 9.86159C14.5956 9.86159 14.613 9.8962 14.6426 9.94812C14.6723 10 14.7217 10.0668 14.7811 10.1236C14.8404 10.183 14.9145 10.2324 14.9739 10.2621C15.0035 10.2769 15.0307 10.2893 15.053 10.2942C15.0728 10.3016 15.0925 10.3041 15.0901 10.3041C15.1469 10.309 15.1988 10.2794 15.2236 10.2324C15.498 9.84676 15.8688 9.65888 16.2619 9.7009C16.6104 9.73798 16.9367 9.96048 17.0579 10.2398C17.0801 10.2917 17.1419 10.3165 17.1939 10.2942C17.2458 10.272 17.2705 10.2102 17.2482 10.1582Z" fill="#3C2417"/>
<g style="mix-blend-mode:multiply">
<path d="M22.2606 10.9937C22.2754 11.4461 21.9219 11.8268 21.4695 11.8416C21.0171 11.8565 20.6364 11.5029 20.6215 11.0505C20.6067 10.5981 20.9602 10.2174 21.4126 10.2026C21.865 10.1878 22.2457 10.5413 22.2606 10.9937Z" fill="#F6CCB8"/>
</g>
<path d="M22.2606 10.7866C22.2754 11.239 21.9219 11.6198 21.4695 11.6346C21.0171 11.6494 20.6364 11.2959 20.6215 10.8435C20.6067 10.3911 20.9602 10.0104 21.4126 9.99557C21.865 9.98073 22.2457 10.3342 22.2606 10.7866Z" fill="#3C2417"/>
<path d="M21.9242 10.552C21.9292 10.6657 21.8402 10.7596 21.7265 10.7646C21.6127 10.7695 21.5188 10.6805 21.5139 10.5668C21.5089 10.4531 21.5979 10.3591 21.7116 10.3542C21.8253 10.3493 21.9193 10.4383 21.9242 10.552Z" fill="white"/>
<path d="M20.4437 10.1582C20.5945 9.8072 20.9826 9.54021 21.4078 9.49572C21.6699 9.46852 22.1594 9.5056 22.5796 10.0396C22.5994 10.0396 22.6192 10.0396 22.6414 10.0396C22.6884 10.0346 22.7527 10.0198 22.817 9.99261C22.9455 9.9407 23.0543 9.83193 23.0543 9.83193C23.0617 9.82451 23.0741 9.82204 23.084 9.82698C23.0963 9.8344 23.1013 9.84923 23.0963 9.86159C23.0963 9.86159 23.079 9.8962 23.0493 9.94812C23.0197 10 22.9702 10.0668 22.9109 10.1236C22.8516 10.183 22.7774 10.2324 22.7181 10.2621C22.6884 10.2769 22.6612 10.2893 22.639 10.2942C22.6192 10.3016 22.5994 10.3041 22.6019 10.3041C22.545 10.309 22.4931 10.2794 22.4684 10.2324C22.194 9.84676 21.8232 9.65888 21.4301 9.7009C21.0815 9.73798 20.7552 9.96048 20.6341 10.2398C20.6118 10.2917 20.55 10.3165 20.4981 10.2942C20.4462 10.272 20.4215 10.2102 20.4437 10.1582Z" fill="#3C2417"/>
<path d="M25.4081 10.7299C24.3846 9.54327 24.6664 8.40115 24.5503 8.02291C24.214 6.91046 24.2907 5.85239 23.8358 4.78195C22.4366 1.47178 15.5888 0.193686 13.5765 6.374C13.26 7.34555 13.6877 9.06368 14.1055 9.99567C14.3873 9.89679 15.967 7.48152 16.6815 5.80542C18.4391 8.83624 23.3834 10.3789 25.4056 10.7324L25.4081 10.7299Z" fill="#4F3C30"/>
<path d="M20.4983 14.9751C20.4983 15.7909 19.7542 16.451 18.8371 16.451C17.9199 16.451 17.1758 15.7909 17.1758 14.9751H20.4983Z" fill="#F05D44"/>
<path d="M17.4355 14.9756H20.2043V15.2821C20.2043 15.4181 20.0931 15.5293 19.9571 15.5293H17.6828C17.5468 15.5293 17.4355 15.4181 17.4355 15.2821V14.9756Z" fill="white"/>
<path d="M32.2574 39.9961H6.18143C5.14808 39.9961 4.3125 40.8317 4.3125 41.865C4.3125 42.8984 5.14808 43.7339 6.18143 43.7339H32.2574C33.2908 43.7339 34.1264 42.8984 34.1264 41.865C34.1264 40.8317 33.2908 39.9961 32.2574 39.9961Z" fill="#686671"/>
<path d="M28.7659 40.0155H8.92959C8.67249 40.0155 8.46484 39.8078 8.46484 39.5507C8.46484 39.2936 8.67249 39.0859 8.92959 39.0859H28.7659C29.023 39.0859 29.2307 39.2936 29.2307 39.5507C29.2307 39.8078 29.023 40.0155 28.7659 40.0155Z" fill="#ADADAE"/>
<path d="M27.9946 24.0459H9.70091C9.01825 24.0459 8.46484 24.5993 8.46484 25.282V37.8849C8.46484 38.5675 9.01825 39.1209 9.70091 39.1209H27.9946C28.6773 39.1209 29.2307 38.5675 29.2307 37.8849V25.282C29.2307 24.5993 28.6773 24.0459 27.9946 24.0459Z" fill="#F7CDB9"/>
<path opacity="0.5" d="M18.8478 32.802C19.7857 32.802 20.5461 32.0416 20.5461 31.1036C20.5461 30.1657 19.7857 29.4053 18.8478 29.4053C17.9098 29.4053 17.1494 30.1657 17.1494 31.1036C17.1494 32.0416 17.9098 32.802 18.8478 32.802Z" fill="white"/>
<path opacity="0.2" d="M24.5089 24.0459H9.33009C8.85297 24.0459 8.46484 24.434 8.46484 24.9111V38.2557C8.46484 38.7328 8.85297 39.1209 9.33009 39.1209H12.3214C12.9344 31.9369 17.8861 26.0088 24.5089 24.0459Z" fill="white"/>
</svg>
