<svg width="37" height="46" viewBox="0 0 37 46" fill="none" xmlns="http://www.w3.org/2000/svg">
<path d="M18.448 45.0981C28.3534 45.0981 36.3833 37.0682 36.3833 27.1628C36.3833 17.2574 28.3534 9.22754 18.448 9.22754C8.54259 9.22754 0.512695 17.2574 0.512695 27.1628C0.512695 37.0682 8.54259 45.0981 18.448 45.0981Z" fill="#FF7A7D"/>
<path d="M26.2485 10.6416C26.2238 10.5823 26.1966 10.5205 26.1743 10.4612C25.5934 9.02982 25.8579 7.67509 25.5217 6.20665C24.7875 3.01266 23.2671 1.01271 21.4773 1.78648C19.114 -1.00702 15.381 1.2896 14.7136 1.72222C14.0041 2.17956 13.5616 2.4861 12.9064 3.5417C12.0783 4.87665 11.7272 6.41431 11.3564 7.93961C10.9559 9.59841 9.42075 10.8419 9.17353 12.5304C8.91396 14.3053 9.94236 15.1409 8.78541 16.8887C8.33795 17.5661 7.60373 18.2039 7.35652 18.9777C7.07964 19.8355 7.3763 20.7873 7.12414 21.6525C6.75579 22.9158 5.31701 23.4423 5.08463 24.6957C4.85473 25.9392 5.91032 26.928 6.87693 27.5164C8.40964 28.4508 10.3132 28.4459 12.1079 28.4138C17.2079 28.3223 22.2882 29.2914 27.3857 29.0713C30.2657 28.9477 30.4585 27.3285 30.3967 26.6759C30.3152 25.7834 29.3214 25.0813 28.9308 24.2754C28.4067 23.1976 29.1063 21.7094 28.953 20.5203C28.7948 19.3188 27.7763 18.7873 27.534 17.5982C27.3264 16.5797 27.9073 15.5414 27.8554 14.5031C27.7862 13.0989 26.7899 11.8925 26.251 10.6342L26.2485 10.6416Z" fill="#3C2415"/>
<path d="M20.1944 20.4655V17.8179H16.0412V20.4655L15.0029 20.7548L16.0412 27.2416H20.1944L21.2327 20.7548L20.1944 20.4655Z" fill="#F2AE75"/>
<g style="mix-blend-mode:multiply">
<path d="M16.042 17.8354V18.7971L20.1952 20.4658V17.8354H16.042Z" fill="#DEB4A0"/>
</g>
<mask id="mask0_1358_4925" style="mask-type:alpha" maskUnits="userSpaceOnUse" x="0" y="9" width="37" height="37">
<path d="M18.4489 45.0981C28.3543 45.0981 36.3842 37.0682 36.3842 27.1628C36.3842 17.2574 28.3543 9.22754 18.4489 9.22754C8.54357 9.22754 0.513672 17.2574 0.513672 27.1628C0.513672 37.0682 8.54357 45.0981 18.4489 45.0981Z" fill="#FF7A7D"/>
</mask>
<g mask="url(#mask0_1358_4925)">
<g style="mix-blend-mode:multiply">
<path d="M30.8891 26.6808C30.8272 26.0109 30.2512 25.4472 29.8013 24.8663L29.2426 22.9108C29.3094 22.1148 29.5393 21.2619 29.4429 20.5277C29.2846 19.3262 28.2661 18.7947 28.0239 17.6056C27.8162 16.5871 28.3971 15.5488 28.3452 14.5105C28.276 13.1064 27.2797 11.9 26.7408 10.6416C26.7161 10.5823 26.6889 10.5205 26.6667 10.4612C26.0857 9.02982 26.3502 7.67509 26.014 6.20665C25.2798 3.01266 23.7594 1.01271 21.9696 1.78648C19.6063 -1.00702 15.8734 1.2896 15.2059 1.72222C14.4964 2.17956 14.0539 2.4861 13.3988 3.5417C12.5706 4.87665 12.2195 6.41431 11.8487 7.93961C11.4482 9.59841 9.91305 10.8419 9.66584 12.5304C9.40627 14.3053 10.4347 15.1409 9.27772 16.8887C8.83026 17.5661 8.09604 18.2039 7.84883 18.9777C7.57195 19.8355 7.86861 20.7873 7.61645 21.6525C7.2481 22.9158 5.80932 23.4423 5.57694 24.6957C5.3767 25.776 6.14801 26.6635 6.98606 27.2618C6.63996 27.8279 6.38286 28.3149 6.23453 28.6585C5.85135 29.5411 5.4657 30.7425 5.88596 32.2134C6.19498 33.2938 6.6721 34.2851 7.09978 35.1083C7.88344 36.6237 8.88218 38.3493 10.269 39.5532L10.4149 39.3455C10.8549 39.6867 11.3963 40.06 11.8611 40.2973C11.6856 40.8955 11.4927 41.5136 11.2777 42.1489H11.5743C11.3642 43.3182 11.2134 44.846 11.2431 46.7841H25.9769C26.0066 44.846 25.8558 43.3182 25.6457 42.1489H25.9399C23.9844 36.3518 23.7075 31.8525 23.7075 31.8525C24.2786 31.2691 25.0548 30.3396 25.2106 29.0862C26.0981 29.1084 26.9856 29.1084 27.8731 29.0689C30.7531 28.9453 30.9459 27.326 30.8841 26.6734L30.8891 26.6808ZM9.15164 29.9292C9.32716 29.5238 9.76473 28.97 10.3284 28.3767C10.8797 28.4237 11.4384 28.4311 11.9921 28.4261C11.8957 30.0207 12.8475 31.1751 13.5149 31.8574C13.5149 31.8574 13.379 34.0428 12.6373 37.3283C12.578 37.2516 12.4915 37.1972 12.3877 37.1997C12.3184 37.1997 12.1207 37.2319 11.8759 37.2887L11.9476 37.1874C11.1615 36.1837 10.6201 34.9946 9.92789 33.6547C9.57437 32.9699 9.17883 32.159 8.94645 31.3457C8.84509 30.9873 8.8451 30.6387 9.15411 29.9267L9.15164 29.9292Z" fill="#C8C8C8"/>
</g>
<path d="M25.4851 46.791C25.5716 41.1917 24.1501 39.0112 24.1501 39.0112H12.0837C12.0837 39.0112 10.6647 41.1892 10.7487 46.791H25.4826H25.4851Z" fill="#1A1718"/>
</g>
<path d="M23.2145 31.8593C24.2009 30.8532 25.8078 28.8137 23.746 25.8545C22.4209 23.9535 26.3838 20.8509 20.5372 20.5469L18.117 27.1722L15.6968 20.5469C9.85264 20.8534 13.8155 23.9559 12.4879 25.8545C10.4237 28.8112 12.0331 30.8532 13.0194 31.8593C13.0194 31.8593 12.7426 36.3611 10.7871 42.1557H17.4272L18.1194 39.6638L18.8116 42.1557H25.4518C23.4963 36.3586 23.2194 31.8593 23.2194 31.8593H23.2145Z" fill="#32303A"/>
<path d="M11.8893 37.2017C11.6025 37.2017 9.1576 37.7381 10.0426 38.3883C10.3516 38.6157 11.0513 38.1089 11.3924 38.0397C11.6421 37.9878 12.0228 38.0595 12.1785 37.8148C12.3195 37.5948 12.1785 37.1992 11.8893 37.2017Z" fill="#F2AE75"/>
<path d="M12.0271 37.7109C11.2385 37.6491 10.2348 36.5861 10.1013 36.6455C10.042 36.6702 9.02097 38.4031 9.08277 38.591C9.14952 38.7962 11.1915 40.4624 12.032 40.5391C12.7415 40.6033 13.6982 39.9507 13.7996 39.1028C13.8861 38.3858 12.739 37.7604 12.0271 37.7109Z" fill="#F2AE75"/>
<path d="M9.7766 39.563C8.38727 38.359 7.38853 36.631 6.60734 35.1181C6.17966 34.2924 5.70254 33.3035 5.39352 32.2232C4.97326 30.7523 5.35891 29.5509 5.74209 28.6683C6.48868 26.9428 9.91999 21.6005 14.1201 20.7427L14.0237 25.0096C12.5083 25.7734 9.22285 28.6263 8.65673 29.9316C8.34771 30.646 8.34524 30.9921 8.44907 31.3506C8.68145 32.1639 9.07452 32.9723 9.43051 33.6595C10.1227 34.9994 10.6666 36.1885 11.4502 37.1922L9.77908 39.5654L9.7766 39.563Z" fill="#32303A"/>
<path d="M22.9146 22.1811L20.6378 23.0414L21.5302 24.2874L18.1162 27.1699L20.5414 20.4927L22.9146 22.1811Z" fill="white"/>
<path d="M13.3154 22.1813L15.6936 20.52L18.1163 27.17L14.6998 24.2875L15.5923 23.0416L13.3154 22.1813Z" fill="white"/>
<path d="M23.2004 10.8636L23.3141 8.70785C23.4352 6.41619 20.9335 3.38536 18.8346 3.27412C16.7358 3.16535 13.9324 5.9193 13.8113 8.20849L13.6975 10.3642C13.1141 10.3345 12.6172 10.7721 12.5876 11.3456L12.5307 12.4235C12.501 12.997 12.9485 13.484 13.5319 13.5161C13.4108 15.8078 15.9076 18.9227 18.0065 19.0315C20.1053 19.1402 22.9136 16.3047 23.0323 14.013C23.6157 14.0427 24.1126 13.6051 24.1423 13.0316L24.1991 11.9538C24.2288 11.3802 23.7813 10.8932 23.1979 10.8611L23.2004 10.8636Z" fill="#F2AE75"/>
<g style="mix-blend-mode:multiply" opacity="0.8">
<path d="M18.2093 15.1994L18.009 19.0362C20.1078 19.1474 22.9162 16.3094 23.0349 14.0178C23.6183 14.0474 24.1152 13.6099 24.1448 13.0363L24.2017 11.9585C24.2314 11.3849 23.7839 10.8979 23.2005 10.8658L23.3142 8.7101C23.4353 6.41844 20.9335 3.38761 18.8347 3.27637L18.3947 11.6742C17.5393 13.2415 17.166 14.9374 17.166 14.9374L18.2117 15.1994H18.2093Z" fill="#F6CCB8"/>
</g>
<g style="mix-blend-mode:multiply">
<path d="M16.6948 11.7238C16.6874 12.1762 16.3141 12.5372 15.8617 12.5298C15.4093 12.5223 15.0484 12.1491 15.0558 11.6967C15.0632 11.2443 15.4365 10.8833 15.8889 10.8907C16.3413 10.8982 16.7022 11.2714 16.6948 11.7238Z" fill="#F6CCB8"/>
</g>
<path d="M16.7055 11.5163C16.6981 11.9687 16.3248 12.3296 15.8724 12.3222C15.42 12.3148 15.0591 11.9415 15.0665 11.4891C15.0739 11.0367 15.4472 10.6758 15.8996 10.6832C16.352 10.6906 16.713 11.0639 16.7055 11.5163Z" fill="#3C2417"/>
<path d="M16.3816 11.2644C16.3816 11.3781 16.2852 11.4671 16.1739 11.4646C16.0627 11.4621 15.9712 11.3682 15.9737 11.2569C15.9762 11.1457 16.0701 11.0542 16.1813 11.0567C16.2951 11.0567 16.3841 11.1531 16.3816 11.2644Z" fill="white"/>
<path d="M16.9151 10.9009C16.7816 10.5425 16.4083 10.2557 15.9856 10.189C15.726 10.147 15.2365 10.1593 14.7866 10.671C14.7668 10.671 14.747 10.6711 14.7248 10.6686C14.6778 10.6612 14.6135 10.6439 14.5517 10.6142C14.4256 10.5549 14.3243 10.4411 14.3243 10.4411C14.3169 10.4337 14.3045 10.4313 14.2946 10.4337C14.2823 10.4387 14.2748 10.4535 14.2823 10.4683C14.2823 10.4683 14.2971 10.5054 14.3243 10.5573C14.3515 10.6117 14.396 10.6785 14.4553 10.7403C14.5122 10.8021 14.5814 10.8565 14.6407 10.8886C14.6704 10.9059 14.6976 10.9183 14.7173 10.9257C14.7371 10.9331 14.7569 10.938 14.7544 10.938C14.8113 10.9479 14.8632 10.9183 14.8904 10.8738C15.1846 10.5029 15.5628 10.3348 15.9534 10.3966C16.2995 10.451 16.6135 10.6908 16.7198 10.9776C16.7395 11.032 16.7989 11.0592 16.8533 11.0394C16.9077 11.0196 16.9349 10.9603 16.9151 10.9059V10.9009Z" fill="#3C2417"/>
<g style="mix-blend-mode:multiply">
<path d="M21.8784 11.9968C21.871 12.4492 21.4977 12.8101 21.0453 12.8027C20.5929 12.7953 20.232 12.422 20.2394 11.9696C20.2468 11.5172 20.6201 11.1563 21.0725 11.1637C21.5249 11.1711 21.8858 11.5444 21.8784 11.9968Z" fill="#F6CCB8"/>
</g>
<path d="M21.8882 11.7893C21.8807 12.2417 21.5075 12.6026 21.0551 12.5952C20.6027 12.5878 20.2417 12.2145 20.2491 11.7621C20.2566 11.3097 20.6298 10.9488 21.0822 10.9562C21.5346 10.9636 21.8956 11.3369 21.8882 11.7893Z" fill="#3C2417"/>
<path d="M21.5652 11.5368C21.5652 11.6505 21.4688 11.7395 21.3575 11.737C21.2463 11.7346 21.1548 11.6406 21.1573 11.5294C21.1573 11.4157 21.2537 11.3267 21.3649 11.3292C21.4787 11.3292 21.5676 11.4256 21.5652 11.5368Z" fill="white"/>
<path d="M20.1087 11.067C20.2793 10.7234 20.6798 10.4787 21.1074 10.4564C21.3695 10.4416 21.8565 10.5059 22.2496 11.0596C22.2693 11.0621 22.2891 11.0646 22.3114 11.0621C22.3583 11.0621 22.4251 11.0497 22.4894 11.025C22.6204 10.9805 22.7341 10.8767 22.7341 10.8767C22.7415 10.8693 22.7539 10.8668 22.7638 10.8742C22.7761 10.8816 22.7811 10.8965 22.7736 10.9088C22.7736 10.9088 22.7563 10.9434 22.7217 10.9929C22.6896 11.0423 22.6377 11.1066 22.5734 11.161C22.5091 11.2154 22.435 11.2623 22.3732 11.2895C22.3435 11.3044 22.3138 11.3118 22.2941 11.3192C22.2743 11.3241 22.2545 11.3266 22.257 11.3266C22.2001 11.3291 22.1507 11.2969 22.1284 11.2475C21.8738 10.8495 21.5153 10.6394 21.1198 10.6616C20.7712 10.6814 20.4325 10.8841 20.2966 11.1585C20.2719 11.2104 20.2076 11.2302 20.1581 11.2055C20.1062 11.1808 20.0864 11.119 20.1112 11.067H20.1087Z" fill="#3C2417"/>
<path d="M23.9137 10.4284L23.1844 10.3913C22.7815 10.0872 22.0201 10.0477 21.3303 10.0131C20.1684 9.95128 19.3798 10.1392 18.9818 10.5668C18.8557 10.4853 18.6679 10.4556 18.4528 10.4432C18.2377 10.4309 18.0474 10.4432 17.9139 10.51C17.5628 10.0428 16.7965 9.77328 15.6346 9.71395C14.9448 9.67687 14.1834 9.63731 13.7508 9.89689L13.0215 9.85981L12.9795 10.6484L13.286 10.8412C13.2292 12.0699 13.7533 13.5285 15.4294 13.615C16.8088 13.6867 17.7013 12.9846 18.0844 11.526C18.1116 11.4197 18.1265 11.3184 18.1289 11.217C18.1537 11.1354 18.2649 11.0613 18.4182 11.0687C18.5714 11.0761 18.6753 11.1626 18.6926 11.2467C18.6852 11.3456 18.6901 11.4494 18.7049 11.5582C18.9324 13.0489 19.7482 13.8424 21.1252 13.9141C22.8013 14.0031 23.4761 12.6088 23.5478 11.3802L23.8717 11.222L23.9137 10.4333V10.4284ZM17.721 11.4271C17.3848 12.7077 16.6407 13.301 15.4467 13.2392C13.6272 13.1428 13.6371 11.222 13.6569 10.8363C13.6865 10.2455 15.0042 10.2628 15.5999 10.2924C16.9126 10.3617 17.8718 10.8808 17.7186 11.4271H17.721ZM21.1449 13.5359C19.9509 13.4741 19.2735 12.8066 19.0733 11.4964C18.9793 10.9377 19.9855 10.5223 21.2982 10.5916C21.894 10.6237 23.2067 10.7448 23.1745 11.3357C23.1548 11.7188 22.9619 13.6323 21.1425 13.5383L21.1449 13.5359Z" fill="#383643"/>
<path d="M24.9161 7.13323C24.1843 3.23715 21.5465 1.37318 18.9434 1.30149C16.3477 1.10124 13.5294 2.68093 12.3947 6.47812C11.3985 9.81055 11.1166 12.9056 12.3527 17.9859C14.7902 16.5545 10.9856 4.15679 18.6393 7.12087C26.5625 4.97259 21.4823 16.9055 23.7566 18.5816C25.5168 13.6596 25.5588 10.5497 24.9161 7.13323Z" fill="#3C2415"/>
<path d="M19.9102 15.8796C19.8682 16.6929 19.0895 17.3159 18.1748 17.2665C17.2576 17.2195 16.5506 16.5199 16.5926 15.7041L19.9102 15.8771V15.8796Z" fill="#F05D44"/>
<path d="M16.8516 15.7188L19.6166 15.8637L19.6005 16.1698C19.5934 16.3056 19.4765 16.4108 19.3407 16.4037L17.0695 16.2847C16.9337 16.2776 16.8284 16.1607 16.8355 16.0249L16.8516 15.7188Z" fill="white"/>
<path d="M26.5668 13.7178L25.3344 18.4933C25.1707 19.1276 24.5233 19.5094 23.8889 19.3457L23.7741 19.3161C23.1397 19.1524 22.7579 18.5049 22.9216 17.8706L24.1539 13.0952C24.3176 12.4608 24.9651 12.079 25.5994 12.2427L25.7143 12.2723C26.3486 12.436 26.7305 13.0835 26.5668 13.7178Z" fill="#686671"/>
<g style="mix-blend-mode:multiply">
<path d="M22.9398 17.8207L24.1412 13.1608C24.3143 12.4933 24.9916 12.0928 25.6591 12.2659C25.9434 12.34 26.1758 12.5081 26.339 12.7257C26.2153 12.6367 26.0744 12.565 25.9187 12.5254C25.2512 12.3524 24.5739 12.7553 24.4008 13.4203L23.1994 18.0803C23.1005 18.4635 23.1944 18.8467 23.4144 19.1384C23.0139 18.8467 22.8063 18.33 22.9398 17.8207Z" fill="#C8C8C8"/>
</g>
<path d="M25.7942 13.1711L25.861 12.914C25.8882 12.8077 25.8239 12.699 25.7176 12.6718C25.6113 12.6446 25.5025 12.7088 25.4753 12.8152L25.4086 13.0722C25.3814 13.1785 25.4457 13.2873 25.552 13.3145C25.6583 13.3417 25.767 13.2774 25.7942 13.1711Z" fill="#383643"/>
<path d="M23.208 16.4764L24.7358 18.5554L27.0695 17.6803L26.3723 14.9362C26.1696 14.3948 25.1486 14.1501 24.5059 14.3924C23.8631 14.6347 23.0053 15.9325 23.208 16.4764Z" fill="#F2AE75"/>
<path d="M28.3426 28.4146C28.6837 28.4146 29.0224 28.2984 29.2968 28.0709C29.7888 27.6655 29.9668 26.9906 29.7443 26.3948L26.9854 16.7437L24.1845 17.7918L25.6331 23.3887C25.6331 23.3887 24.1474 21.5371 22.9163 20.9957L22.3848 25.6631L27.5663 28.1945C27.8061 28.3404 28.0756 28.4121 28.3426 28.4121V28.4146Z" fill="#32303A"/>
</svg>
