<svg width="37" height="45" viewBox="0 0 37 45" fill="none" xmlns="http://www.w3.org/2000/svg">
<path d="M18.2468 44.2822C28.1522 44.2822 36.1821 36.2523 36.1821 26.3469C36.1821 16.4415 28.1522 8.41162 18.2468 8.41162C8.34142 8.41162 0.311523 16.4415 0.311523 26.3469C0.311523 36.2523 8.34142 44.2822 18.2468 44.2822Z" fill="#C0B2DA"/>
<path d="M21.29 18.8818H15.2012V21.4652H21.29V18.8818Z" fill="#32303A"/>
<path d="M21.5168 19.6577L20.7406 19.2992V16.832H15.7568V19.2992L14.9756 19.6354L15.1833 26.6365H15.7568V27.7094H20.7406V26.6365H21.3092L21.5168 19.6577Z" fill="#F7CDB9"/>
<g style="mix-blend-mode:multiply">
<path d="M15.7568 16.832V18.7677L20.7407 19.136V16.832H15.7568Z" fill="#DEB4A0"/>
</g>
<path d="M21.5867 19.6748L21.4013 20.3695C21.0799 21.2866 20.2592 22.7897 18.3087 22.7897C16.1085 22.7897 15.268 20.8787 15.0084 20.0506L14.9095 19.6748C10.8552 21.1976 12.0987 33.892 12.0987 33.892L12.074 44.4356H24.7758L24.6052 33.892C24.6052 33.892 25.641 21.1976 21.5867 19.6748Z" fill="white"/>
<path d="M19.4458 22.4463L18.9687 23.361H17.5126L17.0479 22.4463L18.2468 21.4648L19.4458 22.4463Z" fill="#96281B"/>
<path d="M18.2469 21.4645L16.7142 23.0788L14.0938 19.9515L15.7303 19.1382L16.3459 19.7068L18.2494 21.4645H18.2469Z" fill="#E6E7E8"/>
<path d="M20.7662 19.1382L18.2471 21.4645L19.7798 23.0788L22.4003 19.9515L20.7662 19.1382Z" fill="#E6E7E8"/>
<path d="M18.9681 23.5811L19.559 42.6609L18.2463 44.1121L16.9336 42.6609L17.5121 23.5811H18.9681Z" fill="#96281B"/>
<mask id="mask0_1358_4872" style="mask-type:alpha" maskUnits="userSpaceOnUse" x="0" y="8" width="37" height="37">
<path d="M18.2478 44.2827C28.1532 44.2827 36.1831 36.2528 36.1831 26.3474C36.1831 16.442 28.1532 8.41211 18.2478 8.41211C8.3424 8.41211 0.3125 16.442 0.3125 26.3474C0.3125 36.2528 8.3424 44.2827 18.2478 44.2827Z" fill="#C0B2DA"/>
</mask>
<g mask="url(#mask0_1358_4872)">
<g style="mix-blend-mode:multiply">
<path d="M34.2182 29.3909C32.8363 26.5751 30.5793 24.0239 28.4681 22.0314C27.6251 21.1637 26.0429 20.8052 23.8823 20.1155L23.8872 19.9597L21.7909 18.8819H21.2396V17.1316L21.247 17.1267C21.247 17.1267 21.2692 17.1118 21.2791 17.1044C21.4101 17.0129 21.5412 16.9141 21.6697 16.8127C21.6747 16.8078 21.6796 16.8053 21.6846 16.8003C21.8181 16.6916 21.9491 16.5803 22.0776 16.4617C22.1147 16.4271 22.1493 16.3924 22.1839 16.3603C22.2136 16.3306 22.2433 16.3035 22.2729 16.2763C22.2976 16.2515 22.3199 16.2268 22.3446 16.2021C22.3842 16.1625 22.4237 16.123 22.4608 16.081C22.4756 16.0637 22.4929 16.0463 22.5078 16.029C22.5523 15.9796 22.5992 15.9302 22.6413 15.8807C22.6536 15.8659 22.6635 15.8535 22.6759 15.8387C22.7822 15.7151 22.8835 15.5865 22.9775 15.458C23.0071 15.4159 23.0368 15.3739 23.064 15.3344C23.0862 15.3022 23.1085 15.2701 23.1307 15.238C23.1431 15.2207 23.153 15.2009 23.1654 15.1836C23.2519 15.0526 23.331 14.9191 23.4051 14.7831C23.4299 14.7361 23.4521 14.6891 23.4769 14.6422C23.4917 14.61 23.509 14.5779 23.5263 14.5482C23.5312 14.5359 23.5362 14.526 23.5411 14.5136C23.6005 14.3876 23.6524 14.259 23.6993 14.1304C23.7265 14.0588 23.7488 13.9871 23.771 13.9129C23.7809 13.8808 23.7908 13.8511 23.8007 13.819V13.8115C23.8551 13.6187 23.8946 13.4259 23.9169 13.2306C23.9342 13.0922 23.9441 12.9537 23.9441 12.8153C24.5151 12.8103 24.975 12.348 24.975 11.777V10.6967C24.975 10.3951 24.8464 10.1281 24.6412 9.93772C25.1134 8.63738 25.6573 6.4718 24.9824 4.59792C25.2098 3.90573 25.0219 2.80563 24.352 1.07514C24.2234 0.741406 23.7883 0.684551 23.5658 0.963902C22.933 1.75745 22.0257 1.75004 20.7204 1.03806C18.7996 -0.0101192 17.2718 0.286538 16.2583 1.10234C10.9283 1.94039 12.0803 7.42109 12.8912 9.89816C12.8887 9.90064 12.8838 9.90311 12.8813 9.90558C12.6564 10.0959 12.5154 10.3802 12.5154 10.6967V11.777C12.5154 12.348 12.9753 12.8103 13.5463 12.8153C13.5463 14.5112 14.8219 16.1502 16.2533 17.1415V18.8918H15.6995L13.6032 19.9696L13.6081 20.1254C11.4475 20.8151 9.86533 21.1735 9.02233 22.0437C6.91113 24.0338 4.65408 26.585 3.27216 29.4008C1.60842 32.7901 3.1881 34.7974 3.94457 35.413C5.02242 36.2906 8.62679 36.0978 9.90488 36.0978C9.91971 36.0978 9.93207 36.0978 9.9469 36.0978C9.96668 41.1112 9.95432 47.2298 9.80847 49.4571H18.1222L18.7452 46.5499L19.3682 49.4571H27.6819C27.5361 47.2273 27.5262 41.1088 27.5435 36.0953C27.5583 36.0953 27.5707 36.0953 27.5855 36.0953C28.8636 36.0953 32.468 36.2881 33.5458 35.4105C34.3023 34.795 35.8844 32.7876 34.2182 29.3983V29.3909ZM6.92596 31.8828C6.91112 31.8704 6.69112 31.6603 7.24735 31.0398C8.41913 29.7345 9.03963 29.3093 9.83813 28.6937C9.87274 28.7209 9.89251 28.7333 9.89498 28.7308C9.89498 28.7308 9.90734 29.9966 9.92217 31.9149C8.76522 32.0064 7.20036 32.1053 6.92596 31.8828ZM30.562 31.8828C30.2876 32.1078 28.7227 32.0064 27.5658 31.9149C27.5806 29.9966 27.5929 28.7308 27.5929 28.7308C27.5929 28.7308 27.6127 28.7209 27.6473 28.6937C28.4508 29.3118 29.0441 29.7048 30.2406 31.0373C30.7993 31.6578 30.5768 31.868 30.562 31.8803V31.8828Z" fill="#C8C8C8"/>
</g>
<path d="M28.618 23.3486C28.22 21.0224 25.6415 21.0199 21.5872 19.4971L18.2474 33.0147L14.9076 19.4971C10.8533 21.0199 8.27484 21.0199 7.87682 23.3486C7.23407 27.1087 9.38234 28.7527 9.39717 28.7305C9.39717 28.7305 9.5727 45.4247 9.31065 49.4494H17.6244L18.2474 46.5421L18.8704 49.4494H27.1841C26.9221 45.4247 27.0976 28.7305 27.0976 28.7305C27.1149 28.7527 29.2607 27.1087 28.618 23.3486Z" fill="#32303A"/>
</g>
<path d="M13.1045 19.9617L13.1861 22.3423L14.3752 23.3213L13.4506 24.5845L18.2144 33.017L15.2009 18.8813L13.1045 19.9617Z" fill="#4F4C4D"/>
<path d="M23.3892 19.9617L23.3076 22.3423L22.1185 23.3213L23.0431 24.5845L18.2793 33.017L21.2928 18.8813L23.3892 19.9617Z" fill="#4F4C4D"/>
<path d="M23.2271 36.8317H13.2768C12.4733 36.8317 11.8232 36.1816 11.8232 35.3781L11.2002 27.0718C11.2002 26.2683 11.8504 25.6182 12.6538 25.6182H23.8501C24.6535 25.6182 25.3037 26.2683 25.3037 27.0718L24.6807 35.3781C24.6807 36.1816 24.0305 36.8317 23.2271 36.8317Z" fill="#E6E7E8"/>
<g style="mix-blend-mode:multiply">
<path d="M23.8787 25.6182H12.6281C12.1287 25.6182 11.6912 25.8753 11.4365 26.2609C11.6615 26.1126 11.931 26.0261 12.2202 26.0261H23.4708C24.2594 26.0261 24.8973 26.6639 24.8973 27.4525L24.2743 35.8107C24.2743 36.1 24.1878 36.3694 24.0394 36.5944C24.4276 36.3398 24.6822 35.8997 24.6822 35.4028L25.3052 27.0446C25.3052 26.256 24.6673 25.6182 23.8787 25.6182Z" fill="#C8C8C8"/>
</g>
<path d="M12.9948 30.6123H12.9379C12.6157 30.6123 12.3545 30.8735 12.3545 31.1957V31.2526C12.3545 31.5748 12.6157 31.836 12.9379 31.836H12.9948C13.317 31.836 13.5782 31.5748 13.5782 31.2526V31.1957C13.5782 30.8735 13.317 30.6123 12.9948 30.6123Z" fill="#686671"/>
<path d="M12.2407 32.0705C12.2407 32.0705 11.2642 32.1793 10.5053 32.2362C10.3174 32.2485 10.127 32.2584 9.95152 32.2708C9.776 32.2757 9.61284 32.2807 9.47193 32.2856H9.01212L8.94043 35.398C8.94043 35.398 9.17034 35.398 9.51644 35.398C9.68454 35.3931 9.8823 35.3857 10.0924 35.3807C10.2976 35.3684 10.5201 35.356 10.7401 35.3412C11.6128 35.2769 12.656 35.1582 12.656 35.1582C13.326 35.0692 13.7388 34.288 13.5979 33.445C13.4545 32.5946 12.8464 31.9939 12.2432 32.0705H12.2407Z" fill="#F7CDB9"/>
<path d="M11.2044 31.2643C10.6902 31.3236 10.2897 31.687 9.9881 32.0504C9.69145 32.4064 9.49863 32.7649 9.48379 32.7945C9.36266 33.0195 9.39231 33.3508 9.56289 33.5213C9.73346 33.6895 9.98069 33.645 10.0969 33.4101C10.0969 33.4052 10.134 33.3384 10.1958 33.2371C10.2576 33.1382 10.3466 33.0071 10.4529 32.8737C10.6704 32.6067 10.9621 32.3347 11.3132 32.2952C11.5159 32.2729 11.6518 32.0232 11.6172 31.7389C11.5826 31.4547 11.3947 31.242 11.2019 31.2643H11.2044Z" fill="#F7CDB9"/>
<path d="M9.40598 36.0897C8.12789 36.0897 4.52352 36.2825 3.44567 35.4049C2.6892 34.7894 1.10704 32.782 2.77326 29.3927C4.15518 26.577 6.41223 24.0257 8.52343 22.0332L11.0252 27.2617C9.06482 29.1109 8.59265 28.9922 6.74844 31.0441C6.18974 31.6646 6.41224 31.8747 6.42707 31.8871C6.72125 32.1269 8.50118 31.9934 9.6705 31.8995L9.96962 36.0403C9.58397 36.0724 9.80894 36.0947 9.40598 36.0947V36.0897Z" fill="#32303A"/>
<path d="M24.2519 32.071C24.2519 32.071 25.2284 32.1798 25.9874 32.2367C26.1752 32.249 26.3656 32.2589 26.5411 32.2713C26.7166 32.2762 26.8798 32.2812 27.0207 32.2861H27.4805L27.5522 35.3985C27.5522 35.3985 27.3223 35.3985 26.9762 35.3985C26.8081 35.3936 26.6103 35.3862 26.4002 35.3812C26.195 35.3689 25.9725 35.3565 25.7525 35.3417C24.8798 35.2774 23.8366 35.1587 23.8366 35.1587C23.1666 35.0697 22.7538 34.2885 22.8947 33.4455C23.0381 32.5951 23.6462 31.9944 24.2494 32.071H24.2519Z" fill="#F7CDB9"/>
<path d="M25.2873 31.2648C25.8015 31.3241 26.202 31.6875 26.5036 32.0509C26.8003 32.4069 26.9931 32.7654 27.008 32.795C27.1291 33.02 27.0994 33.3513 26.9288 33.5218C26.7583 33.6899 26.5111 33.6454 26.3949 33.4106C26.3949 33.4057 26.3578 33.3389 26.296 33.2375C26.2342 33.1387 26.1452 33.0076 26.0389 32.8741C25.8213 32.6071 25.5296 32.3352 25.1786 32.2957C24.9759 32.2734 24.8399 32.0237 24.8745 31.7394C24.9091 31.4551 25.097 31.2425 25.2898 31.2648H25.2873Z" fill="#F7CDB9"/>
<path d="M27.0871 36.0902C28.3652 36.0902 31.9696 36.283 33.0474 35.4054C33.8039 34.7899 35.3861 32.7825 33.7199 29.3932C32.338 26.5775 30.0809 24.0262 27.9697 22.0337L25.5371 27.3191C27.4975 29.1683 27.9005 28.9927 29.7422 31.0421C30.3009 31.6626 30.0784 31.8728 30.0636 31.8851C29.7694 32.1249 27.9895 31.9914 26.8202 31.8975L26.521 36.0383C26.9067 36.0704 26.6817 36.0927 27.0847 36.0927L27.0871 36.0902Z" fill="#32303A"/>
<path d="M23.6831 9.68503L23.8512 7.49225C23.8512 4.62458 21.1096 2.30078 18.2444 2.30078C15.3792 2.30078 12.6376 4.62458 12.6376 7.49225L12.8057 9.68256C12.645 9.72211 12.5017 9.7938 12.3805 9.89763C12.1556 10.088 12.0146 10.3723 12.0146 10.6887V11.769C12.0146 12.3401 12.4745 12.8024 13.0455 12.8073C13.0455 15.5143 16.2988 18.0828 18.2444 18.0828C20.19 18.0828 23.4433 15.5168 23.4433 12.8073C24.0143 12.8024 24.4742 12.3401 24.4742 11.769V10.6887C24.4742 10.2017 24.1355 9.7938 23.6831 9.68256V9.68503Z" fill="#F7CDB9"/>
<g style="mix-blend-mode:multiply">
<path d="M23.6827 9.68503L23.8508 7.49225C23.8508 4.62458 21.1092 2.30078 18.244 2.30078V9.67267C17.4875 11.2845 16.998 13.6182 16.998 13.6182H18.244V18.0828C20.1871 18.0828 23.4404 15.5168 23.4404 12.8073C24.0115 12.8024 24.4713 12.3401 24.4713 11.769V10.6887C24.4713 10.2017 24.1326 9.7938 23.6802 9.68256L23.6827 9.68503Z" fill="#F7CDB9"/>
</g>
<g style="mix-blend-mode:multiply">
<path d="M16.6727 10.8941C16.6875 11.3465 16.334 11.7272 15.8816 11.742C15.4292 11.7568 15.0485 11.4033 15.0337 10.9509C15.0188 10.4985 15.3723 10.1178 15.8247 10.103C16.2771 10.0882 16.6578 10.4417 16.6727 10.8941Z" fill="#F7CDB9"/>
</g>
<path d="M16.6727 10.6861C16.6875 11.1385 16.334 11.5192 15.8816 11.534C15.4292 11.5488 15.0485 11.1953 15.0337 10.7429C15.0188 10.2905 15.3723 9.90981 15.8247 9.89498C16.2771 9.88015 16.6578 10.2337 16.6727 10.6861Z" fill="#3C2415"/>
<path d="M16.3364 11.0749C16.3413 11.1886 16.2523 11.2826 16.1386 11.2875C16.0249 11.2925 15.9309 11.2035 15.926 11.0898C15.921 10.976 16.01 10.8821 16.1238 10.8771C16.2375 10.8722 16.3314 10.9612 16.3364 11.0749Z" fill="white"/>
<g style="mix-blend-mode:multiply">
<path d="M21.451 10.8941C21.4658 11.3465 21.1123 11.7272 20.6599 11.742C20.2075 11.7568 19.8268 11.4033 19.812 10.9509C19.7971 10.4985 20.1506 10.1178 20.603 10.103C21.0554 10.0882 21.4362 10.4417 21.451 10.8941Z" fill="#F7CDB9"/>
</g>
<path d="M21.451 10.6866C21.4658 11.139 21.1123 11.5197 20.6599 11.5345C20.2075 11.5493 19.8268 11.1958 19.812 10.7434C19.7971 10.291 20.1506 9.9103 20.603 9.89547C21.0554 9.88064 21.4362 10.2342 21.451 10.6866Z" fill="#3C2415"/>
<path d="M21.1156 11.0749C21.1206 11.1886 21.0316 11.2826 20.9179 11.2875C20.8042 11.2925 20.7102 11.2035 20.7053 11.0898C20.7003 10.976 20.7893 10.8821 20.903 10.8771C21.0167 10.8722 21.1107 10.9612 21.1156 11.0749Z" fill="white"/>
<path d="M20.7261 14.7925C19.982 14.0163 18.4369 13.9322 18.2639 13.9248C18.254 13.9248 18.2417 13.9248 18.2318 13.9248C18.0587 13.9322 16.5136 14.0138 15.7695 14.7925C15.6954 14.8716 15.6533 14.9755 15.6533 15.0842C15.6632 16.1571 15.8437 17.1757 15.8585 17.2177C15.8857 17.2869 15.9277 17.3462 15.9871 17.3932C16.0217 17.4204 17.0624 18.0804 18.2466 18.0804C19.4307 18.0804 20.474 17.4229 20.5086 17.3932C20.5654 17.3462 20.6099 17.2869 20.6371 17.2177C20.6544 17.1757 20.8324 16.1571 20.8423 15.0842C20.8423 14.9755 20.8028 14.8716 20.7261 14.7925ZM19.9004 16.8048C19.7496 16.9037 19.2058 17.0941 18.7657 17.1905V16.6343C18.7657 16.3475 18.5333 16.1151 18.2466 16.1151C17.9598 16.1151 17.7274 16.3475 17.7274 16.6343V17.1905C17.2874 17.0941 16.7435 16.9037 16.5927 16.8048C16.5087 16.5551 16.526 15.9272 16.4889 15.2598C16.971 14.8939 17.8881 14.7727 18.2466 14.7554C18.6075 14.7727 19.5222 14.8939 20.0043 15.2598C19.9672 15.9223 19.9845 16.5551 19.9004 16.8048Z" fill="#4F3C30"/>
<path d="M24.4828 4.59256C24.7103 3.90036 24.5224 2.80026 23.8525 1.06978C23.7239 0.736038 23.2888 0.679176 23.0663 0.958526C22.4334 1.75208 21.5262 1.74467 20.2209 1.03269C18.3 -0.0154871 16.7723 0.281163 15.7587 1.09696C8.83676 2.1847 12.8465 11.1066 12.8465 11.1066C12.8465 11.1066 12.3719 5.73715 14.8069 6.09066C16.3026 6.30821 17.4126 6.38237 18.2457 6.37496C19.0788 6.38237 20.1888 6.30821 21.6844 6.09066C24.1194 5.73715 23.6448 11.1066 23.6448 11.1066C23.6448 11.1066 25.5285 7.50225 24.4828 4.59256Z" fill="#4F3C30"/>
<path d="M24.0595 9.0375H22.9347C22.5788 8.85209 22.0819 8.73343 21.3872 8.73343C20.2302 8.73343 19.4441 8.95592 19.0411 9.38854C18.8508 9.28471 18.5665 9.16358 18.2451 9.16358C17.9237 9.16358 17.6444 9.27977 17.454 9.3836C17.0511 8.95345 16.2649 8.73096 15.1104 8.73096C14.4158 8.73096 13.9164 8.84962 13.5629 9.03503H12.4307V9.84341L12.8015 9.97444C12.7644 10.1252 12.7471 10.281 12.7471 10.4293C12.7471 11.4355 12.9918 12.7729 15.108 12.7729C16.9992 12.7729 17.4961 11.6085 17.7309 10.4713C17.7655 10.2983 17.7704 10.1351 17.7457 9.97939C17.8372 9.92005 17.9905 9.86814 18.2426 9.86814C18.4948 9.86814 18.6555 9.92252 18.7469 9.98433C18.7247 10.1376 18.7272 10.3008 18.7642 10.4713C18.9991 11.6085 19.496 12.7729 21.3872 12.7729C23.5033 12.7729 23.7481 11.4355 23.7481 10.4293C23.7481 10.281 23.7332 10.1252 23.6937 9.97197L24.0571 9.84341V9.03503L24.0595 9.0375ZM17.3279 10.3898C17.0832 11.5714 16.611 12.36 15.1129 12.36C13.4022 12.36 13.1674 11.433 13.1674 10.4318C13.1674 10.1153 13.1674 9.14875 15.1129 9.14875C16.4553 9.14875 16.9843 9.45282 17.192 9.70745C17.3378 9.88792 17.3848 10.1178 17.3279 10.3898ZM21.3897 12.36C19.8891 12.36 19.4194 11.5714 19.1746 10.3898C19.1178 10.1178 19.1647 9.88792 19.3106 9.70745C19.5183 9.45282 20.0473 9.14875 21.3897 9.14875C23.3352 9.14875 23.3352 10.1153 23.3352 10.4318C23.3352 11.433 23.1004 12.36 21.3897 12.36Z" fill="#32303A"/>
</svg>
