<svg width="36" height="45" viewBox="0 0 36 45" fill="none" xmlns="http://www.w3.org/2000/svg">
<path d="M17.9743 44.2558C27.8797 44.2558 35.9096 36.2259 35.9096 26.3205C35.9096 16.4152 27.8797 8.38525 17.9743 8.38525C8.06896 8.38525 0.0390625 16.4152 0.0390625 26.3205C0.0390625 36.2259 8.06896 44.2558 17.9743 44.2558Z" fill="#7FA1CC"/>
<g style="mix-blend-mode:multiply">
<path d="M33.7105 29.517C32.3533 26.7557 30.4325 24.3948 28.3682 22.4245C28.3509 22.4072 28.3311 22.3899 28.3138 22.3726C28.2916 22.3503 28.2693 22.3281 28.2471 22.3058V22.3108C27.1371 21.2849 25.2756 20.7583 22.8405 19.9548C22.4499 19.7818 20.937 19.1168 20.937 19.1168L20.9123 19.139V17.2281C21.9135 16.5359 22.8406 15.5223 23.3028 14.3975C23.3127 14.3728 23.3226 14.3456 23.3325 14.3184C23.3548 14.264 23.3745 14.2096 23.3943 14.1552C23.3968 14.1478 23.3993 14.1379 23.4017 14.1305C23.5377 13.73 23.6143 13.3197 23.6143 12.9043C24.1854 12.8994 24.6452 12.4371 24.6452 11.8661V10.7857C24.6452 10.4471 24.4796 10.1504 24.2299 9.96251C24.5883 8.49654 24.9147 6.11341 23.9431 4.20493C24.0025 3.51027 23.78 2.52389 23.2336 1.11477C23.1051 0.781037 22.67 0.724175 22.4475 1.00353C21.8146 1.79708 20.979 1.63886 19.6021 1.07769C17.303 0.14075 15.6145 0.711815 14.6405 1.73033C11.5973 3.28283 12.1313 7.67085 12.6405 9.93285C12.6109 9.95262 12.5787 9.96993 12.5491 9.99218C12.3241 10.1825 12.1832 10.4668 12.1832 10.7833V11.8636C12.1832 12.4346 12.643 12.8969 13.2141 12.9019C13.2141 14.5978 14.4897 16.2368 15.9211 17.2256V18.0192V19.139L15.8939 19.1143C15.8939 19.1143 14.3735 19.7843 13.9879 19.9548C11.2809 20.8473 9.27846 21.3961 8.23769 22.6767C6.32426 24.5876 4.54186 26.9386 3.27613 29.517C1.61239 32.9063 2.93251 34.9137 3.68898 35.5292C4.76683 36.4068 8.37119 36.214 9.64928 36.214C10.0201 36.214 9.86435 36.1942 10.1412 36.1671C10.2772 40.2683 10.4799 44.4981 10.737 44.4981H26.0914C26.3609 44.4981 26.571 39.8011 26.707 35.507C26.744 35.507 26.7786 35.507 26.8133 35.5095L26.7663 36.1621C27.1519 36.1942 26.927 36.2165 27.3299 36.2165C28.608 36.2165 32.2124 36.4093 33.2902 35.5317C34.0467 34.9162 35.3693 32.9088 33.7031 29.5195L33.7105 29.517ZM6.67778 32.0089C6.66295 31.9966 6.44293 31.7865 6.99916 31.1659C8.33411 29.6802 8.95214 29.3316 9.93852 28.548L9.9484 28.5554C9.9484 28.5554 9.97807 30.1845 10.0374 32.3995C10.0077 32.3995 9.97807 32.3995 9.9484 32.402L9.92121 32.0213C8.75436 32.1152 6.97443 32.2487 6.67778 32.0089ZM30.3138 32.0089C30.0196 32.2487 28.2397 32.1152 27.0704 32.0213L27.0432 32.402C27.0036 32.402 26.9616 32.3995 26.922 32.3971C26.8849 32.3476 26.8454 32.2957 26.8058 32.2438C26.8602 30.1079 26.8899 28.5554 26.8899 28.5554C26.8899 28.5554 26.9196 28.5307 26.9739 28.4862C28.0246 29.3366 28.5957 29.611 29.9924 31.1659C30.5511 31.7865 30.3286 31.9966 30.3138 32.0089Z" fill="#C8C8C8"/>
</g>
<path d="M21.1672 19.6357L20.391 19.2773V16.8076H15.4072V19.2773L14.626 19.6135L14.8336 26.6145H15.4072V27.6875H20.391V26.6145H20.9596L21.1672 19.6357Z" fill="#F7CDB9"/>
<g style="mix-blend-mode:multiply">
<path d="M20.3881 17.0605V19.0679L15.4043 18.0222V17.0605H20.3881Z" fill="#F7CDB9"/>
</g>
<path d="M28.5136 23.3779C27.5989 21.3854 25.0353 20.8934 21.3593 19.6301C21.2282 19.5856 21.0947 19.5387 20.9637 19.4917C20.9637 19.4991 20.9637 19.5065 20.9588 19.5115C20.7165 20.881 20.0293 22.6511 17.8983 22.8587C15.7673 22.6511 15.0801 20.8786 14.8378 19.5115C14.8378 19.5041 14.8378 19.4966 14.8329 19.4917C14.6994 19.5387 14.5659 19.5856 14.4373 19.6301C10.7613 20.8959 8.19766 21.3878 7.28297 23.3779C6.13838 25.9143 9.42631 28.5521 9.42631 28.5521C9.42631 28.5521 9.72297 44.4973 10.2199 44.4973H25.5742C26.0711 44.4973 26.3678 28.5521 26.3678 28.5521C26.3678 28.5521 29.6557 25.9143 28.5111 23.3779H28.5136Z" fill="white"/>
<path d="M19.0962 22.4218L18.6191 23.339H17.163L16.6982 22.4218L17.8972 21.4429L19.0962 22.4218Z" fill="#F05D44"/>
<path d="M17.8969 21.4425L16.3642 23.0568L13.3828 19.9938L15.3778 19.1138L15.9934 19.6824L17.8969 21.44V21.4425Z" fill="#E6E7E8"/>
<path d="M17.8975 21.4425L19.4302 23.0568L22.4116 19.9938L20.4166 19.1138L19.801 19.6824L17.8975 21.44V21.4425Z" fill="#E6E7E8"/>
<path d="M18.6195 23.5586L19.2104 42.636L17.8977 44.0896L16.585 42.636L17.1634 23.5586H18.6195Z" fill="#F05D44"/>
<path d="M22.9566 36.9553H13.0063C12.2028 36.9553 11.5527 36.3051 11.5527 35.5017L10.9297 27.1953C10.9297 26.3919 11.5799 25.7417 12.3833 25.7417H23.5796C24.383 25.7417 25.0332 26.3919 25.0332 27.1953L24.4102 35.5017C24.4102 36.3051 23.76 36.9553 22.9566 36.9553Z" fill="#4F4C4D"/>
<g style="mix-blend-mode:multiply">
<path d="M23.6053 25.7422H12.3546C11.8553 25.7422 11.4177 25.9993 11.1631 26.3849C11.388 26.2366 11.6575 26.1501 11.9467 26.1501H23.1974C23.986 26.1501 24.6238 26.7879 24.6238 27.5765L24.0008 35.9348C24.0008 36.224 23.9143 36.4935 23.766 36.7184C24.1541 36.4638 24.4087 36.0238 24.4087 35.5269L25.0317 27.1686C25.0317 26.38 24.3939 25.7422 23.6053 25.7422Z" fill="#C8C8C8"/>
</g>
<path d="M12.7243 30.7383H12.6674C12.3452 30.7383 12.084 30.9995 12.084 31.3217V31.3786C12.084 31.7008 12.3452 31.962 12.6674 31.962H12.7243C13.0465 31.962 13.3077 31.7008 13.3077 31.3786V31.3217C13.3077 30.9995 13.0465 30.7383 12.7243 30.7383Z" fill="#383643"/>
<path d="M11.9722 32.1936C11.9722 32.1936 10.9957 32.3023 10.2367 32.3592C10.0489 32.3715 9.85849 32.3814 9.68297 32.3938C9.50745 32.3987 9.34429 32.4037 9.20338 32.4086C8.92897 32.4086 8.74357 32.4086 8.74357 32.4086L8.67188 35.5235C8.67188 35.5235 8.90178 35.5235 9.24788 35.5235C9.41599 35.5186 9.61375 35.5112 9.82388 35.5062C10.0291 35.4939 10.2516 35.4815 10.4716 35.4667C11.3442 35.4024 12.3875 35.2837 12.3875 35.2837C13.0574 35.1947 13.4703 34.4135 13.3294 33.5705C13.186 32.7201 12.5778 32.1194 11.9746 32.196L11.9722 32.1936Z" fill="#F7CDB9"/>
<path d="M10.9339 31.3873C10.4197 31.4467 10.0192 31.8101 9.7176 32.1735C9.42094 32.5295 9.22811 32.8879 9.21328 32.9176C9.09215 33.1426 9.12181 33.4738 9.29239 33.6444C9.46297 33.8125 9.71018 33.768 9.82637 33.5331C9.82637 33.5282 9.86345 33.4615 9.92525 33.3601C9.98706 33.2612 10.0761 33.1302 10.1824 32.9967C10.3999 32.7297 10.6916 32.4578 11.0427 32.4182C11.2454 32.396 11.3813 32.1463 11.3467 31.862C11.3121 31.5777 11.1242 31.3651 10.9314 31.3873H10.9339Z" fill="#F7CDB9"/>
<path d="M9.13475 36.2132C7.85666 36.2132 4.2523 36.4061 3.17445 35.5285C2.41798 34.9129 1.09539 32.9055 2.7616 29.5162C4.14352 26.7005 6.141 24.1493 8.2522 22.1567L10.754 27.3853C8.79359 29.2344 8.32142 29.1158 6.47721 31.1676C5.91851 31.7881 6.141 31.9983 6.15583 32.0106C6.45002 32.2504 8.22995 32.1169 9.39926 32.023L9.69839 36.1638C9.31274 36.1959 9.5377 36.2182 9.13475 36.2182V36.2132Z" fill="white"/>
<path d="M23.9795 32.1936C23.9795 32.1936 24.9559 32.3023 25.7149 32.3592C25.9028 32.3715 26.0931 32.3814 26.2687 32.3938C26.4442 32.3987 26.6073 32.4037 26.7482 32.4086C27.0226 32.4086 27.2081 32.4086 27.2081 32.4086L27.2797 35.5235C27.2797 35.5235 27.0498 35.5235 26.7037 35.5235C26.5356 35.5186 26.3379 35.5112 26.1277 35.5062C25.9226 35.4939 25.7001 35.4815 25.48 35.4667C24.6074 35.4024 23.5641 35.2837 23.5641 35.2837C22.8942 35.1947 22.4814 34.4135 22.6223 33.5705C22.7656 32.7201 23.3738 32.1194 23.977 32.196L23.9795 32.1936Z" fill="#F7CDB9"/>
<path d="M25.0149 31.3883C25.5291 31.4476 25.9296 31.811 26.2312 32.1745C26.5278 32.5304 26.7207 32.8889 26.7355 32.9186C26.8566 33.1435 26.827 33.4748 26.6564 33.6454C26.4858 33.8135 26.2386 33.769 26.1224 33.5341C26.1224 33.5292 26.0853 33.4624 26.0235 33.3611C25.9617 33.2622 25.8727 33.1312 25.7664 32.9977C25.5489 32.7307 25.2572 32.4588 24.9061 32.4192C24.7034 32.397 24.5675 32.1473 24.6021 31.863C24.6367 31.5787 24.8245 31.3661 25.0174 31.3883H25.0149Z" fill="#F7CDB9"/>
<path d="M26.8186 36.2139C28.0967 36.2139 31.701 36.4067 32.7789 35.5291C33.5353 34.9135 34.8579 32.9061 33.1917 29.5169C31.8098 26.7011 29.8395 24.2982 27.7283 22.3057L25.2686 27.4428C27.229 29.2919 27.6319 29.1164 29.4736 31.1658C30.0323 31.7863 29.8099 31.9964 29.795 32.0088C29.5008 32.2486 27.7209 32.1151 26.5516 32.0211L26.2525 36.1619C26.6381 36.1941 26.4132 36.2163 26.8161 36.2163L26.8186 36.2139Z" fill="white"/>
<path d="M23.3354 9.77926L23.5035 7.58649C23.5035 4.71882 20.7619 2.39502 17.8968 2.39502C15.0316 2.39502 12.29 4.71882 12.29 7.58649L12.4581 9.77679C12.2974 9.81634 12.154 9.88803 12.0329 9.99186C11.8079 10.1822 11.667 10.4665 11.667 10.7829V11.8633C11.667 12.4343 12.1268 12.8966 12.6979 12.9016C12.6979 15.6085 15.9512 18.1771 17.8968 18.1771C19.8423 18.1771 23.0956 15.611 23.0956 12.9016C23.6667 12.8966 24.1265 12.4343 24.1265 11.8633V10.7829C24.1265 10.2959 23.7878 9.88803 23.3354 9.77679V9.77926Z" fill="#F7CDB9"/>
<g style="mix-blend-mode:multiply" opacity="0.8">
<path d="M23.336 9.77926L23.5041 7.58649C23.5041 4.71882 20.7625 2.39502 17.8973 2.39502V10.1822C17.1384 11.794 16.6514 14.1277 16.6514 14.1277H17.8973V18.1771C19.8429 18.1771 23.0962 15.611 23.0962 12.9016C23.6673 12.8966 24.1271 12.4343 24.1271 11.8633V10.7829C24.1271 10.2959 23.7884 9.88803 23.336 9.77679V9.77926Z" fill="#F7CDB9"/>
</g>
<g style="mix-blend-mode:multiply">
<path d="M16.324 10.7798C16.3389 11.2322 15.9854 11.6129 15.533 11.6278C15.0806 11.6426 14.6999 11.2891 14.685 10.8367C14.6702 10.3843 15.0237 10.0036 15.4761 9.98873C15.9285 9.9739 16.3092 10.3274 16.324 10.7798Z" fill="#F7CDB9"/>
</g>
<path d="M16.324 10.5723C16.3389 11.0247 15.9854 11.4054 15.533 11.4202C15.0806 11.4351 14.6999 11.0815 14.685 10.6291C14.6702 10.1768 15.0237 9.79604 15.4761 9.78121C15.9285 9.76638 16.3092 10.1199 16.324 10.5723Z" fill="#3C2417"/>
<path d="M15.9877 10.7556C15.9927 10.8693 15.9037 10.9633 15.7899 10.9682C15.6762 10.9731 15.5823 10.8841 15.5773 10.7704C15.5724 10.6567 15.6614 10.5628 15.7751 10.5578C15.8888 10.5529 15.9828 10.6419 15.9877 10.7556Z" fill="white"/>
<g style="mix-blend-mode:multiply">
<path d="M21.1004 10.7803C21.1152 11.2327 20.7617 11.6134 20.3093 11.6282C19.8569 11.6431 19.4762 11.2896 19.4614 10.8372C19.4466 10.3848 19.8001 10.0041 20.2525 9.98922C20.7049 9.97439 21.0856 10.3279 21.1004 10.7803Z" fill="#F7CDB9"/>
</g>
<path d="M21.1004 10.5728C21.1152 11.0252 20.7617 11.4059 20.3093 11.4207C19.8569 11.4356 19.4762 11.082 19.4614 10.6296C19.4466 10.1772 19.8001 9.79653 20.2525 9.7817C20.7049 9.76687 21.0856 10.1204 21.1004 10.5728Z" fill="#3C2417"/>
<path d="M20.7641 10.7556C20.769 10.8693 20.68 10.9633 20.5663 10.9682C20.4526 10.9731 20.3587 10.8841 20.3537 10.7704C20.3488 10.6567 20.4378 10.5628 20.5515 10.5578C20.6652 10.5529 20.7591 10.6419 20.7641 10.7556Z" fill="white"/>
<path d="M23.4249 4.20444C23.4842 3.50978 23.2617 2.5234 22.7154 1.11429C22.5868 0.780549 22.1517 0.723687 21.9292 1.00304C21.2964 1.79659 20.4608 1.63837 19.0838 1.0772C16.7847 0.140262 15.0963 0.711327 14.1222 1.72984C9.95177 3.85834 12.5005 11.3217 12.5005 11.3217C12.5005 11.3217 12.5871 7.43551 14.0209 5.65063C14.807 5.8311 17.0146 6.1327 17.8972 6.1327C18.7797 6.1327 21.0936 5.84346 21.8971 5.65063C22.9576 6.78287 23.2963 11.3217 23.2963 11.3217C23.2963 11.3217 24.9378 7.18336 23.4249 4.20444Z" fill="#4F3C30"/>
</svg>
