<svg width="37" height="45" viewBox="0 0 37 45" fill="none" xmlns="http://www.w3.org/2000/svg">
<path d="M18.1003 41.8642C28.0057 41.8642 36.0356 33.8343 36.0356 23.9289C36.0356 14.0236 28.0057 5.99365 18.1003 5.99365C8.19494 5.99365 0.165039 14.0236 0.165039 23.9289C0.165039 33.8343 8.19494 41.8642 18.1003 41.8642Z" fill="#798ED1"/>
<path d="M21.279 20.1142L20.5028 19.7558V17.2886H15.519V19.7558L14.7402 20.0944L14.9479 27.093H15.519V28.1684H20.5028V27.093H21.0713L21.279 20.1142Z" fill="#F2AE75"/>
<g style="mix-blend-mode:multiply">
<path d="M20.5024 17.5386V19.5484L15.5186 18.5002V17.5386H20.5024Z" fill="#DEB4A0"/>
</g>
<mask id="mask0_1358_4824" style="mask-type:alpha" maskUnits="userSpaceOnUse" x="0" y="7" width="37" height="37">
<path d="M18.1003 43.7368C28.0057 43.7368 36.0356 35.7069 36.0356 25.8015C36.0356 15.8961 28.0057 7.86621 18.1003 7.86621C8.19494 7.86621 0.165039 15.8961 0.165039 25.8015C0.165039 35.7069 8.19494 43.7368 18.1003 43.7368Z" fill="#798ED1"/>
</mask>
<g mask="url(#mask0_1358_4824)">
<g style="mix-blend-mode:multiply">
<path d="M33.7515 29.5759L28.7454 16.214L28.5699 16.2783L27.9791 13.952C27.9791 13.952 27.9717 13.9372 27.9667 13.9298L28.4117 12.2018C28.5823 11.5417 28.1843 10.8668 27.5242 10.6962L27.4649 10.6814L26.963 10.5528L26.9037 10.538C26.2437 10.3674 25.5688 10.7654 25.3982 11.4255L24.8444 13.5763L24.7258 14.0385C24.2313 14.6492 23.8655 15.4526 24.0262 15.8803L24.1918 16.1077L23.7518 17.816L23.7369 17.8753C23.5663 18.5353 23.9644 19.2102 24.6244 19.3808L25.2474 19.5415C25.502 19.6082 25.7566 19.586 25.9865 19.5019L26.8666 21.848C25.8234 21.356 24.4959 20.9531 22.9335 20.4389C22.5478 20.2683 21.0275 19.5984 21.0275 19.5984L21.0027 19.6206V17.8283C22.3204 17.0001 23.5416 15.6405 23.8457 14.1473C23.8605 14.0732 23.8729 13.9965 23.8852 13.9199C23.9025 13.8012 23.9149 13.6826 23.9174 13.5639C24.486 13.5787 24.9631 13.1337 24.9829 12.5627L25.0199 11.4824C25.0323 11.1091 24.8444 10.7778 24.5552 10.585C24.6046 10.4564 24.6516 10.3155 24.6961 10.1548C25.3092 7.91014 25.3636 5.67286 24.6837 3.90282C25.0546 3.37379 25.3314 2.7335 25.329 2.00175V1.98692C25.329 1.98692 25.3216 1.98692 25.3166 1.98692C24.9458 2.05367 24.6294 2.06356 24.35 2.04131C24.5725 1.77185 24.6442 1.47766 24.6689 1.33428C24.6739 1.29473 24.6343 1.26753 24.5972 1.28237C23.4996 1.76443 22.2166 1.0846 22.2166 1.0846C21.4329 0.661862 20.6121 0.412178 19.4354 0.370151C19.3489 0.367679 19.2599 0.365207 19.1684 0.365207C14.8076 0.209463 13.4232 3.50975 13.4232 3.50975C12.6222 5.23035 12.5209 7.46516 12.9757 9.74693C12.9955 9.85076 13.0425 10.0065 13.1043 10.1845C13.0549 10.2117 13.0079 10.2364 12.9634 10.271C12.7335 10.454 12.5827 10.7308 12.5703 11.0497L12.5332 12.1301C12.5135 12.7011 12.956 13.1807 13.527 13.203C13.4677 14.8716 14.6494 16.528 16.0165 17.5712V18.5032V19.6231L15.9893 19.5984C15.9893 19.5984 14.4763 20.2658 14.0857 20.4364C11.3837 21.3264 9.38375 21.8752 8.34051 23.1483L8.32321 23.1681C8.32321 23.1681 8.31084 23.1854 8.30343 23.1928L1.00571 32.2779C0.439596 32.9998 0.481619 34.0232 1.10212 34.6981L7.9153 42.2257L8.13038 41.8623L9.63096 43.0069C10.0141 43.2986 10.2811 43.358 10.5456 43.2171C10.6297 44.2974 10.7236 44.9797 10.8275 44.9797H26.1819C26.612 44.9797 26.8938 32.9775 26.9606 29.8008L31.0297 31.828C31.3288 32.0109 31.6675 32.0999 32.0012 32.0999C32.4264 32.0999 32.8492 31.954 33.1928 31.6722C33.8059 31.163 34.0308 30.3224 33.7515 29.5759ZM10.0364 29.1581C10.0512 29.964 10.1476 34.6956 10.3108 38.7771C10.2094 38.7475 10.1081 38.7227 10.0117 38.703L10.0413 38.6535L5.34183 33.331L10.0364 29.1556V29.1581Z" fill="#C8C8C8"/>
</g>
<path d="M7.39672 23.8608C8.31141 21.8683 10.875 21.3763 14.5511 20.113C14.6821 20.0685 14.8156 20.0216 14.9466 19.9746C14.9466 19.982 14.9466 19.9894 14.9515 19.9944C15.1938 21.3639 15.8811 23.134 18.012 23.3416C20.143 23.134 20.8303 21.3615 21.0725 19.9944C21.0725 19.987 21.0725 19.9796 21.0775 19.9746C21.211 20.0216 21.3445 20.0685 21.473 20.113C25.1491 21.3788 27.7127 21.8707 28.6273 23.8608C29.7719 26.3972 26.484 29.035 26.484 29.035C26.484 29.035 26.1874 44.9802 25.6905 44.9802H10.3361C9.83918 44.9802 9.54252 29.035 9.54252 29.035C9.54252 29.035 6.25459 26.3972 7.39919 23.8608H7.39672Z" fill="white"/>
</g>
<path d="M16.8145 22.9038L17.2916 23.821H18.7477L19.2124 22.9038L18.0134 21.9224L16.8145 22.9038Z" fill="#F15D44"/>
<path d="M18.0137 21.9225L19.5464 23.5368L22.5278 20.4738L20.5328 19.5938L19.9172 20.1623L18.0137 21.92V21.9225Z" fill="#E6E7E8"/>
<path d="M18.0131 21.9225L16.4804 23.5368L13.499 20.4738L15.494 19.5938L16.1096 20.1623L18.0131 21.92V21.9225Z" fill="#E6E7E8"/>
<path d="M17.2916 24.0386L16.6982 43.1184L18.0134 44.5721L19.3261 43.1184L18.7476 24.0386H17.2916Z" fill="#F15D44"/>
<path d="M26.2516 18.6475L27.9158 12.1988C28.0863 11.5378 27.6888 10.8637 27.0278 10.6931L26.4054 10.5325C25.7444 10.3619 25.0703 10.7595 24.8997 11.4205L23.2355 17.8691C23.065 18.5301 23.4625 19.2043 24.1235 19.3748L24.7459 19.5355C25.4069 19.706 26.081 19.3085 26.2516 18.6475Z" fill="#4F4C4D"/>
<g style="mix-blend-mode:multiply">
<path d="M23.258 17.8109L24.8921 11.4823C25.0701 10.7876 25.7796 10.3698 26.4742 10.5503L26.9761 10.6789C27.2678 10.7555 27.5076 10.9285 27.6782 11.151C27.5496 11.0571 27.4013 10.9805 27.2356 10.9384L26.7338 10.8099C26.0391 10.6319 25.3321 11.0472 25.1516 11.7419L23.5176 18.0705C23.4137 18.471 23.5151 18.874 23.7475 19.1805C23.3322 18.8764 23.122 18.34 23.258 17.8109Z" fill="#C8C8C8"/>
</g>
<path d="M26.6355 11.9537L26.7196 11.6324C26.7542 11.4989 26.6726 11.3629 26.5416 11.3283C26.4106 11.2937 26.2721 11.3753 26.2375 11.5063L26.1535 11.8277C26.1189 11.9611 26.2004 12.0971 26.3315 12.1317C26.465 12.1663 26.6009 12.0848 26.6355 11.9537Z" fill="#383643"/>
<path d="M23.5324 15.8775L25.4409 18.4782L28.358 17.3855L27.4878 13.9542C27.2332 13.2768 25.96 12.9703 25.1541 13.2719C24.3482 13.5735 23.2778 15.1976 23.5324 15.8775Z" fill="#F2AE75"/>
<path d="M31.5083 32.0998C31.9335 32.0998 32.3562 31.9539 32.6998 31.6696C33.3129 31.1604 33.5379 30.3199 33.2585 29.5733L28.2525 16.2114L24.752 17.5241L27.8594 25.8181L26.8557 25.2075L24.9102 29.022L30.5343 31.8229C30.8334 32.0058 31.1721 32.0948 31.5058 32.0948L31.5083 32.0998Z" fill="white"/>
<path d="M11.0263 40.5289L7.77543 38.0493L5.88672 40.5264L9.13756 43.0059C9.78032 43.4954 10.1017 43.3372 10.6233 42.6549C11.1449 41.9701 11.669 41.0183 11.0263 40.5289Z" fill="#F2AE75"/>
<path d="M10.9527 39.3396C9.81798 38.4744 8.45336 38.6178 8.38662 38.6375C8.11715 38.7191 7.95152 39.0009 8.0158 39.2704C8.08007 39.5374 8.34706 39.6907 8.61652 39.6115C8.62147 39.6115 8.68574 39.6091 8.7871 39.6165C8.89093 39.6239 9.03184 39.6387 9.19747 39.6734C9.52874 39.7426 9.95147 39.881 10.3223 40.1653C10.5374 40.3285 10.8513 40.2766 11.0244 40.0491C11.1974 39.8217 11.1653 39.5028 10.9502 39.3396H10.9527Z" fill="#F2AE75"/>
<path d="M7.42168 42.2225L9.54771 38.6502L4.8482 33.3277L9.80729 28.9175L7.84442 23.1426L0.509616 32.2746C-0.0565008 32.9965 -0.0144711 34.0199 0.606033 34.6948L7.41922 42.2225H7.42168Z" fill="white"/>
<path d="M23.7675 10.4512L24.0123 8.26588C24.1112 5.40069 21.4536 2.98295 18.5909 2.88159C15.7257 2.78271 12.9075 5.00762 12.8061 7.87529L12.8976 10.0705C12.7369 10.1027 12.5886 10.1719 12.465 10.2708C12.2351 10.4537 12.0843 10.7306 12.0719 11.0495L12.0348 12.1298C12.015 12.7009 12.4576 13.1805 13.0286 13.2027C12.9347 15.9097 16.0965 18.587 18.0396 18.6562C19.9827 18.723 23.325 16.2731 23.419 13.5661C23.9876 13.581 24.4647 13.136 24.4845 12.5649L24.5215 11.4846C24.5388 10.9976 24.215 10.5798 23.7675 10.4512Z" fill="#F2AE75"/>
<g style="mix-blend-mode:multiply" opacity="0.8">
<path d="M23.7678 10.4515L24.0125 8.26613C24.1114 5.40093 21.4539 2.98319 18.5912 2.88184L18.3341 10.2488C17.5207 11.8334 16.9521 14.1473 16.9521 14.1473L18.1981 14.1918L18.0424 18.654C19.9879 18.7208 23.3278 16.2709 23.4217 13.5639C23.9903 13.5787 24.4674 13.1337 24.4872 12.5627L24.5243 11.4824C24.5416 10.9954 24.2177 10.5776 23.7703 10.449L23.7678 10.4515Z" fill="#F6CCB8"/>
</g>
<g style="mix-blend-mode:multiply">
<path d="M16.746 10.7939C16.746 11.2463 16.3776 11.6146 15.9252 11.6146C15.4728 11.6146 15.1045 11.2463 15.1045 10.7939C15.1045 10.3415 15.4728 9.97314 15.9252 9.97314C16.3776 9.97314 16.746 10.3415 16.746 10.7939Z" fill="#DEB4A0"/>
</g>
<path d="M16.7538 10.5869C16.7538 11.0393 16.3855 11.4076 15.9331 11.4076C15.4807 11.4076 15.1123 11.0393 15.1123 10.5869C15.1123 10.1345 15.4807 9.76611 15.9331 9.76611C16.3855 9.76611 16.7538 10.1345 16.7538 10.5869Z" fill="#3C2417"/>
<path d="M16.424 10.3395C16.424 10.4532 16.3326 10.5447 16.2189 10.5447C16.1051 10.5447 16.0137 10.4532 16.0137 10.3395C16.0137 10.2257 16.1051 10.1343 16.2189 10.1343C16.3326 10.1343 16.424 10.2257 16.424 10.3395Z" fill="white"/>
<g style="mix-blend-mode:multiply">
<path d="M20.6977 11.7807C21.151 11.7807 21.5184 11.4132 21.5184 10.9599C21.5184 10.5066 21.151 10.1392 20.6977 10.1392C20.2444 10.1392 19.877 10.5066 19.877 10.9599C19.877 11.4132 20.2444 11.7807 20.6977 11.7807Z" fill="#DEB4A0"/>
</g>
<path d="M20.7045 11.5731C21.1578 11.5731 21.5253 11.2057 21.5253 10.7524C21.5253 10.2991 21.1578 9.93164 20.7045 9.93164C20.2513 9.93164 19.8838 10.2991 19.8838 10.7524C19.8838 11.2057 20.2513 11.5731 20.7045 11.5731Z" fill="#3C2417"/>
<path d="M21.1965 10.5074C21.1965 10.6212 21.105 10.7126 20.9913 10.7126C20.8776 10.7126 20.7861 10.6212 20.7861 10.5074C20.7861 10.3937 20.8776 10.3022 20.9913 10.3022C21.105 10.3022 21.1965 10.3937 21.1965 10.5074Z" fill="white"/>
<path d="M19.9941 15.3757C19.962 16.2928 19.0992 17.0073 18.0683 16.9702C17.0375 16.9331 16.2266 16.1618 16.2587 15.2446L19.9941 15.3757Z" fill="#F05D44"/>
<path d="M16.5488 15.2549L19.6618 15.3636L19.6487 15.7391C19.6439 15.875 19.5289 15.9823 19.393 15.9776L16.7741 15.8861C16.6383 15.8814 16.531 15.7663 16.5357 15.6304L16.5488 15.2549Z" fill="white"/>
<path d="M24.1972 10.1543C24.0019 10.8713 23.7646 11.1679 23.4655 11.8651C23.4655 11.87 23.5199 9.85522 23.5199 9.85522L22.4816 6.29041C22.4816 6.29041 20.625 6.62167 18.4545 6.63898C16.2938 6.47087 14.4645 6.01106 14.4645 6.01106L13.1616 9.49428C13.1616 9.49428 13.0924 11.5091 13.0924 11.5041C12.9688 11.1556 12.556 10.1197 12.4818 9.74644C12.0269 7.46467 12.1283 5.22987 12.9293 3.50926C12.9293 3.50926 14.3137 0.208975 18.6745 0.364719C18.766 0.364719 18.8525 0.364719 18.9415 0.369663C20.1182 0.411689 20.9414 0.661374 21.7226 1.08411C21.7226 1.08411 23.0056 1.76147 24.1033 1.28188C24.1379 1.26705 24.1799 1.29424 24.175 1.33379C24.1502 1.47718 24.0786 1.77383 23.8585 2.04082C24.1379 2.06307 24.4543 2.05318 24.8251 1.98643C24.8301 1.98643 24.8326 1.98643 24.8375 1.98643V2.00127C24.8375 2.73302 24.5631 3.3733 24.1898 3.90233C24.8696 5.67238 24.8152 7.91212 24.2022 10.1543H24.1972Z" fill="#3C2417"/>
</svg>
