<svg width="36" height="44" viewBox="0 0 36 44" fill="none" xmlns="http://www.w3.org/2000/svg">
<path d="M17.9353 43.0854C27.8407 43.0854 35.8706 35.0555 35.8706 25.1501C35.8706 15.2447 27.8407 7.21484 17.9353 7.21484C8.0299 7.21484 0 15.2447 0 25.1501C0 35.0555 8.0299 43.0854 17.9353 43.0854Z" fill="#7CCCEC"/>
<g style="mix-blend-mode:multiply">
<path d="M31.4682 39.4656H28.6055C28.7316 39.3816 28.8156 39.2407 28.8156 39.0775C28.8156 38.8204 28.608 38.6127 28.3509 38.6127H27.8565C28.4053 38.4867 28.8156 37.9972 28.8156 37.4113V36.3211L30.5214 32.7711C31.1518 31.7229 31.2359 30.4374 30.7488 29.3175C30.294 28.2768 29.5795 26.8677 28.8156 25.4734V24.8109C28.8156 24.1879 28.3509 23.6761 27.7502 23.5921C26.8602 22.0717 26.0394 20.8109 25.6365 20.4228C25.3547 20.1509 25.063 19.9358 24.7663 19.7603C25.9035 14.6924 25.6068 5.89166 23.1594 2.78173C23.0729 2.67296 22.9839 2.56665 22.8924 2.47271C22.6625 2.23539 22.4227 2.003 22.1632 1.78545C22.0025 1.64949 21.8344 1.51848 21.6588 1.39487C19.6267 -1.20581 13.444 -0.283711 11.9063 5.23655C10.601 9.2587 10.5961 15.7505 11.5182 19.8147C11.5256 19.8567 11.5355 19.8987 11.5478 19.9408C11.5627 20.0001 11.5775 20.0545 11.5923 20.1138C11.4712 20.2102 11.3501 20.3116 11.2314 20.4253C10.8284 20.8134 10.0126 22.0643 9.12763 23.5773H8.91749C8.44037 23.5773 8.05225 23.9654 8.05225 24.4425V25.4759C7.28836 26.8701 6.57392 28.2792 6.11905 29.32C5.63204 30.4399 5.71609 31.7279 6.34648 32.7736L8.05225 36.3235V37.7846C8.05225 38.1826 8.32418 38.5163 8.69253 38.6152H8.51948C8.26238 38.6152 8.05472 38.8229 8.05472 39.08C8.05472 39.2431 8.13878 39.384 8.26485 39.4681H5.40213C4.36878 39.4681 3.5332 40.3037 3.5332 41.337C3.5332 42.3704 4.36878 43.2059 5.40213 43.2059H31.4781C32.5115 43.2059 33.3471 42.3704 33.3471 41.337C33.3471 40.3037 32.5115 39.4681 31.4781 39.4681L31.4682 39.4656Z" fill="#C8C8C8"/>
</g>
<path d="M24.2593 19.8053C24.2519 19.8523 24.242 19.8918 24.2296 19.9363C24.1258 20.3813 24.0096 20.7941 23.8835 21.1699C23.666 21.8201 23.4336 22.3565 23.137 22.7595C23.001 22.9498 22.8477 23.108 22.6771 23.2366C22.3484 23.4838 21.9479 23.6124 21.4386 23.6124H13.8368C13.3053 23.6124 12.8925 23.469 12.5563 23.202C12.4005 23.0808 12.2645 22.9301 12.1385 22.757C11.8443 22.354 11.6119 21.8151 11.3919 21.1674C11.2658 20.7917 11.1496 20.3763 11.0458 19.9338C11.0359 19.8918 11.026 19.8498 11.0161 19.8078C9.82456 14.5619 10.1781 5.2667 12.8801 2.46578C13.9876 1.31624 15.3596 0.307617 17.6365 0.307617C19.4411 0.307617 20.6772 0.942959 21.6636 1.78101C21.9231 1.99609 22.1629 2.22846 22.3929 2.46825C22.4843 2.56467 22.5733 2.6685 22.6598 2.77727C25.1171 5.89709 25.4064 14.7424 24.2568 19.8053H24.2593Z" fill="#4F3C30"/>
<path d="M20.0118 19.0661V16.4185H15.8586V19.0661L14.8203 19.1477L15.8586 25.8422H20.0118L21.0501 19.1477L20.0118 19.0661Z" fill="#F6CCB8"/>
<g style="mix-blend-mode:multiply">
<path d="M15.8594 16.4355V17.3972L20.0125 19.0659V16.4355H15.8594Z" fill="#F6CCB8"/>
</g>
<path d="M30.2524 29.3186C29.0583 26.5794 26.0497 21.2965 25.14 20.4214C23.6542 18.995 21.9262 19.0469 20.3614 18.9282L20.354 18.995L17.9362 25.6054L15.5185 18.995L15.5111 18.9282C13.9462 19.0469 12.2182 18.9974 10.7324 20.4214C9.82022 21.2965 6.81412 26.5794 5.62008 29.3186C5.13307 30.4384 5.21712 31.7264 5.84752 32.7721L8.90554 39.1379H17.2762L17.9362 36.646L18.5963 39.1379H26.9669L30.0249 32.7721C30.6553 31.724 30.7394 30.4384 30.2524 29.3186Z" fill="#43414D"/>
<path d="M13.1377 20.5947L15.4145 21.455L14.5221 22.701L17.9361 25.5835L15.5109 18.9062L13.1377 20.5947Z" fill="white"/>
<path d="M22.7374 20.5949L20.3592 18.9336L17.9365 25.5836L21.353 22.7011L20.4606 21.4552L22.7374 20.5949Z" fill="white"/>
<path d="M22.7984 9.21978V7.05914C22.7984 4.76501 20.1433 1.86768 18.042 1.86768C15.9407 1.86768 13.2856 4.76501 13.2856 7.05914V9.21978C12.7022 9.21978 12.2275 9.68454 12.2275 10.2581V11.3384C12.2275 11.9119 12.6997 12.3767 13.2856 12.3767C13.2856 14.6708 15.9407 17.6522 18.042 17.6522C20.1433 17.6522 22.7984 14.6708 22.7984 12.3767C23.3818 12.3767 23.8564 11.9119 23.8564 11.3384V10.2581C23.8564 9.68454 23.3842 9.21978 22.7984 9.21978Z" fill="#F6CCB8"/>
<g style="mix-blend-mode:multiply" opacity="0.8">
<path d="M18.0424 13.8081V17.6498C20.1438 17.6498 22.7988 14.6684 22.7988 12.3742C23.3822 12.3742 23.8569 11.9095 23.8569 11.336V10.2556C23.8569 9.6821 23.3847 9.21734 22.7988 9.21734V7.0567C22.7988 4.76257 20.1438 1.86523 18.0424 1.86523V10.2754C17.2711 11.8872 16.9844 13.598 16.9844 13.598L18.0424 13.8056V13.8081Z" fill="#F6CCB8"/>
</g>
<g style="mix-blend-mode:multiply">
<path d="M16.1365 10.6319C16.1514 11.0843 15.7979 11.465 15.3455 11.4798C14.8931 11.4946 14.5124 11.1411 14.4975 10.6887C14.4827 10.2363 14.8362 9.85561 15.2886 9.84078C15.741 9.82595 16.1217 10.1795 16.1365 10.6319Z" fill="#F6CCB8"/>
</g>
<path d="M16.1365 10.4243C16.1514 10.8767 15.7979 11.2575 15.3455 11.2723C14.8931 11.2871 14.5124 10.9336 14.4975 10.4812C14.4827 10.0288 14.8362 9.6481 15.2886 9.63326C15.741 9.61843 16.1217 9.97195 16.1365 10.4243Z" fill="#3C2417"/>
<path d="M15.8002 10.1897C15.8052 10.3034 15.7162 10.3973 15.6024 10.4023C15.4887 10.4072 15.3948 10.3182 15.3898 10.2045C15.3849 10.0908 15.4739 9.99684 15.5876 9.9919C15.7013 9.98695 15.7953 10.0759 15.8002 10.1897Z" fill="white"/>
<path d="M16.3146 9.79887C16.1638 9.44783 15.7757 9.18084 15.3505 9.13634C15.0885 9.10915 14.599 9.14622 14.1787 9.6802C14.1589 9.6802 14.1392 9.6802 14.1169 9.6802C14.07 9.67525 14.0057 9.66042 13.9414 9.63323C13.8129 9.58131 13.7041 9.47255 13.7041 9.47255C13.6967 9.46513 13.6843 9.46265 13.6744 9.4676C13.662 9.47501 13.6571 9.48985 13.6621 9.50221C13.6621 9.50221 13.6794 9.53682 13.709 9.58873C13.7387 9.64064 13.7881 9.7074 13.8475 9.76426C13.9068 9.82359 13.981 9.87303 14.0403 9.90269C14.07 9.91753 14.0971 9.92989 14.1169 9.93483C14.1367 9.94225 14.1565 9.94472 14.154 9.94472C14.2109 9.94966 14.2628 9.92 14.2875 9.87303C14.5619 9.48738 14.9327 9.29949 15.3258 9.34152C15.6744 9.3786 16.0007 9.60109 16.1218 9.88044C16.1441 9.93235 16.2059 9.95708 16.2578 9.93483C16.3097 9.91258 16.3344 9.85078 16.3122 9.79887H16.3146Z" fill="#3C2417"/>
<g style="mix-blend-mode:multiply">
<path d="M21.3289 10.6319C21.3438 11.0843 20.9902 11.465 20.5378 11.4798C20.0854 11.4946 19.7047 11.1411 19.6899 10.6887C19.6751 10.2363 20.0286 9.85561 20.481 9.84078C20.9334 9.82595 21.3141 10.1795 21.3289 10.6319Z" fill="#F6CCB8"/>
</g>
<path d="M21.3289 10.4243C21.3438 10.8767 20.9902 11.2575 20.5378 11.2723C20.0854 11.2871 19.7047 10.9336 19.6899 10.4812C19.6751 10.0288 20.0286 9.6481 20.481 9.63326C20.9334 9.61843 21.3141 9.97195 21.3289 10.4243Z" fill="#3C2417"/>
<path d="M20.9936 10.1892C20.9985 10.3029 20.9095 10.3968 20.7958 10.4018C20.6821 10.4067 20.5881 10.3177 20.5832 10.204C20.5783 10.0903 20.6673 9.99635 20.781 9.99141C20.8947 9.98646 20.9886 10.0755 20.9936 10.1892Z" fill="white"/>
<path d="M19.5121 9.79887C19.6629 9.44783 20.051 9.18084 20.4762 9.13634C20.7383 9.10915 21.2278 9.14622 21.648 9.6802C21.6678 9.6802 21.6876 9.6802 21.7098 9.6802C21.7568 9.67525 21.8211 9.66042 21.8853 9.63323C22.0139 9.58131 22.1227 9.47255 22.1227 9.47255C22.1301 9.46513 22.1424 9.46265 22.1523 9.4676C22.1647 9.47501 22.1696 9.48985 22.1647 9.50221C22.1647 9.50221 22.1474 9.53682 22.1177 9.58873C22.0881 9.64064 22.0386 9.7074 21.9793 9.76426C21.9199 9.82359 21.8458 9.87303 21.7865 9.90269C21.7568 9.91753 21.7296 9.92989 21.7073 9.93483C21.6876 9.94225 21.6678 9.94472 21.6703 9.94472C21.6134 9.94966 21.5615 9.92 21.5368 9.87303C21.2624 9.48738 20.8915 9.29949 20.4985 9.34152C20.1499 9.3786 19.8236 9.60109 19.7024 9.88044C19.6802 9.93235 19.6184 9.95708 19.5665 9.93483C19.5146 9.91258 19.4898 9.85078 19.5121 9.79887Z" fill="#3C2417"/>
<path d="M19.596 14.4858C19.596 15.3016 18.8519 15.9617 17.9347 15.9617C17.0175 15.9617 16.2734 15.3016 16.2734 14.4858H19.596Z" fill="#F05D44"/>
<path d="M16.5332 14.4858H19.302V14.7924C19.302 14.9284 19.1907 15.0396 19.0548 15.0396H16.7804C16.6444 15.0396 16.5332 14.9284 16.5332 14.7924V14.4858Z" fill="white"/>
<path d="M23.509 8.71578H22.7798C22.362 8.43396 21.5981 8.43148 20.9084 8.43395C19.7465 8.43395 18.9677 8.66138 18.592 9.11131C18.4634 9.03715 18.2706 9.0149 18.058 9.0149C17.8454 9.0149 17.6526 9.03715 17.5216 9.11131C17.1458 8.66386 16.3671 8.43395 15.2052 8.43395C14.5154 8.43395 13.7516 8.43396 13.3338 8.71578H12.6045V9.50439L12.9209 9.6799C12.9283 10.911 13.5291 12.3374 15.2076 12.3374C16.5871 12.3374 17.4424 11.5884 17.749 10.1125C17.7712 10.0062 17.7811 9.9024 17.7787 9.80105C17.7984 9.71947 17.9072 9.63788 18.0605 9.63788C18.2137 9.63788 18.3225 9.71947 18.3423 9.80105C18.3423 9.9024 18.3497 10.0037 18.372 10.1125C18.6785 11.5884 19.5339 12.3374 20.9133 12.3374C22.5919 12.3374 23.1926 10.911 23.2 9.6799L23.5165 9.50439V8.71578H23.509ZM17.3782 10.0359C17.1087 11.3338 16.3967 11.9642 15.2027 11.9642C13.3807 11.9642 13.2893 10.0433 13.2893 9.66013C13.2893 9.06929 14.6069 9.01737 15.2027 9.01737C16.5179 9.01737 17.5018 9.4846 17.3782 10.0384V10.0359ZM20.9084 11.9642C19.7143 11.9642 19.0024 11.3338 18.7329 10.0359C18.6093 9.48213 19.5932 9.0149 20.9084 9.0149C21.5042 9.0149 22.8218 9.06682 22.8218 9.65766C22.8218 10.0433 22.7303 11.9617 20.9084 11.9617V11.9642Z" fill="#383643"/>
<path d="M13.0596 17.007C11.5591 11.9985 10.5109 8.89102 11.3292 5.5141C12.9212 -1.0494 20.9358 -1.43753 21.7467 2.68103C21.9197 3.55864 23.6848 4.89607 22.7702 9.2124C22.7009 9.18768 22.5427 9.01709 22.3351 8.75258C21.7146 7.95408 20.6441 6.28046 20.1077 5.02215C13.0572 4.9999 15.4156 15.452 13.0572 17.0095L13.0596 17.007Z" fill="#4F3C30"/>
<path d="M30.9732 39.4658H4.89725C3.8639 39.4658 3.02832 40.3014 3.02832 41.3347C3.02832 42.3681 3.8639 43.2037 4.89725 43.2037H30.9732C32.0066 43.2037 32.8422 42.3681 32.8422 41.3347C32.8422 40.3014 32.0066 39.4658 30.9732 39.4658Z" fill="#686671"/>
<path d="M27.8523 39.5457H8.01847C7.76137 39.5457 7.55371 39.3381 7.55371 39.081C7.55371 38.8239 7.76137 38.6162 8.01847 38.6162H27.8523C28.1094 38.6162 28.3171 38.8239 28.3171 39.081C28.3171 39.3381 28.1094 39.5457 27.8523 39.5457Z" fill="#ADADAE"/>
<path d="M27.0806 23.5728H8.78684C8.10419 23.5728 7.55078 24.1262 7.55078 24.8088V37.4117C7.55078 38.0944 8.10419 38.6478 8.78684 38.6478H27.0806C27.7632 38.6478 28.3166 38.0944 28.3166 37.4117V24.8088C28.3166 24.1262 27.7632 23.5728 27.0806 23.5728Z" fill="#BDDFDF"/>
<path opacity="0.5" d="M17.9337 32.3298C18.8717 32.3298 19.6321 31.5694 19.6321 30.6315C19.6321 29.6935 18.8717 28.9331 17.9337 28.9331C16.9957 28.9331 16.2354 29.6935 16.2354 30.6315C16.2354 31.5694 16.9957 32.3298 17.9337 32.3298Z" fill="white"/>
<path opacity="0.2" d="M23.5949 23.5728H8.41603C7.93891 23.5728 7.55078 23.9609 7.55078 24.438V37.7825C7.55078 38.2597 7.93891 38.6478 8.41603 38.6478H11.4073C12.0204 31.4638 16.9721 25.5356 23.5949 23.5728Z" fill="white"/>
</svg>
