<svg width="37" height="44" viewBox="0 0 37 44" fill="none" xmlns="http://www.w3.org/2000/svg">
<path d="M18.1062 44.0078C28.0116 44.0078 36.0415 35.9779 36.0415 26.0725C36.0415 16.1671 28.0116 8.13721 18.1062 8.13721C8.2008 8.13721 0.170898 16.1671 0.170898 26.0725C0.170898 35.9779 8.2008 44.0078 18.1062 44.0078Z" fill="#A3D167"/>
<g style="mix-blend-mode:multiply">
<path d="M21.8603 19.0713H15.7715V21.6547H21.8603V19.0713Z" fill="#C8C8C8"/>
<path d="M22.0856 19.8476L21.3094 19.4892V17.0195H16.3256V19.4892L15.5469 19.8254L15.7545 26.8265H16.3256V27.8994H21.3094V26.8265H21.878L22.0856 19.8476Z" fill="#C8C8C8"/>
<path d="M16.3252 17.0195V17.9688L21.309 19.326V17.0195H16.3252Z" fill="#C8C8C8"/>
<path d="M22.1541 19.8628L21.9687 20.5575C21.6473 21.4746 20.8266 22.9777 18.8761 22.9777C16.6759 22.9777 15.8353 21.0667 15.5758 20.2386L15.4769 19.8628C11.4226 21.3856 12.6661 34.08 12.6661 34.08L12.6414 44.6236H25.3431L25.1726 34.08C25.1726 34.08 26.2084 21.3856 22.1541 19.8628Z" fill="#C8C8C8"/>
<path d="M20.0157 22.6362L19.5361 23.5509H18.08L17.6152 22.6362L18.8142 21.6548L20.0157 22.6362Z" fill="#C8C8C8"/>
<path d="M18.8153 21.6554L17.2826 23.2697L14.6621 20.1424L16.2987 19.3291L16.9142 19.8977L18.8178 21.6554H18.8153Z" fill="#C8C8C8"/>
<path d="M21.3336 19.3291L18.8145 21.6554L20.3472 23.2697L22.9676 20.1424L21.3336 19.3291Z" fill="#C8C8C8"/>
<path d="M19.5355 23.771L20.1288 42.8509L18.8137 44.302L17.501 42.8509L18.0795 23.771H19.5355Z" fill="#C8C8C8"/>
<path d="M29.1844 23.5376C28.7864 21.2113 26.2079 21.2089 22.1537 19.686L18.8138 33.2036L15.474 19.686C11.4197 21.2089 8.84124 21.2089 8.44323 23.5376C7.80048 27.2977 9.94876 28.9417 9.96359 28.9194C9.96359 28.9194 10.1391 45.6137 9.87706 49.6383H18.1908L18.8138 46.7311L19.4368 49.6383H27.7505C27.4885 45.6137 27.6615 28.9194 27.6615 28.9194C27.6788 28.9417 29.8247 27.2977 29.1819 23.5376H29.1844Z" fill="#C8C8C8"/>
<path d="M13.6719 20.1491L13.7535 22.5323L14.9426 23.5088L14.018 24.7745L18.7842 33.2044L15.7707 19.0713L13.6719 20.1491Z" fill="#C8C8C8"/>
<path d="M23.9556 20.1491L23.874 22.5323L22.6849 23.5088L23.612 24.7745L18.8457 33.2044L21.8592 19.0713L23.9556 20.1491Z" fill="#C8C8C8"/>
<path d="M16.7393 36.1434V29.8493C16.7393 29.1667 16.1859 28.6133 15.5032 28.6133H12.9915C12.3089 28.6133 11.7554 29.1667 11.7554 29.8493V36.1434C11.7554 36.826 12.3089 37.3794 12.9915 37.3794H15.5032C16.1859 37.3794 16.7393 36.826 16.7393 36.1434Z" fill="#C8C8C8"/>
<path d="M15.4395 28.6133H13.0514C12.6262 28.6133 12.2529 28.8209 12.0156 29.1349C12.2332 28.9717 12.5002 28.8729 12.7919 28.8729H15.1799C15.8969 28.8729 16.4778 29.4538 16.4778 30.1707V36.3411C16.4778 36.6329 16.3789 36.8998 16.2158 37.1174C16.5322 36.8801 16.7374 36.5068 16.7374 36.0816V29.9111C16.7374 29.1942 16.1564 28.6133 15.4395 28.6133Z" fill="#C8C8C8"/>
<path d="M14.6465 29.7381V29.701C14.6465 29.4908 14.476 29.3203 14.2658 29.3203H14.2287C14.0184 29.3203 13.848 29.4908 13.848 29.701V29.7381C13.848 29.9484 14.0184 30.1188 14.2287 30.1188H14.2658C14.476 30.1188 14.6465 29.9484 14.6465 29.7381Z" fill="#C8C8C8"/>
<path d="M24.4977 20.4629C27.6521 21.4468 29.9215 21.7311 30.2602 23.7137C30.9029 27.4738 31.6372 31.7383 32.05 36.3092C32.1909 42.2671 31.652 49.6958 31.652 49.6958H28.3863C28.369 49.6661 28.3047 44.937 28.1836 39.6515C27.5853 35.8024 27.3035 34.1016 27.2862 34.0794L23.7832 22.9375C23.8376 22.8262 24.2158 21.1477 24.5001 20.4629H24.4977Z" fill="#C8C8C8"/>
<path d="M12.813 32.2575C12.813 32.2575 11.8365 32.3663 11.0776 32.4232C10.8897 32.4355 10.6993 32.4454 10.5238 32.4578C10.3483 32.4627 10.1851 32.4677 10.0442 32.4726C9.7698 32.4726 9.58438 32.4726 9.58438 32.4726L9.5127 35.5875C9.5127 35.5875 9.74261 35.5875 10.0887 35.5875C10.2568 35.5825 10.4546 35.5751 10.6647 35.5702C10.8699 35.5578 11.0924 35.5455 11.3124 35.5306C12.1851 35.4663 13.2283 35.3477 13.2283 35.3477C13.8983 35.2587 14.3111 34.4775 14.1702 33.6345C14.0268 32.7841 13.4187 32.1834 12.8155 32.26L12.813 32.2575Z" fill="#C8C8C8"/>
<path d="M11.7747 31.4542C11.2605 31.5136 10.86 31.877 10.5584 32.2404C10.2618 32.5964 10.0689 32.9548 10.0541 32.9845C9.93297 33.2094 9.96263 33.5407 10.1332 33.7113C10.3038 33.8794 10.551 33.8349 10.6672 33.6C10.6672 33.5951 10.7043 33.5283 10.7661 33.427C10.8279 33.3281 10.9169 33.1971 11.0232 33.0636C11.2407 32.7966 11.5324 32.5247 11.8835 32.4851C12.0862 32.4629 12.2222 32.2132 12.1875 31.9289C12.1529 31.6446 11.9651 31.432 11.7722 31.4542H11.7747Z" fill="#C8C8C8"/>
<path d="M9.97434 36.2797C8.69625 36.2797 5.09189 36.4725 4.01404 35.5949C3.25757 34.9793 1.6754 32.972 3.34161 29.5827C4.72353 26.7669 6.98059 24.2157 9.09178 22.2231L12.8099 26.3763C10.8495 28.2255 9.16101 29.1822 7.31927 31.2316C6.76057 31.8521 6.98307 32.0622 6.9979 32.0746C7.29208 32.3144 9.07201 32.1809 10.2413 32.0869L10.5405 36.2277C10.1548 36.2599 10.3798 36.2821 9.97681 36.2821L9.97434 36.2797Z" fill="#C8C8C8"/>
<path d="M24.2524 9.63913L24.4205 7.44635C24.4205 4.57868 21.6789 2.25488 18.8137 2.25488C15.9486 2.25488 13.207 4.57868 13.207 7.44635L13.3751 9.63665C13.2144 9.67621 13.071 9.7479 12.9499 9.85173C12.7249 10.0421 12.584 10.3264 12.584 10.6428V11.7231C12.584 12.2942 13.0438 12.7565 13.6149 12.7614C13.6149 15.4684 16.8682 18.0369 18.8137 18.0369C20.7593 18.0369 24.0126 15.4709 24.0126 12.7614C24.5837 12.7565 25.0435 12.2942 25.0435 11.7231V10.6428C25.0435 10.1558 24.7048 9.7479 24.2524 9.63665V9.63913Z" fill="#C8C8C8"/>
<path d="M24.253 9.63913L24.4211 7.44635C24.4211 4.57868 21.6795 2.25488 18.8143 2.25488V9.62676C18.0554 11.2386 17.5684 13.5723 17.5684 13.5723H18.8143V18.0369C20.7599 18.0369 24.0132 15.4709 24.0132 12.7614C24.5843 12.7565 25.0441 12.2942 25.0441 11.7231V10.6428C25.0441 10.1558 24.7054 9.7479 24.253 9.63665V9.63913Z" fill="#C8C8C8"/>
<path d="M17.2264 10.2344C17.2412 10.6868 16.8877 11.0675 16.4353 11.0823C15.9829 11.0972 15.6022 10.7437 15.5874 10.2913C15.5725 9.83886 15.926 9.45815 16.3784 9.44332C16.8308 9.42849 17.2116 9.782 17.2264 10.2344Z" fill="#C8C8C8"/>
<path d="M17.2264 10.0269C17.2412 10.4793 16.8877 10.86 16.4353 10.8748C15.9829 10.8897 15.6022 10.5361 15.5874 10.0837C15.5725 9.63134 15.926 9.25063 16.3784 9.2358C16.8308 9.22097 17.2116 9.57448 17.2264 10.0269Z" fill="#C8C8C8"/>
<path d="M16.891 10.3117C16.896 10.4255 16.807 10.5194 16.6933 10.5243C16.5796 10.5293 16.4856 10.4403 16.4807 10.3266C16.4757 10.2129 16.5647 10.1189 16.6784 10.114C16.7922 10.109 16.8861 10.198 16.891 10.3117Z" fill="#C8C8C8"/>
<path d="M22.0008 10.2344C22.0156 10.6868 21.6621 11.0675 21.2097 11.0823C20.7573 11.0972 20.3766 10.7437 20.3618 10.2913C20.3469 9.83886 20.7005 9.45815 21.1529 9.44332C21.6053 9.42849 21.986 9.782 22.0008 10.2344Z" fill="#C8C8C8"/>
<path d="M22.0008 10.0269C22.0156 10.4793 21.6621 10.86 21.2097 10.8748C20.7573 10.8897 20.3766 10.5361 20.3618 10.0837C20.3469 9.63134 20.7005 9.25063 21.1529 9.2358C21.6053 9.22097 21.986 9.57448 22.0008 10.0269Z" fill="#C8C8C8"/>
<path d="M21.6645 10.3117C21.6694 10.4255 21.5804 10.5194 21.4667 10.5243C21.353 10.5293 21.259 10.4403 21.2541 10.3266C21.2492 10.2129 21.3382 10.1189 21.4519 10.114C21.5656 10.109 21.6595 10.198 21.6645 10.3117Z" fill="#C8C8C8"/>
<path d="M21.3189 14.8536C20.5748 14.0773 19.0297 13.9933 18.8567 13.9858C18.8468 13.9858 18.8344 13.9858 18.8245 13.9858C18.6515 13.9933 17.1064 14.0748 16.3623 14.8536C16.2881 14.9327 16.2461 15.0365 16.2461 15.1453C16.256 16.2182 16.4365 17.2367 16.4513 17.2787C16.4785 17.3479 16.5205 17.4073 16.5798 17.4542C16.6144 17.4814 17.6552 18.1415 18.8394 18.1415C20.0235 18.1415 21.0667 17.4839 21.1014 17.4542C21.1582 17.4073 21.2027 17.3479 21.2299 17.2787C21.2472 17.2367 21.4252 16.2182 21.4351 15.1453C21.4351 15.0365 21.3955 14.9327 21.3189 14.8536ZM20.4932 16.8659C20.3424 16.9648 19.7985 17.1551 19.3585 17.2515V16.6953C19.3585 16.4085 19.1261 16.1761 18.8394 16.1761C18.5526 16.1761 18.3202 16.4085 18.3202 16.6953V17.2515C17.8802 17.1551 17.3363 16.9648 17.1855 16.8659C17.1014 16.6162 17.1188 15.9883 17.0817 15.3208C17.5637 14.9549 18.4809 14.8338 18.8394 14.8165C19.2003 14.8338 20.115 14.9549 20.597 15.3208C20.56 15.9833 20.5773 16.6162 20.4932 16.8659Z" fill="#C8C8C8"/>
<path d="M18.8403 0.460938C9.64891 0.601849 13.4412 11.1652 13.4412 11.1652C13.4412 11.1652 12.9665 5.38047 15.4016 5.73398C16.8972 5.95153 18.0072 6.0257 18.8403 6.01828C19.6734 6.0257 20.7834 5.95153 22.279 5.73398C24.7141 5.38047 24.2394 11.1652 24.2394 11.1652C24.2394 11.1652 28.0316 0.604321 18.8403 0.460938Z" fill="#C8C8C8"/>
<path d="M21.8603 19.0713H15.7715V21.6547H21.8603V19.0713Z" fill="#32303A"/>
<path d="M22.0856 19.8476L21.3094 19.4892V17.0195H16.3256V19.4892L15.5469 19.8254L15.7545 26.8265H16.3256V27.8994H21.3094V26.8265H21.878L22.0856 19.8476Z" fill="#F2AE75"/>
<g style="mix-blend-mode:multiply">
<path d="M16.3252 17.0195V17.9688L21.309 19.326V17.0195H16.3252Z" fill="#DEB4A0"/>
</g>
<path d="M22.1541 19.8628L21.9687 20.5575C21.6473 21.4746 20.8266 22.9777 18.8761 22.9777C16.6759 22.9777 15.8353 21.0667 15.5758 20.2386L15.4769 19.8628C11.4226 21.3856 12.6661 34.08 12.6661 34.08L12.6414 44.6236H25.3431L25.1726 34.08C25.1726 34.08 26.2084 21.3856 22.1541 19.8628Z" fill="white"/>
<path d="M20.0157 22.6362L19.5361 23.5509H18.08L17.6152 22.6362L18.8142 21.6548L20.0157 22.6362Z" fill="#0C6A93"/>
<path d="M18.8153 21.6554L17.2826 23.2697L14.6621 20.1424L16.2987 19.3291L16.9142 19.8977L18.8178 21.6554H18.8153Z" fill="#E6E7E8"/>
<path d="M21.3336 19.3291L18.8145 21.6554L20.3472 23.2697L22.9676 20.1424L21.3336 19.3291Z" fill="#E6E7E8"/>
<path d="M19.5355 23.771L20.1288 42.8509L18.8137 44.302L17.501 42.8509L18.0795 23.771H19.5355Z" fill="#0C6A93"/>
<path d="M29.1844 23.5376C28.7864 21.2113 26.2079 21.2089 22.1537 19.686L18.8138 33.2036L15.474 19.686C11.4197 21.2089 8.84124 21.2089 8.44323 23.5376C7.80048 27.2977 9.94876 28.9417 9.96359 28.9194C9.96359 28.9194 10.1391 45.6137 9.87706 49.6383H18.1908L18.8138 46.7311L19.4368 49.6383H27.7505C27.4885 45.6137 27.6615 28.9194 27.6615 28.9194C27.6788 28.9417 29.8247 27.2977 29.1819 23.5376H29.1844Z" fill="#32303A"/>
<path d="M13.6719 20.1491L13.7535 22.5323L14.9426 23.5088L14.018 24.7745L18.7842 33.2044L15.7707 19.0713L13.6719 20.1491Z" fill="#4F4C4D"/>
<path d="M23.9556 20.1491L23.874 22.5323L22.6849 23.5088L23.612 24.7745L18.8457 33.2044L21.8592 19.0713L23.9556 20.1491Z" fill="#4F4C4D"/>
<path d="M16.7393 36.1434V29.8493C16.7393 29.1667 16.1859 28.6133 15.5032 28.6133H12.9915C12.3089 28.6133 11.7554 29.1667 11.7554 29.8493V36.1434C11.7554 36.826 12.3089 37.3794 12.9915 37.3794H15.5032C16.1859 37.3794 16.7393 36.826 16.7393 36.1434Z" fill="#686671"/>
<g style="mix-blend-mode:multiply">
<path d="M15.4395 28.6133H13.0514C12.6262 28.6133 12.2529 28.8209 12.0156 29.1349C12.2332 28.9717 12.5002 28.8729 12.7919 28.8729H15.1799C15.8969 28.8729 16.4778 29.4538 16.4778 30.1707V36.3411C16.4778 36.6329 16.3789 36.8998 16.2158 37.1174C16.5322 36.8801 16.7374 36.5068 16.7374 36.0816V29.9111C16.7374 29.1942 16.1564 28.6133 15.4395 28.6133Z" fill="#C8C8C8"/>
</g>
<path d="M14.6465 29.7381V29.701C14.6465 29.4908 14.476 29.3203 14.2658 29.3203H14.2287C14.0184 29.3203 13.848 29.4908 13.848 29.701V29.7381C13.848 29.9484 14.0184 30.1188 14.2287 30.1188H14.2658C14.476 30.1188 14.6465 29.9484 14.6465 29.7381Z" fill="#383643"/>
<path d="M24.4977 20.4629C27.6521 21.4468 29.9215 21.7311 30.2602 23.7137C30.9029 27.4738 31.6372 31.7383 32.05 36.3092C32.1909 42.2671 31.652 49.6958 31.652 49.6958H28.3863C28.369 49.6661 28.3047 44.937 28.1836 39.6515C27.5853 35.8024 27.3035 34.1016 27.2862 34.0794L23.7832 22.9375C23.8376 22.8262 24.2158 21.1477 24.5001 20.4629H24.4977Z" fill="#32303A"/>
<path d="M12.813 32.2575C12.813 32.2575 11.8365 32.3663 11.0776 32.4232C10.8897 32.4355 10.6993 32.4454 10.5238 32.4578C10.3483 32.4627 10.1851 32.4677 10.0442 32.4726C9.7698 32.4726 9.58438 32.4726 9.58438 32.4726L9.5127 35.5875C9.5127 35.5875 9.74261 35.5875 10.0887 35.5875C10.2568 35.5825 10.4546 35.5751 10.6647 35.5702C10.8699 35.5578 11.0924 35.5455 11.3124 35.5306C12.1851 35.4663 13.2283 35.3477 13.2283 35.3477C13.8983 35.2587 14.3111 34.4775 14.1702 33.6345C14.0268 32.7841 13.4187 32.1834 12.8155 32.26L12.813 32.2575Z" fill="#F2AE75"/>
<path d="M11.7747 31.4542C11.2605 31.5136 10.86 31.877 10.5584 32.2404C10.2618 32.5964 10.0689 32.9548 10.0541 32.9845C9.93297 33.2094 9.96263 33.5407 10.1332 33.7113C10.3038 33.8794 10.551 33.8349 10.6672 33.6C10.6672 33.5951 10.7043 33.5283 10.7661 33.427C10.8279 33.3281 10.9169 33.1971 11.0232 33.0636C11.2407 32.7966 11.5324 32.5247 11.8835 32.4851C12.0862 32.4629 12.2222 32.2132 12.1875 31.9289C12.1529 31.6446 11.9651 31.432 11.7722 31.4542H11.7747Z" fill="#F2AE75"/>
<path d="M9.97434 36.2797C8.69625 36.2797 5.09189 36.4725 4.01404 35.5949C3.25757 34.9793 1.6754 32.972 3.34161 29.5827C4.72353 26.7669 6.98059 24.2157 9.09178 22.2231L12.8099 26.3763C10.8495 28.2255 9.16101 29.1822 7.31927 31.2316C6.76057 31.8521 6.98307 32.0622 6.9979 32.0746C7.29208 32.3144 9.07201 32.1809 10.2413 32.0869L10.5405 36.2277C10.1548 36.2599 10.3798 36.2821 9.97681 36.2821L9.97434 36.2797Z" fill="#32303A"/>
<path d="M24.2524 9.63913L24.4205 7.44635C24.4205 4.57868 21.6789 2.25488 18.8137 2.25488C15.9486 2.25488 13.207 4.57868 13.207 7.44635L13.3751 9.63665C13.2144 9.67621 13.071 9.7479 12.9499 9.85173C12.7249 10.0421 12.584 10.3264 12.584 10.6428V11.7231C12.584 12.2942 13.0438 12.7565 13.6149 12.7614C13.6149 15.4684 16.8682 18.0369 18.8137 18.0369C20.7593 18.0369 24.0126 15.4709 24.0126 12.7614C24.5837 12.7565 25.0435 12.2942 25.0435 11.7231V10.6428C25.0435 10.1558 24.7048 9.7479 24.2524 9.63665V9.63913Z" fill="#F2AE75"/>
<g style="mix-blend-mode:multiply" opacity="0.8">
<path d="M24.253 9.63913L24.4211 7.44635C24.4211 4.57868 21.6795 2.25488 18.8143 2.25488V9.62676C18.0554 11.2386 17.5684 13.5723 17.5684 13.5723H18.8143V18.0369C20.7599 18.0369 24.0132 15.4709 24.0132 12.7614C24.5843 12.7565 25.0441 12.2942 25.0441 11.7231V10.6428C25.0441 10.1558 24.7054 9.7479 24.253 9.63665V9.63913Z" fill="#F6CCB8"/>
</g>
<g style="mix-blend-mode:multiply">
<path d="M17.2264 10.2344C17.2412 10.6868 16.8877 11.0675 16.4353 11.0823C15.9829 11.0972 15.6022 10.7437 15.5874 10.2913C15.5725 9.83886 15.926 9.45815 16.3784 9.44332C16.8308 9.42849 17.2116 9.782 17.2264 10.2344Z" fill="#F6CCB8"/>
</g>
<path d="M17.2264 10.0269C17.2412 10.4793 16.8877 10.86 16.4353 10.8748C15.9829 10.8897 15.6022 10.5361 15.5874 10.0837C15.5725 9.63134 15.926 9.25063 16.3784 9.2358C16.8308 9.22097 17.2116 9.57448 17.2264 10.0269Z" fill="#3C2417"/>
<path d="M16.891 10.3117C16.896 10.4255 16.807 10.5194 16.6933 10.5243C16.5796 10.5293 16.4856 10.4403 16.4807 10.3266C16.4757 10.2129 16.5647 10.1189 16.6784 10.114C16.7922 10.109 16.8861 10.198 16.891 10.3117Z" fill="white"/>
<g style="mix-blend-mode:multiply">
<path d="M22.0008 10.2344C22.0156 10.6868 21.6621 11.0675 21.2097 11.0823C20.7573 11.0972 20.3766 10.7437 20.3618 10.2913C20.3469 9.83886 20.7005 9.45815 21.1529 9.44332C21.6053 9.42849 21.986 9.782 22.0008 10.2344Z" fill="#F6CCB8"/>
</g>
<path d="M22.0008 10.0269C22.0156 10.4793 21.6621 10.86 21.2097 10.8748C20.7573 10.8897 20.3766 10.5361 20.3618 10.0837C20.3469 9.63134 20.7005 9.25063 21.1529 9.2358C21.6053 9.22097 21.986 9.57448 22.0008 10.0269Z" fill="#3C2417"/>
<path d="M21.6645 10.3117C21.6694 10.4255 21.5804 10.5194 21.4667 10.5243C21.353 10.5293 21.259 10.4403 21.2541 10.3266C21.2492 10.2129 21.3382 10.1189 21.4519 10.114C21.5656 10.109 21.6595 10.198 21.6645 10.3117Z" fill="white"/>
<path d="M21.3189 14.8536C20.5748 14.0773 19.0297 13.9933 18.8567 13.9858C18.8468 13.9858 18.8344 13.9858 18.8245 13.9858C18.6515 13.9933 17.1064 14.0748 16.3623 14.8536C16.2881 14.9327 16.2461 15.0365 16.2461 15.1453C16.256 16.2182 16.4365 17.2367 16.4513 17.2787C16.4785 17.3479 16.5205 17.4073 16.5798 17.4542C16.6144 17.4814 17.6552 18.1415 18.8394 18.1415C20.0235 18.1415 21.0667 17.4839 21.1014 17.4542C21.1582 17.4073 21.2027 17.3479 21.2299 17.2787C21.2472 17.2367 21.4252 16.2182 21.4351 15.1453C21.4351 15.0365 21.3955 14.9327 21.3189 14.8536ZM20.4932 16.8659C20.3424 16.9648 19.7985 17.1551 19.3585 17.2515V16.6953C19.3585 16.4085 19.1261 16.1761 18.8394 16.1761C18.5526 16.1761 18.3202 16.4085 18.3202 16.6953V17.2515C17.8802 17.1551 17.3363 16.9648 17.1855 16.8659C17.1014 16.6162 17.1188 15.9883 17.0817 15.3208C17.5637 14.9549 18.4809 14.8338 18.8394 14.8165C19.2003 14.8338 20.115 14.9549 20.597 15.3208C20.56 15.9833 20.5773 16.6162 20.4932 16.8659Z" fill="#3C2415"/>
<path d="M18.8403 0.460938C9.64891 0.601849 13.4412 11.1652 13.4412 11.1652C13.4412 11.1652 12.9665 5.38047 15.4016 5.73398C16.8972 5.95153 18.0072 6.0257 18.8403 6.01828C19.6734 6.0257 20.7834 5.95153 22.279 5.73398C24.7141 5.38047 24.2394 11.1652 24.2394 11.1652C24.2394 11.1652 28.0316 0.604321 18.8403 0.460938Z" fill="#3C2417"/>
</g>
<path d="M21.3662 19.0713H15.2773V21.6547H21.3662V19.0713Z" fill="#32303A"/>
<path d="M21.5895 19.8476L20.8133 19.4892V17.0195H15.8295V19.4892L15.0508 19.8254L15.2584 26.8265H15.8295V27.8994H20.8133V26.8265H21.3819L21.5895 19.8476Z" fill="#F2AE75"/>
<g style="mix-blend-mode:multiply">
<path d="M15.8291 17.0195V17.9688L20.8129 19.326V17.0195H15.8291Z" fill="#DEB4A0"/>
</g>
<path d="M21.66 19.8633L21.4745 20.5579C21.1532 21.4751 20.3324 22.9782 18.3819 22.9782C16.1817 22.9782 15.3412 21.0672 15.0816 20.239L14.9827 19.8633C10.9285 21.3861 12.1719 34.0805 12.1719 34.0805L12.1472 44.6241H24.849L24.6784 34.0805C24.6784 34.0805 25.7142 21.3861 21.66 19.8633Z" fill="white"/>
<path d="M19.5215 22.6372L19.0419 23.5519H17.5859L17.1211 22.6372L18.3201 21.6558L19.5215 22.6372Z" fill="#0C6A93"/>
<path d="M18.3202 21.6554L16.7874 23.2697L14.167 20.1424L15.8035 19.3291L16.4191 19.8977L18.3226 21.6554H18.3202Z" fill="#E6E7E8"/>
<path d="M20.8394 19.3291L18.3203 21.6554L19.853 23.2697L22.4735 20.1424L20.8394 19.3291Z" fill="#E6E7E8"/>
<path d="M19.0424 23.7715L19.6357 42.8514L18.3205 44.3025L17.0078 42.8514L17.5863 23.7715H19.0424Z" fill="#0C6A93"/>
<path d="M28.6902 23.5386C28.2922 21.2123 25.7138 21.2098 21.6595 19.687L18.3197 33.2046L14.9798 19.687C10.9255 21.2098 8.3471 21.2098 7.94909 23.5386C7.30634 27.2987 9.45462 28.9427 9.46945 28.9204C9.46945 28.9204 9.64496 45.6147 9.38292 49.6393H17.6967L18.3197 46.7321L18.9426 49.6393H27.2564C26.9944 45.6147 27.1674 28.9204 27.1674 28.9204C27.1847 28.9427 29.3305 27.2987 28.6878 23.5386H28.6902Z" fill="#32303A"/>
<path d="M13.1777 20.1491L13.2593 22.5323L14.4484 23.5088L13.5238 24.7745L18.2901 33.2044L15.2766 19.0713L13.1777 20.1491Z" fill="#4F4C4D"/>
<path d="M23.4624 20.1491L23.3808 22.5323L22.1917 23.5088L23.1188 24.7745L18.3525 33.2044L21.3661 19.0713L23.4624 20.1491Z" fill="#4F4C4D"/>
<path d="M16.2461 36.1439V29.8498C16.2461 29.1672 15.6927 28.6138 15.01 28.6138H12.4983C11.8157 28.6138 11.2623 29.1672 11.2623 29.8498V36.1439C11.2623 36.8265 11.8157 37.3799 12.4983 37.3799H15.01C15.6927 37.3799 16.2461 36.8265 16.2461 36.1439Z" fill="#686671"/>
<g style="mix-blend-mode:multiply">
<path d="M14.9464 28.6138H12.5583C12.1331 28.6138 11.7598 28.8214 11.5225 29.1354C11.74 28.9722 12.007 28.8733 12.2987 28.8733H14.6868C15.4037 28.8733 15.9846 29.4543 15.9846 30.1712V36.3416C15.9846 36.6333 15.8858 36.9003 15.7226 37.1179C16.039 36.8806 16.2442 36.5073 16.2442 36.0821V29.9116C16.2442 29.1947 15.6633 28.6138 14.9464 28.6138Z" fill="#C8C8C8"/>
</g>
<path d="M14.1523 29.7386V29.7015C14.1523 29.4913 13.9819 29.3208 13.7716 29.3208H13.7346C13.5243 29.3208 13.3538 29.4913 13.3538 29.7015V29.7386C13.3538 29.9488 13.5243 30.1193 13.7346 30.1193H13.7716C13.9819 30.1193 14.1523 29.9488 14.1523 29.7386Z" fill="#383643"/>
<path d="M24.0045 20.4629C27.1589 21.4468 29.4283 21.7311 29.767 23.7137C30.4098 27.4738 31.144 31.7383 31.5568 36.3092C31.6977 42.2671 31.1588 49.6958 31.1588 49.6958H27.8931C27.8758 49.6661 27.8116 44.937 27.6904 39.6515C27.0922 35.8024 26.8104 34.1016 26.7931 34.0794L23.29 22.9375C23.3444 22.8262 23.7227 21.1477 24.007 20.4629H24.0045Z" fill="#32303A"/>
<path d="M12.3169 32.258C12.3169 32.258 11.3404 32.3668 10.5815 32.4236C10.3936 32.436 10.2032 32.4459 10.0277 32.4583C9.85219 32.4632 9.68903 32.4681 9.54811 32.4731C9.27371 32.4731 9.08829 32.4731 9.08829 32.4731L9.0166 35.588C9.0166 35.588 9.24651 35.588 9.59261 35.588C9.76072 35.583 9.95849 35.5756 10.1686 35.5707C10.3738 35.5583 10.5963 35.5459 10.8163 35.5311C11.689 35.4668 12.7322 35.3482 12.7322 35.3482C13.4022 35.2592 13.815 34.478 13.6741 33.635C13.5307 32.7846 12.9226 32.1839 12.3194 32.2605L12.3169 32.258Z" fill="#F2AE75"/>
<path d="M11.2786 31.4547C10.7644 31.5141 10.3639 31.8775 10.0623 32.2409C9.76566 32.5968 9.57284 32.9553 9.55801 32.985C9.43687 33.2099 9.46654 33.5412 9.63712 33.7118C9.80769 33.8799 10.0549 33.8354 10.1711 33.6005C10.1711 33.5956 10.2082 33.5288 10.27 33.4275C10.3318 33.3286 10.4208 33.1976 10.5271 33.0641C10.7446 32.7971 11.0363 32.5252 11.3874 32.4856C11.5901 32.4634 11.7261 32.2137 11.6915 31.9294C11.6568 31.6451 11.469 31.4325 11.2761 31.4547H11.2786Z" fill="#F2AE75"/>
<path d="M9.47922 36.2797C8.20113 36.2797 4.59677 36.4725 3.51892 35.5949C2.76245 34.9793 1.18028 32.972 2.8465 29.5827C4.22842 26.7669 6.48547 24.2157 8.59667 22.2231L12.3148 26.3763C10.3544 28.2255 8.66589 29.1822 6.82416 31.2316C6.26546 31.8521 6.48795 32.0622 6.50278 32.0746C6.79697 32.3144 8.5769 32.1809 9.74621 32.0869L10.0453 36.2277C9.65969 36.2599 9.88465 36.2821 9.48169 36.2821L9.47922 36.2797Z" fill="#32303A"/>
<path d="M23.7573 9.63961L23.9254 7.44684C23.9254 4.57917 21.1838 2.25537 18.3186 2.25537C15.4534 2.25537 12.7118 4.57917 12.7118 7.44684L12.88 9.63714C12.7193 9.6767 12.5759 9.74839 12.4548 9.85222C12.2298 10.0426 12.0889 10.3269 12.0889 10.6433V11.7236C12.0889 12.2947 12.5487 12.757 13.1198 12.7619C13.1198 15.4689 16.3731 18.0374 18.3186 18.0374C20.2642 18.0374 23.5175 15.4714 23.5175 12.7619C24.0886 12.757 24.5484 12.2947 24.5484 11.7236V10.6433C24.5484 10.1563 24.2097 9.74839 23.7573 9.63714V9.63961Z" fill="#F2AE75"/>
<g style="mix-blend-mode:multiply" opacity="0.8">
<path d="M23.7569 9.63961L23.925 7.44684C23.925 4.57917 21.1834 2.25537 18.3182 2.25537V9.62725C17.5593 11.2391 17.0723 13.5728 17.0723 13.5728H18.3182V18.0374C20.2638 18.0374 23.5171 15.4714 23.5171 12.7619C24.0882 12.757 24.548 12.2947 24.548 11.7236V10.6433C24.548 10.1563 24.2093 9.74839 23.7569 9.63714V9.63961Z" fill="#F6CCB8"/>
</g>
<g style="mix-blend-mode:multiply">
<path d="M16.7293 10.2359C16.7441 10.6883 16.3906 11.069 15.9382 11.0838C15.4858 11.0986 15.1051 10.7451 15.0903 10.2927C15.0755 9.84033 15.429 9.45962 15.8814 9.44479C16.3338 9.42995 16.7145 9.78347 16.7293 10.2359Z" fill="#F6CCB8"/>
</g>
<path d="M16.7293 10.0279C16.7441 10.4803 16.3906 10.861 15.9382 10.8758C15.4858 10.8906 15.1051 10.5371 15.0903 10.0847C15.0755 9.63232 15.429 9.25161 15.8814 9.23678C16.3338 9.22195 16.7145 9.57546 16.7293 10.0279Z" fill="#3C2417"/>
<path d="M16.393 10.3122C16.3979 10.4259 16.309 10.5199 16.1952 10.5248C16.0815 10.5298 15.9876 10.4408 15.9826 10.3271C15.9777 10.2133 16.0667 10.1194 16.1804 10.1145C16.2941 10.1095 16.3881 10.1985 16.393 10.3122Z" fill="white"/>
<g style="mix-blend-mode:multiply">
<path d="M21.5076 10.2354C21.5225 10.6878 21.169 11.0685 20.7166 11.0833C20.2642 11.0982 19.8834 10.7446 19.8686 10.2922C19.8538 9.83984 20.2073 9.45913 20.6597 9.4443C21.1121 9.42947 21.4928 9.78298 21.5076 10.2354Z" fill="#F6CCB8"/>
</g>
<path d="M21.5076 10.0279C21.5225 10.4803 21.169 10.861 20.7166 10.8758C20.2642 10.8906 19.8834 10.5371 19.8686 10.0847C19.8538 9.63232 20.2073 9.25161 20.6597 9.23678C21.1121 9.22195 21.4928 9.57546 21.5076 10.0279Z" fill="#3C2417"/>
<path d="M21.1713 10.3122C21.1763 10.4259 21.0873 10.5199 20.9735 10.5248C20.8598 10.5298 20.7659 10.4408 20.7609 10.3271C20.756 10.2133 20.845 10.1194 20.9587 10.1145C21.0724 10.1095 21.1664 10.1985 21.1713 10.3122Z" fill="white"/>
<path d="M20.8257 14.8536C20.0816 14.0773 18.5365 13.9933 18.3635 13.9858C18.3536 13.9858 18.3412 13.9858 18.3314 13.9858C18.1583 13.9933 16.6132 14.0748 15.8691 14.8536C15.795 14.9327 15.7529 15.0365 15.7529 15.1453C15.7628 16.2182 15.9433 17.2367 15.9581 17.2787C15.9853 17.3479 16.0273 17.4073 16.0867 17.4542C16.1213 17.4814 17.162 18.1415 18.3462 18.1415C19.5303 18.1415 20.5736 17.4839 20.6082 17.4542C20.665 17.4073 20.7096 17.3479 20.7367 17.2787C20.7541 17.2367 20.932 16.2182 20.9419 15.1453C20.9419 15.0365 20.9024 14.9327 20.8257 14.8536ZM20 16.8659C19.8492 16.9648 19.3054 17.1551 18.8653 17.2515V16.6953C18.8653 16.4085 18.633 16.1761 18.3462 16.1761C18.0594 16.1761 17.827 16.4085 17.827 16.6953V17.2515C17.387 17.1551 16.8431 16.9648 16.6923 16.8659C16.6083 16.6162 16.6256 15.9883 16.5885 15.3208C17.0706 14.9549 17.9877 14.8338 18.3462 14.8165C18.7071 14.8338 19.6218 14.9549 20.1039 15.3208C20.0668 15.9833 20.0841 16.6162 20 16.8659Z" fill="#3C2415"/>
<path d="M18.3461 0.460938C9.15477 0.601849 12.947 11.1652 12.947 11.1652C12.947 11.1652 12.4724 5.38047 14.9074 5.73398C16.403 5.95153 17.513 6.0257 18.3461 6.01828C19.1792 6.0257 20.2892 5.95153 21.7849 5.73398C24.2199 5.38047 23.7453 11.1652 23.7453 11.1652C23.7453 11.1652 27.5375 0.604321 18.3461 0.460938Z" fill="#3C2417"/>
</svg>
