<svg width="48" height="48" viewBox="0 0 48 48" fill="none" xmlns="http://www.w3.org/2000/svg">
<rect width="48" height="48" fill="#F2F1FF"/>
<path fill-rule="evenodd" clip-rule="evenodd" d="M22.5597 11.4424L19.3551 17.4847C19.3187 17.5549 19.2653 17.6148 19.2016 17.6616C19.1378 17.7084 19.0637 17.7397 18.9856 17.7527L12.2486 18.9341C11.5512 19.0564 10.9787 19.5534 10.7601 20.226C10.5416 20.8987 10.712 21.6377 11.2051 22.1464L15.9619 27.0619C16.0165 27.1192 16.0582 27.1881 16.0829 27.2623C16.1076 27.3378 16.1141 27.4171 16.1037 27.4965L15.1448 34.2687C15.0459 34.9686 15.3413 35.6673 15.9137 36.0837C16.4862 36.5 17.2408 36.5651 17.8771 36.2541L24.0208 33.2486C24.0924 33.2135 24.1704 33.1966 24.2498 33.1966V10.4263C23.5407 10.4263 22.8915 10.8179 22.5597 11.4424Z" fill="#4A3AFF"/>
<path opacity="0.35" fill-rule="evenodd" clip-rule="evenodd" d="M32.5351 27.0606L37.2919 22.1451C37.7837 21.6364 37.9555 20.8974 37.7369 20.2247C37.5183 19.5521 36.9458 19.0551 36.2484 18.9328L29.5114 17.7527C29.4334 17.7384 29.3592 17.7071 29.2954 17.6616C29.2317 17.6148 29.1783 17.5549 29.1419 17.4847L25.9373 11.4411C25.6056 10.8179 24.9563 10.4263 24.2485 10.4263V33.1953C24.3279 33.1953 24.406 33.2135 24.4775 33.2473L30.6213 36.2528C31.2575 36.5638 32.0121 36.4974 32.5846 36.0824C33.1571 35.666 33.4524 34.9686 33.3535 34.2674L32.3946 27.4952C32.3829 27.4171 32.3907 27.3365 32.4154 27.261C32.4389 27.1868 32.4805 27.1179 32.5351 27.0606Z" fill="#4A3AFF"/>
</svg>
