<svg width="183" height="55" viewBox="0 0 183 55" fill="none" xmlns="http://www.w3.org/2000/svg">
<g id="Vector">
<path d="M0 11C0 4.92487 4.89146 0 10.9254 0H172.075C178.109 0 183 4.92487 183 11V44C183 50.0751 178.109 55 172.075 55H10.9254C4.89146 55 0 50.0751 0 44V11Z" fill="white"/>
<path d="M49.7673 29.15V23.0076H53.5343V24.002H50.9909V25.5772H52.94V26.554H50.9909V29.15H49.7673Z" fill="#1A1D1E"/>
<path d="M54.402 29.15V24.2748H55.6256V29.15H54.402ZM55.0226 23.694C54.5856 23.694 54.2709 23.3772 54.2709 22.9724C54.2709 22.5676 54.5856 22.2508 55.0226 22.2508C55.4508 22.2508 55.7742 22.5676 55.7742 22.9724C55.7742 23.3772 55.4508 23.694 55.0226 23.694Z" fill="#1A1D1E"/>
<path d="M60.2258 29.15V26.4572C60.2258 25.674 59.7976 25.2516 59.1508 25.2516C58.4865 25.2516 58.0583 25.674 58.0583 26.4572V29.15H56.8346V24.2748H58.0583V24.882C58.3729 24.4684 58.8973 24.2044 59.5179 24.2044C60.6454 24.2044 61.4495 24.9436 61.4495 26.29V29.15H60.2258Z" fill="#1A1D1E"/>
<path d="M62.2985 26.6948C62.2985 25.1724 63.2774 24.1956 64.5098 24.1956C65.2876 24.1956 65.8208 24.5652 66.1092 24.97V24.2748H67.3416V29.15H66.1092V28.4372C65.8208 28.8596 65.2702 29.2292 64.501 29.2292C63.2774 29.2292 62.2985 28.2172 62.2985 26.6948ZM66.1092 26.7124C66.1092 25.7884 65.4974 25.278 64.8244 25.278C64.1689 25.278 63.5483 25.7708 63.5483 26.6948C63.5483 27.6188 64.1689 28.1468 64.8244 28.1468C65.4974 28.1468 66.1092 27.6364 66.1092 26.7124Z" fill="#1A1D1E"/>
<path d="M71.9279 29.15V26.4572C71.9279 25.674 71.4997 25.2516 70.8529 25.2516C70.1886 25.2516 69.7604 25.674 69.7604 26.4572V29.15H68.5367V24.2748H69.7604V24.882C70.075 24.4684 70.5994 24.2044 71.22 24.2044C72.3475 24.2044 73.1516 24.9436 73.1516 26.29V29.15H71.9279Z" fill="#1A1D1E"/>
<path d="M74.0006 26.7124C74.0006 25.1812 74.9969 24.1956 76.3954 24.1956C77.6016 24.1956 78.4144 24.8292 78.6766 25.9204H77.3568C77.217 25.5068 76.8936 25.2428 76.3867 25.2428C75.7049 25.2428 75.2504 25.762 75.2504 26.7124C75.2504 27.6628 75.7049 28.1732 76.3867 28.1732C76.8936 28.1732 77.2082 27.9444 77.3568 27.5044H78.6766C78.4144 28.5428 77.6016 29.2292 76.3954 29.2292C74.9969 29.2292 74.0006 28.2436 74.0006 26.7124Z" fill="#1A1D1E"/>
<path d="M81.6532 25.2076C81.0676 25.2076 80.6044 25.586 80.5082 26.2548H82.807C82.7895 25.6124 82.2825 25.2076 81.6532 25.2076ZM83.9519 27.6188C83.6897 28.5164 82.8856 29.2292 81.6882 29.2292C80.281 29.2292 79.2584 28.2436 79.2584 26.7124C79.2584 25.1724 80.2548 24.1956 81.6882 24.1956C83.0866 24.1956 84.0743 25.1548 84.0743 26.6068C84.0743 26.7652 84.0656 26.9236 84.0393 27.082H80.4995C80.5607 27.8036 81.0501 28.2084 81.662 28.2084C82.1864 28.2084 82.4748 27.9444 82.6321 27.6188H83.9519Z" fill="#1A1D1E"/>
<path d="M87.0501 29.15V23.0076H88.4398L90.3801 27.5748L92.3205 23.0076H93.7015V29.15H92.4778V25.1548L90.8434 29.15H89.9169L88.2737 25.1548V29.15H87.0501Z" fill="#1A1D1E"/>
<path d="M94.5966 26.6948C94.5966 25.1724 95.5755 24.1956 96.8079 24.1956C97.5858 24.1956 98.1189 24.5652 98.4074 24.97V24.2748H99.6397V29.15H98.4074V28.4372C98.1189 28.8596 97.5683 29.2292 96.7991 29.2292C95.5755 29.2292 94.5966 28.2172 94.5966 26.6948ZM98.4074 26.7124C98.4074 25.7884 97.7955 25.278 97.1225 25.278C96.467 25.278 95.8465 25.7708 95.8465 26.6948C95.8465 27.6188 96.467 28.1468 97.1225 28.1468C97.7955 28.1468 98.4074 27.6364 98.4074 26.7124Z" fill="#1A1D1E"/>
<path d="M104.226 29.15V26.4572C104.226 25.674 103.798 25.2516 103.151 25.2516C102.487 25.2516 102.058 25.674 102.058 26.4572V29.15H100.835V24.2748H102.058V24.882C102.373 24.4684 102.898 24.2044 103.518 24.2044C104.646 24.2044 105.45 24.9436 105.45 26.29V29.15H104.226Z" fill="#1A1D1E"/>
<path d="M106.299 26.6948C106.299 25.1724 107.278 24.1956 108.51 24.1956C109.288 24.1956 109.821 24.5652 110.109 24.97V24.2748H111.342V29.15H110.109V28.4372C109.821 28.8596 109.27 29.2292 108.501 29.2292C107.278 29.2292 106.299 28.2172 106.299 26.6948ZM110.109 26.7124C110.109 25.7884 109.498 25.278 108.825 25.278C108.169 25.278 107.549 25.7708 107.549 26.6948C107.549 27.6188 108.169 28.1468 108.825 28.1468C109.498 28.1468 110.109 27.6364 110.109 26.7124Z" fill="#1A1D1E"/>
<path d="M112.222 26.6948C112.222 25.1724 113.201 24.1956 114.434 24.1956C115.194 24.1956 115.745 24.5476 116.033 24.97V24.2748H117.265V29.1852C117.265 30.5052 116.461 31.5524 114.871 31.5524C113.507 31.5524 112.554 30.866 112.432 29.7484H113.647C113.769 30.1884 114.224 30.4788 114.836 30.4788C115.509 30.4788 116.033 30.0916 116.033 29.1852V28.4284C115.745 28.8508 115.194 29.2292 114.434 29.2292C113.201 29.2292 112.222 28.2172 112.222 26.6948ZM116.033 26.7124C116.033 25.7884 115.421 25.278 114.748 25.278C114.093 25.278 113.472 25.7708 113.472 26.6948C113.472 27.6188 114.093 28.1468 114.748 28.1468C115.421 28.1468 116.033 27.6364 116.033 26.7124Z" fill="#1A1D1E"/>
<path d="M120.541 25.2076C119.955 25.2076 119.492 25.586 119.396 26.2548H121.694C121.677 25.6124 121.17 25.2076 120.541 25.2076ZM122.839 27.6188C122.577 28.5164 121.773 29.2292 120.576 29.2292C119.169 29.2292 118.146 28.2436 118.146 26.7124C118.146 25.1724 119.142 24.1956 120.576 24.1956C121.974 24.1956 122.962 25.1548 122.962 26.6068C122.962 26.7652 122.953 26.9236 122.927 27.082H119.387C119.448 27.8036 119.938 28.2084 120.549 28.2084C121.074 28.2084 121.362 27.9444 121.52 27.6188H122.839Z" fill="#1A1D1E"/>
<path d="M125.079 26.7212V29.15H123.855V24.2748H125.079V25.0316C125.384 24.53 125.891 24.2044 126.564 24.2044V25.498H126.241C125.516 25.498 125.079 25.7796 125.079 26.7212Z" fill="#1A1D1E"/>
<path d="M52.2648 16.3064C52.2648 15.7982 51.8846 15.4814 51.3012 15.4814H50.2655V17.105H51.3208C51.9108 17.105 52.2648 16.808 52.2648 16.3064ZM52.1468 14.2406C52.1468 13.7852 51.8387 13.4948 51.2553 13.4948H50.2655V14.9864H51.2684C51.8256 14.9864 52.1468 14.7092 52.1468 14.2406ZM52.8613 16.3658C52.8613 17.0588 52.3172 17.6 51.3733 17.6H49.6689V12.9998H51.3077C52.2714 12.9998 52.7564 13.5278 52.7564 14.168C52.7564 14.7488 52.3959 15.0854 51.9567 15.2306C52.4549 15.3164 52.8613 15.7982 52.8613 16.3658Z" fill="#6A6A6A"/>
<path d="M53.6891 17.6V12.716H54.2857V15.587L55.6688 13.9832H56.5013L54.8101 15.785L56.5079 17.6H55.695L54.2857 16.0028V17.6H53.6891Z" fill="#6A6A6A"/>
<path d="M56.8399 15.7784C56.8399 14.6498 57.5806 13.9238 58.5442 13.9238C59.2129 13.9238 59.6717 14.267 59.8815 14.6432V13.9832H60.4846V17.6H59.8815V16.9268C59.6652 17.3162 59.1998 17.6594 58.5377 17.6594C57.5806 17.6594 56.8399 16.9004 56.8399 15.7784ZM59.8815 15.785C59.8815 14.9468 59.3178 14.4452 58.6622 14.4452C58.0067 14.4452 57.4495 14.927 57.4495 15.7784C57.4495 16.6298 58.0067 17.1314 58.6622 17.1314C59.3178 17.1314 59.8815 16.6364 59.8815 15.785Z" fill="#6A6A6A"/>
<path d="M64.0754 16.6166C64.0754 17.2106 63.5576 17.6594 62.7644 17.6594C61.9253 17.6594 61.3353 17.1974 61.296 16.5374H61.9122C61.945 16.8872 62.2531 17.1512 62.7578 17.1512C63.2298 17.1512 63.492 16.9136 63.492 16.6166C63.492 15.8114 61.3681 16.28 61.3681 14.9336C61.3681 14.3792 61.886 13.9238 62.6857 13.9238C63.4789 13.9238 64.0033 14.3528 64.0426 15.059H63.4461C63.4199 14.696 63.1446 14.432 62.666 14.432C62.2268 14.432 61.9646 14.6432 61.9646 14.9336C61.9646 15.7916 64.0492 15.323 64.0754 16.6166Z" fill="#6A6A6A"/>
<path d="M64.9175 17.6V12.716H65.514V14.5046C65.75 14.1218 66.1958 13.9172 66.7005 13.9172C67.5003 13.9172 68.1361 14.432 68.1361 15.4682V17.6H67.5462V15.554C67.5462 14.8148 67.1463 14.4386 66.5432 14.4386C65.9336 14.4386 65.514 14.8214 65.514 15.6002V17.6H64.9175Z" fill="#6A6A6A"/>
<path d="M53.0645 39.0632V39.5384H50.7964V41.36C50.7964 41.5668 50.8227 41.7076 50.8751 41.7824C50.9319 41.8572 51.0412 41.8946 51.2029 41.8946C51.334 41.8946 51.4651 41.866 51.5962 41.8088C51.7316 41.7516 51.8518 41.6746 51.9567 41.5778C52.066 41.481 52.1534 41.371 52.2189 41.2478C52.2845 41.1202 52.3172 40.9904 52.3172 40.8584C52.3172 40.7528 52.2867 40.6714 52.2255 40.6142C52.1687 40.557 52.0747 40.5284 51.9436 40.5284C51.8256 40.5284 51.7163 40.5416 51.6158 40.568L51.5503 40.1192C51.6246 40.0972 51.7032 40.0818 51.7863 40.073C51.8737 40.0598 51.9611 40.0532 52.0485 40.0532C52.2801 40.0532 52.468 40.1126 52.6122 40.2314C52.7608 40.3458 52.8351 40.5328 52.8351 40.7924C52.8351 40.9948 52.787 41.1906 52.6909 41.3798C52.5991 41.5646 52.4746 41.7318 52.3172 41.8814C52.1599 42.0266 51.9829 42.141 51.7863 42.2246C51.5896 42.3082 51.3886 42.35 51.1832 42.35C51.0215 42.35 50.8882 42.3324 50.7833 42.2972C50.6784 42.2576 50.591 42.2048 50.5211 42.1388C50.4774 42.0948 50.4381 42.0464 50.4031 41.9936C50.3682 41.9364 50.3397 41.8616 50.3179 41.7692C50.3004 41.6724 50.2917 41.5448 50.2917 41.3864V39.5384H49.6558V39.0632H53.0645ZM49.9836 37.4066C50.1103 37.4066 50.2196 37.4242 50.3113 37.4594C50.4075 37.4946 50.4883 37.5474 50.5539 37.6178C50.6325 37.7014 50.6915 37.8158 50.7309 37.961C50.7746 38.1018 50.7964 38.302 50.7964 38.5616V39.116H50.2917V38.588C50.2917 38.434 50.2808 38.3064 50.2589 38.2052C50.2414 38.0996 50.1999 38.0204 50.1343 37.9676C50.0688 37.9104 49.9705 37.8818 49.8394 37.8818C49.7563 37.8818 49.6733 37.895 49.5903 37.9214C49.5116 37.9434 49.4439 37.9654 49.3871 37.9874L49.2101 37.5782C49.3412 37.521 49.4679 37.4792 49.5903 37.4528C49.717 37.422 49.8481 37.4066 49.9836 37.4066Z" fill="#6A6A6A"/>
<path d="M58.6781 38.7134H58.1274C58.0356 38.2514 57.7669 37.9808 57.2294 37.9808C56.4755 37.9808 56.0691 38.5022 56.0756 39.9212C56.2788 39.4526 56.7967 39.1886 57.3605 39.1886C58.2454 39.1886 58.8419 39.776 58.8419 40.7792C58.8419 41.6504 58.3306 42.3632 57.2949 42.3632C55.8921 42.3632 55.5578 41.3468 55.5578 39.9014C55.5578 38.4032 56.0363 37.4792 57.2359 37.4792C58.1405 37.4792 58.5994 38.0468 58.6781 38.7134ZM57.2359 39.6968C56.6918 39.6968 56.1477 40.0202 56.1477 40.733C56.1477 41.3666 56.5148 41.8616 57.2621 41.8616C57.8783 41.8616 58.2651 41.4458 58.2651 40.799C58.2651 40.1258 57.9177 39.6968 57.2359 39.6968Z" fill="#6A6A6A"/>
<path d="M59.6467 39.9146C59.6467 38.5484 59.9876 37.5056 61.2986 37.5056C62.6031 37.5056 62.944 38.5484 62.944 39.9146C62.944 41.3006 62.6031 42.35 61.2986 42.35C59.9876 42.35 59.6467 41.3006 59.6467 39.9146ZM62.354 39.9146C62.354 38.9246 62.2295 38.0534 61.2986 38.0534C60.3612 38.0534 60.2367 38.9246 60.2367 39.9146C60.2367 40.9442 60.3612 41.8022 61.2986 41.8022C62.2295 41.8022 62.354 40.9442 62.354 39.9146Z" fill="#6A6A6A"/>
<path d="M63.3434 43.2938L63.8219 41.5184H64.4774L63.7433 43.2938H63.3434Z" fill="#6A6A6A"/>
<path d="M65.0624 39.9146C65.0624 38.5484 65.4033 37.5056 66.7144 37.5056C68.0188 37.5056 68.3597 38.5484 68.3597 39.9146C68.3597 41.3006 68.0188 42.35 66.7144 42.35C65.4033 42.35 65.0624 41.3006 65.0624 39.9146ZM67.7697 39.9146C67.7697 38.9246 67.6452 38.0534 66.7144 38.0534C65.777 38.0534 65.6524 38.9246 65.6524 39.9146C65.6524 40.9442 65.777 41.8022 66.7144 41.8022C67.6452 41.8022 67.7697 40.9442 67.7697 39.9146Z" fill="#6A6A6A"/>
<path d="M69.1787 39.9146C69.1787 38.5484 69.5195 37.5056 70.8306 37.5056C72.1351 37.5056 72.4759 38.5484 72.4759 39.9146C72.4759 41.3006 72.1351 42.35 70.8306 42.35C69.5195 42.35 69.1787 41.3006 69.1787 39.9146ZM71.886 39.9146C71.886 38.9246 71.7614 38.0534 70.8306 38.0534C69.8932 38.0534 69.7686 38.9246 69.7686 39.9146C69.7686 40.9442 69.8932 41.8022 70.8306 41.8022C71.7614 41.8022 71.886 40.9442 71.886 39.9146Z" fill="#6A6A6A"/>
<path d="M73.2949 39.9146C73.2949 38.5484 73.6357 37.5056 74.9468 37.5056C76.2513 37.5056 76.5922 38.5484 76.5922 39.9146C76.5922 41.3006 76.2513 42.35 74.9468 42.35C73.6357 42.35 73.2949 41.3006 73.2949 39.9146ZM76.0022 39.9146C76.0022 38.9246 75.8776 38.0534 74.9468 38.0534C74.0094 38.0534 73.8848 38.9246 73.8848 39.9146C73.8848 40.9442 74.0094 41.8022 74.9468 41.8022C75.8776 41.8022 76.0022 40.9442 76.0022 39.9146Z" fill="#6A6A6A"/>
<path d="M77.3521 43.472L79.1417 36.1328H79.7382L77.9421 43.472H77.3521Z" fill="#6A6A6A"/>
<path d="M85.8122 42.35V40.304C85.8122 39.5648 85.4189 39.1886 84.8289 39.1886C84.2258 39.1886 83.8128 39.578 83.8128 40.3568V42.35H83.2229V40.304C83.2229 39.5648 82.8296 39.1886 82.2396 39.1886C81.6365 39.1886 81.2235 39.578 81.2235 40.3568V42.35H80.627V38.7332H81.2235V39.2546C81.4595 38.8718 81.8856 38.6672 82.3576 38.6672C82.9475 38.6672 83.4392 38.9312 83.6752 39.4724C83.8849 38.951 84.3963 38.6672 84.9469 38.6672C85.7663 38.6672 86.4022 39.182 86.4022 40.2182V42.35H85.8122Z" fill="#6A6A6A"/>
<path d="M165.878 42.35V38.225H165.268V37.5386H166.632V42.35H165.878Z" fill="#6A6A6A"/>
<path d="M167.599 42.284V41.7362C168.727 40.7396 169.913 39.8684 169.913 38.9246C169.913 38.423 169.697 38.0798 169.14 38.0798C168.615 38.0798 168.333 38.4494 168.314 38.9906H167.593C167.619 37.9478 168.288 37.4396 169.133 37.4396C170.103 37.4396 170.654 38.027 170.654 38.8916C170.654 40.0598 169.474 40.9508 168.707 41.657H170.785V42.284H167.599Z" fill="#6A6A6A"/>
<path d="M171.54 42.35V37.466H172.287V39.1358C172.536 38.8322 172.943 38.654 173.408 38.654C174.214 38.654 174.844 39.1886 174.844 40.205V42.35H174.103V40.3172C174.103 39.6506 173.742 39.3074 173.198 39.3074C172.648 39.3074 172.287 39.6506 172.287 40.3172V42.35H171.54Z" fill="#6A6A6A"/>
<path d="M168.797 22C173.021 22 176.445 18.5526 176.445 14.3C176.445 10.0474 173.021 6.6 168.797 6.6C164.573 6.6 161.149 10.0474 161.149 14.3C161.149 18.5526 164.573 22 168.797 22Z" fill="#FAFAFA"/>
<path d="M170.466 11C170.075 11.0001 169.692 11.1048 169.355 11.3034C169.018 11.5021 168.739 11.7874 168.548 12.1302C168.357 11.7874 168.078 11.5019 167.741 11.3033C167.404 11.1047 167.02 11 166.629 11C166.031 11.0325 165.468 11.296 165.058 11.7357C164.648 12.1754 164.422 12.7574 164.427 13.3606C164.427 16.4368 168.548 18.5828 168.548 18.5828C168.548 18.5828 172.669 16.4379 172.669 13.3606C172.674 12.7573 172.448 12.1752 172.038 11.7355C171.627 11.2958 171.064 11.0324 170.466 11Z" fill="#FF0000"/>
<path d="M102.987 37.7498C104.488 37.7498 105.412 38.6342 105.412 40.0598C105.412 41.4854 104.488 42.35 102.987 42.35H101.564V37.7498H102.987ZM102.161 41.855H102.987C104.18 41.855 104.803 41.1818 104.803 40.0598C104.803 38.9378 104.18 38.2382 102.987 38.2382H102.161V41.855Z" fill="#6A6A6A"/>
<path d="M106.199 42.35V37.466H106.796V39.2546C107.032 38.8718 107.477 38.6672 107.982 38.6672C108.782 38.6672 109.418 39.182 109.418 40.2182V42.35H108.828V40.304C108.828 39.5648 108.428 39.1886 107.825 39.1886C107.215 39.1886 106.796 39.5714 106.796 40.3502V42.35H106.199Z" fill="#6A6A6A"/>
<path d="M110.169 40.5284C110.169 39.3998 110.91 38.6738 111.874 38.6738C112.542 38.6738 113.001 39.017 113.211 39.3932V38.7332H113.814V42.35H113.211V41.6768C112.995 42.0662 112.529 42.4094 111.867 42.4094C110.91 42.4094 110.169 41.6504 110.169 40.5284ZM113.211 40.535C113.211 39.6968 112.647 39.1952 111.992 39.1952C111.336 39.1952 110.779 39.677 110.779 40.5284C110.779 41.3798 111.336 41.8814 111.992 41.8814C112.647 41.8814 113.211 41.3864 113.211 40.535Z" fill="#6A6A6A"/>
<path d="M114.822 42.35V37.466H115.419V40.337L116.802 38.7332H117.634L115.943 40.535L117.641 42.35H116.828L115.419 40.7528V42.35H114.822Z" fill="#6A6A6A"/>
<path d="M117.973 40.5284C117.973 39.3998 118.714 38.6738 119.677 38.6738C120.346 38.6738 120.805 39.017 121.015 39.3932V38.7332H121.618V42.35H121.015V41.6768C120.798 42.0662 120.333 42.4094 119.671 42.4094C118.714 42.4094 117.973 41.6504 117.973 40.5284ZM121.015 40.535C121.015 39.6968 120.451 39.1952 119.795 39.1952C119.14 39.1952 118.583 39.677 118.583 40.5284C118.583 41.3798 119.14 41.8814 119.795 41.8814C120.451 41.8814 121.015 41.3864 121.015 40.535Z" fill="#6A6A6A"/>
<path d="M122.108 43.2938L122.586 41.5184H123.242L122.508 43.2938H122.108Z" fill="#6A6A6A"/>
<path d="M128.269 41.0564C128.269 40.5482 127.888 40.2314 127.305 40.2314H126.269V41.855H127.325C127.915 41.855 128.269 41.558 128.269 41.0564ZM128.151 38.9906C128.151 38.5352 127.843 38.2448 127.259 38.2448H126.269V39.7364H127.272C127.829 39.7364 128.151 39.4592 128.151 38.9906ZM128.865 41.1158C128.865 41.8088 128.321 42.35 127.377 42.35H125.673V37.7498H127.312C128.275 37.7498 128.76 38.2778 128.76 38.918C128.76 39.4988 128.4 39.8354 127.961 39.9806C128.459 40.0664 128.865 40.5482 128.865 41.1158Z" fill="#6A6A6A"/>
<path d="M131.116 37.7498C132.617 37.7498 133.541 38.6342 133.541 40.0598C133.541 41.4854 132.617 42.35 131.116 42.35H129.693V37.7498H131.116ZM130.29 41.855H131.116C132.309 41.855 132.931 41.1818 132.931 40.0598C132.931 38.9378 132.309 38.2382 131.116 38.2382H130.29V41.855Z" fill="#6A6A6A"/>
<path d="M10.9254 22C10.9254 17.4437 14.594 13.75 19.1194 13.75H30.0448C34.5702 13.75 38.2388 17.4437 38.2388 22V33C38.2388 37.5564 34.5702 41.25 30.0448 41.25H19.1194C14.594 41.25 10.9254 37.5564 10.9254 33V22Z" fill="#FFD5E5"/>
</g>
</svg>
