<svg width="48" height="48" viewBox="0 0 48 48" fill="none" xmlns="http://www.w3.org/2000/svg">
<rect width="48" height="48" fill="#F2F1FF"/>
<path opacity="0.35" d="M34.3963 12.9534H13.603V34.0975C13.603 35.7674 15.3601 36.8526 16.8533 36.1066L23.9996 32.5328L31.146 36.1066C32.6392 36.8526 34.3963 35.7661 34.3963 34.0975V12.9534Z" fill="#4A3AFF"/>
<path d="M33.7467 11.6538C33.2451 11.6538 14.7547 11.6538 14.2531 11.6538C13.177 11.6538 12.3037 12.5271 12.3037 13.6032C12.3037 14.6792 13.177 15.5525 14.2531 15.5525C14.7547 15.5525 33.2451 15.5525 33.7467 15.5525C34.8228 15.5525 35.6961 14.6792 35.6961 13.6032C35.6961 12.5271 34.8228 11.6538 33.7467 11.6538Z" fill="#4A3AFF"/>
</svg>
