<svg width="29" height="29" viewBox="0 0 29 29" fill="none" xmlns="http://www.w3.org/2000/svg">
<g id="Vector">
<path d="M0.25 9.5C0.25 4.25329 4.5033 0 9.75 0H19.25C24.4967 0 28.75 4.2533 28.75 9.5V19C28.75 24.2467 24.4967 28.5 19.25 28.5H9.75C4.50329 28.5 0.25 24.2467 0.25 19V9.5Z" fill="#E9F4FF"/>
<path d="M21.0983 12.9321H20.5562V12.9042H14.5V15.5958H18.303C17.7482 17.1627 16.2573 18.2875 14.5 18.2875C12.2703 18.2875 10.4625 16.4797 10.4625 14.25C10.4625 12.0203 12.2703 10.2125 14.5 10.2125C15.5292 10.2125 16.4656 10.6008 17.1785 11.235L19.0819 9.33165C17.8801 8.21158 16.2725 7.52083 14.5 7.52083C10.7838 7.52083 7.77083 10.5338 7.77083 14.25C7.77083 17.9662 10.7838 20.9792 14.5 20.9792C18.2162 20.9792 21.2292 17.9662 21.2292 14.25C21.2292 13.7988 21.1827 13.3584 21.0983 12.9321Z" fill="#FFC107"/>
<path d="M8.54671 11.1179L10.7576 12.7393C11.3558 11.2582 12.8046 10.2125 14.5 10.2125C15.5292 10.2125 16.4656 10.6008 17.1785 11.235L19.0819 9.33165C17.8801 8.21158 16.2725 7.52083 14.5 7.52083C11.9153 7.52083 9.67384 8.98005 8.54671 11.1179Z" fill="#FF3D00"/>
<path d="M14.5 20.9792C16.2381 20.9792 17.8175 20.314 19.0116 19.2323L16.9289 17.4699C16.2533 17.9817 15.4135 18.2875 14.5 18.2875C12.7497 18.2875 11.2636 17.1715 10.7037 15.614L8.50936 17.3047C9.62304 19.4839 11.8847 20.9792 14.5 20.9792Z" fill="#4CAF50"/>
<path d="M21.0983 12.9321H20.5562V12.9042H14.5V15.5958H18.303C18.0365 16.3485 17.5524 16.9975 16.9279 17.4702L16.9289 17.4699L19.0116 19.2323C18.8642 19.3662 21.2292 17.6146 21.2292 14.25C21.2292 13.7988 21.1827 13.3584 21.0983 12.9321Z" fill="#1976D2"/>
</g>
</svg>
