<svg width="375" height="534" viewBox="0 0 375 534" fill="none" xmlns="http://www.w3.org/2000/svg">
<path d="M375 0H0V537H375V0Z" fill="url(#paint0_linear_1001_623)"/>
<path opacity="0.14" d="M333.444 450.27C413.939 369.774 413.939 239.266 333.444 158.77C252.949 78.2752 122.44 78.2752 41.9448 158.77C-38.5504 239.266 -38.5504 369.774 41.9448 450.27C122.44 530.765 252.949 530.765 333.444 450.27Z" fill="#B2ADFC"/>
<path opacity="0.36" d="M292.199 409.024C349.915 351.308 349.915 257.732 292.199 200.016C234.483 142.299 140.906 142.299 83.19 200.016C25.4738 257.732 25.4738 351.308 83.19 409.024C140.906 466.741 234.483 466.741 292.199 409.024Z" fill="#B2ADFC"/>
<path d="M254.526 371.351C291.436 334.441 291.436 274.599 254.526 237.689C217.616 200.778 157.773 200.779 120.863 237.689C83.9527 274.599 83.9527 334.441 120.863 371.352C157.773 408.262 217.616 408.262 254.526 371.351Z" fill="#9FC4FF"/>
<path opacity="0.4" d="M243.411 222.27H-91.4102C-91.4102 222.27 -23.817 211.614 4.67948 213.858C18.3207 196.673 80.4636 194.276 93.9577 208.273C108.598 198.96 112.7 215.421 112.7 215.421L243.411 222.27Z" fill="white"/>
<path opacity="0.4" d="M-41.0953 81.8171H145.811C145.811 81.8171 126.143 72.0873 111.687 76.9553C106.371 66.1649 80.4253 77.5806 80.4253 77.5806C80.4253 77.5806 57.9801 57.0237 28.4659 63.8842C9.23329 39.8878 -43.4189 52.9099 -41.0892 81.8232L-41.0953 81.8171Z" fill="white"/>
<path opacity="0.4" d="M316.921 103.208H503.821C503.821 103.208 484.153 93.478 469.697 98.3459C464.381 87.5555 438.435 98.9712 438.435 98.9712C438.435 98.9712 415.99 78.4143 386.476 85.2748C367.243 61.2785 314.591 74.3005 316.921 103.214V103.208Z" fill="white"/>
<path opacity="0.4" d="M414.296 202.375H228.781C228.781 202.375 280.863 188.709 306.202 195.539C317.833 182.971 338.445 197.998 338.445 197.998C338.445 197.998 350.768 179.495 414.296 202.369V202.375Z" fill="white"/>
<defs>
<linearGradient id="paint0_linear_1001_623" x1="186.728" y1="347.653" x2="190.175" y2="6.92259" gradientUnits="userSpaceOnUse">
<stop stop-color="#438AFE"/>
<stop offset="0.57" stop-color="#0A63F5"/>
<stop offset="1" stop-color="#1B70FC"/>
</linearGradient>
</defs>
</svg>
