<svg width="78" height="29" viewBox="0 0 78 29" fill="none" xmlns="http://www.w3.org/2000/svg">
<path d="M11.6123 21.7034V28.957H15.9337V15.6982C15.7191 18.3242 14.0234 20.5627 11.6123 21.7034Z" fill="#0A1931"/>
<path d="M4.28564 21.6748V28.9571H0V15.1387C0 17.9368 1.68134 20.369 4.16401 21.6174C4.20693 21.6389 4.24271 21.6533 4.28564 21.6748Z" fill="#0A1931"/>
<path d="M15.9334 15.232V15.7198C15.7188 18.4247 14.0231 20.7421 11.612 21.9187V15.7557C11.612 13.5459 10.4458 11.9388 8.235 11.9388C5.80958 11.9388 4.28564 13.1872 4.28564 16.1216V21.8829C4.24271 21.8614 4.20693 21.8398 4.16401 21.8255C1.68134 20.534 0 18.0229 0 15.1387C0 12.2832 1.65272 9.79356 4.09962 8.48777C5.24436 7.87793 6.56797 7.52637 7.97744 7.52637C9.43699 7.52637 10.7964 7.89945 11.9769 8.55234C13.9516 9.65007 15.3897 11.5298 15.8261 13.7468C15.8976 14.2347 15.9334 14.7297 15.9334 15.232Z" fill="#185ADB"/>
<path d="M45.4753 21.4236C43.8869 19.8308 43.0928 17.908 43.0928 15.6552C43.0928 13.4095 43.8869 11.4867 45.4753 9.8939C47.0636 8.29395 48.9811 7.49756 51.2276 7.49756C53.467 7.49756 55.3845 8.29395 56.9728 9.8939C58.5683 11.4867 59.3624 13.4095 59.3624 15.6552C59.3624 17.908 58.5683 19.8308 56.9728 21.4236C55.3845 23.0164 53.467 23.8127 51.2276 23.8127C48.9739 23.8127 47.0636 23.0164 45.4753 21.4236ZM54.0895 18.5465C54.8908 17.7502 55.2915 16.7887 55.2915 15.6623C55.2915 14.5431 54.8908 13.5817 54.0895 12.7853C53.2953 11.9817 52.3366 11.5799 51.2205 11.5799C50.0972 11.5799 49.1385 11.9817 48.3443 12.7853C47.5501 13.5817 47.1495 14.5431 47.1495 15.6623C47.1495 16.7887 47.5501 17.7502 48.3443 18.5465C49.1385 19.3429 50.0972 19.7447 51.2205 19.7447C52.3366 19.7375 53.2953 19.3429 54.0895 18.5465Z" fill="#0A1931"/>
<path d="M22.587 7.51904H18.2227V28.9569H22.587V7.51904Z" fill="#0A1931"/>
<path d="M20.434 5.381C21.9157 5.381 23.117 4.17642 23.117 2.6905C23.117 1.20458 21.9157 0 20.434 0C18.9522 0 17.751 1.20458 17.751 2.6905C17.751 4.17642 18.9522 5.381 20.434 5.381Z" fill="#0A1931"/>
<path d="M40.824 7.55477V15.9491C40.824 18.8836 39.1713 21.4449 36.7244 22.7866C35.5725 23.418 34.2489 23.7767 32.8466 23.7767C31.387 23.7767 30.0277 23.3964 28.8471 22.722C26.8725 21.5956 25.4344 19.6656 24.9979 17.3841C24.9264 16.8818 24.8906 16.3724 24.8906 15.863L24.9192 7.58347L29.1977 7.51172L29.212 15.3249C29.212 17.5993 30.3782 19.2495 32.589 19.2495C35.0145 19.2495 36.5384 17.9652 36.5384 14.9447V7.57629L40.824 7.55477Z" fill="#0A1931"/>
<path d="M35.0079 22.5498L35.0294 28.9568H30.665L30.6436 22.5498C30.6436 22.5498 32.933 23.4753 35.0079 22.5498Z" fill="#0A1931"/>
<path d="M66.0157 15.5405C66.0157 14.45 66.402 13.5101 67.1747 12.7352C67.9474 11.9532 68.8847 11.5657 69.9794 11.5657C71.0669 11.5657 72.0041 11.9532 72.7768 12.7352C73.5567 13.5101 73.9502 14.45 73.9502 15.5405C73.9502 16.6382 73.5567 17.5781 72.7768 18.353C72.0041 19.1278 71.0669 19.5153 69.9794 19.5153C68.8847 19.5153 67.9474 19.1278 67.1747 18.353C66.402 17.5781 66.0157 16.6382 66.0157 15.5405ZM76.6761 11.164C76.5402 10.9487 76.4257 10.7263 76.2755 10.468C76.7477 10.3245 77.134 10.2097 77.5275 10.0949V7.50488C74.5011 7.50488 71.5749 7.50488 68.6486 7.50488C68.5627 7.50488 68.4697 7.52641 68.3839 7.54076C64.8423 8.208 62.0806 11.1353 61.7086 14.6078C61.3151 18.2741 63.254 21.6748 66.5594 23.1098C68.019 23.7411 69.5787 23.9205 71.074 23.6838C71.0812 23.6838 71.0883 23.6838 71.0883 23.6838C72.4119 23.4685 73.6783 22.9376 74.773 22.0982L74.7801 22.091C75.2452 21.7322 75.6816 21.3233 76.0751 20.8569C78.3646 18.1736 78.6079 14.2204 76.6761 11.164Z" fill="#0A1931"/>
<path d="M77.9926 25.083C75.9821 28.778 68.2622 30.2201 64.6992 27.5439C64.9639 26.4175 65.2358 25.2695 65.5363 24.0212C67.3822 24.9108 69.221 25.2265 71.0525 24.8965C71.5391 24.8104 72.0041 24.6812 72.4549 24.5162L71.9469 23.7055L71.6178 23.1674C72.1329 23.1387 74.1147 22.9091 75.5171 21.1943L75.9392 21.8616L75.9821 21.9262L77.6491 24.5808C77.7636 24.7458 77.8781 24.918 77.9926 25.083Z" fill="#0A1931"/>
<path d="M57.0511 27.2423C55.4413 25.6208 53.4952 24.8101 51.2201 24.8101C48.9449 24.8101 46.9988 25.6208 45.3819 27.2423C44.8453 27.7804 44.4017 28.3472 44.0439 28.957H50.8981C51.0054 28.9498 51.1056 28.9427 51.2129 28.9427C51.3202 28.9427 51.4204 28.9498 51.5277 28.957H58.3819C58.0313 28.3472 57.5877 27.7732 57.0511 27.2423Z" fill="#185ADB"/>
</svg>
