<svg width="78" height="29" viewBox="0 0 78 29" fill="none" xmlns="http://www.w3.org/2000/svg">
<g id="Layer_1_00000112616897452740723100000007546362029684285872_">
<g id="Group">
<g id="Group_2">
<g id="Group_3">
<path id="Vector" d="M11.6113 21.7032V28.9568H15.9327V15.698C15.7181 18.3239 14.0224 20.5624 11.6113 21.7032Z" fill="#0A1931"/>
<path id="Vector_2" d="M4.28564 21.6745V28.9568H0V15.1384C0 17.9365 1.68134 20.3688 4.16401 21.6172C4.20693 21.6387 4.24271 21.653 4.28564 21.6745Z" fill="#0A1931"/>
</g>
<path id="Vector_3" d="M15.9334 15.2317V15.7196C15.7188 18.4244 14.0231 20.7419 11.612 21.9185V15.7555C11.612 13.5457 10.4458 11.9385 8.235 11.9385C5.80958 11.9385 4.28564 13.1869 4.28564 16.1214V21.8826C4.24271 21.8611 4.20693 21.8396 4.16401 21.8252C1.68134 20.5338 0 18.0227 0 15.1384C0 12.2829 1.65272 9.79332 4.09962 8.48753C5.24436 7.87768 6.56797 7.52612 7.97744 7.52612C9.43699 7.52612 10.7964 7.89921 11.9769 8.5521C13.9516 9.64982 15.3897 11.5296 15.8261 13.7466C15.8976 14.2344 15.9334 14.7295 15.9334 15.2317Z" fill="#185ADB"/>
<g id="Group_4">
<path id="Vector_4" d="M45.4743 21.4236C43.886 19.8308 43.0918 17.908 43.0918 15.6552C43.0918 13.4095 43.886 11.4867 45.4743 9.8939C47.0626 8.29395 48.9801 7.49756 51.2266 7.49756C53.466 7.49756 55.3835 8.29395 56.9718 9.8939C58.5673 11.4867 59.3615 13.4095 59.3615 15.6552C59.3615 17.908 58.5673 19.8308 56.9718 21.4236C55.3835 23.0164 53.466 23.8127 51.2266 23.8127C48.9729 23.8127 47.0626 23.0164 45.4743 21.4236ZM54.0885 18.5465C54.8898 17.7502 55.2905 16.7887 55.2905 15.6623C55.2905 14.5431 54.8898 13.5817 54.0885 12.7853C53.2943 11.9817 52.3356 11.5799 51.2195 11.5799C50.0962 11.5799 49.1375 11.9817 48.3433 12.7853C47.5491 13.5817 47.1485 14.5431 47.1485 15.6623C47.1485 16.7887 47.5491 17.7502 48.3433 18.5465C49.1375 19.3429 50.0962 19.7447 51.2195 19.7447C52.3356 19.7375 53.2943 19.3429 54.0885 18.5465Z" fill="#0A1931"/>
</g>
<path id="Vector_5" d="M22.587 7.51904H18.2227V28.9569H22.587V7.51904Z" fill="#0A1931"/>
<path id="Vector_6" d="M20.433 5.381C21.9148 5.381 23.116 4.17642 23.116 2.6905C23.116 1.20458 21.9148 0 20.433 0C18.9512 0 17.75 1.20458 17.75 2.6905C17.75 4.17642 18.9512 5.381 20.433 5.381Z" fill="#0A1931"/>
<path id="Vector_7" d="M40.824 7.55501V15.9494C40.824 18.8838 39.1713 21.4452 36.7244 22.7868C35.5725 23.4182 34.2489 23.7769 32.8466 23.7769C31.387 23.7769 30.0277 23.3967 28.8471 22.7223C26.8725 21.5958 25.4344 19.6658 24.9979 17.3843C24.9264 16.8821 24.8906 16.3727 24.8906 15.8633L24.9192 7.58371L29.1977 7.51196L29.212 15.3252C29.212 17.5995 30.3782 19.2497 32.589 19.2497C35.0145 19.2497 36.5384 17.9655 36.5384 14.9449V7.57653L40.824 7.55501Z" fill="#0A1931"/>
<path id="Vector_8" d="M35.0069 22.55L35.0284 28.957H30.664L30.6426 22.55C30.6426 22.55 32.9321 23.4756 35.0069 22.55Z" fill="#0A1931"/>
<g id="Group_5">
<path id="Vector_9" d="M66.0157 15.5403C66.0157 14.4497 66.402 13.5098 67.1747 12.735C67.9474 11.9529 68.8847 11.5655 69.9794 11.5655C71.0669 11.5655 72.0041 11.9529 72.7768 12.735C73.5567 13.5098 73.9502 14.4497 73.9502 15.5403C73.9502 16.638 73.5567 17.5779 72.7768 18.3527C72.0041 19.1276 71.0669 19.515 69.9794 19.515C68.8847 19.515 67.9474 19.1276 67.1747 18.3527C66.402 17.5779 66.0157 16.638 66.0157 15.5403ZM76.6761 11.1637C76.5402 10.9485 76.4257 10.7261 76.2755 10.4678C76.7477 10.3243 77.134 10.2095 77.5275 10.0947V7.50464C74.5011 7.50464 71.5749 7.50464 68.6486 7.50464C68.5627 7.50464 68.4697 7.52616 68.3839 7.54051C64.8423 8.20776 62.0806 11.135 61.7086 14.6076C61.3151 18.2738 63.254 21.6746 66.5594 23.1095C68.019 23.7409 69.5787 23.9203 71.074 23.6835C71.0812 23.6835 71.0883 23.6835 71.0883 23.6835C72.4119 23.4683 73.6783 22.9373 74.773 22.0979L74.7801 22.0907C75.2452 21.732 75.6816 21.323 76.0751 20.8567C78.3646 18.1734 78.6079 14.2201 76.6761 11.1637Z" fill="#0A1931"/>
<g id="Group_6">
<path id="Vector_10" d="M77.9926 25.0825C75.9821 28.7775 68.2622 30.2196 64.6992 27.5434C64.9639 26.417 65.2358 25.2691 65.5363 24.0207C67.3822 24.9103 69.221 25.226 71.0525 24.896C71.5391 24.8099 72.0041 24.6807 72.4549 24.5157L71.9469 23.705L71.6178 23.1669C72.1329 23.1382 74.1147 22.9086 75.5171 21.1938L75.9392 21.8611L75.9821 21.9257L77.6491 24.5803C77.7636 24.7453 77.8781 24.9175 77.9926 25.0825Z" fill="#0A1931"/>
</g>
</g>
</g>
<g id="Group_7">
<path id="Vector_11" d="M57.0521 27.2423C55.4423 25.6208 53.4962 24.8101 51.221 24.8101C48.9459 24.8101 46.9998 25.6208 45.3828 27.2423C44.8462 27.7804 44.4027 28.3472 44.0449 28.957H50.8991C51.0064 28.9498 51.1066 28.9427 51.2139 28.9427C51.3212 28.9427 51.4214 28.9498 51.5287 28.957H58.3828C58.0323 28.3472 57.5887 27.7732 57.0521 27.2423Z" fill="#185ADB"/>
</g>
</g>
</g>
</svg>
