<svg width="278" height="103" viewBox="0 0 278 103" fill="none" xmlns="http://www.w3.org/2000/svg">
<path d="M41.2734 76.9247V102.632H56.6314V55.6382C55.8711 64.9449 49.8444 72.8783 41.2734 76.9247Z" fill="white"/>
<path d="M15.2292 76.8203V102.631H0V53.6577C0 63.5775 5.97763 72.1976 14.8 76.618C14.9533 76.6915 15.082 76.7467 15.2353 76.8203H15.2292Z" fill="white"/>
<path d="M56.6312 53.9826V55.7115C55.8709 65.3003 49.8442 73.5095 41.2732 77.6847V55.8403C41.2732 48.0111 37.1287 42.3094 29.2689 42.3094C20.6489 42.3094 15.2353 46.7359 15.2353 57.1339V77.5559C15.082 77.4824 14.9533 77.4026 14.8 77.3536C5.97763 72.7738 0 63.8779 0 53.6515C0 43.4252 5.87341 34.707 14.5732 30.0782C18.6441 27.914 23.3465 26.6694 28.3554 26.6694C33.3644 26.6694 38.3733 27.9937 42.573 30.3051C49.5929 34.1982 54.6999 40.8563 56.251 48.7162C56.5024 50.4451 56.6312 52.1985 56.6312 53.9826Z" fill="white"/>
<path d="M161.623 75.9312C155.976 70.2846 153.156 63.4732 153.156 55.4846C153.156 47.4961 155.976 40.7092 161.623 35.0626C167.27 29.3915 174.081 26.5713 182.07 26.5713C190.058 26.5713 196.845 29.3915 202.492 35.0626C208.163 40.7092 210.983 47.5206 210.983 55.4846C210.983 63.4487 208.163 70.2846 202.492 75.9312C196.845 81.5778 190.034 84.398 182.07 84.398C174.106 84.398 167.27 81.5778 161.623 75.9312ZM192.241 65.7355C195.092 62.9153 196.514 59.5065 196.514 55.5153C196.514 51.5241 195.092 48.1398 192.241 45.3196C189.421 42.4687 186.012 41.0463 182.045 41.0463C178.078 41.0463 174.645 42.4687 171.825 45.3196C169.005 48.1398 167.576 51.5486 167.576 55.5153C167.576 59.482 168.998 62.9153 171.825 65.7355C174.645 68.5557 178.054 69.9842 182.045 69.9842C186.012 69.9597 189.421 68.5618 192.241 65.7355Z" fill="white"/>
<path d="M80.2788 26.6509H64.7676V102.631H80.2788V26.6509Z" fill="white"/>
<path d="M72.6273 19.0671C77.8926 19.0671 82.1609 14.7988 82.1609 9.53355C82.1609 4.26831 77.8926 0 72.6273 0C67.3621 0 63.0938 4.26831 63.0938 9.53355C63.0938 14.7988 67.3621 19.0671 72.6273 19.0671Z" fill="white"/>
<path d="M145.094 26.7736V56.5269C145.094 66.9249 139.221 76.0047 130.521 80.7623C126.425 83.0001 121.723 84.2692 116.739 84.2692C111.754 84.2692 106.721 82.9204 102.521 80.5294C95.5012 76.5382 90.3941 69.6961 88.843 61.6094C88.5916 59.8314 88.4629 58.0228 88.4629 56.2203L88.5671 26.8778L103.772 26.6265L103.821 54.3198C103.821 62.3819 107.965 68.2308 115.825 68.2308C124.445 68.2308 129.859 63.6816 129.859 52.971V26.8533L145.088 26.7797L145.094 26.7736Z" fill="white"/>
<path d="M124.421 79.9224L124.495 102.631H108.984L108.91 79.9224C108.91 79.9224 117.046 83.2024 124.421 79.9224Z" fill="white"/>
<path d="M234.63 55.0801C234.63 51.2176 236.003 47.8824 238.75 45.1358C241.497 42.3646 244.826 40.9913 248.719 40.9913C252.612 40.9913 255.917 42.3646 258.663 45.1358C261.434 47.8824 262.832 51.2115 262.832 55.0801C262.832 58.9487 261.434 62.3023 258.663 65.0489C255.917 67.7956 252.588 69.1689 248.719 69.1689C244.85 69.1689 241.497 67.7956 238.75 65.0489C236.003 62.3023 234.63 58.9732 234.63 55.0801ZM272.519 39.5689C272.035 38.8087 271.63 38.0178 271.097 37.1043C272.777 36.5954 274.15 36.1908 275.548 35.78V26.6021H243.992C243.685 26.6021 243.354 26.6756 243.054 26.7308C230.467 29.0973 220.652 39.4708 219.327 51.7755C217.93 64.7669 224.821 76.8203 236.567 81.9089C241.754 84.1467 247.297 84.7843 252.612 83.9444H252.661C257.364 83.1841 261.864 81.302 265.757 78.3223L265.781 78.2978C267.437 77.0287 268.988 75.5757 270.386 73.9265C278.521 64.4174 279.386 50.4022 272.519 39.575V39.5689Z" fill="white"/>
<path d="M277.196 88.898C270.053 101.994 242.611 107.107 229.951 97.6223C230.889 93.631 231.858 89.5601 232.925 85.1398C239.485 88.291 246.02 89.413 252.531 88.242C254.26 87.9354 255.916 87.4817 257.516 86.8932L255.713 84.0178L254.542 82.1111C256.375 82.0069 263.42 81.1976 268.398 75.1157L269.9 77.4823L270.053 77.7091L275.976 87.12C276.381 87.7025 276.791 88.3156 277.196 88.898Z" fill="white"/>
<path d="M202.768 96.5497C197.048 90.8051 190.132 87.9297 182.046 87.9297C173.959 87.9297 167.043 90.8051 161.299 96.5497C159.392 98.4564 157.816 100.467 156.541 102.625H180.899C181.279 102.601 181.635 102.576 182.015 102.576C182.395 102.576 182.751 102.601 183.131 102.625H207.489C206.244 100.461 204.669 98.4319 202.762 96.5497H202.768Z" fill="white"/>
</svg>
