<svg width="72" height="72" viewBox="0 0 72 72" fill="none" xmlns="http://www.w3.org/2000/svg">
<rect width="72" height="72" rx="16" fill="#F2F1FF"/>
<path opacity="0.35" d="M32.0601 28.1189H20.2383V51.7625H32.0601V28.1189Z" fill="#4A3AFF"/>
<path opacity="0.35" d="M51.763 53.7327H34.0303V22.2079C34.0303 20.0308 35.7937 18.2673 37.9709 18.2673H49.7927C51.9699 18.2673 53.7333 20.0308 53.7333 22.2079V51.7624C53.7333 52.85 52.8506 53.7327 51.763 53.7327Z" fill="#4A3AFF"/>
<path d="M49.7922 26.1486H45.8516V22.208H49.7922V26.1486Z" fill="#4A3AFF"/>
<path d="M41.9113 26.1486H37.9707V22.208H41.9113V26.1486Z" fill="#4A3AFF"/>
<path d="M49.7922 34.0297H45.8516V30.0891H49.7922V34.0297Z" fill="#4A3AFF"/>
<path d="M41.9113 34.0297H37.9707V30.0891H41.9113V34.0297Z" fill="#4A3AFF"/>
<path d="M49.7922 41.9108H45.8516V37.9702H49.7922V41.9108Z" fill="#4A3AFF"/>
<path d="M41.9113 41.9108H37.9707V37.9702H41.9113V41.9108Z" fill="#4A3AFF"/>
<path d="M49.7922 49.7922H45.8516V45.8516H49.7922V49.7922Z" fill="#4A3AFF"/>
<path d="M41.9113 49.7922H37.9707V45.8516H41.9113V49.7922Z" fill="#4A3AFF"/>
<path d="M30.0894 24.1782H22.2082C20.031 24.1782 18.2676 25.9416 18.2676 28.1188V51.7624C18.2676 52.85 19.1503 53.7327 20.2379 53.7327H34.03V28.1188C34.03 25.9416 32.2666 24.1782 30.0894 24.1782ZM30.0894 49.7921H22.2082V45.8515H30.0894V49.7921ZM30.0894 41.9109H22.2082V37.9703H30.0894V41.9109ZM30.0894 34.0297H22.2082V30.0891H30.0894V34.0297Z" fill="#4A3AFF"/>
</svg>
