<svg width="112" height="34" viewBox="0 0 112 34" fill="none" xmlns="http://www.w3.org/2000/svg">
<g id="Vector">
<path d="M0 6.8C0 3.04446 2.99368 0 6.68657 0H105.313C109.006 0 112 3.04446 112 6.8V27.2C112 30.9555 109.006 34 105.313 34H6.68657C2.99368 34 0 30.9555 0 27.2V6.8Z" fill="white"/>
<path d="M6.68657 13.6C6.68657 10.7833 8.93183 8.5 11.7015 8.5H18.3881C21.1577 8.5 23.403 10.7833 23.403 13.6V20.4C23.403 23.2167 21.1577 25.5 18.3881 25.5H11.7015C8.93183 25.5 6.68657 23.2167 6.68657 20.4V13.6Z" fill="#FAFAFA"/>
<path d="M31.7639 14.2229C32.9568 14.2229 33.7324 14.9736 33.7324 16.1269C33.7324 17.2747 32.9568 18.02 31.7639 18.02H30.4587V14.2229H31.7639ZM31.2075 17.3726H31.7371C32.5235 17.3726 32.9674 16.9157 32.9674 16.1269C32.9674 15.3381 32.5235 14.8648 31.7371 14.8648H31.2075V17.3726Z" fill="#1A1D1E"/>
<path d="M35.5661 15.5829C35.2077 15.5829 34.9242 15.8168 34.8653 16.2302H36.2722C36.2615 15.8331 35.9512 15.5829 35.5661 15.5829ZM36.973 17.0734C36.8125 17.6283 36.3203 18.069 35.5875 18.069C34.7263 18.069 34.1004 17.4597 34.1004 16.5131C34.1004 15.5611 34.7102 14.9573 35.5875 14.9573C36.4434 14.9573 37.0478 15.5502 37.0478 16.4478C37.0478 16.5458 37.0425 16.6437 37.0264 16.7416H34.86C34.8974 17.1877 35.197 17.4379 35.5714 17.4379C35.8924 17.4379 36.0689 17.2747 36.1652 17.0734H36.973Z" fill="#1A1D1E"/>
<path d="M37.5945 18.02V13.9944H38.3434V18.02H37.5945Z" fill="#1A1D1E"/>
<path d="M39.0833 18.02V15.0062H39.8322V18.02H39.0833ZM39.4631 14.6472C39.1956 14.6472 39.003 14.4514 39.003 14.2011C39.003 13.9509 39.1956 13.755 39.4631 13.755C39.7252 13.755 39.9231 13.9509 39.9231 14.2011C39.9231 14.4514 39.7252 14.6472 39.4631 14.6472Z" fill="#1A1D1E"/>
<path d="M40.2565 15.0062H41.0589L41.8078 17.3182L42.5567 15.0062H43.3537L42.2571 18.02H41.3477L40.2565 15.0062Z" fill="#1A1D1E"/>
<path d="M45.0474 15.5829C44.689 15.5829 44.4055 15.8168 44.3467 16.2302H45.7535C45.7428 15.8331 45.4326 15.5829 45.0474 15.5829ZM46.4543 17.0734C46.2938 17.6283 45.8017 18.069 45.0688 18.069C44.2076 18.069 43.5817 17.4597 43.5817 16.5131C43.5817 15.5611 44.1916 14.9573 45.0688 14.9573C45.9247 14.9573 46.5292 15.5502 46.5292 16.4478C46.5292 16.5458 46.5238 16.6437 46.5078 16.7416H44.3413C44.3788 17.1877 44.6783 17.4379 45.0528 17.4379C45.3737 17.4379 45.5503 17.2747 45.6466 17.0734H46.4543Z" fill="#1A1D1E"/>
<path d="M47.8247 16.5186V18.02H47.0758V15.0062H47.8247V15.4741C48.0119 15.164 48.3222 14.9627 48.7341 14.9627V15.7624H48.5362C48.0922 15.7624 47.8247 15.9365 47.8247 16.5186Z" fill="#1A1D1E"/>
<path d="M50.5009 17.1115L51.2766 15.0062H52.0736L50.2388 19.4453H49.4418L50.0837 17.9438L48.8961 15.0062H49.736L50.5009 17.1115Z" fill="#1A1D1E"/>
<path d="M53.7519 18.02V14.2229H54.6025L55.79 17.0462L56.9775 14.2229H57.8227V18.02H57.0738V15.5502L56.0735 18.02H55.5065L54.5008 15.5502V18.02H53.7519Z" fill="#1A1D1E"/>
<path d="M58.3706 16.5022C58.3706 15.5611 58.9697 14.9573 59.7239 14.9573C60.2 14.9573 60.5263 15.1858 60.7028 15.436V15.0062H61.4571V18.02H60.7028V17.5794C60.5263 17.8405 60.1893 18.069 59.7186 18.069C58.9697 18.069 58.3706 17.4434 58.3706 16.5022ZM60.7028 16.5131C60.7028 15.9419 60.3284 15.6264 59.9165 15.6264C59.5153 15.6264 59.1355 15.931 59.1355 16.5022C59.1355 17.0734 59.5153 17.3998 59.9165 17.3998C60.3284 17.3998 60.7028 17.0843 60.7028 16.5131Z" fill="#1A1D1E"/>
<path d="M64.264 18.02V16.3554C64.264 15.8712 64.0019 15.6101 63.6061 15.6101C63.1995 15.6101 62.9374 15.8712 62.9374 16.3554V18.02H62.1885V15.0062H62.9374V15.3816C63.13 15.1259 63.4509 14.9627 63.8307 14.9627C64.5208 14.9627 65.0129 15.4197 65.0129 16.252V18.02H64.264Z" fill="#1A1D1E"/>
<path d="M30.7636 9.38672H31.3012C31.7184 9.38672 31.8949 9.1868 31.8949 8.86856C31.8949 8.53808 31.7184 8.34224 31.3012 8.34224H30.7636V9.38672ZM32.268 8.86856C32.268 9.30104 31.9952 9.69272 31.3012 9.69272H30.7636V10.88H30.3985V8.03624H31.3012C31.9591 8.03624 32.268 8.40344 32.268 8.86856Z" fill="#6A6A6A"/>
<path d="M32.5854 9.75392C32.5854 9.05624 33.0387 8.60744 33.6285 8.60744C34.0377 8.60744 34.3185 8.8196 34.4469 9.05216V8.64416H34.816V10.88H34.4469V10.4638C34.3145 10.7046 34.0297 10.9167 33.6245 10.9167C33.0387 10.9167 32.5854 10.4475 32.5854 9.75392ZM34.4469 9.758C34.4469 9.23984 34.1019 8.92976 33.7007 8.92976C33.2995 8.92976 32.9585 9.2276 32.9585 9.75392C32.9585 10.2802 33.2995 10.5903 33.7007 10.5903C34.1019 10.5903 34.4469 10.2843 34.4469 9.758Z" fill="#6A6A6A"/>
<path d="M35.5132 10.268V8.95016H35.2284V8.64416H35.5132V8.08112H35.8783V8.64416H36.452V8.95016H35.8783V10.268C35.8783 10.4883 35.9585 10.5658 36.1832 10.5658H36.452V10.88H36.123C35.7339 10.88 35.5132 10.7168 35.5132 10.268Z" fill="#6A6A6A"/>
<path d="M36.8944 10.88V7.8608H37.2595V8.96648C37.4039 8.72984 37.6767 8.60336 37.9856 8.60336C38.4751 8.60336 38.8642 8.9216 38.8642 9.56216V10.88H38.5032V9.6152C38.5032 9.15824 38.2584 8.92568 37.8893 8.92568C37.5162 8.92568 37.2595 9.16232 37.2595 9.64376V10.88H36.8944Z" fill="#6A6A6A"/>
<path d="M39.3242 9.75392C39.3242 9.05624 39.7775 8.60744 40.3673 8.60744C40.7765 8.60744 41.0574 8.8196 41.1857 9.05216V8.64416H41.5548V10.88H41.1857V10.4638C41.0533 10.7046 40.7685 10.9167 40.3633 10.9167C39.7775 10.9167 39.3242 10.4475 39.3242 9.75392ZM41.1857 9.758C41.1857 9.23984 40.8407 8.92976 40.4395 8.92976C40.0383 8.92976 39.6973 9.2276 39.6973 9.75392C39.6973 10.2802 40.0383 10.5903 40.4395 10.5903C40.8407 10.5903 41.1857 10.2843 41.1857 9.758Z" fill="#6A6A6A"/>
<path d="M44.258 9.758C44.258 10.4679 43.7565 10.9167 43.1306 10.9167C42.5088 10.9167 42.0354 10.4679 42.0354 9.758C42.0354 9.05216 42.5248 8.60744 43.1467 8.60744C43.7726 8.60744 44.258 9.05216 44.258 9.758ZM42.4085 9.758C42.4085 10.3251 42.7495 10.5903 43.1306 10.5903C43.5118 10.5903 43.8849 10.3251 43.8849 9.758C43.8849 9.19496 43.5198 8.92976 43.1427 8.92976C42.7575 8.92976 42.4085 9.19496 42.4085 9.758Z" fill="#6A6A6A"/>
<path d="M32.4767 24.1482V24.4419H31.0885V25.568C31.0885 25.6958 31.1046 25.7829 31.1367 25.8291C31.1714 25.8754 31.2383 25.8985 31.3373 25.8985C31.4175 25.8985 31.4977 25.8808 31.578 25.8454C31.6609 25.8101 31.7344 25.7625 31.7986 25.7026C31.8655 25.6428 31.919 25.5748 31.9591 25.4986C31.9992 25.4198 32.0193 25.3395 32.0193 25.2579C32.0193 25.1926 32.0006 25.1423 31.9631 25.107C31.9284 25.0716 31.8709 25.0539 31.7906 25.0539C31.7184 25.0539 31.6515 25.0621 31.59 25.0784L31.5499 24.801C31.5954 24.7874 31.6435 24.7778 31.6943 24.7724C31.7478 24.7642 31.8013 24.7602 31.8548 24.7602C31.9966 24.7602 32.1116 24.7969 32.1998 24.8703C32.2908 24.941 32.3362 25.0566 32.3362 25.2171C32.3362 25.3422 32.3068 25.4633 32.248 25.5802C32.1918 25.6945 32.1156 25.7978 32.0193 25.8903C31.923 25.9801 31.8147 26.0508 31.6943 26.1025C31.574 26.1542 31.4509 26.18 31.3252 26.18C31.2263 26.18 31.1447 26.1691 31.0805 26.1474C31.0163 26.1229 30.9628 26.0902 30.92 26.0494C30.8933 26.0222 30.8692 25.9923 30.8478 25.9597C30.8264 25.9243 30.809 25.8781 30.7957 25.821C30.785 25.7611 30.7796 25.6822 30.7796 25.5843V24.4419H30.3904V24.1482H32.4767ZM30.591 23.1241C30.6686 23.1241 30.7355 23.135 30.7916 23.1567C30.8505 23.1785 30.9 23.2111 30.9401 23.2546C30.9882 23.3063 31.0243 23.377 31.0484 23.4668C31.0752 23.5538 31.0885 23.6776 31.0885 23.8381V24.1808H30.7796V23.8544C30.7796 23.7592 30.7729 23.6803 30.7595 23.6178C30.7488 23.5525 30.7234 23.5035 30.6833 23.4709C30.6432 23.4355 30.583 23.4178 30.5028 23.4178C30.452 23.4178 30.4011 23.426 30.3503 23.4423C30.3022 23.4559 30.2607 23.4695 30.226 23.4831L30.1176 23.2302C30.1979 23.1948 30.2754 23.169 30.3503 23.1526C30.4279 23.1336 30.5081 23.1241 30.591 23.1241Z" fill="#6A6A6A"/>
<path d="M33.9143 26.1474V25.8822C34.6766 25.2579 35.3987 24.6704 35.3987 24.0666C35.3987 23.7402 35.2583 23.4954 34.8651 23.4954C34.488 23.4954 34.2954 23.7606 34.2794 24.1318H33.9263C33.9504 23.5035 34.3396 23.1771 34.8611 23.1771C35.4068 23.1771 35.7598 23.5035 35.7598 24.0502C35.7598 24.7846 34.9815 25.4089 34.4639 25.8373H35.8441V26.1474H33.9143Z" fill="#6A6A6A"/>
<path d="M36.2661 24.6745C36.2661 23.8299 36.4747 23.1853 37.2771 23.1853C38.0755 23.1853 38.2841 23.8299 38.2841 24.6745C38.2841 25.5313 38.0755 26.18 37.2771 26.18C36.4747 26.18 36.2661 25.5313 36.2661 24.6745ZM37.923 24.6745C37.923 24.0625 37.8468 23.5239 37.2771 23.5239C36.7034 23.5239 36.6272 24.0625 36.6272 24.6745C36.6272 25.311 36.7034 25.8414 37.2771 25.8414C37.8468 25.8414 37.923 25.311 37.923 24.6745Z" fill="#6A6A6A"/>
<path d="M38.5285 26.7634L38.8214 25.6659H39.2226L38.7733 26.7634H38.5285Z" fill="#6A6A6A"/>
<path d="M39.5806 24.6745C39.5806 23.8299 39.7893 23.1853 40.5917 23.1853C41.39 23.1853 41.5986 23.8299 41.5986 24.6745C41.5986 25.5313 41.39 26.18 40.5917 26.18C39.7893 26.18 39.5806 25.5313 39.5806 24.6745ZM41.2376 24.6745C41.2376 24.0625 41.1613 23.5239 40.5917 23.5239C40.0179 23.5239 39.9417 24.0625 39.9417 24.6745C39.9417 25.311 40.0179 25.8414 40.5917 25.8414C41.1613 25.8414 41.2376 25.311 41.2376 24.6745Z" fill="#6A6A6A"/>
<path d="M42.0999 24.6745C42.0999 23.8299 42.3085 23.1853 43.1109 23.1853C43.9092 23.1853 44.1179 23.8299 44.1179 24.6745C44.1179 25.5313 43.9092 26.18 43.1109 26.18C42.3085 26.18 42.0999 25.5313 42.0999 24.6745ZM43.7568 24.6745C43.7568 24.0625 43.6806 23.5239 43.1109 23.5239C42.5372 23.5239 42.4609 24.0625 42.4609 24.6745C42.4609 25.311 42.5372 25.8414 43.1109 25.8414C43.6806 25.8414 43.7568 25.311 43.7568 24.6745Z" fill="#6A6A6A"/>
<path d="M44.6191 24.6745C44.6191 23.8299 44.8277 23.1853 45.6301 23.1853C46.4285 23.1853 46.6371 23.8299 46.6371 24.6745C46.6371 25.5313 46.4285 26.18 45.6301 26.18C44.8277 26.18 44.6191 25.5313 44.6191 24.6745ZM46.276 24.6745C46.276 24.0625 46.1998 23.5239 45.6301 23.5239C45.0564 23.5239 44.9802 24.0625 44.9802 24.6745C44.9802 25.311 45.0564 25.8414 45.6301 25.8414C46.1998 25.8414 46.276 25.311 46.276 24.6745Z" fill="#6A6A6A"/>
<path d="M47.1022 26.8736L48.1974 22.3366H48.5625L47.4633 26.8736H47.1022Z" fill="#6A6A6A"/>
<path d="M52.2799 26.18V24.9152C52.2799 24.4582 52.0392 24.2257 51.6781 24.2257C51.309 24.2257 51.0563 24.4664 51.0563 24.9478V26.18H50.6952V24.9152C50.6952 24.4582 50.4545 24.2257 50.0934 24.2257C49.7243 24.2257 49.4716 24.4664 49.4716 24.9478V26.18H49.1065V23.9442H49.4716V24.2665C49.616 24.0298 49.8768 23.9034 50.1656 23.9034C50.5267 23.9034 50.8276 24.0666 50.972 24.4011C51.1004 24.0788 51.4134 23.9034 51.7504 23.9034C52.2519 23.9034 52.641 24.2216 52.641 24.8622V26.18H52.2799Z" fill="#6A6A6A"/>
<path d="M63.0303 23.3362C63.949 23.3362 64.5147 23.883 64.5147 24.7642C64.5147 25.6455 63.949 26.18 63.0303 26.18H62.1597V23.3362H63.0303ZM62.5248 25.874H63.0303C63.7604 25.874 64.1416 25.4578 64.1416 24.7642C64.1416 24.0706 63.7604 23.6382 63.0303 23.6382H62.5248V25.874Z" fill="#6A6A6A"/>
<path d="M64.9962 26.18V23.1608H65.3613V24.2665C65.5058 24.0298 65.7786 23.9034 66.0875 23.9034C66.5769 23.9034 66.9661 24.2216 66.9661 24.8622V26.18H66.605V24.9152C66.605 24.4582 66.3603 24.2257 65.9912 24.2257C65.6181 24.2257 65.3613 24.4623 65.3613 24.9438V26.18H64.9962Z" fill="#6A6A6A"/>
<path d="M67.4261 25.0539C67.4261 24.3562 67.8794 23.9074 68.4692 23.9074C68.8784 23.9074 69.1592 24.1196 69.2876 24.3522V23.9442H69.6567V26.18H69.2876V25.7638C69.1552 26.0046 68.8704 26.2167 68.4651 26.2167C67.8794 26.2167 67.4261 25.7475 67.4261 25.0539ZM69.2876 25.058C69.2876 24.5398 68.9426 24.2298 68.5414 24.2298C68.1402 24.2298 67.7992 24.5276 67.7992 25.0539C67.7992 25.5802 68.1402 25.8903 68.5414 25.8903C68.9426 25.8903 69.2876 25.5843 69.2876 25.058Z" fill="#6A6A6A"/>
<path d="M70.2737 26.18V23.1608H70.6387V24.9356L71.4853 23.9442H71.9948L70.9597 25.058L71.9988 26.18H71.5013L70.6387 25.1926V26.18H70.2737Z" fill="#6A6A6A"/>
<path d="M72.202 25.0539C72.202 24.3562 72.6553 23.9074 73.2451 23.9074C73.6543 23.9074 73.9352 24.1196 74.0635 24.3522V23.9442H74.4326V26.18H74.0635V25.7638C73.9311 26.0046 73.6463 26.2167 73.2411 26.2167C72.6553 26.2167 72.202 25.7475 72.202 25.0539ZM74.0635 25.058C74.0635 24.5398 73.7185 24.2298 73.3173 24.2298C72.9161 24.2298 72.5751 24.5276 72.5751 25.0539C72.5751 25.5802 72.9161 25.8903 73.3173 25.8903C73.7185 25.8903 74.0635 25.5843 74.0635 25.058Z" fill="#6A6A6A"/>
<path d="M74.7326 26.7634L75.0255 25.6659H75.4267L74.9774 26.7634H74.7326Z" fill="#6A6A6A"/>
<path d="M78.5032 25.3803C78.5032 25.0662 78.2706 24.8703 77.9135 24.8703H77.2796V25.874H77.9255C78.2866 25.874 78.5032 25.6904 78.5032 25.3803ZM78.431 24.1033C78.431 23.8218 78.2425 23.6422 77.8854 23.6422H77.2796V24.5643H77.8934C78.2344 24.5643 78.431 24.393 78.431 24.1033ZM78.8683 25.417C78.8683 25.8454 78.5353 26.18 77.9576 26.18H76.9145V23.3362H77.9175C78.5073 23.3362 78.8041 23.6626 78.8041 24.0584C78.8041 24.4174 78.5835 24.6255 78.3147 24.7153C78.6196 24.7683 78.8683 25.0662 78.8683 25.417Z" fill="#6A6A6A"/>
<path d="M80.2456 23.3362C81.1643 23.3362 81.73 23.883 81.73 24.7642C81.73 25.6455 81.1643 26.18 80.2456 26.18H79.375V23.3362H80.2456ZM79.7401 25.874H80.2456C80.9757 25.874 81.3569 25.4578 81.3569 24.7642C81.3569 24.0706 80.9757 23.6382 80.2456 23.6382H79.7401V25.874Z" fill="#6A6A6A"/>
<path d="M99.8345 26.1392V25.8006C100.525 25.1845 101.251 24.6459 101.251 24.0625C101.251 23.7524 101.118 23.5402 100.777 23.5402C100.456 23.5402 100.284 23.7687 100.272 24.1033H99.8305C99.8465 23.4586 100.256 23.1445 100.773 23.1445C101.367 23.1445 101.704 23.5076 101.704 24.0421C101.704 24.7642 100.982 25.315 100.512 25.7516H101.784V26.1392H99.8345Z" fill="#6A6A6A"/>
<path d="M103.582 26.18V25.5598H102.13V25.209L103.478 23.2424H104.032V25.1559H104.405V25.5598H104.032V26.18H103.582ZM102.655 25.1559H103.602V23.7157L102.655 25.1559Z" fill="#6A6A6A"/>
<path d="M104.844 26.18V23.1608H105.301V24.193C105.454 24.0054 105.702 23.8952 105.987 23.8952C106.481 23.8952 106.866 24.2257 106.866 24.854V26.18H106.412V24.9234C106.412 24.5113 106.192 24.2991 105.859 24.2991C105.522 24.2991 105.301 24.5113 105.301 24.9234V26.18H104.844Z" fill="#6A6A6A"/>
<path d="M103.307 13.6C105.892 13.6 107.988 11.4689 107.988 8.84C107.988 6.21112 105.892 4.08 103.307 4.08C100.722 4.08 98.6269 6.21112 98.6269 8.84C98.6269 11.4689 100.722 13.6 103.307 13.6Z" fill="#FAFAFA"/>
<path d="M104.329 6.8C104.09 6.80004 103.855 6.86478 103.649 6.98757C103.443 7.11036 103.272 7.28678 103.155 7.4987C103.038 7.28673 102.867 7.11028 102.661 6.98749C102.455 6.86469 102.22 6.79998 101.981 6.8C101.615 6.82011 101.27 6.98301 101.019 7.25481C100.768 7.5266 100.63 7.88637 100.633 8.25928C100.633 10.1609 103.155 11.4876 103.155 11.4876C103.155 11.4876 105.677 10.1616 105.677 8.25928C105.68 7.88632 105.542 7.5265 105.291 7.25469C105.04 6.98289 104.695 6.82003 104.329 6.8Z" fill="#FF0000"/>
</g>
</svg>
