<svg width="48" height="48" viewBox="0 0 48 48" fill="none" xmlns="http://www.w3.org/2000/svg">
<rect width="48" height="48" fill="#F2F1FF"/>
<path d="M30.1872 17.8128C29.0924 16.718 27.3178 16.718 26.2231 17.8128L17.8128 26.2231C16.718 27.3178 16.718 29.0924 17.8128 30.1872C18.9075 31.2819 20.6821 31.2819 21.7768 30.1872L30.1872 21.7768C31.2819 20.6821 31.2819 18.9075 30.1872 17.8128Z" fill="#4A3AFF"/>
<path opacity="0.35" d="M35.7592 12.2408C32.7483 9.22994 27.8675 9.22994 24.8566 12.2408C24.6169 12.4805 23.6946 13.4029 23.4549 13.6426C21.285 15.8124 20.7033 18.9495 21.6621 21.6632C18.9483 20.7044 15.8127 21.2848 13.6428 23.4546C13.4031 23.6943 12.4808 24.6167 12.2411 24.8564C9.23018 27.8673 9.23018 32.7481 12.2411 35.759C15.252 38.7699 20.1328 38.7699 23.1437 35.759C23.3834 35.5193 24.3057 34.5969 24.5454 34.3572C26.7153 32.1874 27.297 29.0503 26.3382 26.3366C29.052 27.2953 32.1876 26.715 34.3575 24.5452C34.5972 24.3055 35.5195 23.3831 35.7592 23.1434C38.7701 20.1325 38.7701 15.2517 35.7592 12.2408Z" fill="#4A3AFF"/>
</svg>
