<svg width="112" height="33" viewBox="0 0 112 33" fill="none" xmlns="http://www.w3.org/2000/svg">
<g id="Vector">
<path d="M0 6.6C0 2.95492 2.99368 0 6.68657 0H105.313C109.006 0 112 2.95492 112 6.6V26.4C112 30.0451 109.006 33 105.313 33H6.68657C2.99368 33 0 30.0451 0 26.4V6.6Z" fill="white"/>
<path d="M6.68657 13.2C6.68657 10.4662 8.93183 8.25 11.7015 8.25H18.3881C21.1577 8.25 23.403 10.4662 23.403 13.2V19.8C23.403 22.5338 21.1577 24.75 18.3881 24.75H11.7015C8.93183 24.75 6.68657 22.5338 6.68657 19.8V13.2Z" fill="#DDFFE9"/>
<path d="M30.2768 15.642C30.2768 14.5385 31.0952 13.757 32.1704 13.757C32.9995 13.757 33.6736 14.1953 33.925 14.9503H33.0637C32.8872 14.5966 32.5663 14.4223 32.1651 14.4223C31.5125 14.4223 31.0471 14.8922 31.0471 15.642C31.0471 16.3865 31.5125 16.8617 32.1651 16.8617C32.5663 16.8617 32.8872 16.6874 33.0637 16.3284H33.925C33.6736 17.0887 32.9995 17.5217 32.1704 17.5217C31.0952 17.5217 30.2768 16.7455 30.2768 15.642Z" fill="#1A1D1E"/>
<path d="M37.3623 14.5649V17.49H36.608V17.1204C36.4208 17.3686 36.0945 17.527 35.7254 17.527C35.0354 17.527 34.5379 17.0834 34.5379 16.2809V14.5649H35.2868V16.1753C35.2868 16.6452 35.5489 16.8986 35.9447 16.8986C36.3513 16.8986 36.608 16.6452 36.608 16.1753V14.5649H37.3623Z" fill="#1A1D1E"/>
<path d="M40.4014 16.6558C40.4014 17.1574 39.9574 17.5375 39.2352 17.5375C38.4917 17.5375 37.9728 17.1098 37.9407 16.566H38.695C38.7217 16.7878 38.9303 16.9567 39.2299 16.9567C39.5241 16.9567 39.6846 16.8247 39.6846 16.6558C39.6846 16.133 38.0103 16.4657 38.0103 15.3938C38.0103 14.9081 38.4489 14.5174 39.1817 14.5174C39.8985 14.5174 40.3318 14.9028 40.3746 15.4836H39.6578C39.6364 15.2566 39.4545 15.1034 39.1603 15.1034C38.8822 15.1034 38.7378 15.2143 38.7378 15.3833C38.7378 15.9166 40.38 15.5839 40.4014 16.6558Z" fill="#1A1D1E"/>
<path d="M41.1338 16.5818V15.1721H40.7807V14.5649H41.1338V13.8415H41.888V14.5649H42.5513V15.1721H41.888V16.5871C41.888 16.7825 41.9683 16.867 42.2036 16.867H42.5513V17.49H42.0806C41.5136 17.49 41.1338 17.2524 41.1338 16.5818Z" fill="#1A1D1E"/>
<path d="M45.9518 16.0274C45.9518 16.9462 45.2671 17.5375 44.4059 17.5375C43.55 17.5375 42.9028 16.9462 42.9028 16.0274C42.9028 15.1034 43.5714 14.5174 44.4273 14.5174C45.2832 14.5174 45.9518 15.1034 45.9518 16.0274ZM43.6624 16.0274C43.6624 16.6082 44.0047 16.8934 44.4059 16.8934C44.8018 16.8934 45.1816 16.6082 45.1816 16.0274C45.1816 15.4414 44.8125 15.1615 44.4166 15.1615C44.0208 15.1615 43.6624 15.4414 43.6624 16.0274Z" fill="#1A1D1E"/>
<path d="M50.6469 17.49V15.8743C50.6469 15.4097 50.3847 15.1668 49.9889 15.1668C49.5877 15.1668 49.3256 15.4097 49.3256 15.8743V17.49H48.5767V15.8743C48.5767 15.4097 48.3146 15.1668 47.9187 15.1668C47.5122 15.1668 47.2501 15.4097 47.2501 15.8743V17.49H46.5012V14.5649H47.2501V14.9186C47.4373 14.6758 47.7529 14.5226 48.122 14.5226C48.582 14.5226 48.9618 14.718 49.1651 15.0823C49.3577 14.7497 49.7482 14.5226 50.1815 14.5226C50.8929 14.5226 51.3958 14.9662 51.3958 15.774V17.49H50.6469Z" fill="#1A1D1E"/>
<path d="M53.3795 15.1246C53.0211 15.1246 52.7376 15.3516 52.6788 15.7529H54.0856C54.0749 15.3674 53.7647 15.1246 53.3795 15.1246ZM54.7864 16.5713C54.6259 17.1098 54.1338 17.5375 53.4009 17.5375C52.5397 17.5375 51.9138 16.9462 51.9138 16.0274C51.9138 15.1034 52.5237 14.5174 53.4009 14.5174C54.2568 14.5174 54.8613 15.0929 54.8613 15.9641C54.8613 16.0591 54.8559 16.1542 54.8399 16.2492H52.6734C52.7109 16.6822 53.0104 16.925 53.3849 16.925C53.7058 16.925 53.8824 16.7666 53.9786 16.5713H54.7864Z" fill="#1A1D1E"/>
<path d="M56.1568 16.0327V17.49H55.4079V14.5649H56.1568V15.019C56.344 14.718 56.6543 14.5226 57.0662 14.5226V15.2988H56.8683C56.4243 15.2988 56.1568 15.4678 56.1568 16.0327Z" fill="#1A1D1E"/>
<path d="M61.4557 16.4234C61.4557 17.0042 60.9849 17.527 60.1344 17.527C59.3587 17.527 58.7596 17.1257 58.7489 16.4287H59.5513C59.5727 16.7244 59.7706 16.9198 60.1183 16.9198C60.4714 16.9198 60.68 16.735 60.68 16.471C60.68 15.6737 58.7543 16.1542 58.7596 14.8183C58.7596 14.153 59.3053 13.7518 60.0755 13.7518C60.8405 13.7518 61.3647 14.1372 61.4129 14.8025H60.5891C60.573 14.5596 60.3751 14.3695 60.0541 14.3642C59.7599 14.3537 59.5406 14.4962 59.5406 14.7972C59.5406 15.5364 61.4557 15.1246 61.4557 16.4234Z" fill="#1A1D1E"/>
<path d="M64.9026 14.5649V17.49H64.1483V17.1204C63.9611 17.3686 63.6348 17.527 63.2657 17.527C62.5757 17.527 62.0782 17.0834 62.0782 16.2809V14.5649H62.8271V16.1753C62.8271 16.6452 63.0892 16.8986 63.485 16.8986C63.8916 16.8986 64.1483 16.6452 64.1483 16.1753V14.5649H64.9026Z" fill="#1A1D1E"/>
<path d="M66.3904 14.9873C66.5669 14.7391 66.9093 14.5174 67.3693 14.5174C68.1289 14.5174 68.7227 15.1034 68.7227 16.0169C68.7227 16.9303 68.1289 17.5375 67.3693 17.5375C66.9039 17.5375 66.5723 17.3105 66.3904 17.0729V18.8839H65.6415V14.5649H66.3904V14.9873ZM67.9577 16.0169C67.9577 15.4625 67.5779 15.1668 67.1714 15.1668C66.7702 15.1668 66.3904 15.473 66.3904 16.0274C66.3904 16.5818 66.7702 16.8881 67.1714 16.8881C67.5779 16.8881 67.9577 16.5713 67.9577 16.0169Z" fill="#1A1D1E"/>
<path d="M70.0158 14.9873C70.1923 14.7391 70.5346 14.5174 70.9947 14.5174C71.7543 14.5174 72.348 15.1034 72.348 16.0169C72.348 16.9303 71.7543 17.5375 70.9947 17.5375C70.5293 17.5375 70.1976 17.3105 70.0158 17.0729V18.8839H69.2669V14.5649H70.0158V14.9873ZM71.5831 16.0169C71.5831 15.4625 71.2033 15.1668 70.7967 15.1668C70.3955 15.1668 70.0158 15.473 70.0158 16.0274C70.0158 16.5818 70.3955 16.8881 70.7967 16.8881C71.2033 16.8881 71.5831 16.5713 71.5831 16.0169Z" fill="#1A1D1E"/>
<path d="M75.7541 16.0274C75.7541 16.9462 75.0694 17.5375 74.2081 17.5375C73.3523 17.5375 72.705 16.9462 72.705 16.0274C72.705 15.1034 73.3737 14.5174 74.2295 14.5174C75.0854 14.5174 75.7541 15.1034 75.7541 16.0274ZM73.4646 16.0274C73.4646 16.6082 73.807 16.8934 74.2081 16.8934C74.604 16.8934 74.9838 16.6082 74.9838 16.0274C74.9838 15.4414 74.6147 15.1615 74.2188 15.1615C73.823 15.1615 73.4646 15.4414 73.4646 16.0274Z" fill="#1A1D1E"/>
<path d="M77.0523 16.0327V17.49H76.3034V14.5649H77.0523V15.019C77.2395 14.718 77.5498 14.5226 77.9617 14.5226V15.2988H77.7638C77.3198 15.2988 77.0523 15.4678 77.0523 16.0327Z" fill="#1A1D1E"/>
<path d="M78.5838 16.5818V15.1721H78.2307V14.5649H78.5838V13.8415H79.338V14.5649H80.0014V15.1721H79.338V16.5871C79.338 16.7825 79.4183 16.867 79.6536 16.867H80.0014V17.49H79.5306C78.9636 17.49 78.5838 17.2524 78.5838 16.5818Z" fill="#1A1D1E"/>
<path d="M32.2159 9.8076C32.2159 10.1996 31.8909 10.5877 31.2851 10.5877C30.7234 10.5877 30.3263 10.2788 30.3182 9.82344H30.7074C30.7315 10.0531 30.896 10.2828 31.2851 10.2828C31.6382 10.2828 31.8468 10.0848 31.8468 9.82344C31.8468 9.07896 30.3343 9.55416 30.3343 8.52852C30.3343 8.07312 30.7074 7.76424 31.261 7.76424C31.7946 7.76424 32.1437 8.05332 32.1878 8.47308H31.7866C31.7625 8.28696 31.586 8.07708 31.245 8.07312C30.9441 8.0652 30.7074 8.21964 30.7074 8.51664C30.7074 9.22944 32.2159 8.78592 32.2159 9.8076Z" fill="#6A6A6A"/>
<path d="M32.7531 10.56V7.6296H33.1182V8.70276C33.2626 8.47308 33.5355 8.35032 33.8444 8.35032C34.3338 8.35032 34.723 8.6592 34.723 9.28092V10.56H34.3619V9.3324C34.3619 8.88888 34.1172 8.66316 33.7481 8.66316C33.375 8.66316 33.1182 8.89284 33.1182 9.36012V10.56H32.7531Z" fill="#6A6A6A"/>
<path d="M37.4056 9.471C37.4056 10.16 36.9041 10.5956 36.2782 10.5956C35.6564 10.5956 35.183 10.16 35.183 9.471C35.183 8.78592 35.6724 8.35428 36.2943 8.35428C36.9201 8.35428 37.4056 8.78592 37.4056 9.471ZM35.5561 9.471C35.5561 10.0214 35.8971 10.2788 36.2782 10.2788C36.6594 10.2788 37.0325 10.0214 37.0325 9.471C37.0325 8.92452 36.6674 8.66712 36.2903 8.66712C35.9051 8.66712 35.5561 8.92452 35.5561 9.471Z" fill="#6A6A6A"/>
<path d="M37.8856 10.56V7.6296H38.2507V8.70276C38.3951 8.47308 38.6679 8.35032 38.9768 8.35032C39.4663 8.35032 39.8555 8.6592 39.8555 9.28092V10.56H39.4944V9.3324C39.4944 8.88888 39.2497 8.66316 38.8806 8.66316C38.5075 8.66316 38.2507 8.89284 38.2507 9.36012V10.56H37.8856Z" fill="#6A6A6A"/>
<path d="M42.538 9.471C42.538 10.16 42.0365 10.5956 41.4107 10.5956C40.7888 10.5956 40.3154 10.16 40.3154 9.471C40.3154 8.78592 40.8049 8.35428 41.4267 8.35428C42.0526 8.35428 42.538 8.78592 42.538 9.471ZM40.6885 9.471C40.6885 10.0214 41.0295 10.2788 41.4107 10.2788C41.7918 10.2788 42.1649 10.0214 42.1649 9.471C42.1649 8.92452 41.7998 8.66712 41.4227 8.66712C41.0376 8.66712 40.6885 8.92452 40.6885 9.471Z" fill="#6A6A6A"/>
<path d="M44.3621 8.38992V8.68296L43.2909 10.263H44.3701V10.56H42.8736V10.263L43.9408 8.68296H42.8817V8.38992H44.3621Z" fill="#6A6A6A"/>
<path d="M32.4767 23.4379V23.723H31.0885V24.816C31.0885 24.9401 31.1046 25.0246 31.1367 25.0694C31.1714 25.1143 31.2383 25.1368 31.3373 25.1368C31.4175 25.1368 31.4977 25.1196 31.578 25.0853C31.6609 25.051 31.7344 25.0048 31.7986 24.9467C31.8655 24.8886 31.919 24.8226 31.9591 24.7487C31.9992 24.6721 32.0193 24.5942 32.0193 24.515C32.0193 24.4517 32.0006 24.4028 31.9631 24.3685C31.9284 24.3342 31.8709 24.317 31.7906 24.317C31.7184 24.317 31.6515 24.325 31.59 24.3408L31.5499 24.0715C31.5954 24.0583 31.6435 24.0491 31.6943 24.0438C31.7478 24.0359 31.8013 24.0319 31.8548 24.0319C31.9966 24.0319 32.1116 24.0676 32.1998 24.1388C32.2908 24.2075 32.3362 24.3197 32.3362 24.4754C32.3362 24.5969 32.3068 24.7144 32.248 24.8279C32.1918 24.9388 32.1156 25.0391 32.0193 25.1288C31.923 25.216 31.8147 25.2846 31.6943 25.3348C31.574 25.3849 31.4509 25.41 31.3252 25.41C31.2263 25.41 31.1447 25.3994 31.0805 25.3783C31.0163 25.3546 30.9628 25.3229 30.92 25.2833C30.8933 25.2569 30.8692 25.2278 30.8478 25.1962C30.8264 25.1618 30.809 25.117 30.7957 25.0615C30.785 25.0034 30.7796 24.9269 30.7796 24.8318V23.723H30.3904V23.4379H32.4767ZM30.591 22.444C30.6686 22.444 30.7355 22.4545 30.7916 22.4756C30.8505 22.4968 30.9 22.5284 30.9401 22.5707C30.9882 22.6208 31.0243 22.6895 31.0484 22.7766C31.0752 22.8611 31.0885 22.9812 31.0885 23.137V23.4696H30.7796V23.1528C30.7796 23.0604 30.7729 22.9838 30.7595 22.9231C30.7488 22.8598 30.7234 22.8122 30.6833 22.7806C30.6432 22.7462 30.583 22.7291 30.5028 22.7291C30.452 22.7291 30.4011 22.737 30.3503 22.7528C30.3022 22.766 30.2607 22.7792 30.226 22.7924L30.1176 22.5469C30.1979 22.5126 30.2754 22.4875 30.3503 22.4717C30.4279 22.4532 30.5081 22.444 30.591 22.444Z" fill="#6A6A6A"/>
<path d="M33.9143 25.3783V25.1209C34.6766 24.515 35.3987 23.9448 35.3987 23.3587C35.3987 23.0419 35.2583 22.8043 34.8651 22.8043C34.488 22.8043 34.2954 23.0617 34.2794 23.4221H33.9263C33.9504 22.8122 34.3396 22.4954 34.8611 22.4954C35.4068 22.4954 35.7598 22.8122 35.7598 23.3429C35.7598 24.0557 34.9815 24.6616 34.4639 25.0774H35.8441V25.3783H33.9143Z" fill="#6A6A6A"/>
<path d="M38.2199 23.228H37.8829C37.8267 22.9508 37.6622 22.7885 37.3333 22.7885C36.8719 22.7885 36.6232 23.1013 36.6272 23.9527C36.7515 23.6716 37.0685 23.5132 37.4135 23.5132C37.9551 23.5132 38.3202 23.8656 38.3202 24.4675C38.3202 24.9902 38.0073 25.4179 37.3734 25.4179C36.5148 25.4179 36.3102 24.8081 36.3102 23.9408C36.3102 23.0419 36.6031 22.4875 37.3373 22.4875C37.8909 22.4875 38.1718 22.8281 38.2199 23.228ZM37.3373 23.8181C37.0043 23.8181 36.6713 24.0121 36.6713 24.4398C36.6713 24.82 36.896 25.117 37.3533 25.117C37.7304 25.117 37.9672 24.8675 37.9672 24.4794C37.9672 24.0755 37.7545 23.8181 37.3373 23.8181Z" fill="#6A6A6A"/>
<path d="M38.556 25.9763L38.8488 24.911H39.25L38.8007 25.9763H38.556Z" fill="#6A6A6A"/>
<path d="M39.6081 23.9488C39.6081 23.129 39.8167 22.5034 40.6191 22.5034C41.4175 22.5034 41.6261 23.129 41.6261 23.9488C41.6261 24.7804 41.4175 25.41 40.6191 25.41C39.8167 25.41 39.6081 24.7804 39.6081 23.9488ZM41.265 23.9488C41.265 23.3548 41.1888 22.832 40.6191 22.832C40.0454 22.832 39.9691 23.3548 39.9691 23.9488C39.9691 24.5665 40.0454 25.0813 40.6191 25.0813C41.1888 25.0813 41.265 24.5665 41.265 23.9488Z" fill="#6A6A6A"/>
<path d="M42.1273 23.9488C42.1273 23.129 42.3359 22.5034 43.1383 22.5034C43.9367 22.5034 44.1453 23.129 44.1453 23.9488C44.1453 24.7804 43.9367 25.41 43.1383 25.41C42.3359 25.41 42.1273 24.7804 42.1273 23.9488ZM43.7842 23.9488C43.7842 23.3548 43.708 22.832 43.1383 22.832C42.5646 22.832 42.4884 23.3548 42.4884 23.9488C42.4884 24.5665 42.5646 25.0813 43.1383 25.0813C43.708 25.0813 43.7842 24.5665 43.7842 23.9488Z" fill="#6A6A6A"/>
<path d="M44.6465 23.9488C44.6465 23.129 44.8551 22.5034 45.6575 22.5034C46.4559 22.5034 46.6645 23.129 46.6645 23.9488C46.6645 24.7804 46.4559 25.41 45.6575 25.41C44.8551 25.41 44.6465 24.7804 44.6465 23.9488ZM46.3034 23.9488C46.3034 23.3548 46.2272 22.832 45.6575 22.832C45.0838 22.832 45.0076 23.3548 45.0076 23.9488C45.0076 24.5665 45.0838 25.0813 45.6575 25.0813C46.2272 25.0813 46.3034 24.5665 46.3034 23.9488Z" fill="#6A6A6A"/>
<path d="M47.1296 26.0832L48.2249 21.6797H48.59L47.4907 26.0832H47.1296Z" fill="#6A6A6A"/>
<path d="M52.3074 25.41V24.1824C52.3074 23.7389 52.0666 23.5132 51.7056 23.5132C51.3365 23.5132 51.0837 23.7468 51.0837 24.2141V25.41H50.7226V24.1824C50.7226 23.7389 50.4819 23.5132 50.1209 23.5132C49.7518 23.5132 49.499 23.7468 49.499 24.2141V25.41H49.1339V23.2399H49.499V23.5528C49.6434 23.3231 49.9042 23.2003 50.1931 23.2003C50.5541 23.2003 50.855 23.3587 50.9995 23.6834C51.1279 23.3706 51.4408 23.2003 51.7778 23.2003C52.2793 23.2003 52.6684 23.5092 52.6684 24.1309V25.41H52.3074Z" fill="#6A6A6A"/>
<path d="M100.123 24.7962C100.38 24.5771 100.582 24.3976 100.729 24.2576C100.879 24.1151 101.003 23.9672 101.102 23.8141C101.201 23.661 101.251 23.5079 101.251 23.3548C101.251 23.1964 101.212 23.0723 101.134 22.9825C101.059 22.8928 100.94 22.8479 100.777 22.8479C100.619 22.8479 100.496 22.898 100.408 22.9984C100.323 23.096 100.277 23.228 100.272 23.3944H99.8305C99.8385 23.0934 99.9294 22.8637 100.103 22.7053C100.28 22.5443 100.503 22.4638 100.773 22.4638C101.065 22.4638 101.292 22.543 101.455 22.7014C101.621 22.8598 101.704 23.071 101.704 23.335C101.704 23.525 101.655 23.7085 101.556 23.8854C101.459 24.0596 101.343 24.2167 101.207 24.3566C101.073 24.4939 100.902 24.6536 100.693 24.8358L100.512 24.9942H101.784V25.3704H99.8345V25.0417L100.123 24.7962Z" fill="#6A6A6A"/>
<path d="M102.13 24.8081V24.4675L103.478 22.5588H104.032V24.416H104.405V24.8081H104.032V25.41H103.582V24.8081H102.13ZM103.602 23.0182L102.655 24.416H103.602V23.0182Z" fill="#6A6A6A"/>
<path d="M105.987 23.1924C106.156 23.1924 106.305 23.228 106.437 23.2993C106.57 23.3706 106.675 23.4762 106.749 23.6161C106.827 23.756 106.866 23.925 106.866 24.123V25.41H106.412V24.1903C106.412 23.995 106.363 23.8458 106.264 23.7428C106.165 23.6372 106.03 23.5844 105.859 23.5844C105.688 23.5844 105.551 23.6372 105.45 23.7428C105.351 23.8458 105.301 23.995 105.301 24.1903V25.41H104.844V22.4796H105.301V23.4815C105.379 23.3891 105.476 23.3178 105.594 23.2676C105.714 23.2175 105.845 23.1924 105.987 23.1924Z" fill="#6A6A6A"/>
<path d="M103.307 13.2C105.892 13.2 107.988 11.1316 107.988 8.58C107.988 6.02844 105.892 3.96 103.307 3.96C100.722 3.96 98.6269 6.02844 98.6269 8.58C98.6269 11.1316 100.722 13.2 103.307 13.2Z" fill="#FAFAFA"/>
<path d="M104.329 6.6C104.09 6.60004 103.855 6.66288 103.649 6.78206C103.443 6.90123 103.272 7.07246 103.155 7.27815C103.038 7.07241 102.867 6.90115 102.661 6.78197C102.455 6.66279 102.22 6.59998 101.981 6.6C101.615 6.61952 101.27 6.77763 101.019 7.04143C100.768 7.30523 100.63 7.65442 100.633 8.01636C100.633 9.86205 103.155 11.1497 103.155 11.1497C103.155 11.1497 105.677 9.86271 105.677 8.01636C105.68 7.65437 105.542 7.30513 105.291 7.04132C105.04 6.77751 104.695 6.61944 104.329 6.6Z" fill="#FF0000"/>
<path d="M63.0303 22.6499C63.949 22.6499 64.5147 23.1805 64.5147 24.0359C64.5147 24.8912 63.949 25.41 63.0303 25.41H62.1597V22.6499H63.0303ZM62.5248 25.113H63.0303C63.7604 25.113 64.1416 24.7091 64.1416 24.0359C64.1416 23.3627 63.7604 22.9429 63.0303 22.9429H62.5248V25.113Z" fill="#6A6A6A"/>
<path d="M64.9962 25.41V22.4796H65.3613V23.5528C65.5058 23.3231 65.7786 23.2003 66.0875 23.2003C66.5769 23.2003 66.9661 23.5092 66.9661 24.1309V25.41H66.605V24.1824C66.605 23.7389 66.3603 23.5132 65.9912 23.5132C65.6181 23.5132 65.3613 23.7428 65.3613 24.2101V25.41H64.9962Z" fill="#6A6A6A"/>
<path d="M67.4261 24.317C67.4261 23.6399 67.8794 23.2043 68.4692 23.2043C68.8784 23.2043 69.1592 23.4102 69.2876 23.6359V23.2399H69.6567V25.41H69.2876V25.0061C69.1552 25.2397 68.8704 25.4456 68.4651 25.4456C67.8794 25.4456 67.4261 24.9902 67.4261 24.317ZM69.2876 24.321C69.2876 23.8181 68.9426 23.5171 68.5414 23.5171C68.1402 23.5171 67.7992 23.8062 67.7992 24.317C67.7992 24.8279 68.1402 25.1288 68.5414 25.1288C68.9426 25.1288 69.2876 24.8318 69.2876 24.321Z" fill="#6A6A6A"/>
<path d="M70.2737 25.41V22.4796H70.6387V24.2022L71.4853 23.2399H71.9948L70.9597 24.321L71.9988 25.41H71.5013L70.6387 24.4517V25.41H70.2737Z" fill="#6A6A6A"/>
<path d="M72.202 24.317C72.202 23.6399 72.6553 23.2043 73.2451 23.2043C73.6543 23.2043 73.9352 23.4102 74.0635 23.6359V23.2399H74.4326V25.41H74.0635V25.0061C73.9311 25.2397 73.6463 25.4456 73.2411 25.4456C72.6553 25.4456 72.202 24.9902 72.202 24.317ZM74.0635 24.321C74.0635 23.8181 73.7185 23.5171 73.3173 23.5171C72.9161 23.5171 72.5751 23.8062 72.5751 24.317C72.5751 24.8279 72.9161 25.1288 73.3173 25.1288C73.7185 25.1288 74.0635 24.8318 74.0635 24.321Z" fill="#6A6A6A"/>
<path d="M74.7326 25.9763L75.0255 24.911H75.4267L74.9774 25.9763H74.7326Z" fill="#6A6A6A"/>
<path d="M78.5032 24.6338C78.5032 24.3289 78.2706 24.1388 77.9135 24.1388H77.2796V25.113H77.9255C78.2866 25.113 78.5032 24.9348 78.5032 24.6338ZM78.431 23.3944C78.431 23.1211 78.2425 22.9469 77.8854 22.9469H77.2796V23.8418H77.8934C78.2344 23.8418 78.431 23.6755 78.431 23.3944ZM78.8683 24.6695C78.8683 25.0853 78.5353 25.41 77.9576 25.41H76.9145V22.6499H77.9175C78.5073 22.6499 78.8041 22.9667 78.8041 23.3508C78.8041 23.6993 78.5835 23.9012 78.3147 23.9884C78.6196 24.0398 78.8683 24.3289 78.8683 24.6695Z" fill="#6A6A6A"/>
<path d="M80.2456 22.6499C81.1643 22.6499 81.73 23.1805 81.73 24.0359C81.73 24.8912 81.1643 25.41 80.2456 25.41H79.375V22.6499H80.2456ZM79.7401 25.113H80.2456C80.9757 25.113 81.3569 24.7091 81.3569 24.0359C81.3569 23.3627 80.9757 22.9429 80.2456 22.9429H79.7401V25.113Z" fill="#6A6A6A"/>
</g>
</svg>
