<svg width="48" height="48" viewBox="0 0 48 48" fill="none" xmlns="http://www.w3.org/2000/svg">
<rect width="48" height="48" fill="#F2F1FF"/>
<path opacity="0.35" d="M13.8413 33.5238V15.746C13.8413 13.6419 15.5467 11.9365 17.6508 11.9365H30.3492C32.4534 11.9365 34.1588 13.6419 34.1588 15.746V33.5238C34.1588 35.628 32.4534 37.3333 30.3492 37.3333H17.6508C15.5467 37.3333 13.8413 35.628 13.8413 33.5238Z" fill="#4A3AFF"/>
<path d="M27.1744 14.4763H20.8252C19.7725 14.4763 18.9204 13.6229 18.9204 12.5715C18.9204 11.5201 19.7725 10.6667 20.8252 10.6667H27.1744C28.2271 10.6667 29.0791 11.5201 29.0791 12.5715C29.0791 13.6229 28.2271 14.4763 27.1744 14.4763Z" fill="#4A3AFF"/>
<path d="M27.809 24.6349C27.484 24.6349 27.1589 24.5104 26.9113 24.2628L25.6414 22.993C25.1449 22.4964 25.1449 21.6939 25.6414 21.1974C26.1379 20.7009 26.9405 20.7009 27.437 21.1974L27.809 21.5695L29.4509 19.9276C29.9475 19.431 30.75 19.431 31.2465 19.9276C31.743 20.4241 31.743 21.2266 31.2465 21.7231L28.7068 24.2628C28.4592 24.5104 28.1341 24.6349 27.809 24.6349Z" fill="#4A3AFF"/>
<path d="M21.4604 24.6349H18.9207C18.2185 24.6349 17.6509 24.066 17.6509 23.3651C17.6509 22.6641 18.2185 22.0952 18.9207 22.0952H21.4604C22.1626 22.0952 22.7302 22.6641 22.7302 23.3651C22.7302 24.066 22.1626 24.6349 21.4604 24.6349Z" fill="#4A3AFF"/>
<path d="M27.809 32.254C27.484 32.254 27.1589 32.1296 26.9113 31.8819L25.6414 30.6121C25.1449 30.1156 25.1449 29.313 25.6414 28.8165C26.1379 28.32 26.9405 28.32 27.437 28.8165L27.809 29.1886L29.4509 27.5467C29.9475 27.0502 30.75 27.0502 31.2465 27.5467C31.743 28.0432 31.743 28.8457 31.2465 29.3423L28.7068 31.8819C28.4592 32.1296 28.1341 32.254 27.809 32.254Z" fill="#4A3AFF"/>
<path d="M21.4604 32.254H18.9207C18.2185 32.254 17.6509 31.6851 17.6509 30.9842C17.6509 30.2832 18.2185 29.7144 18.9207 29.7144H21.4604C22.1626 29.7144 22.7302 30.2832 22.7302 30.9842C22.7302 31.6851 22.1626 32.254 21.4604 32.254Z" fill="#4A3AFF"/>
</svg>
