<svg width="38" height="50" viewBox="0 0 38 50" fill="none" xmlns="http://www.w3.org/2000/svg">
<path d="M19.9353 49.0849C29.8407 49.0849 37.8706 41.055 37.8706 31.1496C37.8706 21.2443 29.8407 13.2144 19.9353 13.2144C10.0299 13.2144 2 21.2443 2 31.1496C2 41.055 10.0299 49.0849 19.9353 49.0849Z" fill="#7CCCEC"/>
<mask id="mask0_1372_2793" style="mask-type:alpha" maskUnits="userSpaceOnUse" x="0" y="0" width="38" height="50">
<path d="M19.9353 49.0849C29.8407 49.0849 37.8706 41.055 37.8706 31.1496C37.8706 21.2443 29.8407 13.2144 19.9353 13.2144C10.0299 13.2144 2 21.2443 2 31.1496C2 41.055 10.0299 49.0849 19.9353 49.0849Z" fill="#7CCCEC"/>
<path d="M17.9353 35.8706C27.8407 35.8706 35.8706 27.8407 35.8706 17.9353C35.8706 8.0299 27.8407 0 17.9353 0C8.0299 0 0 8.0299 0 17.9353C0 27.8407 8.0299 35.8706 17.9353 35.8706Z" fill="#7CCCEC"/>
</mask>
<g mask="url(#mask0_1372_2793)">
<path d="M28.2675 21.4258C28.2675 21.4258 31.4516 22.7504 32.4984 28.837L26.2051 29.3149L27.2557 21.6458L28.2665 21.4258H28.2675Z" fill="#EEADD5"/>
<path d="M28.2185 22.5039L30.2524 27.9287L27.9482 28.2795L28.2185 22.5039Z" fill="#D180B6"/>
<path d="M28.6626 59.0634C18.7698 61.8777 12.4102 59.0634 12.4102 59.0634C12.4102 59.0634 12.9696 56.8341 12.4585 48.5619C12.1636 43.7895 13.2958 40.7941 14.3075 39.1129C15.049 37.8802 15.7261 37.3549 15.7261 37.3549L26.4438 37.0847L27.4697 37.0581C27.4697 37.0581 27.4802 37.1605 27.5001 37.3483C27.502 37.3568 27.5029 37.3653 27.5029 37.3748C27.6404 38.6796 28.1724 43.7307 28.5412 47.1225C28.967 51.0453 28.6626 59.0624 28.6626 59.0624V59.0634Z" fill="#123D82"/>
<path d="M27.5239 37.3543C27.5239 37.3543 27.5172 37.3609 27.503 37.3751C27.2603 37.5932 24.774 39.557 14.3076 39.1132C15.0491 37.8805 15.7262 37.3552 15.7262 37.3552L26.4438 37.085L27.5002 37.3495L27.5248 37.3552L27.5239 37.3543Z" fill="#092E5B"/>
<path d="M28.2688 21.4261L27.5244 37.3552C27.5244 37.3552 20.9173 38.2826 15.7258 37.3552C15.7258 37.3552 14.9207 33.8648 14.1385 30.1877C13.6094 27.6967 13.0888 25.1194 12.8385 23.4866C12.6953 22.5517 12.6403 21.9249 12.7209 21.7997C13.0139 21.3436 16.8513 20.3129 19.2541 19.7051H19.2579C20.3711 19.4226 21.1752 19.2329 21.1752 19.2329C21.1752 19.2329 22.0608 19.4112 23.2186 19.6928C23.2252 19.6947 23.2309 19.6956 23.2376 19.6966L23.2461 19.6994C24.1649 19.9232 25.2525 20.2096 26.2055 20.5225C27.0864 20.8117 27.8535 21.1218 28.2669 21.4261H28.2688Z" fill="#EEADD5"/>
<path d="M21.1943 23.4857C21.1943 23.4857 22.6062 23.4857 23.4928 24.396C23.4928 24.396 24.2704 21.4072 26.2076 20.5225L23.2207 19.6919L21.1943 23.4848V23.4857Z" fill="#FBFFFF"/>
<path d="M21.2349 23.4861C21.2349 23.4861 19.823 23.4861 18.9364 24.3964C18.9364 24.3964 18.1589 21.4076 16.2217 20.5229L19.2579 19.7046L21.234 23.4861H21.2349Z" fill="#FBFFFF"/>
<path d="M21.5454 24.8284C21.5454 25.0218 21.388 25.1792 21.1946 25.1792C21.0012 25.1792 20.8438 25.0218 20.8438 24.8284C20.8438 24.6349 21.0012 24.4775 21.1946 24.4775C21.388 24.4775 21.5454 24.6349 21.5454 24.8284Z" fill="#FBFFFF"/>
<path d="M21.2756 26.7295C21.4694 26.7295 21.6265 26.5724 21.6265 26.3787C21.6265 26.1849 21.4694 26.0278 21.2756 26.0278C21.0819 26.0278 20.9248 26.1849 20.9248 26.3787C20.9248 26.5724 21.0819 26.7295 21.2756 26.7295Z" fill="#FBFFFF"/>
<path d="M21.4397 28.2798C21.6335 28.2798 21.7905 28.1227 21.7905 27.929C21.7905 27.7352 21.6335 27.5781 21.4397 27.5781C21.2459 27.5781 21.0889 27.7352 21.0889 27.929C21.0889 28.1227 21.2459 28.2798 21.4397 28.2798Z" fill="#FBFFFF"/>
<path d="M19.7441 24.27L27.3877 26.3845V38.2022C27.3877 38.2022 25.111 36.1967 20.0068 35.3196L19.7441 24.271V24.27Z" fill="#132936"/>
<path d="M27.3887 26.3841L32.7556 23.6191V34.1899C32.7556 34.1899 30.0721 34.8944 27.3887 38.2018V26.3841Z" fill="#0B1F26"/>
<path d="M32.7546 23.6199L31.8121 23.3203L27.3877 25.7174L20.7568 23.7081L19.7441 24.2704L27.3877 26.384L32.7546 23.6199Z" fill="#CECECE"/>
<path d="M9.30563 28.1956C9.30563 28.1956 8.83436 37.2321 12.2129 38.8042C15.5914 40.3764 21.3281 34.1675 21.3281 34.1675C21.3281 34.1675 23.9603 34.5211 24.1964 32.5176C24.4325 30.514 22.8604 29.2168 20.9744 30.8278C20.9744 30.8278 20.8957 29.4131 20.2158 29.4065C19.681 29.4008 19.5208 31.9278 19.5208 31.9278L14.4525 34.1675L14.1833 27.3678L11.1518 26.7021L9.30468 28.1956H9.30563Z" fill="#F7B289"/>
<path d="M18.757 9.38142C20.6744 8.58721 21.5849 6.38902 20.7907 4.47163C19.9965 2.55424 17.7983 1.64373 15.8809 2.43794C13.9635 3.23214 13.053 5.43033 13.8472 7.34772C14.6414 9.26511 16.8396 10.1756 18.757 9.38142Z" fill="#111111"/>
<path d="M23.2192 14.7856V19.6927L21.1938 23.4855L19.249 19.686V14.7856H23.2192Z" fill="#F7B289"/>
<path d="M23.2192 17.4113C23.2192 17.4113 22.6427 18.7008 19.249 18.7274V14.7856H20.1726L22.9499 16.7418L23.2192 17.4113Z" fill="#E58353"/>
<path d="M27.3839 6.53604C27.3839 6.53604 28.8451 17.779 22.6646 17.4102C16.4832 17.0413 17.6192 6.11503 17.6192 6.11503L20.8734 4.91269L25.6904 4.89941L27.3839 6.53604Z" fill="#F7B289"/>
<path d="M28.6657 8.3819C28.7273 8.77161 28.7472 9.15849 28.7264 9.53967C28.0076 9.90284 26.4838 10.4699 24.3257 10.2157C24.3257 10.2157 24.9989 8.63602 24.3684 6.29487C24.3684 6.29487 24.4281 8.67016 23.4173 9.99387C23.4173 9.99387 21.9959 10.2015 20.2853 10.047C20.2853 10.047 20.712 8.69765 20.3185 7.07431C20.3185 7.07431 20.0796 10.668 17.0367 12.0562C16.7532 11.5271 16.5531 10.9449 16.4545 10.3238C15.9501 7.15111 18.2742 4.14337 21.647 3.60762C25.0188 3.07188 28.1603 5.21011 28.6647 8.38285L28.6657 8.3819Z" fill="#191919"/>
<path d="M23.933 13.0952C23.933 13.0952 24.6574 14.747 23.6846 14.6844C23.6846 14.6844 25.3601 14.9812 23.933 13.0952Z" fill="#E58353"/>
<path d="M26.3307 10.9464C25.4811 10.9464 24.7709 11.5523 24.6088 12.3545H23.4557C23.3922 11.4423 22.6317 10.7197 21.7044 10.7197C21.033 10.7197 20.4489 11.0981 20.1531 11.6528L17.4772 11.1692L17.4336 11.41L20.0526 11.8832C19.9852 12.069 19.9473 12.2691 19.9473 12.4777C19.9473 13.4468 20.7353 14.2357 21.7053 14.2357C22.6753 14.2357 23.3931 13.5122 23.4567 12.601H24.5803C24.5784 12.6361 24.5746 12.6702 24.5746 12.7062C24.5746 13.6753 25.3626 14.4642 26.3317 14.4642C27.3007 14.4642 28.0897 13.6763 28.0897 12.7062C28.0897 11.7362 27.3017 10.9492 26.3317 10.9492L26.3307 10.9464ZM21.7034 13.9892C20.869 13.9892 20.191 13.3103 20.191 12.4768C20.191 11.6433 20.8699 10.9644 21.7034 10.9644C22.5369 10.9644 23.2158 11.6433 23.2158 12.4768C23.2158 13.3103 22.5369 13.9892 21.7034 13.9892ZM26.3307 14.2168C25.4963 14.2168 24.8183 13.5378 24.8183 12.7043C24.8183 11.8709 25.4972 11.1919 26.3307 11.1919C27.1642 11.1919 27.8431 11.8709 27.8431 12.7043C27.8431 13.5378 27.1642 14.2168 26.3307 14.2168Z" fill="#42302C"/>
<path d="M18.3204 11.2906C18.9007 11.925 18.9975 12.7812 18.5357 13.2041C18.0739 13.627 17.229 13.4544 16.6487 12.821C16.0684 12.1867 15.9717 11.3304 16.4335 10.9075C16.8953 10.4856 17.7401 10.6572 18.3204 11.2906Z" fill="#F7B289"/>
<path d="M18.3685 12.2633C18.1713 11.8072 17.682 11.0553 16.6152 11.1359C16.6152 11.1359 17.572 11.1956 17.901 12.4207C17.9314 12.5326 18.0319 12.6113 18.1476 12.6075C18.322 12.6028 18.4377 12.4235 18.3685 12.2633Z" fill="#E58353"/>
<path d="M31.8916 26.6222C31.8916 26.6222 32.9972 25.2928 32.3354 24.0914C31.5588 22.6824 27.8579 23.9397 28.0788 25.3744C28.2998 26.809 28.9446 26.8849 28.9446 26.8849C28.9446 26.8849 27.3639 35.8645 30.236 37.0232C33.1082 38.1819 33.881 32.7989 31.8926 26.6222H31.8916Z" fill="#F7B289"/>
<path d="M16.159 29.9026C15.7779 29.9813 15.3995 30.0457 15.0278 30.0941C14.3754 30.1804 13.743 30.224 13.1466 30.2382C10.7789 30.2989 9 29.9016 9 29.9016C8.99716 23.558 12.8498 21.6445 12.8498 21.6445L16.1164 24.5375L16.16 29.9016L16.159 29.9026Z" fill="#EEADD5"/>
<path d="M14.1376 30.1879C13.7981 30.2144 13.4663 30.2315 13.1448 30.2391C12.7674 27.3489 12.8366 23.5598 12.8376 23.4868C13.0879 25.1206 13.6075 27.6969 14.1376 30.1879Z" fill="#D180B6"/>
</g>
</svg>
