<svg width="39" height="50" viewBox="0 0 39 50" fill="none" xmlns="http://www.w3.org/2000/svg">
<path d="M20.8474 49.6152C30.7528 49.6152 38.7827 41.5853 38.7827 31.6799C38.7827 21.7745 30.7528 13.7446 20.8474 13.7446C10.942 13.7446 2.91211 21.7745 2.91211 31.6799C2.91211 41.5853 10.942 49.6152 20.8474 49.6152Z" fill="#F4B350"/>
<mask id="mask0_1372_2367" style="mask-type:alpha" maskUnits="userSpaceOnUse" x="0" y="0" width="39" height="50">
<path d="M20.8474 49.6152C30.7528 49.6152 38.7827 41.5853 38.7827 31.6799C38.7827 21.7745 30.7528 13.7446 20.8474 13.7446C10.942 13.7446 2.91211 21.7745 2.91211 31.6799C2.91211 41.5853 10.942 49.6152 20.8474 49.6152Z" fill="#F4B350"/>
<path d="M17.9353 35.8706C27.8407 35.8706 35.8706 27.8407 35.8706 17.9353C35.8706 8.0299 27.8407 0 17.9353 0C8.0299 0 0 8.0299 0 17.9353C0 27.8407 8.0299 35.8706 17.9353 35.8706Z" fill="#F4B350"/>
</mask>
<g mask="url(#mask0_1372_2367)">
<path d="M8.53031 22.4744L7.56098 23.1835C7.56098 23.1835 6.68253 22.4522 6.39338 22.1115C6.10424 21.7681 5.80132 20.987 5.35521 20.5715C5.08258 20.3167 6.59165 19.1783 6.59165 19.1783C6.78442 19.4276 7.03501 19.5578 7.03501 19.5578C7.03501 19.5578 6.96892 19.1617 7.01023 18.8819C7.07356 18.4582 7.4288 18.5551 7.51141 18.857C7.58852 19.1395 8.04565 19.9788 8.27421 20.5798C8.43393 21.0009 8.52756 22.4744 8.52756 22.4744H8.53031Z" fill="#F9BB8D"/>
<path d="M6.31126 22.3495C6.20937 22.4879 6.0166 22.5156 5.87891 22.4132L4.45246 21.3523C4.31477 21.2498 4.28723 21.056 4.38637 20.9175L7.20899 18.0313C7.31088 17.8928 7.50364 17.8651 7.64133 17.9648L8.61341 18.6878C8.7511 18.7902 8.77864 18.9841 8.6795 19.1226L6.31401 22.3467L6.31126 22.3495Z" fill="#C8C8C8"/>
<g style="mix-blend-mode:multiply">
<path d="M8.61069 18.6902L8.11501 18.3218L5.80184 21.4711C5.69995 21.6095 5.50719 21.6372 5.3695 21.5375L4.44974 20.8534L4.38365 20.9199C4.28176 21.0584 4.31205 21.2522 4.44974 21.3547L5.8762 22.4156C6.01388 22.518 6.20665 22.4876 6.30854 22.3519L8.67403 19.1278C8.77592 18.9893 8.74563 18.7954 8.60794 18.6929L8.61069 18.6902Z" fill="#DCDCDC"/>
</g>
<path d="M6.99396 17.7292L1.64062 16.8373L7.43457 8.94336L9.92673 13.7324L11.9177 15.2087L8.98494 19.2055L6.99396 17.7292Z" fill="#E84341"/>
<g style="mix-blend-mode:multiply">
<path d="M9.59903 17.5467L10.0617 16.5662C9.87166 16.7102 8.9161 17.3029 8.9161 17.3029L9.06756 16.7462L8.12852 17.0869C8.12852 17.0869 7.74574 16.4332 7.13716 16.544C6.29175 16.7462 5.31141 16.3557 5.02777 15.4305C4.78819 14.6467 4.84877 14.0318 4.95342 13.2313C4.99472 12.91 4.99472 12.5915 4.99472 12.2729L1.64062 16.8376L6.99672 17.7267L8.9877 19.203L11.1549 16.2504C10.9181 16.1202 9.60179 17.5439 9.60179 17.5439L9.59903 17.5467Z" fill="#E2CDC7"/>
</g>
<path d="M1.54406 16.9703C1.44493 17.1033 1.25767 17.1338 1.12274 17.0341C0.9878 16.9343 0.960262 16.746 1.0594 16.6103L7.02132 8.48917C7.12046 8.35345 7.30771 8.32575 7.44265 8.42547C7.57483 8.52518 7.60237 8.71353 7.50599 8.84925L1.54406 16.9703Z" fill="white"/>
<path d="M11.9171 15.209C14.1119 16.8404 13.7154 17.9262 12.9057 19.0313C12.0961 20.1337 11.2177 20.8622 8.98438 19.2058L11.9171 15.2118V15.209Z" fill="white"/>
<path d="M10.8823 18.4552C10.8024 18.5659 10.6675 18.602 10.5793 18.5382C10.494 18.4745 10.4885 18.3333 10.5683 18.2225L11.5487 16.8874C11.6285 16.7766 11.7635 16.7406 11.8516 16.8043C11.937 16.868 11.9452 17.0093 11.8626 17.1201L10.8823 18.4552Z" fill="#DADADA"/>
<path d="M11.3969 18.837C11.3171 18.9478 11.1794 18.9838 11.094 18.9201C11.0059 18.8564 11.0031 18.7151 11.083 18.6043L12.0633 17.2693C12.1432 17.1585 12.2809 17.1225 12.3662 17.1862C12.4516 17.2499 12.4571 17.3911 12.3773 17.5019L11.3969 18.837Z" fill="#DADADA"/>
<path d="M6.83361 19.1478C6.56099 18.8653 6.47287 18.7185 6.3517 18.5828C6.17546 18.3834 5.87805 18.8127 5.9827 18.9401C6.0598 19.037 6.22503 19.1894 6.54446 19.5134C6.69041 19.6492 6.98507 19.3943 6.83086 19.1478H6.83361Z" fill="#F9BB8D"/>
<path d="M6.54533 19.5963C6.27271 19.3138 6.00835 19.0202 5.88993 18.8845C5.71094 18.6878 5.41628 19.1144 5.52093 19.2418C5.59803 19.3388 5.92023 19.649 6.23966 19.973C6.38561 20.1088 6.69954 19.8429 6.54533 19.5963Z" fill="#F9BB8D"/>
<path d="M6.20046 20.0368C5.92783 19.7543 5.66623 19.4607 5.54506 19.3249C5.36882 19.1283 5.07141 19.5548 5.17605 19.6822C5.25316 19.7792 5.57535 20.0894 5.89479 20.4135C6.03799 20.5492 6.35467 20.2833 6.20046 20.0368Z" fill="#F9BB8D"/>
<path d="M5.68608 20.2388C5.42447 19.984 5.34461 19.9009 5.22895 19.7818C5.05822 19.6045 4.81864 19.948 4.91778 20.0643C4.99213 20.1502 5.12706 20.2499 5.43273 20.5435C5.57042 20.6654 5.83754 20.4604 5.68608 20.2416V20.2388Z" fill="#F9BB8D"/>
<path d="M15.7202 50.6624C15.7202 50.6624 15.712 63.351 15.4338 65.5502C15.1557 67.7494 16.6538 85.7615 16.6538 85.7615L19.4819 85.9887L21.55 65.3231C21.55 65.3231 22.6432 59.3514 23.7034 53.6317C24.4552 49.5822 15.7202 50.6652 15.7202 50.6652V50.6624Z" fill="#2D3437"/>
<path d="M25.2291 8.59186C27.8782 8.10715 26.8511 13.2922 25.9203 16.857C24.8684 20.8898 22.9435 21.3607 22.9435 21.3607C22.9435 21.3607 16.2821 21.6128 14.6408 15.3336C14.2608 13.8711 14.0433 12.4918 14.3269 10.6858C13.1455 10.3064 13.0987 8.14592 15.3458 6.79148C17.7884 5.32348 25.521 5.88298 25.2263 8.59186H25.2291Z" fill="#1A1A1A"/>
<path d="M8.73672 21.3607C8.73672 21.3607 11.5566 31.465 11.6943 31.2628C13.0601 29.238 14.079 24.9144 15.1668 24.7232C16.574 24.474 16.9898 27.0859 16.9099 27.5069C16.629 28.9611 13.5145 35.9244 10.8516 35.9105C9.25168 35.9022 6.74023 22.7705 6.74023 22.7705L8.73672 21.3579V21.3607Z" fill="#2D3437"/>
<path d="M15.1115 26.9084C14.6874 26.9832 13.1646 33.3261 13.239 34.423C15.3208 32.3511 16.7225 28.4706 16.9097 27.5067C16.9896 27.0857 16.5215 26.6592 15.1143 26.9084H15.1115Z" fill="#1E2425"/>
<path d="M27.4347 45.2892C26.2753 42.3781 15.3896 45.4415 15.3896 45.4415L15.7229 50.6654L20.3272 53.5931C20.3272 53.5931 20.7568 64.8994 20.776 67.1181C20.7953 69.3367 25.5456 87.9166 25.5456 87.9166L28.3765 87.756L27.0739 66.9463C27.0739 66.9463 28.9575 49.1226 27.4347 45.2919V45.2892Z" fill="#454F56"/>
<path d="M15.3874 45.4416L27.4325 45.2893L26.7385 38.0656L27.4022 31.4125L27.2893 24.9228L22.8805 23.4077L18.7636 23.416L15.1671 24.7234C15.1671 24.7234 14.3768 28.0195 14.4457 31.9803C14.5007 35.2431 15.3902 45.4416 15.3902 45.4416H15.3874Z" fill="white"/>
<path d="M20.091 44.2838L20.9365 41.1982C20.9365 41.1982 19.6146 37.8662 19.5733 34.1158C19.532 30.3627 20.3885 27.2993 20.3885 27.2993L21.2339 26.3714L22.8806 23.4077L18.7637 23.416V26.244L19.5238 27.2079C19.5238 27.2079 18.4085 30.2408 17.8935 33.656C17.3813 37.0712 17.6126 42.2452 17.6126 42.2452L20.0883 44.2838H20.091Z" fill="#E63812"/>
<path d="M18.656 21.8318C17.8575 21.1366 23.6294 19.4775 23.1392 20.6408C22.4149 22.3636 23.1695 23.4051 23.1695 23.4051C23.1695 23.4051 22.2525 25.2996 20.7104 25.3051C19.171 25.3079 18.8213 23.4161 18.8213 23.4161C18.8213 23.4161 19.4546 22.527 18.656 21.8318Z" fill="#D89173"/>
<path d="M21.3709 21.8092C21.0542 22.6069 19.5424 23.2274 19.0412 22.8479C19.0936 22.4214 18.9504 22.1555 18.5786 21.8314C18.0278 21.3522 20.9221 20.4049 22.2742 20.2554C21.9575 20.7373 21.4728 21.2442 21.3682 21.8092H21.3709Z" fill="#BD8E69"/>
<path d="M19.389 22.2028L22.8615 21.6156C22.8615 21.6156 23.6986 19.0175 23.9767 17.8182C24.1998 17.9788 24.4669 18.0425 24.869 17.9179C25.3123 17.785 25.775 16.6881 25.6648 15.9126C25.5436 15.0622 24.6432 14.8656 24.1337 15.619C23.8418 16.0538 23.7041 16.9097 23.7041 16.9097C23.7041 16.9097 23.5251 16.9872 23.3351 16.1729C23.1451 15.3586 25.2325 11.4753 22.9413 9.83281C21.2285 8.60301 16.8913 7.92718 15.4345 9.89098C14.8067 10.7358 14.5919 13.1012 14.647 14.367C14.8755 19.7238 15.787 21.0478 16.7619 21.8067C17.5962 22.4521 19.389 22.2028 19.389 22.2028Z" fill="#D89173"/>
<path d="M21.1073 26.895L24.5192 24.1695C24.5192 24.1695 23.404 23.3773 23.1699 23.405C22.6852 24.5711 20.8099 24.8564 19.8213 25.0503L21.1073 26.895Z" fill="#DADADA"/>
<path d="M18.8679 26.9004L17.3037 24.1417L18.821 23.416C18.821 23.416 18.9835 24.4159 19.8234 25.0502C19.9583 25.1028 18.8706 26.9004 18.8706 26.9004H18.8679Z" fill="#DADADA"/>
<path d="M25.2294 11.204C25.367 12.9019 23.3816 16.4999 23.8139 13.888C24.4335 10.1487 22.1864 10.3343 22.1864 10.3343C22.1864 10.3343 19.3555 11.6472 16.4365 11.3481C15.2084 11.2206 14.4648 10.6611 14.4648 10.6611C14.4648 10.6611 14.9881 8.32895 19.5483 8.10737C23.4917 7.91625 24.1251 8.06305 25.2266 11.204H25.2294Z" fill="#191919"/>
<path d="M21.4787 41.9988L24.4583 50.516L28.9579 49.5853L27.4158 37.7084L27.402 31.4126L27.2891 24.9229L23.4724 23.4688L20.625 29.3629L21.4787 41.9988Z" fill="#2D3437"/>
<path d="M22.985 29.8476L22.3957 29.4294L23.9047 29.0361L23.4724 23.4688L20.625 29.3629L21.1289 36.9993L22.985 29.8476Z" fill="#1D2324"/>
<path d="M26.2202 34.7388C26.245 35.8744 24.791 37.2648 24.791 37.2648C24.791 37.2648 26.0164 37.2787 26.5286 41.6495C26.8205 44.1257 27.5393 48.0644 27.5393 48.0644C27.5393 48.0644 27.7265 46.5797 28.269 46.2806L27.4154 37.7108L27.4016 31.4122L27.3493 28.335C27.1455 28.6286 26.9582 28.9305 26.7985 29.249C26.2698 30.2905 26.1982 33.5921 26.223 34.7415L26.2202 34.7388Z" fill="#1E2425"/>
<path d="M28.0983 45.7572L28.9961 45.5938L29.2825 45.9954C29.2825 45.9954 29.3954 47.3609 29.5055 47.8844C29.5744 48.2057 27.9276 48.2528 27.9276 48.2528C27.9138 47.9758 27.8009 47.757 27.8009 47.757C27.8009 47.757 27.6798 48.3026 27.6302 48.5464C27.5586 48.8981 27.2419 48.6599 27.2584 48.4051C27.275 48.1475 27.3686 46.8734 27.5173 46.602C27.7045 46.2557 28.1011 45.7572 28.1011 45.7572H28.0983Z" fill="#F9BB8D"/>
<path d="M29.4779 49.4494C29.5578 49.8039 29.8717 49.6654 29.8277 49.4134C29.7836 49.1641 29.4531 47.5825 29.4531 47.5825L29.1172 47.7903C29.1172 47.7903 29.4008 49.0921 29.4779 49.4494Z" fill="#F9BB8D"/>
<path d="M29.0814 49.7816C29.1585 50.1361 29.533 49.9921 29.4889 49.7428C29.4449 49.4907 29.0979 47.7734 29.0979 47.7734L28.7041 47.9839C28.7041 47.9839 29.0015 49.4242 29.0814 49.7816Z" fill="#F9BB8D"/>
<path d="M28.6597 49.9896C28.7368 50.3441 29.1113 50.2001 29.0672 49.9508C29.0232 49.7015 28.6762 47.9814 28.6762 47.9814L28.2852 48.1947C28.2852 48.1947 28.5826 49.635 28.6624 49.9923L28.6597 49.9896Z" fill="#F9BB8D"/>
<path d="M28.272 49.9202C28.3436 50.2498 28.6492 50.1252 28.6079 49.8925C28.5666 49.6599 28.2499 48.0645 28.2499 48.0645L27.9277 48.2528C27.9277 48.2528 28.2004 49.5906 28.272 49.9202Z" fill="#F9BB8D"/>
<path d="M27.4351 36.7056C27.0578 33.8029 27.1294 30.6674 27.0027 30.0138C26.7191 28.5264 26.8458 24.801 27.2891 24.9228C27.7352 25.0475 28.6082 25.7787 28.8175 26.1499C30.2302 28.6372 29.8529 34.0494 29.9988 37.2181C30.0649 38.6445 29.4949 46.2809 29.4949 46.2809L27.6444 45.9845C27.6444 45.9845 27.7903 39.4339 27.4378 36.7056H27.4351Z" fill="#2D3437"/>
<path d="M15.3597 48.9509L17.0037 50.5325L16.7421 38.4284L17.1662 29.8586L18.7634 23.416L15.167 24.7234C15.167 24.7234 14.1894 27.7092 14.3243 31.9941C14.4262 35.2542 15.3597 48.9537 15.3597 48.9537V48.9509Z" fill="#2D3437"/>
<path d="M16.7422 38.4312L17.1663 29.8614L18.7635 23.416L15.3516 29.8641L16.051 30.9887L15.3213 32.3514L16.7422 38.4312Z" fill="#1D2324"/>
</g>
</svg>
