<svg width="37" height="48" viewBox="0 0 37 48" fill="none" xmlns="http://www.w3.org/2000/svg">
<path d="M18.9353 47.0991C28.8407 47.0991 36.8706 39.0692 36.8706 29.1638C36.8706 19.2584 28.8407 11.2285 18.9353 11.2285C9.0299 11.2285 1 19.2584 1 29.1638C1 39.0692 9.0299 47.0991 18.9353 47.0991Z" fill="#798ED1"/>
<mask id="mask0_1372_2606" style="mask-type:alpha" maskUnits="userSpaceOnUse" x="0" y="0" width="37" height="48">
<path d="M18.9353 47.0991C28.8407 47.0991 36.8706 39.0692 36.8706 29.1638C36.8706 19.2584 28.8407 11.2285 18.9353 11.2285C9.0299 11.2285 1 19.2584 1 29.1638C1 39.0692 9.0299 47.0991 18.9353 47.0991Z" fill="#798ED1"/>
<path d="M17.9353 35.8706C27.8407 35.8706 35.8706 27.8407 35.8706 17.9353C35.8706 8.0299 27.8407 0 17.9353 0C8.0299 0 0 8.0299 0 17.9353C0 27.8407 8.0299 35.8706 17.9353 35.8706Z" fill="#798ED1"/>
</mask>
<g mask="url(#mask0_1372_2606)">
<path d="M25.7748 20.4375C25.7748 20.4375 30.6952 25.5571 31.5525 33.6624L24.8661 32.8639L23.0186 22.2933L25.7748 20.4375Z" fill="#132936"/>
<path d="M25.6297 21.2227L27.2845 28.1127L23.0176 28.6644L23.1984 21.7054L25.6297 21.2227Z" fill="#081219"/>
<path d="M27.4616 87.0071L22.7357 87.1145C22.7357 87.1145 21.9161 86.4234 21.6004 84.2445C21.2828 82.0665 19.8345 83.1248 19.3123 81.7535C18.8267 80.4759 19.4041 79.4269 20.2833 79.1451C18.8332 67.5787 19.2535 67.3823 18.7304 59.3312C18.2595 52.0795 19.0103 44.9443 19.0103 44.9443L25.056 48.6881C25.056 48.6881 23.8757 59.69 23.6205 68.0817C23.3654 76.4742 22.7477 82.2106 24.4833 83.9554C25.0138 84.4896 25.4865 84.8328 25.8912 85.0962C26.809 85.6956 27.3744 85.8929 27.4616 87.0062V87.0071Z" fill="#F7B289"/>
<path d="M5.49115 87.2719L10.2179 87.3453C10.2179 87.3453 11.032 86.6478 11.3322 84.468C11.6341 82.2872 13.0898 83.3354 13.6019 81.9605C14.0783 80.6792 14.0214 79.643 13.1393 79.3667C13.1393 79.3667 14.9144 71.8314 15.9589 62.8937C16.9281 54.5966 17.5935 45.2109 17.5935 45.2109L10.5217 48.9823C10.5217 48.9823 11.189 59.9713 10.5135 68.3409C9.90679 75.8505 10.1693 82.4432 8.44653 84.2009C7.9197 84.7387 7.44978 85.0857 7.04685 85.3527C6.13362 85.9585 5.57008 86.1595 5.49023 87.2737L5.49115 87.2719Z" fill="#F7B289"/>
<path d="M10.3276 56.4571C19.9032 59.1812 26.0591 56.4571 26.0591 56.4571C26.0591 56.4571 25.5175 54.2993 26.0122 46.2922C26.2977 41.6728 25.2018 38.7734 24.2225 37.1461C23.5048 35.953 22.8494 35.4445 22.8494 35.4445L12.4753 35.1829L11.4822 35.1572C11.4822 35.1572 11.4721 35.2563 11.4529 35.4381C11.451 35.4463 11.4501 35.4546 11.4501 35.4638C11.317 36.7267 10.8021 41.6159 10.4451 44.899C10.033 48.696 10.3276 56.4562 10.3276 56.4562V56.4571Z" fill="#071116"/>
<path d="M11.4296 35.4433C11.4296 35.4433 11.4361 35.4497 11.4498 35.4635C11.6848 35.6746 14.0913 37.5754 24.2222 37.1458C23.5045 35.9527 22.8492 35.4442 22.8492 35.4442L12.475 35.1826L11.4526 35.4387L11.4287 35.4442L11.4296 35.4433Z" fill="#020607"/>
<path d="M20.6789 9.98624C21.2104 8.86007 22.4898 8.42136 23.4021 8.86467C24.0969 9.20242 24.5246 10.0248 24.4429 10.9068C25.1652 10.5259 26.0252 10.592 26.6053 11.0674C27.334 11.664 27.5094 12.815 26.9256 13.7108C28.373 13.5685 29.3679 14.5451 29.3285 15.3124C29.2982 15.8998 28.6539 16.5074 27.7663 16.7139C28.2583 17.4885 28.1087 18.4632 27.5259 18.9561C26.8265 19.5481 25.5691 19.3911 24.9633 18.4357C24.8881 19.0782 24.4365 19.6059 23.8417 19.7574C23.1525 19.9327 22.398 19.5692 22.0795 18.8762C21.5922 19.4563 20.8313 19.7216 20.1172 19.5573C19.293 19.3673 18.6698 18.6376 18.5955 17.7556C17.428 16.0806 17.2142 13.9833 18.0751 12.3092C18.8506 10.8013 20.2228 10.1726 20.678 9.98624H20.6789Z" fill="#191919"/>
<path d="M14.3909 11.1817C13.6135 9.40205 11.9816 8.80913 11.1877 9.25978C10.5948 9.5957 10.3378 10.5851 10.5066 11.6222C9.39608 11.335 8.44155 12.0738 8.38465 12.8237C8.33967 13.4102 8.83805 14.0765 9.62645 14.305C9.06291 14.4262 8.65173 14.909 8.62511 15.4661C8.59666 16.0654 9.01886 16.6152 9.62645 16.7474C9.27585 17.2347 9.18865 17.8258 9.42637 18.1893C9.75862 18.6968 10.7893 18.8538 11.5888 18.1489C11.5364 18.7399 11.9641 19.2732 12.5497 19.3503C13.139 19.4283 13.6933 19.0181 13.7915 18.4297C14.267 18.8804 14.937 19.0226 15.473 18.7904C16.1779 18.4848 16.5643 17.567 16.2338 16.7079C16.1494 15.959 15.986 15.0567 15.6731 14.0646C15.2995 12.8806 14.8222 11.915 14.3918 11.1817H14.3909Z" fill="#191919"/>
<path d="M12.3662 5.59517C12.3662 5.59517 13.2638 3.49703 15.4813 3.63103C15.4813 3.63103 16.7093 2.53607 18.4183 3.23086C18.4183 3.23086 20.6183 3.22076 21.0093 4.56536C21.0093 4.56536 22.6284 4.87468 22.5687 6.59468C22.5687 6.59468 23.2516 7.27385 22.5705 8.69648C21.8895 10.1191 12.3662 5.59609 12.3662 5.59609V5.59517Z" fill="#191919"/>
<path d="M11.123 7.66588C12.0344 6.03859 14.5841 5.32544 14.7943 5.26853C15.3661 5.11618 17.8176 4.46177 20.0599 6.04501C21.7441 7.23359 22.2975 8.96919 22.4802 9.99256C22.5389 9.69243 22.5692 9.38405 22.5692 9.06832C22.5692 6.16433 19.9598 3.81104 16.741 3.81104C14.061 3.81104 11.8032 5.44384 11.123 7.66588Z" fill="#EC9824"/>
<path d="M15.9971 14.3203L16.0283 18.7974L17.8511 21.2847L19.8886 18.802L19.8409 14.3203H15.9971Z" fill="#F7B289"/>
<path d="M15.9971 16.8618C15.9971 16.8618 16.5551 18.11 19.84 18.1357V14.3203H18.946L16.2577 16.2138L15.9971 16.8618Z" fill="#E58353"/>
<path d="M11.9684 6.88771C11.9684 6.88771 10.5522 17.1939 16.5364 16.8608C22.7638 16.5138 20.673 6.90332 20.673 6.90332L18.2702 5.31641L13.9775 6.34253L11.9684 6.88771Z" fill="#F7B289"/>
<path d="M10.9829 9.88695C10.9912 9.89521 11.0003 9.90346 11.0095 9.91081C11.3803 10.2082 12.0898 10.0219 12.4936 9.62904C12.9948 9.14168 12.9131 8.44321 12.9002 8.35235C13.4408 8.88377 14.2311 8.98748 14.7882 8.64055C15.3783 8.2725 15.4417 7.56302 15.4481 7.48042C15.5518 7.56853 16.0181 7.94851 16.6449 7.88243C17.3241 7.81175 17.9143 7.24546 18.0832 6.4699C18.0575 6.59472 17.9675 7.15552 18.3475 7.63554C18.6495 8.01643 19.0597 8.11004 19.1772 8.13299C18.8055 8.44229 18.7449 8.99391 19.0331 9.36746C19.3112 9.72725 19.8316 9.81811 20.2244 9.56846C20.0601 10.1733 20.3272 10.813 20.8623 11.1168C21.2432 11.3316 21.6975 11.3426 22.0849 11.1701C22.2657 11.0902 22.4327 10.9691 22.5685 10.8103C22.5658 10.7194 22.5548 10.4165 22.4795 9.99249C22.2969 8.96912 21.7443 7.23352 20.0592 6.04495C17.817 4.46262 15.3655 5.11612 14.7937 5.26847C14.5826 5.32538 12.0338 6.03761 11.1224 7.66582C10.9664 7.94117 10.859 8.24405 10.8186 8.57355C10.7911 8.79658 10.6112 9.54735 10.9829 9.88786V9.88695Z" fill="#191919"/>
<path d="M22.3564 12.4169C22.9183 11.8028 23.0115 10.9735 22.5646 10.5646C22.1177 10.1557 21.3 10.322 20.7381 10.936C20.1762 11.5501 20.083 12.3794 20.5299 12.7883C20.9768 13.1972 21.7945 13.0309 22.3564 12.4169Z" fill="#F7B289"/>
<path d="M20.6906 11.8783C20.8815 11.4369 21.356 10.709 22.3876 10.787C22.3876 10.787 21.4616 10.8449 21.1431 12.0307C21.1137 12.139 21.0164 12.2152 20.9045 12.2115C20.7356 12.2069 20.6236 12.0334 20.6906 11.8783Z" fill="#E58353"/>
<path d="M22.9949 35.5702C17.9708 36.4678 11.4955 35.5702 11.4955 35.5702L10.6172 20.1517C10.9063 19.9397 11.3726 19.724 11.9297 19.5166C12.1454 19.4349 12.3748 19.3551 12.6125 19.277C13.5349 18.9742 14.5877 18.697 15.477 18.4804L15.4853 18.4776C15.4917 18.4776 15.4972 18.4749 15.5037 18.4739C16.6243 18.2014 17.4816 18.0288 17.4816 18.0288C17.4816 18.0288 18.2599 18.2124 19.3374 18.485H19.3411C20.4737 18.7713 21.9348 19.1559 23.1684 19.5239C24.4699 19.9131 25.5198 20.2857 25.6649 20.5124C25.7429 20.6336 22.994 35.5684 22.994 35.5684L22.9949 35.5702Z" fill="#FDFEFF"/>
<path d="M23.1693 19.5248C22.4176 21.1301 20.1873 22.293 17.5513 22.293C14.9154 22.293 12.6786 21.1264 11.9297 19.5166C12.1454 19.4349 12.3748 19.3551 12.6125 19.277C13.535 18.9742 14.5877 18.697 15.4771 18.4804L15.4853 18.4776C15.4917 18.4776 15.4973 18.4749 15.5037 18.4739C16.6243 18.2014 17.4816 18.0288 17.4816 18.0288C17.4816 18.0288 18.2599 18.2124 19.3374 18.485H19.3411C20.4737 18.7713 21.9349 19.1559 23.1684 19.5239L23.1693 19.5248Z" fill="#F7B289"/>
<path d="M21.0545 18.9316C21.0545 18.9316 19.5052 21.9247 19.1041 28.7367C18.703 35.5488 21.0839 40.0516 21.0839 40.0516C21.0839 40.0516 26.2264 40.8529 28.8982 38.5822C28.8982 38.5822 24.8469 34.7861 23.8456 30.9129L25.7739 20.4369C25.7739 20.4369 23.4271 19.3098 21.0554 18.9316H21.0545Z" fill="#132936"/>
<path d="M13.9217 40.052C13.9217 40.052 8.77828 40.8533 6.10742 38.5826C6.10742 38.5826 10.1578 34.7865 11.16 30.9133L10.8783 26.6472L10.6938 23.8424L10.4478 20.1188C10.4478 20.1188 12.5377 18.9807 14.9102 18.6025C14.9102 18.6025 15.5013 21.9241 15.9024 28.7362C16.3026 35.5492 13.9236 40.0511 13.9236 40.0511L13.9217 40.052Z" fill="#132936"/>
<path d="M22.368 23.257L18.1768 35.1919L27.3578 38.4161L31.5491 26.4812L22.368 23.257Z" fill="#EC9824"/>
<path d="M23.0812 25.3817L22.2275 27.8125L28.8115 30.1246L29.6652 27.6939L23.0812 25.3817Z" fill="white"/>
<path d="M22.3711 23.2681L22.9888 22.9102L31.2648 25.4993L31.5521 26.4933L22.3711 23.2681Z" fill="white"/>
<path d="M22.5727 30.3359C22.5727 30.3359 21.8669 28.5269 21.4373 28.3332C21.0078 28.1396 20.592 29.3346 20.592 29.3346C20.592 29.3346 20.268 28.8647 19.8155 28.8738C19.1363 28.8876 17.9441 31.2446 18.984 31.9513C20.0239 32.658 21.8127 32.9214 21.8127 32.9214L23.1995 30.8646L22.5745 30.3359H22.5727Z" fill="#F7B289"/>
<path d="M30.364 31.6822C30.364 31.6822 32.732 33.3838 31.046 35.5838C29.3462 37.8022 21.2969 32.9699 21.2969 32.9699L22.6277 30.2183L30.364 31.6822Z" fill="#132936"/>
<path d="M7.87751 36.9517L6.9707 35.0298L9.71131 35.1996C9.71131 35.1996 11.5626 34.7627 12.0701 35.2537C12.4914 35.6612 11.1899 36.2918 11.1899 36.2918C11.1899 36.2918 12.1848 38.7139 10.6548 39.7823C8.74393 41.1168 7.87751 36.9517 7.87751 36.9517Z" fill="#F7B289"/>
<path d="M7.35373 29.9495L9.89242 35.104L7.87964 37.2095C7.87964 37.2095 2.93075 33.7631 3.05098 29.5209C3.17122 25.2797 10.4459 20.1206 10.4459 20.1206L11.3729 22.5987L12.3669 25.2531L7.35373 29.9495Z" fill="#132936"/>
<path d="M10.877 26.6481L7.35352 29.9495L10.6916 23.8433L10.877 26.6481Z" fill="#081219"/>
</g>
</svg>
