<svg width="37" height="44" viewBox="0 0 37 44" fill="none" xmlns="http://www.w3.org/2000/svg">
<path d="M18.1062 44.0078C28.0116 44.0078 36.0415 35.9779 36.0415 26.0725C36.0415 16.1671 28.0116 8.13721 18.1062 8.13721C8.2008 8.13721 0.170898 16.1671 0.170898 26.0725C0.170898 35.9779 8.2008 44.0078 18.1062 44.0078Z" fill="#A3D167"/>
<path d="M7.86996 22.6358C7.44932 23.5544 7.05283 24.5215 7.05766 25.532C7.0625 26.5425 7.56538 27.6158 8.4937 28.0075C8.62424 28.0655 8.76928 28.1042 8.9095 28.0897C9.07872 28.0752 9.22858 27.9833 9.36396 27.8818C10.3696 27.1565 10.9353 25.9913 11.5397 24.9083C13.0676 22.1813 15.0886 19.6913 16.0604 16.7178C16.1184 16.5389 16.1716 16.3455 16.0943 16.1714C16.0459 16.0554 15.9444 15.9732 15.8429 15.9007C15.4029 15.5719 14.871 15.3205 14.3198 15.3398C13.7686 15.3591 13.2078 15.7121 13.0773 16.2488C13.0289 15.862 13.1256 15.4752 13.2319 15.1029C13.3383 14.7306 13.4544 14.3486 13.4447 13.9618C13.435 13.4735 12.8693 12.4437 12.2746 12.961C12.0812 13.1302 12.0474 13.5025 11.9749 13.7346C11.8492 14.1456 11.6944 14.5517 11.5349 14.953C10.8676 16.6404 10.0361 18.2553 9.21411 19.875C8.74995 20.784 8.2906 21.6978 7.86512 22.6261L7.86996 22.6358Z" fill="#EBEBEB"/>
<path d="M11.8875 10.9059C11.815 11.2201 11.8537 11.5489 11.9069 11.868C11.9745 12.2935 12.0616 12.719 12.2743 13.0913C12.4871 13.4636 12.8448 13.7778 13.2703 13.831C13.512 13.8649 13.7731 13.8069 13.9472 13.6376C14.1841 13.4104 14.218 13.0429 14.2132 12.7093C14.2083 12.1726 14.1455 11.6359 14.0391 11.1138C14.0053 10.9494 13.9665 10.785 13.8795 10.6448C13.6523 10.2725 13.0914 10.0742 12.6708 10.0936C12.2646 10.1129 11.9745 10.5287 11.8875 10.901V10.9059Z" fill="#FFC3B1"/>
<path d="M14.8709 12.1581C14.7114 11.7084 14.547 11.2588 14.3874 10.8091C14.3004 10.5722 14.2182 10.3353 14.0973 10.1129C13.8846 9.71641 13.5703 9.37797 13.1932 9.14105C13.0046 9.02501 12.758 8.93314 12.5743 9.05401C12.4776 9.07819 12.3905 9.13621 12.3083 9.18939C12.144 9.29576 11.9748 9.40697 11.8104 9.51334C11.7427 9.55686 11.6702 9.60521 11.617 9.66807C11.5251 9.77927 11.4961 9.92915 11.5155 10.0694C11.53 10.2096 11.5879 10.345 11.6508 10.4707C11.9892 11.1669 12.5211 11.7519 12.9031 12.424C13.0481 12.6754 13.169 12.9413 13.3286 13.1783C13.5171 13.4538 13.7541 13.6956 13.9861 13.9374C14.0103 13.9615 14.0344 13.9857 14.0683 13.9954C14.1263 14.0147 14.1844 13.9809 14.2327 13.947C14.431 13.8165 14.634 13.6859 14.8323 13.5554C14.8999 13.5119 14.9676 13.4684 15.0111 13.4007C15.0547 13.3378 15.0692 13.2556 15.0788 13.1783C15.1127 12.8301 14.9918 12.482 14.8709 12.1532V12.1581Z" fill="#EDEDED"/>
<path d="M13.4062 13.067C13.5271 13.3281 13.6673 13.6231 13.938 13.7246C14.2572 13.8406 14.5908 13.6424 14.8712 13.449C14.9921 13.3668 15.113 13.2798 15.1807 13.1541C15.2822 12.9558 15.229 12.7189 15.1661 12.5062C15.0114 11.9792 14.8084 11.4715 14.5908 10.9687C14.4071 10.5432 14.2185 10.1225 14.0154 9.71157C13.9526 9.58586 13.8897 9.46014 13.7979 9.35861C13.59 9.1362 13.2515 9.06851 12.9469 9.1217C12.6423 9.17488 12.3715 9.32476 12.1056 9.47948C11.9509 9.57135 11.7913 9.67289 11.7091 9.83244C11.4819 10.2676 12.1588 10.9493 12.3715 11.2733C12.7486 11.8535 13.1161 12.4482 13.411 13.0767L13.4062 13.067Z" fill="#333333"/>
<path d="M14.8562 12.1728C14.6531 11.5878 14.4017 11.0173 14.1503 10.4516C14.0052 10.118 13.8457 9.77468 13.5701 9.53777C13.4879 9.47008 13.3863 9.40723 13.2751 9.40723C13.2026 9.40723 13.1301 9.4314 13.0576 9.45558C12.6853 9.59579 12.3227 9.76984 11.9842 9.97291L11.9648 9.98743C12.4242 10.6885 12.84 11.4138 13.2122 12.1632C13.3815 12.5016 13.5459 12.8546 13.8311 13.1011C13.8698 13.135 13.9085 13.164 13.9569 13.1785C14.0149 13.1979 14.0777 13.1834 14.1357 13.1737C14.247 13.1495 14.363 13.1205 14.4742 13.0866C14.6193 13.0431 14.7691 12.9851 14.861 12.8642C14.9335 12.7675 14.9577 12.6418 14.9481 12.521C14.9384 12.4001 14.8997 12.284 14.861 12.168L14.8562 12.1728Z" fill="white"/>
<path d="M14.499 13.2269C14.3975 13.401 14.6683 13.4106 14.7456 13.2849C14.8472 13.1109 14.5716 13.106 14.499 13.2269Z" fill="white"/>
<path d="M9.9105 34.9504C9.9105 34.9504 8.5857 68.7567 8.56152 74.2299L11.1821 74.3072C11.1821 74.3072 14.2765 48.0194 16.4474 46.3804C16.4474 46.3804 17.3467 46.2546 17.69 46.3804C18.0381 46.5061 19.1599 72.557 18.5845 74.5877H20.9101C20.9101 74.5877 25.9047 42.9813 25.5952 35.1777C25.5952 35.1777 25.7934 31.2613 18.8939 31.6143C11.9895 31.9673 10.6067 31.068 9.9105 34.9601V34.9504Z" fill="#4D4D4D"/>
<path d="M13.3136 4.63485C13.0283 5.38427 13.0041 6.21588 13.1153 7.00882C13.2265 7.80176 13.4731 8.57053 13.7294 9.33446C14.1065 8.2079 14.4885 7.07168 15.1219 6.07083C15.4168 5.597 15.7842 5.11351 15.7697 4.55265C15.7601 4.18035 15.5619 3.81773 15.2573 3.60499C14.3241 2.95711 13.6279 3.8129 13.3184 4.63485H13.3136Z" fill="#826E5A"/>
<path d="M13.8214 10.5189C13.8552 11.0169 13.8843 11.5294 14.0535 11.9888C14.421 13.0234 15.3541 13.5988 16.2293 14.0581C16.9013 14.4111 17.67 14.7447 18.3518 14.4159C18.932 14.1307 19.2705 13.4393 19.7153 12.9171C20.0537 12.5206 20.4647 12.216 20.7886 11.8002C21.5139 10.8719 21.6879 9.53259 21.6928 8.28033C21.6976 6.69445 21.4172 4.96352 20.3728 3.94818C19.8265 3.41633 19.1254 3.14074 18.4243 2.97635C17.7668 2.82646 17.0754 2.76361 16.4275 2.97635C15.6249 3.2326 14.948 3.88533 14.4693 4.67826C13.3283 6.57841 13.686 8.35285 13.8214 10.5189Z" fill="#FFC3B1"/>
<path d="M23.7377 4.62997C23.6023 3.84671 23.4185 2.93289 22.6981 2.59928C22.2485 2.39138 21.7215 2.48324 21.2332 2.55577C20.7545 2.62346 20.271 2.66214 19.7924 2.59445C18.864 2.4639 18.0469 1.93205 17.1718 1.59843C16.2966 1.26482 15.2039 1.16329 14.5077 1.79184C14.0677 2.18831 13.8792 2.8362 14.0339 3.40189C14.1306 3.76935 14.3095 4.02077 14.5319 4.19966C14.2756 5.29237 16.1999 6.05629 17.1621 6.13365C18.0276 6.20618 18.8979 6.0708 19.7585 5.94026C19.9084 7.19252 20.0583 8.43994 20.213 9.6922C20.3242 9.16036 20.5756 8.65752 20.9382 8.25138C21.1752 8.3916 21.2573 8.70586 21.2235 8.97662C21.1896 9.25222 21.0591 9.49881 20.9624 9.7599C20.6143 10.7124 20.6965 11.8099 20.184 12.6851C20.2952 12.5787 20.4015 12.4675 20.4982 12.3514C20.4934 12.4191 20.4886 12.482 20.4886 12.5497C21.7408 11.6891 22.7707 10.5045 23.4476 9.14102C23.7135 8.60434 23.9311 8.03864 24.0085 7.44394C24.1342 6.50595 23.9069 5.56313 23.7473 4.62997H23.7377Z" fill="#826E5A"/>
<path d="M14.3585 1.91771C15.5721 0.781485 17.1435 0.152937 18.7294 0.0223925C19.3386 -0.0259574 19.9623 -0.00661918 20.5473 0.18678C21.7464 0.588084 22.6699 1.68563 23.2259 2.91855C23.782 4.15147 24.0237 5.52461 24.2558 6.87841C24.28 7.00412 24.2945 7.14916 24.2219 7.2507C24.1542 7.34256 24.0334 7.35707 23.9222 7.36674C21.6594 7.54563 19.3773 7.71969 17.1097 7.52629C15.9928 7.42959 14.8808 7.24586 13.7977 6.92192C13.4641 6.82522 12.5309 6.68017 12.3327 6.35623C12.1345 6.03228 12.3811 5.34571 12.4826 5.00243C12.8259 3.80819 13.4931 2.72998 14.3585 1.91771Z" fill="#E2AF2D"/>
<path d="M11.5826 6.69497C11.776 7.02375 12.1918 7.13012 12.5641 7.20748C15.7214 7.83603 18.9463 8.14546 22.1712 8.12612C23.2494 8.12129 24.3856 8.05844 25.3043 7.48791C25.459 7.39121 25.6186 7.25583 25.6089 7.07693C25.5992 6.8932 25.4203 6.7675 25.2511 6.69014C24.4775 6.31785 23.6024 6.19697 22.7515 6.08577C20.6047 5.8005 18.4483 5.52007 16.2822 5.47172C15.673 5.45722 10.7171 5.23964 11.5826 6.69981V6.69497Z" fill="#E2AF2D"/>
<path d="M9.1132 37.4066C9.09869 37.7789 9.08419 38.1609 9.23407 38.5138C9.60153 39.3599 11.5549 39.3938 12.5702 39.5775C16.0224 40.1916 20.4657 40.7524 23.9856 40.5735C24.3773 40.5542 24.7785 40.5252 25.117 40.3608C25.7069 40.0707 25.9535 39.447 26.113 38.8764C26.8866 36.1592 26.0163 32.9923 26.0405 30.1928C26.0598 27.8962 26.084 25.5947 25.9051 23.2981C25.7359 21.1175 25.3781 18.9128 24.3047 16.9401C23.9711 16.3261 23.5456 15.7217 22.8929 15.3542C22.2982 15.0254 21.5827 14.9239 20.8816 14.8659C19.5036 14.7499 18.1063 14.7547 16.7283 14.8804C15.7661 14.9674 15.0844 14.8562 14.1706 14.6967C13.6823 14.6096 13.7886 14.5033 13.4792 14.8562C13.2229 15.1463 13.1311 15.7362 13.0005 16.0843C12.3962 17.7234 11.9223 19.3963 11.5404 21.0837C10.7764 24.4827 10.4139 27.9445 10.1866 31.4015C10.0609 33.3065 9.18571 35.5016 9.10352 37.4114L9.1132 37.4066Z" fill="#F2F2F2"/>
<path d="M16.3981 15.8716C16.7124 15.8958 16.8429 16.3261 16.7172 16.6162C16.5914 16.9063 16.3207 17.0997 16.1128 17.3366C15.6341 17.8829 15.4988 18.6372 15.3779 19.3528C15.0105 21.5479 14.6478 23.7478 14.2804 25.9429C14.1498 26.7213 14.0192 27.5094 14.0724 28.2975C14.1256 29.0856 14.3529 29.8592 14.3384 30.6473C14.3384 30.8552 14.3093 31.0776 14.1885 31.2517C14.0966 31.3822 13.9612 31.4693 13.8258 31.5563C13.5648 31.7207 13.3037 31.8851 13.0474 32.0494C12.9314 32.122 12.796 32.1993 12.6654 32.1607C12.5301 32.1171 12.4624 31.9672 12.3802 31.8512C12.2448 31.6578 12.0466 31.5224 11.8967 31.3387C11.4615 30.8069 11.5873 30.0284 11.7323 29.3564C12.0659 27.8285 12.4044 26.3055 12.7476 24.7776C13.2457 22.5535 13.7582 20.3053 14.7735 18.2649C14.9234 17.9603 15.1023 17.6364 15.1555 17.2979C15.2086 16.9836 14.9669 16.6258 15.0201 16.3647C15.0975 15.9828 16.0693 15.8522 16.4029 15.8764L16.3981 15.8716Z" fill="#363636"/>
<path d="M17.0175 39.9794C16.9788 39.462 16.8145 38.1614 16.0215 38.2823C15.2673 38.3983 15.0497 39.8295 15.0352 40.4049C15.0352 40.5499 15.2479 40.5499 15.2624 40.4049C15.306 39.8923 15.4413 39.3992 15.7314 38.964C16.3406 38.0406 16.6114 39.6264 16.6356 39.9794C16.6501 40.2066 16.6549 40.4339 16.6065 40.6563C16.592 40.811 16.5437 40.9512 16.4615 41.0818C16.0505 41.2752 15.8571 41.2413 15.8861 40.9802C15.7604 40.6224 15.92 39.9214 15.9587 39.5587C15.9925 39.2831 15.5573 39.2831 15.5235 39.5587C15.4655 40.0664 15.1271 41.7006 15.9829 41.7732C16.9015 41.8554 17.0658 40.6176 17.0175 39.9794Z" fill="#D1D1D1"/>
<path d="M23.2838 17.6555C23.7721 17.4718 24.3571 17.3847 24.7874 17.6797C25.0437 17.8537 25.1984 18.1293 25.3483 18.4001C25.8995 19.4203 26.3926 20.4646 26.8858 21.5138C27.4805 22.7709 28.0704 24.028 28.6651 25.2851C29.0567 26.1119 29.4484 26.9435 29.6901 27.8235C30.367 30.2941 29.8061 32.9099 29.2404 35.4047C28.9117 36.8746 28.5781 38.3444 28.0462 39.7562C27.9979 39.8771 27.9447 40.0076 27.8287 40.0705C27.732 40.1237 27.6207 40.114 27.5095 40.1043C27.2098 40.0753 26.9052 40.0511 26.6054 40.0221C26.4748 40.0125 26.325 39.9883 26.2573 39.8771C26.1993 39.7804 26.2234 39.6595 26.2476 39.5531C26.9487 36.5845 27.3935 33.5578 27.5772 30.5117C27.5966 30.2119 27.611 29.9025 27.5482 29.6076C27.4031 28.921 26.8665 28.394 26.4071 27.8621C24.7487 25.962 23.7818 23.53 22.075 21.6734C21.5142 21.0641 20.6922 20.247 21.1032 19.3719C21.4706 18.579 22.5005 17.9456 23.2838 17.6506V17.6555Z" fill="#EBEBEB"/>
<path d="M25.8845 41.134C25.7781 41.3033 25.6669 41.516 25.7636 41.6901C25.7975 41.7481 25.8555 41.7964 25.8845 41.8593C25.9377 41.9753 25.8844 42.1107 25.9086 42.2364C25.9376 42.4298 26.1214 42.5604 26.2906 42.6571C26.4308 42.7392 26.5904 42.8214 26.7499 42.7876C26.8128 42.7731 26.8756 42.7392 26.9288 42.7054C27.2527 42.5072 27.538 42.2316 27.6637 41.8738C27.7217 41.7094 27.7411 41.5353 27.7605 41.3661C27.8088 40.96 27.8571 40.5587 27.9055 40.1525C27.9248 40.0075 27.9345 39.8431 27.8378 39.7319C27.7749 39.6642 27.6879 39.6352 27.596 39.611C27.4606 39.5723 27.3204 39.5433 27.1851 39.5191C26.9917 39.4901 26.7693 39.4756 26.6146 39.6159C26.4937 39.7222 26.5082 39.8528 26.4598 39.993C26.3293 40.3895 26.1021 40.7811 25.8796 41.1389L25.8845 41.134Z" fill="#FFC3B1"/>
</svg>
