<?xml version="1.0" encoding="utf-8"?>
<!-- Generator: Adobe Illustrator 26.1.0, SVG Export Plug-In . SVG Version: 6.00 Build 0)  -->
<svg version="1.1" xmlns="http://www.w3.org/2000/svg" xmlns:xlink="http://www.w3.org/1999/xlink" x="0px" y="0px"
	 viewBox="0 0 287 353" style="enable-background:new 0 0 287 353;" xml:space="preserve">
<style type="text/css">
	.st0{fill:#FF7A7D;}
	.st1{clip-path:url(#SVGID_00000075161092726154228670000003101394813766245517_);fill:#5E625E;}
	.st2{clip-path:url(#SVGID_00000075161092726154228670000003101394813766245517_);fill:#F0DCCE;}
	.st3{clip-path:url(#SVGID_00000075161092726154228670000003101394813766245517_);fill:#998675;}
	.st4{clip-path:url(#SVGID_00000075161092726154228670000003101394813766245517_);fill:#2F2F2F;}
	.st5{clip-path:url(#SVGID_00000075161092726154228670000003101394813766245517_);fill:#363636;}
	.st6{clip-path:url(#SVGID_00000075161092726154228670000003101394813766245517_);fill:#FFFFFF;}
	.st7{clip-path:url(#SVGID_00000075161092726154228670000003101394813766245517_);fill:#2B2B2B;}
	.st8{opacity:0.47;clip-path:url(#SVGID_00000075161092726154228670000003101394813766245517_);}
	.st9{fill:#E2EFEF;}
	.st10{clip-path:url(#SVGID_00000075161092726154228670000003101394813766245517_);fill:#3D3D3D;}
	.st11{clip-path:url(#SVGID_00000075161092726154228670000003101394813766245517_);fill:#9A9A9A;}
	.st12{clip-path:url(#SVGID_00000075161092726154228670000003101394813766245517_);fill:#666666;}
	.st13{clip-path:url(#SVGID_00000075161092726154228670000003101394813766245517_);fill:#E2EFEF;}
	.st14{clip-path:url(#SVGID_00000075161092726154228670000003101394813766245517_);fill:#A8A8A8;}
	.st15{clip-path:url(#SVGID_00000075161092726154228670000003101394813766245517_);fill:#333333;}
	.st16{clip-path:url(#SVGID_00000075161092726154228670000003101394813766245517_);fill:#585C58;}
</style>
<g id="Layer_2">
	<path class="st0" d="M138.5,352.2c63.3,0,114.7-51.3,114.7-114.7c0-63.3-51.3-114.7-114.7-114.7c-63.3,0-114.7,51.3-114.7,114.7
		C23.8,300.8,75.2,352.2,138.5,352.2z"/>
</g>
<g id="Layer_1">
	<g>
		<defs>
			<path id="SVGID_1_" d="M241.5,187.1c7.5,15.2,11.6,32.3,11.6,50.4c0,63.3-51.3,114.7-114.7,114.7S23.8,300.8,23.8,237.5
				c0-18.1,4.2-35.2,11.6-50.4c-7.5-15.2-11.6-32.3-11.6-50.4c0-63.3,51.3-114.7,114.7-114.7s114.7,51.3,114.7,114.7
				C253.2,154.8,249,171.9,241.5,187.1z"/>
		</defs>
		<clipPath id="SVGID_00000062911093493480634130000016201296131045813949_">
			<use xlink:href="#SVGID_1_"  style="overflow:visible;"/>
		</clipPath>
		<path style="clip-path:url(#SVGID_00000062911093493480634130000016201296131045813949_);fill:#5E625E;" d="M48.1,219.8
			c-1.1,3.5-2.2,7.2-1.9,10.8c0.3,3.7,2,7.4,5.6,9.3c4,2.1,9.4,1.2,13.3-1.1c3.9-2.4,6.7-5.9,9.3-9.3c6-7.8,12-15.6,18-23.4
			c12.7-16.5,25.8-33.8,28.7-53.7c0.4-2.5,0.6-5.3-0.8-7.5c-1.8-3-6.1-4.4-9.9-3.9c-3.8,0.4-7.2,2.3-10.3,4.4
			c-6.3,4.3-11.7,9.7-15.8,15.9c2.2-7.2,4.4-14.5,6.6-21.7c1.4-4.7,8.7-23.3,6-27.5c-2.6-4.2-10-6.7-13.2-2.3
			c-3.9,5.6-10.8,29.1-12.7,35.5c-4.8,15.8-9.7,31.5-14.5,47.3C53.7,201.7,50.9,210.8,48.1,219.8L48.1,219.8z"/>
		<path style="clip-path:url(#SVGID_00000062911093493480634130000016201296131045813949_);fill:#F0DCCE;" d="M161.4,106.9
			c-0.3,3.9-0.5,7.9-1.8,11.5c-2.9,8.1-10.2,12.6-17,16.2c-5.3,2.8-11.3,5.4-16.6,2.8c-4.5-2.2-12.6-5.4-16.1-9.5
			c-2.6-3.1-3.8-7.6-6.3-10.8c-5.7-7.3-3.7-17.9-3.7-27.7c0-12.4,2.1-26,10.3-33.9c4.3-4.2,9.8-6.3,15.3-7.6
			c5.2-1.2,10.6-1.6,15.6,0c6.3,2,11.6,7.1,15.3,13.3C165.2,76.1,162.5,90,161.4,106.9L161.4,106.9z"/>
		<path style="clip-path:url(#SVGID_00000062911093493480634130000016201296131045813949_);fill:#998675;" d="M84.8,297.6
			c0,0,6.9,250.4,9.5,290.9l19.4-0.7c0,0,9.9-195.8,25.1-208.9c0,0,6.6-1.4,9.2-0.6c2.6,0.8,23.8,192.7,20.6,207.9l17.2-1.1
			c0,0,21.3-236,15.1-293.5c0,0-0.5-29-51.3-23C98.7,274.5,88,268.6,84.8,297.6L84.8,297.6z"/>
		<path style="clip-path:url(#SVGID_00000062911093493480634130000016201296131045813949_);fill:#5E625E;" d="M80.1,316.1
			c0.1,2.8,0.1,5.6,1.5,8.1c3.2,6.1,17.6,5.4,25.2,6.2c25.8,2.8,58.9,4.8,84.8,1.7c2.9-0.3,5.8-0.8,8.3-2.1
			c4.2-2.4,5.7-7.2,6.6-11.5c4.4-20.4-3.6-43.4-4.8-64.1c-1-17-2-34-4.4-50.9c-2.3-16-6.1-32.1-15-46.2c-2.8-4.4-6.2-8.6-11.2-11
			c-4.5-2.1-9.9-2.5-15.1-2.6c-10.2-0.2-20.6,0.5-30.7,2.2c-7.1,1.1-12.2,0.6-19-0.1c-3.7-0.4-2.9-1.3-5,1.5
			c-1.8,2.3-2.1,6.7-2.9,9.3c-3.7,12.4-6.3,25-8.3,37.7c-3.9,25.5-4.9,51.2-4.9,76.9C85.1,285.3,79.7,302,80.1,316.1z"/>
		<path style="clip-path:url(#SVGID_00000062911093493480634130000016201296131045813949_);fill:#2F2F2F;" d="M97.1,46
			c-7.8,6.3-13.7,15.9-12.7,25.9c0.3,2.9,1.1,5.7,2.1,8.4c0.8,2.3,1.8,4.6,3.5,6.3c1.9,1.8,4.6,2.7,7.3,2.9
			c5.6,0.5,11.4-1.6,15.3-5.7c0.9-1,1.8-2.1,2.9-2.8c1.1-0.7,2.7-1,3.8-0.2c0.7,0.5,1.1,1.3,1.8,1.9c2.1,2,5.6,1,8.1-0.5
			c2.5-1.4,5.4-3.2,8.2-2.3c2.6,0.9,4.4,4.1,7.2,3.8c0.9-0.1,1.8-0.6,2.8-0.4c0.5,0.1,0.9,0.5,1.4,0.8c2.6,2.1,5.3,4.3,7,7.2
			c2.6,4.3,2.8,9.7,2.6,14.7c0.8-0.4,1.6-0.5,2.4-0.1c-0.1,2-1.4,3.8-1.8,5.7c-0.4,2,0.5,4.6,2.5,4.7c0.9-2.8,1.8-5.5,3-8.2
			c1.7-3.4,3.9-6.5,5.7-9.9c4.4-8.7,5-18.9,3.6-28.6c-1.1-7.7-3.6-15.4-8.8-21.1c-4-4.3-9.3-7.1-14.9-8.7
			c-5.6-1.6-11.5-2.1-17.3-2.3c-6.3-0.2-12.1,1.5-18.3,1.5C108,39,102.1,42,97.1,46L97.1,46z"/>
		<path style="clip-path:url(#SVGID_00000062911093493480634130000016201296131045813949_);fill:#363636;" d="M137.9,86.7
			c-0.9-0.8-2.1-0.9-3.2-0.9c-4.8-0.3-9.6-0.5-14.4-0.8c-0.7,0-1.5-0.1-2.1,0.4c-0.8,0.6-0.9,1.8-1.3,2.8c-1.1,3-5.1,3.5-8.4,3.5
			s-7.2,0.5-8.4,3.5c-0.4,1-0.4,2.1-0.4,3.2l0.5,22.4c0,0.9,0.1,1.9,0.5,2.8c0.9,1.5,2.9,1.8,4.6,2c16,1.5,32.2,3,47.9,0.1
			c0.8-0.1,1.7-0.4,2.3-0.9c0.6-0.6,0.8-1.4,1-2.1c1.9-7.7,2.3-15.8,1.2-23.7c-0.4-2.4-1.1-5.2-3.4-6.2c-2-0.8-4.2,0.2-6.3,0.4
			c-3.6,0.4-7.3-1.4-9.2-4.5C138.7,87.9,138.4,87.2,137.9,86.7L137.9,86.7z"/>
		<path style="clip-path:url(#SVGID_00000062911093493480634130000016201296131045813949_);fill:#FFFFFF;" d="M133.4,90.4l-0.3,3.3
			c0,0.6-0.1,1.2-0.6,1.5c-0.3,0.2-0.6,0.2-1,0.2c-3.1-0.1-6.2-0.4-9.2-1c0.1-1.8,0.4-3.5,0.9-5.2c0.1-0.3,0.2-0.7,0.5-0.9
			c0.5-0.5,1.3-0.5,2-0.4c2.1,0.2,4.2,0.4,6.2,0.6c0.5,0,1,0.1,1.4,0.5C133.5,89.4,133.5,89.9,133.4,90.4L133.4,90.4z"/>
		<path style="clip-path:url(#SVGID_00000062911093493480634130000016201296131045813949_);fill:#2B2B2B;" d="M116.6,98.2
			c3.2-1.5,6.9-1.9,10.5-1.6c1.9,0.2,3.9,0.5,5.4,1.6c0.7,0.5,1.3,1.1,1.9,1.7c1.4,1.5,2.9,3,3.8,4.8c1.4,2.7,1.6,5.9,1.6,9
			c0,1.5,0,3-0.4,4.5c-1,4.1-4.9,7.3-9.2,7.5c-1.9,0.1-3.7-0.4-5.5-0.8c-2.9-0.8-5.8-1.7-8.3-3.3c-2.5-1.6-4.6-4.1-5.3-7
			c-0.4-1.8-0.2-3.7-0.5-5.5c-0.3-1.4-1-2.6-0.6-4.1C111.1,102,114,99.5,116.6,98.2L116.6,98.2z"/>
		<g style="opacity:0.47;clip-path:url(#SVGID_00000062911093493480634130000016201296131045813949_);">
			<path class="st9" d="M133.4,90.4l-0.3,3.3c0,0.6-0.1,1.2-0.6,1.5c-0.3,0.2-0.6,0.2-1,0.2c-3.1-0.1-6.2-0.4-9.2-1
				c0.1-1.8,0.4-3.5,0.9-5.2c0.1-0.3,0.2-0.7,0.5-0.9c0.5-0.5,1.3-0.5,2-0.4c2.1,0.2,4.2,0.4,6.2,0.6c0.5,0,1,0.1,1.4,0.5
				C133.5,89.4,133.5,89.9,133.4,90.4L133.4,90.4z"/>
		</g>
		<path style="clip-path:url(#SVGID_00000062911093493480634130000016201296131045813949_);fill:#3D3D3D;" d="M138.2,115
			c0.3-1.6,0.2-3.2-0.2-4.7c-0.4-1.4-1-2.7-1.8-4c-2.9-4.9-8.1-9.1-13.8-8.8c-6.2,0.3-11.2,5.8-12.9,11.9c-0.4,1.4-0.6,2.9-0.4,4.4
			c0.2,1.4,0.8,2.6,1.4,3.8c3,5.2,9,8.8,15,8.4C131.6,125.6,137.2,121,138.2,115z"/>
		<path style="clip-path:url(#SVGID_00000062911093493480634130000016201296131045813949_);fill:#9A9A9A;" d="M116.2,119
			c1.9,2.5,5.1,4,8.3,4c3.2-0.1,6.3-1.8,8.1-4.4c0.6-0.9,1.1-1.9,1.4-3c1-3.4,0-7.2-2.3-9.9c-2-2.4-5.1-3.8-8.3-3.9
			c-3.1,0-6.3,1.3-8.4,3.6c-0.9,1-1.7,2.3-2,3.7c-0.5,2.2,0.3,4.5,1.2,6.5C114.9,116.8,115.5,117.9,116.2,119L116.2,119z"/>
		<path style="clip-path:url(#SVGID_00000062911093493480634130000016201296131045813949_);fill:#666666;" d="M139.4,58.3
			c-0.2-0.1-0.3-0.4-0.2-0.6l1.6-5c0.1-0.3,0.4-0.4,0.6-0.3c0.3,0.1,0.4,0.4,0.3,0.6l-1.6,5c-0.1,0.3-0.4,0.4-0.6,0.3
			C139.5,58.4,139.4,58.4,139.4,58.3L139.4,58.3z"/>
		<path style="clip-path:url(#SVGID_00000062911093493480634130000016201296131045813949_);fill:#666666;" d="M142.7,60.4
			c0,0-0.1,0-0.1-0.1c-0.2-0.2-0.2-0.5,0-0.7c1.4-1.2,2.7-2.6,3.8-4c0.2-0.2,0.5-0.3,0.7-0.1c0.2,0.2,0.3,0.5,0.1,0.7l-0.5,0.8
			c0,0-0.2,0.2-0.3,0.2c-1,1.1-2,2.2-3.1,3.2C143.2,60.5,142.9,60.5,142.7,60.4L142.7,60.4z"/>
		<path style="clip-path:url(#SVGID_00000062911093493480634130000016201296131045813949_);fill:#666666;" d="M144.3,64.3
			c0,0-0.2-0.2-0.2-0.3c-0.1-0.3,0.1-0.5,0.4-0.6c2-0.5,4.1-0.6,6.1-0.4c0.3,0,0.5,0.3,0.5,0.5c0,0.3-0.3,0.5-0.5,0.5
			c-1.9-0.2-3.9,0-5.8,0.4C144.6,64.4,144.5,64.4,144.3,64.3L144.3,64.3z"/>
		<path style="clip-path:url(#SVGID_00000062911093493480634130000016201296131045813949_);fill:#2B2B2B;" d="M105.4,91.8
			c0,0,0,0.3,0.1,0.4c0.1,0.1,0.2,0.1,0.3,0.1h3.7c0-0.8,0-1.5,0-2.2c-0.7,0.1-1.4-0.1-2-0.3c-0.7-0.1-1.5,0-1.9,0.5
			C105.4,90.8,105.4,91.3,105.4,91.8L105.4,91.8z"/>
		<path style="clip-path:url(#SVGID_00000062911093493480634130000016201296131045813949_);fill:#2B2B2B;" d="M120.4,83.3
			c0,0,0-0.4,0.1-0.5c0.2-0.3,0.5-0.3,0.8-0.3c4-0.1,7.9,0.1,11.9,0.4c0.4,0,0.8,0.1,1.2,0.3c0.4,0.2,0.7,0.5,1,0.9
			c0.4,0.6,0.6,1.3,0.6,2c0,0.3,0,0.5-0.3,0.7c-0.2,0.1-0.4,0.1-0.6,0.1c-1.6-0.1-3.2-0.6-4.7-0.8c-2.2-0.3-4.5-0.1-6.7-0.2
			C121.3,85.8,120.1,85.8,120.4,83.3L120.4,83.3z"/>
		<path style="clip-path:url(#SVGID_00000062911093493480634130000016201296131045813949_);fill:#363636;" d="M135,83.8
			c0.6,0,1.3,0.1,1.8-0.3c0.8-0.5,0.9-1.7,0.9-2.7c0.1-5.3,2.4-10.4,2-15.7c0-0.8-0.2-1.6-0.5-2.3c-0.8-1.6-2.7-2.2-4.4-2.6
			c-4.1-1-8.4-1.7-12.5-0.4c-0.5,0.2-1.1,0.4-1.5,0.8c-0.3,0.4-0.5,0.9-0.6,1.4c-1.7,5.7-1.7,11.9-1.3,17.8c0.1,0.8,0.1,1.5,0.5,2.1
			c1.1,1.9,5.2,1.3,7,1.4C129.3,83.5,132.2,83.7,135,83.8L135,83.8z"/>
		<path style="clip-path:url(#SVGID_00000062911093493480634130000016201296131045813949_);fill:#E2EFEF;" d="M134,63.4
			c0.7,0.2,1.4,0.4,1.9,0.8c0.9,0.9,0.8,2.3,0.6,3.5c-0.4,3.2-0.8,6.3-1.3,9.4c-0.1,0.6-0.2,1.1-0.6,1.6c-0.4,0.4-0.9,0.5-1.4,0.6
			c-2.9,0.6-5.9,0.9-8.8,0.8c-0.9,0-2-0.3-2.4-1.1c-0.1-0.3-0.1-0.6-0.1-0.9c0-2.6-0.1-5.2-0.1-7.7c0-1.3,0-2.6-0.1-3.9
			c0-1-0.4-2.6,0-3.5C123.1,59.9,131.7,62.8,134,63.4z"/>
		<path style="clip-path:url(#SVGID_00000062911093493480634130000016201296131045813949_);fill:#A8A8A8;" d="M125.5,110.5
			c-0.7-0.6-1.7-0.9-2.6-0.6l0.6,0.2c0,0-0.3,0.1-0.5,0c-0.5-0.1-0.9,0.3-1.1,0.7c-0.4,0.9-0.2,2,0.5,2.6c0.7,0.6,1.8,0.7,2.7,0.3
			c0.3-0.1,0.6-0.3,0.8-0.6C126.3,112.3,126.1,111.1,125.5,110.5L125.5,110.5z"/>
		<path style="clip-path:url(#SVGID_00000062911093493480634130000016201296131045813949_);fill:#F0DCCE;" d="M91.2,93.9
			c1.3-2.9,2.4-5.9,4.3-8.4c1.9-2.5,4.6-4.7,7.7-5c1.4-0.2,3,0.1,4,1.1c1.5,1.4,1.4,3.7,1.3,5.7c-0.4,5-0.8,10.2-3.2,14.6
			c-2.2,3.9-6.1,6.9-10.4,8.1c-3.3,0.9-9.5,0.5-9.5-4.1C85.4,102.5,89.8,97.1,91.2,93.9z"/>
		<path style="clip-path:url(#SVGID_00000062911093493480634130000016201296131045813949_);fill:#363636;" d="M132.5,218.6
			c2.4,7,10.9,18.4,14.6,24.8c4.3,7.5,9.4,14.5,15.4,20.7c8.8,9.2,17.1,18.5,26.7,26.9c6.4,5.6,11.5,6,20.5,11.5
			c0.5-1.9,0.4-1.4,0.8-3.3c0.1-0.6,0.3-1.2,0.1-1.8c-0.2-1-1.1-1.7-1.9-2.3c-5.3-3.9-10.6-7.9-16-11.8c-3.4-2.5-6.8-5-9.9-7.9
			c-4.1-3.8-7.6-8.3-11-12.7c-5.9-7.5-11.8-15.1-17.7-22.6c-3.5-4.5-7.1-9.1-10.2-13.9c-13.6-20.6-19.4-45.3-20.9-69.7
			c-0.2-3.4,1.4-16.1-0.5-18.4c-3.7-4.2-4.7,2.4-5.1,5.1c-1.7,11.9-0.7,20.6,2.1,32C123.1,190.8,127.3,203.5,132.5,218.6z"/>
		<path style="clip-path:url(#SVGID_00000062911093493480634130000016201296131045813949_);fill:#333333;" d="M166.4,106.5
			c2.5,1.3,3.7,4.3,4.4,7c2.1,8.1,3.3,16.4,3.4,24.7c0,0.6,0,1.4-0.5,1.8c-0.4,0.3-0.8,0.3-1.3,0.3c-1.1,0-2.3,0-3.1-0.7
			c-0.6-0.5-0.8-1.3-1-2c-1.4-5-2.2-10.1-2.3-15.3c-0.1-2.6,0-5.4-1.5-7.4c-1.2-1.6-3.3-2.5-5.2-2.4c-0.5,0-1.1,0.1-1.5-0.3
			c-0.2-0.2-0.3-0.6-0.3-0.9c-0.2-3.2-0.4-4.2,2.3-5.2C161.5,105.6,164.7,105.7,166.4,106.5L166.4,106.5z"/>
		<path style="clip-path:url(#SVGID_00000062911093493480634130000016201296131045813949_);fill:#333333;" d="M95.3,125.5
			c-0.6,5.4-0.4,11,1.4,16c1.1,3,2.8,5.9,5.3,7.8c2.5,2,6,2.9,9,1.9c2.7-0.8,4.8-3,7.2-4.6c2.3-1.6,5.4-2.8,8-1.6
			c0.5,0.2,0.9,0.5,1.4,0.5c1.6,0.1,1.9-2.3,1.5-3.9c-3.5-1.2-7.4-2.4-10.8-0.9c-1.7,0.8-3.1,2.2-4.8,3c-3.9,1.9-8.8,0-11.5-3.4
			c-2.6-3.4-3.3-8-2.9-12.3c0.4-4.3,1.7-8.4,2.7-12.6c0.4-1.5,0.6-3,0.2-4.4c-1.7-5.4-4,1.3-4.5,3.2C96.4,118,95.7,121.7,95.3,125.5
			L95.3,125.5z"/>
		<path style="clip-path:url(#SVGID_00000062911093493480634130000016201296131045813949_);fill:#333333;" d="M155.4,144.4
			c-0.5-0.1-1,0-1.5,0.3c-0.4-1.1-1-2-2.2-2.1c-2.4-0.4-3.7,2.8-4.1,5.2c-4.8,29-15.9,56.6-27,83.9c-2.8,6.9-5.6,13.8-9,20.4
			c-4.7,9.5-11,18.3-17.7,26.5c-5,6.2-16.3,13.7-14.8,22.4c1.3-0.5-0.3,4.5,0.9,3.8c-0.3,1.3,2.5-3.1,2.8-1.8
			c3.5-1.4,6.9-3.8,9.8-6.1c9.1-7.4,15.3-17.8,21-28c9.3-16.7,18.1-33.7,26.2-50.9c5.4-11.4,10.6-22.9,13.6-35.2
			c2.6-10.6,3.6-21.5,4.4-32.4C158.1,147.9,157.7,144.8,155.4,144.4L155.4,144.4z"/>
		<path style="clip-path:url(#SVGID_00000062911093493480634130000016201296131045813949_);fill:#585C58;" d="M153,142.7
			c2.4,8.2,7.8,15.1,12.8,22.1c10.8,15.1,20.3,31.2,29.9,47.1c2.1,3.6,4.4,7.3,7.9,9.6c3.4,2.4,8.4,3.1,11.7,0.5
			c2.5-2,3.5-5.4,3.4-8.6c-0.2-3.2-1.5-6.2-2.8-9.1c-5.8-12.7-13.2-24.7-22.1-35.5c-8.7-10.7-19-20.6-23.8-33.5
			c-1.3-3.3-0.6-8.9-4-9.8C153.4,122.1,150.5,134.3,153,142.7L153,142.7z"/>
		<path style="clip-path:url(#SVGID_00000062911093493480634130000016201296131045813949_);fill:#F0DCCE;" d="M144.3,130.7
			c2.6,0.2,5.2,1.3,7.8,0.9c2-0.3,3.7-1.5,5.4-2.6c2.2-1.5,4.5-3.1,6.2-5.2c1.6-2.1,2.7-4.9,2-7.6c-0.4-1.6-1.7-3.2-3.4-3.4
			c-1.6-0.1-3,1-3.9,2.3c-0.9,1.3-1.5,2.8-2.4,4c-2.1,2.9-5.8,4.1-9.3,4.7c-2.5,0.4-11.1-0.1-12.1,2.8
			C132.9,131.5,142.3,130.5,144.3,130.7L144.3,130.7z"/>
		<path style="clip-path:url(#SVGID_00000062911093493480634130000016201296131045813949_);fill:#333333;" d="M78.8,285.2
			c1.3-0.1,2.7-0.1,3.6,0.8c0.4,0.4,0.6,0.9,0.8,1.5c3,7.9,0.5,16.9,1.5,25.4c0.5,3.8,1.7,7.5,2.1,11.3c0.6,4.6,0,9.3,0.1,14
			c0.1,10.1,2.9,20.7-1,30c-0.7,1.7-1.6,3.3-3.1,4.4c-1.9,1.5-4.4,1.9-6.8,2.1c-13.1,1.6-26.4,1.7-39.6,0.2
			c-0.6-0.1-1.3-0.1-1.7-0.5c-0.5-0.4-0.7-1-0.9-1.6c-1.8-5.9-2.4-12.2-2.8-18.4c-1.5-19.9-2-40,0.1-59.9c0.2-1.7,0.4-3.5,1.4-4.9
			c3.4-5,13.2-2.5,18.3-2.8C60.1,286.2,69.4,285.7,78.8,285.2L78.8,285.2z"/>
	</g>
</g>
</svg>
