<svg width="42" height="59" viewBox="0 0 42 59" fill="none" xmlns="http://www.w3.org/2000/svg">
<path style="mix-blend-mode:multiply" d="M20.9728 58.2704C32.092 58.2704 41.1059 49.2565 41.1059 38.1374C41.1059 27.0182 32.092 18.0044 20.9728 18.0044C9.8537 18.0044 0.839844 27.0182 0.839844 38.1374C0.839844 49.2565 9.8537 58.2704 20.9728 58.2704Z" fill="url(#paint0_radial_1372_2557)"/>
<mask id="mask0_1372_2557" style="mask-type:luminance" maskUnits="userSpaceOnUse" x="3" y="0" width="36" height="53">
<path d="M33.0239 21.0378C34.2427 18.9637 34.9448 16.5509 34.9448 13.97C34.9448 6.25447 28.6903 0 20.9748 0C13.2593 0 7.00481 6.25447 7.00481 13.97C7.00481 16.5484 7.7069 18.9637 8.92565 21.0378C5.31141 24.3183 3.04199 29.0549 3.04199 34.3205C3.04199 44.2263 11.0715 52.2558 20.9773 52.2558C30.8831 52.2558 38.9126 44.2263 38.9126 34.3205C38.9126 29.0549 36.6431 24.3183 33.0289 21.0378H33.0239Z" fill="white"/>
</mask>
<g mask="url(#mask0_1372_2557)">
<path d="M20.9743 52.2558C30.8797 52.2558 38.9096 44.2259 38.9096 34.3205C38.9096 24.4152 30.8797 16.3853 20.9743 16.3853C11.069 16.3853 3.03906 24.4152 3.03906 34.3205C3.03906 44.2259 11.069 52.2558 20.9743 52.2558Z" fill="#7FA1CC"/>
<path d="M13.59 27.1294C13.0051 28.0455 12.5195 29.0222 12.1553 30.0485C11.7029 31.3177 11.3331 32.78 10.1633 33.4532C9.9205 33.5912 9.65015 33.6905 9.44046 33.8781C8.93831 34.3196 8.91618 35.0866 8.62372 35.6881C8.48577 35.9695 8.29267 36.2123 8.11057 36.4661C7.69671 37.0455 7.35461 37.6801 7.10078 38.3478C7.04559 38.4968 6.99038 38.6513 7.00142 38.8113C7.01797 39.1755 7.34356 39.4404 7.63602 39.6556C8.04988 39.9591 8.46374 40.2626 8.8776 40.5661C9.10384 40.7317 9.33004 40.8972 9.58939 41.0076C9.9867 41.1786 10.4337 41.2062 10.8641 41.2338C11.2338 41.2559 11.6201 41.2724 11.9622 41.1179C12.4092 40.9138 12.6741 40.4557 12.8782 40.0088C13.877 37.8126 14.0315 35.3349 14.7213 33.0228C15.2841 31.1356 16.2332 29.3146 16.3491 27.3226C16.3877 26.6714 16.4319 25.474 15.5104 25.5292C14.6882 25.5788 13.9873 26.5169 13.59 27.135V27.1294Z" fill="#A9D1BD"/>
<path d="M14.3955 47.249C14.3955 47.249 15.0853 85.7546 15.3667 91.9901L16.7297 92.0121C16.7297 92.0121 18.8431 56.685 20.642 54.7261C20.642 54.7261 21.4146 54.544 21.7236 54.6764C22.0326 54.8033 25.1172 89.6118 24.7254 91.9514L26.1326 91.8852C26.1326 91.8852 28.7537 55.7359 28.0584 46.8572C28.0584 46.8572 28.0198 42.382 22.0326 43.0718C16.0454 43.7615 14.7928 42.7959 14.401 47.26L14.3955 47.249Z" fill="#FFE0D6"/>
<path d="M30.9665 63.0412C30.9941 63.1791 31.0217 63.3281 30.972 63.4606C30.9003 63.6482 30.6961 63.753 30.514 63.8303C24.6758 66.3465 17.883 66.5783 11.8848 64.4593C11.3881 64.2828 10.8805 64.0841 10.4997 63.7199C9.4899 62.7487 9.7382 61.0988 10.0693 59.7413C11.3274 54.5046 12.5856 49.2734 13.8493 44.0367C13.9596 43.5787 14.1031 43.0766 14.5004 42.8282C14.7928 42.6461 15.1571 42.6406 15.4992 42.6406C17.7175 42.6406 19.9302 42.6461 22.1485 42.6517C23.5943 42.6517 25.9616 42.6296 26.9659 43.9153C27.9647 45.201 27.9646 48.076 28.2791 49.6431C29.1786 54.1128 30.0781 58.577 30.9775 63.0467L30.9665 63.0412Z" fill="#2B2B2B"/>
<path d="M21.6968 24.5914C22.6349 24.5362 23.6944 24.4259 24.4007 25.0439C24.7097 25.3143 24.9028 25.695 25.0739 26.0703C25.6257 27.2843 26.034 28.559 26.4313 29.8281C27.6784 33.8288 28.8483 37.9343 28.749 42.1225C28.749 42.3377 28.7324 42.5585 28.6551 42.7626C28.3792 43.469 27.4467 43.5848 26.6907 43.5959C23.286 43.629 19.8813 43.6676 16.4822 43.7007C15.7869 43.7062 15.0695 43.7118 14.4183 43.469C13.3092 43.0606 12.5477 41.9846 12.2387 40.8478C11.9297 39.7056 12.0014 38.5026 12.1339 37.3273C12.4429 34.5737 13.0554 31.8533 13.9493 29.2322C14.5122 27.5933 15.1357 24.2658 17.3319 24.2769C18.7997 24.2824 20.2069 24.6797 21.7023 24.5914H21.6968Z" fill="#AFD9C4"/>
<path d="M17.2103 30.7384C17.2545 31.7703 17.3483 32.8298 17.0282 33.812C16.8792 34.2645 16.6475 34.6839 16.5371 35.1419C16.4378 35.5612 16.504 36.1075 16.9013 36.2786C17.271 36.4331 17.7069 36.1738 18.0821 36.3172C18.336 36.411 18.5236 36.6814 18.794 36.6814C18.9927 36.6814 19.1527 36.538 19.3348 36.4497C19.8093 36.2179 20.3667 36.4166 20.8744 36.5711C20.9461 36.5931 21.0178 36.6152 21.0896 36.6042C21.2662 36.5766 21.3655 36.3834 21.4206 36.2124C21.531 35.8703 21.5972 35.5116 21.6138 35.1529C21.6358 34.7115 21.5806 34.27 21.5255 33.8286C21.3378 32.2724 21.1502 30.7163 20.8302 29.1823C20.7805 28.945 20.7254 28.7022 20.5985 28.498C20.4715 28.2883 20.2728 28.1283 20.0742 27.9848C19.7597 27.7586 19.4231 27.5655 19.0478 27.4772C18.2146 27.284 17.729 27.5765 17.4586 28.338C17.1827 29.105 17.1772 29.9383 17.2103 30.7439V30.7384Z" fill="#E4E8E4"/>
<path d="M16.9348 26.1143C16.4547 26.7268 16.4381 27.6484 15.8477 28.1505C15.7153 28.2664 15.5552 28.3492 15.4283 28.4706C15.191 28.6968 15.0807 29.0555 15.1469 29.3755C15.2131 29.7011 15.4559 29.977 15.7649 30.0929C15.8918 30.137 16.0298 30.1591 16.1456 30.2419C16.4326 30.4405 16.4216 30.9261 16.7306 31.0917C17.1831 31.3234 17.6963 30.6116 18.1653 30.8103C18.3474 30.8875 18.4522 31.0862 18.6233 31.191C18.9157 31.3731 19.3241 31.2131 19.5118 30.9261C19.6994 30.6392 19.7104 30.275 19.6552 29.9384C19.8429 29.9274 19.9532 30.1591 19.9476 30.3467C19.9476 30.5343 19.8814 30.733 19.9476 30.9041C20.0415 31.1303 20.3725 31.2076 20.5602 31.0475C20.6705 30.9482 20.7312 30.7882 20.8637 30.7275C21.2113 30.5675 21.5645 31.2076 21.9011 31.031C22.0225 30.9648 22.0832 30.8047 22.2101 30.7606C22.3811 30.6999 22.5467 30.8654 22.7178 30.9261C23.0764 31.0641 23.4738 30.6999 23.5014 30.3191C23.5345 29.9384 23.3137 29.5797 23.0765 29.2817C22.7343 28.8513 22.3149 28.4706 22.0942 27.9629C21.8404 27.3725 21.879 26.6661 21.5369 26.1254C21.283 25.728 20.8416 25.4632 20.3781 25.3859C19.7214 25.2756 19.1696 25.6177 18.535 25.5349C17.9336 25.4577 17.3155 25.6287 16.9292 26.1254L16.9348 26.1143Z" fill="#EBEFEB"/>
<path d="M15.6092 26.0147C15.5595 25.4298 15.2505 24.9387 14.9139 24.5083C14.7042 24.2434 14.478 23.984 14.18 23.8461C13.9372 23.7302 13.6557 23.7081 13.3853 23.7137C12.839 23.7247 12.2762 23.8627 11.7851 24.1772C11.294 24.4917 10.8801 24.9939 10.709 25.5788C10.5214 26.2244 10.6373 27.179 10.9905 27.8302C10.996 27.8688 11.0125 27.9074 11.0456 27.9295C10.6483 29.3366 10.2124 30.7327 9.73233 32.1178C9.23018 33.558 8.82184 35.1748 8.49627 36.6702C8.29762 37.5752 8.46871 38.2264 9.28539 38.3036C10.4276 38.4085 10.229 38.1822 10.6207 37.1724C11.1284 35.8536 11.5202 34.8713 12.0224 33.2766C12.508 31.737 13.2861 30.3189 13.7165 28.7793C13.7441 28.6855 13.7606 28.6027 13.7772 28.5144C13.9096 28.4703 14.042 28.4262 14.1524 28.371C15.0022 27.9681 15.703 26.9914 15.6202 26.0147H15.6092Z" fill="#3B3B3B"/>
<path d="M14.6596 28.4976C14.3837 28.1003 13.3794 28.1003 12.949 28.0065C12.0937 27.8299 11.2273 27.692 10.3665 27.5485C10.3223 27.5209 10.2671 27.5099 10.2175 27.5209C10.2009 27.5209 10.1788 27.5154 10.1623 27.5099C10.1016 27.4988 10.063 27.5761 10.0906 27.6202C9.70429 28.2603 9.10283 29.4136 9.90848 29.8275C10.5762 30.1696 11.5749 30.1586 12.3089 30.3517C12.6565 30.4455 13.3904 30.8759 13.7601 30.6938C14.0912 30.5338 14.4389 29.6785 14.5823 29.3419C14.7037 29.0605 14.8472 28.7625 14.6651 28.4921L14.6596 28.4976Z" fill="#ABABAB"/>
<path d="M27.1756 27.0522C28.1137 28.1558 27.9537 29.7726 28.2517 31.1908C28.4945 32.3606 29.0794 33.4422 29.278 34.6231C29.4049 35.3735 29.3719 36.1571 29.6422 36.8689C29.7802 37.2387 29.9954 37.5753 30.1996 37.9174C30.5858 38.5741 30.9225 39.2804 30.9666 40.0419C30.9832 40.3012 30.9666 40.5661 30.939 40.8254L30.8287 42.2822C30.7955 42.7292 30.7569 43.1817 30.5582 43.5845C30.3264 44.0425 29.9126 44.3681 29.5098 44.6826L28.2627 45.6483C28.1744 45.7145 28.0861 45.7863 27.9813 45.8028C27.8709 45.8249 27.7605 45.7918 27.6612 45.7476C27.2639 45.5766 26.9714 45.1848 26.9162 44.7599C26.8887 44.5667 26.9107 44.3626 26.839 44.175C26.7231 43.8549 26.381 43.6783 26.1768 43.4024C25.7575 42.8396 26.0003 42.0339 26.3314 41.4159C26.6624 40.7979 27.0873 40.1412 26.9769 39.4514C26.8886 38.9162 26.4914 38.4802 26.3314 37.9615C26.0389 37.029 26.5355 36.0192 26.4086 35.048C26.3203 34.3858 25.9506 33.8009 25.7519 33.1663C25.5753 32.6034 25.5422 32.0019 25.4098 31.4281C25.2608 30.7714 24.9959 30.1534 24.7256 29.5353C24.3338 28.6248 23.3516 27.0687 24.1241 26.081C24.8746 25.1208 26.6238 26.4066 27.1811 27.0577L27.1756 27.0522Z" fill="#A9D1BD"/>
<path d="M25.9615 39.3304C26.1271 39.3139 26.3092 39.2973 26.4527 39.3801C26.723 39.5291 26.7396 39.9043 26.7286 40.2133C26.6292 42.1391 26.5299 44.065 26.4306 45.9908C26.4195 46.2226 26.403 46.4654 26.2926 46.6751C26.094 47.0392 25.647 47.1772 25.2441 47.2765C23.7598 47.6297 22.2423 47.8173 20.7193 47.8394C20.5151 47.8394 20.2944 47.8394 20.1178 47.729C19.9082 47.5966 19.8088 47.3483 19.7206 47.111C18.9977 45.1134 18.3354 43.0938 17.734 41.0576C17.4636 40.1361 20.4655 40.0698 21.1497 39.965C22.75 39.7112 24.3558 39.5015 25.9671 39.3304H25.9615Z" fill="#F7F7F7"/>
<path d="M26.1938 43.364C26.1718 43.4137 26.1552 43.4634 26.1221 43.502C26.0504 43.5847 25.9345 43.6013 25.8296 43.6344C25.5096 43.7503 25.3385 44.1035 25.2999 44.4345C25.2833 44.5835 25.2888 44.738 25.3551 44.8705C25.4378 45.0415 25.6199 45.1519 25.8075 45.196C25.9951 45.2402 26.1883 45.2181 26.3759 45.185C26.6904 45.1243 27.005 45.0195 27.2533 44.8153C27.5016 44.6111 27.6892 44.3131 27.6892 43.9931C27.6892 43.7668 27.6065 43.5516 27.5071 43.353C27.2036 42.7625 26.4918 42.6963 26.1938 43.3585V43.364Z" fill="#FFE0D6"/>
<path d="M10.7759 31.6432L11.8685 31.7094C11.9512 31.7094 12.034 31.7205 12.1058 31.7536C12.2989 31.8474 12.343 32.1012 12.3596 32.3164C12.3927 32.7468 12.4203 33.2104 12.2106 33.5856C12.0506 33.8725 11.7692 34.0712 11.4657 34.1981C11.1622 34.325 10.8366 34.3802 10.5166 34.4354C10.1027 34.5071 9.68883 34.5789 9.27497 34.6506C9.16461 34.6727 9.03771 34.6892 8.9439 34.6285C8.82802 34.5568 8.80041 34.4078 8.78385 34.2754C8.71212 33.6739 8.71767 32.7413 9.0929 32.2226C9.46813 31.7039 10.191 31.6046 10.7759 31.6432Z" fill="#FFE0D6"/>
<path d="M23.5729 20.8061C22.8556 22.3015 21.5201 23.5983 19.8757 23.8135C18.5679 23.9846 17.2326 23.4383 16.2393 22.5664C15.8034 22.1856 15.4171 21.7387 15.1964 21.2034C14.948 20.6075 14.915 19.9508 14.8874 19.3052C14.8212 17.8815 14.7604 16.4578 14.6942 15.0397C14.6611 14.2616 14.6335 13.4394 14.9811 12.7386C15.3564 11.9881 16.1234 11.4915 16.9346 11.2928C17.7457 11.0942 18.6011 11.1604 19.4233 11.3094C20.5048 11.5081 21.5588 11.8502 22.5521 12.3303C23.2087 12.6448 23.8543 13.0311 24.3013 13.6049C25.0573 14.5596 24.8476 15.5032 24.6268 16.5737C24.3289 18.025 24.2185 19.4542 23.5674 20.8116L23.5729 20.8061Z" fill="#FFE0D6"/>
<path d="M18.6387 13.886C18.898 14.7302 19.6099 15.4421 20.4762 15.6187C21.0281 15.729 21.6019 15.6352 22.1537 15.7346C22.7055 15.8339 23.2794 16.2477 23.2573 16.8106C23.2408 17.1472 23.0311 17.55 23.2794 17.7818C23.3567 17.859 23.4726 17.8921 23.5553 17.9584C23.8754 18.2232 23.616 18.7254 23.4725 19.1172C23.1249 20.0718 23.616 21.2803 22.9814 22.0749C24.3499 20.5629 25.0893 18.604 25.7957 16.6892C25.9943 16.1484 26.1985 15.5966 26.2482 15.0227C26.3696 13.6763 25.6025 12.3409 24.4879 11.5684C23.3732 10.7958 21.9717 10.5309 20.6197 10.5972C18.9477 10.6799 18.1696 12.3409 18.6387 13.886Z" fill="#3B3B3B"/>
<path d="M17.8498 12.9478C17.2539 13.0526 16.5972 13.0306 16.1116 13.4003C15.9074 13.5548 15.7529 13.77 15.6205 13.9852C14.7928 15.3206 14.5224 16.9815 14.8866 18.5101C14.2189 17.0809 13.5402 15.6351 13.2256 14.09C13.1428 13.6872 13.0877 13.2678 13.1649 12.865C13.2367 12.4898 13.4242 12.1366 13.656 11.8331C14.3016 10.9999 15.3391 10.4867 16.393 10.4757C17.2428 10.4701 18.2251 10.8012 18.8155 11.4303C19.4942 12.1532 18.6113 12.8153 17.8498 12.9478Z" fill="#3B3B3B"/>
<path d="M22.6782 8.36781C23.23 8.47265 23.7487 8.72097 24.2564 8.96377C24.9682 9.30589 25.7132 9.68112 26.1215 10.3543C26.425 10.851 26.4968 11.458 26.5354 12.0374C26.6292 13.6266 26.4747 15.2158 26.5133 16.805C26.5519 18.3943 26.8002 20.0276 27.628 21.3906C27.8708 21.7879 28.1577 22.1631 28.3508 22.5825C29.0295 24.0779 28.2901 25.9707 26.9216 26.8812C25.5531 27.7916 23.7322 27.8192 22.1816 27.2674C21.707 27.1019 21.2435 26.8756 20.8903 26.5225C20.5317 26.1693 20.2999 25.6672 20.355 25.1705C20.4544 24.3097 21.3042 23.791 21.9443 23.2116C22.8216 22.417 23.3901 21.3409 23.9253 20.2815C24.3778 19.3765 24.8248 18.455 25.0234 17.4617C25.2221 16.4684 25.1448 15.3869 24.6151 14.526C24.422 14.2115 24.1681 13.9356 23.8536 13.748C23.4839 13.5328 23.0534 13.4666 22.6396 13.3452C22.0933 13.1851 21.569 12.9368 21.1055 12.6113C20.3495 12.0815 19.7204 11.2814 19.6597 10.3599C19.5549 8.69889 21.3152 8.09742 22.6782 8.35677V8.36781Z" fill="#3B3B3B"/>
<path d="M14.9301 9.62051C15.7192 8.68243 16.9387 8.19131 18.1527 8.05336C19.3667 7.90989 20.5972 8.08095 21.8057 8.26856C22.1589 8.32375 22.5396 8.39548 22.7824 8.65483C23.0032 8.89763 23.0639 9.25079 23.0253 9.57636C22.8873 10.829 21.596 11.6567 20.3544 11.8774C19.1129 12.0926 17.8327 11.894 16.5801 12.054C15.8958 12.1423 15.1399 12.4127 14.8915 13.0583C14.7536 13.4225 14.3342 12.672 14.3176 12.6334C14.1852 12.3134 14.1521 11.9381 14.1631 11.596C14.1907 10.8786 14.4721 10.1723 14.9301 9.62603V9.62051Z" fill="#3B3B3B"/>
</g>
<defs>
<radialGradient id="paint0_radial_1372_2557" cx="0" cy="0" r="1" gradientUnits="userSpaceOnUse" gradientTransform="translate(20.8402 -186.955) scale(20.0919)">
<stop stop-color="#ADADAE"/>
<stop offset="0.4" stop-color="#ADADAE" stop-opacity="0.99"/>
<stop offset="0.55" stop-color="#B1B1B2" stop-opacity="0.95"/>
<stop offset="0.65" stop-color="#B6B6B7" stop-opacity="0.88"/>
<stop offset="0.73" stop-color="#BEBEBF" stop-opacity="0.79"/>
<stop offset="0.81" stop-color="#C8C8C9" stop-opacity="0.66"/>
<stop offset="0.87" stop-color="#D5D5D6" stop-opacity="0.5"/>
<stop offset="0.93" stop-color="#E5E5E5" stop-opacity="0.32"/>
<stop offset="0.98" stop-color="#F6F6F6" stop-opacity="0.11"/>
<stop offset="1" stop-color="white" stop-opacity="0"/>
</radialGradient>
</defs>
</svg>
