<svg width="37" height="51" viewBox="0 0 37 51" fill="none" xmlns="http://www.w3.org/2000/svg">
<path d="M18.1003 50.8642C28.0057 50.8642 36.0356 42.8343 36.0356 32.9289C36.0356 23.0236 28.0057 14.9937 18.1003 14.9937C8.19494 14.9937 0.165039 23.0236 0.165039 32.9289C0.165039 42.8343 8.19494 50.8642 18.1003 50.8642Z" fill="#798ED1"/>
<mask id="mask0_1372_2405" style="mask-type:alpha" maskUnits="userSpaceOnUse" x="0" y="0" width="37" height="51">
<path d="M18.1003 50.8642C28.0057 50.8642 36.0356 42.8343 36.0356 32.9289C36.0356 23.0236 28.0057 14.9937 18.1003 14.9937C8.19494 14.9937 0.165039 23.0236 0.165039 32.9289C0.165039 42.8343 8.19494 50.8642 18.1003 50.8642Z" fill="#798ED1"/>
<path d="M18.9353 35.8706C28.8407 35.8706 36.8706 27.8407 36.8706 17.9353C36.8706 8.0299 28.8407 0 18.9353 0C9.0299 0 1 8.0299 1 17.9353C1 27.8407 9.0299 35.8706 18.9353 35.8706Z" fill="#798ED1"/>
</mask>
<g mask="url(#mask0_1372_2405)">
<path d="M24.1771 43.854H12.0994C10.622 45.9667 9.63957 51.2779 10.5408 62.0813C11.5085 73.6566 11.6747 83.459 12.4023 93.5865H17.3441C17.3441 93.5865 17.4586 54.325 18.0939 53.6934H18.1826C18.8141 54.325 18.9323 93.5865 18.9323 93.5865H23.8742C24.6018 83.459 24.768 73.6603 25.7357 62.0813C26.6369 51.2779 25.6544 45.9667 24.1771 43.854Z" fill="#3D3D3D"/>
<path d="M17.9115 34.7757C18.7462 31.9797 24.3123 22.9012 24.1424 22.5282C23.9651 22.144 24.6853 22.4986 22.532 21.3241C20.3787 20.1496 20.6668 18.0517 20.6483 17.457H15.1008C15.0823 18.0517 15.3667 20.1496 13.2171 21.3241C11.0638 22.4986 11.9059 22.6131 11.7286 22.9972C11.5587 23.3666 17.0029 31.976 17.8376 34.772V35.0675C17.845 35.0195 17.8635 34.9641 17.8746 34.9124C17.8893 34.9641 17.9041 35.0195 17.9115 35.0675V34.772V34.7757Z" fill="#7A5F56"/>
<path d="M14.1627 20.8553C13.5385 21.1323 9.42769 22.1369 11.5108 25.3466C13.5939 28.5562 17.6235 33.1287 21.7934 28.2312C27.1046 21.9966 23.1969 21.9781 21.9818 20.9144C20.7925 19.8729 17.8968 24.3198 17.8968 24.3198L14.1627 20.8553Z" fill="#76A2CF"/>
<path d="M20.7303 18.9081C20.6564 18.982 20.5789 19.0522 20.5013 19.1187C20.2575 19.3329 19.999 19.5286 19.7183 19.6911C19.4819 19.8315 19.227 19.946 18.9648 20.0309C18.7247 20.1085 18.481 20.1565 18.2298 20.1824C17.9196 20.2119 17.6019 20.2045 17.2954 20.1565C17.0442 20.1159 16.7931 20.0494 16.5567 19.9571C16.2907 19.8537 16.0359 19.717 15.7958 19.5545C15.5114 19.3661 15.2492 19.1445 15.0054 18.9081C13.9602 17.8998 13.9712 15.355 13.7201 15.536C13.1439 15.9238 12.7746 14.7714 12.7044 14.0882C12.6342 13.4049 12.9445 13.1168 13.2326 13.4049C13.5206 13.693 13.5243 13.3716 13.6056 12.9986C13.6314 12.8767 13.6647 12.7585 13.6979 12.6403C13.7496 12.4593 13.8124 12.2784 13.8826 12.1048C13.9676 11.8832 14.0673 11.6689 14.1744 11.4584C14.2963 11.222 14.4366 10.993 14.5917 10.7751C14.758 10.5424 14.9463 10.3208 15.1532 10.1214C15.3711 9.91085 15.6148 9.72248 15.8734 9.56366C16.1541 9.39376 16.4569 9.26449 16.7709 9.17215C17.1402 9.06504 17.517 9.02441 17.9011 9.02441C18.2704 9.02441 18.6398 9.07612 18.9944 9.17954C19.3083 9.27188 19.6075 9.40484 19.8882 9.57474C20.1467 9.73356 20.3868 9.92193 20.6047 10.1325C20.8115 10.3319 20.9962 10.5535 21.1624 10.7862C21.3176 11.0041 21.4542 11.2331 21.5761 11.4695C21.6832 11.6763 21.7792 11.8942 21.8642 12.1122C21.9307 12.2857 21.9935 12.4667 22.0452 12.6477C22.0784 12.7659 22.1116 12.8841 22.1375 13.0023C22.2188 13.379 22.2225 13.6966 22.5105 13.4086C22.7986 13.1205 23.1089 13.4086 23.0387 14.0919C22.9685 14.7751 22.5992 15.9275 22.023 15.5397C21.7718 15.3587 21.7792 17.9072 20.7377 18.9118L20.7303 18.9081Z" fill="#866A5E"/>
<path d="M15.1826 10.757C14.4809 10.384 14.3627 11.6841 13.9749 12.2566C13.5871 12.829 13.8678 13.8891 13.6277 13.6785C13.3876 13.468 13.1438 13.4496 13.0663 13.3018C13.022 13.2169 12.1909 10.0516 13.2103 8.37473C13.5353 7.90935 13.9749 7.78377 14.0857 7.67666C14.1928 7.56955 14.4181 6.63141 16.479 6.14757C18.0746 5.77453 20.8632 5.97767 22.3147 8.31194C23.7662 10.6425 22.7025 13.0507 22.6582 13.3055C22.6139 13.5604 22.2298 13.4569 22.0783 13.7044C21.9269 13.9519 21.9934 12.829 21.7755 12.5114C21.5576 12.1938 21.4394 11.6324 20.9851 11.5474C20.5308 11.4625 17.2067 11.8318 15.1863 10.757H15.1826Z" fill="#3A3A3A"/>
<path d="M18.3767 25.1021H17.3573C17.2576 25.5046 15.8098 34.8713 15.795 36.0458C15.7839 37.0689 17.2059 40.1382 17.8781 40.4262C18.5503 40.1345 19.9464 37.0689 19.9391 36.0458C19.928 34.8713 18.4764 25.5009 18.3767 25.1021Z" fill="#3A63AD"/>
<path d="M19.0831 23.5105C19.072 23.3628 18.8061 23.1559 18.6953 23.0488C18.3555 22.7201 18.1412 22.528 17.9676 22.4468H17.7682C17.5946 22.528 17.3841 22.7201 17.0406 23.0488C16.9298 23.1559 16.6675 23.3628 16.6528 23.5105C16.6011 24.1162 16.9372 24.456 17.2326 25.1172C17.2548 25.1689 17.3028 25.2095 17.3582 25.2353C17.4099 25.2612 17.4727 25.2649 17.5281 25.2686L17.8051 25.2871V25.2944H17.9307V25.2871L18.2077 25.2686C18.2668 25.2649 18.3259 25.2612 18.3776 25.2353C18.4293 25.2095 18.481 25.1689 18.5032 25.1172C18.7987 24.4523 19.1348 24.1162 19.0831 23.5105Z" fill="#3C66BC"/>
<path d="M14.5553 19.6398C14.7436 19.3184 15.2386 20.4191 17.7981 22.3803C18.1306 22.6352 16.0918 23.7211 16.1767 24.6259C16.2617 25.5308 13.3734 22.1255 13.5211 20.9177C13.5433 20.7367 14.0677 20.4634 14.5553 19.6435V19.6398Z" fill="#C3DFF7"/>
<path d="M21.0999 19.6398C20.9115 19.3184 20.4166 20.4191 17.857 22.3803C17.5246 22.6352 19.5634 23.7211 19.4784 24.6259C19.3935 25.5308 22.2818 22.1255 22.134 20.9177C22.1119 20.7367 21.5874 20.4634 21.0999 19.6435V19.6398Z" fill="#C3DFF7"/>
<path d="M17.9467 30.927C17.847 30.3841 17.8064 30.1846 17.5441 29.7082C17.341 29.3388 16.5469 27.9501 16.2994 27.6066C15.6087 26.6463 13.9725 24.0793 13.437 22.9861C13.0455 22.1809 13.0159 21.4607 12.388 21.7044C11.7602 21.9445 8.82385 22.8162 8.02606 23.3406C8.00021 23.3591 8.73151 25.084 8.86448 25.9778C9.06392 27.3148 9.63272 31.433 9.30769 33.313C9.13041 34.3398 8.84601 61.8561 8.76475 62.6059C8.66134 63.5662 10.6743 63.7509 15.6715 63.7509H18.3124C18.3124 61.9706 18.0501 31.5364 17.943 30.9307L17.9467 30.927Z" fill="#F5F5F5"/>
<path d="M17.0705 33.3125C17.3499 33.3125 17.5765 33.0942 17.5765 32.8249C17.5765 32.5557 17.3499 32.3374 17.0705 32.3374C16.791 32.3374 16.5645 32.5557 16.5645 32.8249C16.5645 33.0942 16.791 33.3125 17.0705 33.3125Z" fill="white"/>
<path d="M17.0705 37.6601C17.3499 37.6601 17.5765 37.4419 17.5765 37.1726C17.5765 36.9033 17.3499 36.6851 17.0705 36.6851C16.791 36.6851 16.5645 36.9033 16.5645 37.1726C16.5645 37.4419 16.791 37.6601 17.0705 37.6601Z" fill="white"/>
<path d="M17.0713 41.5568C17.3426 41.5568 17.5625 41.3468 17.5625 41.0877C17.5625 40.8287 17.3426 40.6187 17.0713 40.6187C16.8 40.6187 16.5801 40.8287 16.5801 41.0877C16.5801 41.3468 16.8 41.5568 17.0713 41.5568Z" fill="white"/>
<path d="M12.3611 42.9378C12.3796 42.9045 13.8607 43.9719 14.1561 44.6552C14.4775 45.3976 12.3205 45.6377 11.7148 45.5232C11.109 45.4087 10.3482 45.3274 10.8283 44.8399C11.1534 44.5112 11.8588 43.7688 12.3611 42.9378Z" fill="#7A5F56"/>
<path d="M10.8325 44.8399C10.8916 44.8067 11.1759 44.8473 12.5241 44.7328C13.8722 44.6183 14.947 44.5814 15.0836 44.8177C15.2129 45.0394 15.1169 44.7771 15.2092 45.5564C15.2203 45.6562 15.3015 45.6783 13.8685 45.7559C12.4317 45.8334 10.1787 45.7633 10.1787 45.7633C10.7881 45.2203 10.6182 44.9655 10.8325 44.8399Z" fill="#DBDBDB"/>
<path d="M8.37226 36.5929C8.2947 36.0093 9.23653 33.4756 9.61327 32.2937C9.73515 31.6953 9.53201 29.1764 9.40274 27.976C9.18483 25.9852 8.96691 24.1237 8.33533 23.3222C8.16543 23.0748 7.16081 24.024 7.05 24.1311C6.06385 25.1025 5.88656 27.0046 4.79699 30.4063C3.38608 34.7978 2.79144 37.1432 3.06475 38.2845C3.33807 39.4258 8.77116 45.0842 9.38797 45.7933L11.1978 45.062C12.0879 44.785 13.4028 43.2485 13.4028 43.2485C11.8367 41.435 8.4092 36.8773 8.37226 36.5966V36.5929Z" fill="#E2E2E2"/>
<path d="M17.9896 30.9271C18.0893 30.3841 18.13 30.1847 18.3922 29.7082C18.5953 29.3389 19.3894 27.9501 19.6369 27.6066C20.3276 26.6463 21.6055 23.9538 22.1374 22.8605C22.5289 22.0554 22.9167 21.4607 23.5446 21.7008C24.1725 21.9409 27.1088 22.8125 27.9066 23.337C27.9324 23.3555 27.2011 25.0803 27.0682 25.9741C26.8687 27.3112 26.2999 31.4294 26.6249 33.3093C26.8022 34.3361 27.0866 61.8525 27.1679 62.6022C27.2713 63.5625 25.2584 63.7472 20.2611 63.7472H17.4873C17.4873 61.967 17.8825 31.5328 17.9933 30.9271H17.9896Z" fill="#EDEDED"/>
<path d="M23.5933 42.9381C23.5748 42.9049 22.958 43.2558 21.7983 44.6556C21.2812 45.2798 23.6339 45.6381 24.2397 45.5236C24.8454 45.4091 25.6063 45.3278 25.1261 44.8403C24.8011 44.5116 24.0956 43.7692 23.5933 42.9381Z" fill="#7A5F56"/>
<path d="M25.1224 44.8399C25.0633 44.8067 24.7789 44.8473 23.4308 44.7328C22.0827 44.6183 21.0079 44.5814 20.8712 44.8177C20.742 45.0394 20.838 44.7771 20.7456 45.5564C20.7346 45.6562 20.6533 45.6783 22.0864 45.7559C23.5231 45.8334 25.7761 45.7633 25.7761 45.7633C25.1667 45.2203 25.3366 44.9655 25.1224 44.8399Z" fill="#DBDBDB"/>
<path d="M27.5598 36.5929C27.6374 36.0093 26.6955 33.4756 26.3188 32.2937C26.1969 31.6953 26.4001 29.1764 26.5293 27.976C26.7472 25.9852 26.9652 24.1237 27.5967 23.3222C27.7666 23.0748 28.7713 24.024 28.8821 24.1311C29.8682 25.1025 30.0455 27.0046 31.1351 30.4063C32.546 34.7978 33.1406 37.1432 32.8673 38.2845C32.594 39.4258 27.1609 45.0842 26.5441 45.7933L24.7343 45.062C23.8442 44.785 22.5293 43.2485 22.5293 43.2485C24.0953 41.435 27.5229 36.8773 27.5598 36.5966V36.5929Z" fill="#E2E2E2"/>
<path d="M24.3281 23.5178C23.9883 23.2667 23.9625 22.7385 23.4823 21.8779C23.161 21.3018 22.6033 20.973 22.3927 20.7921C21.9754 20.4375 21.7649 20.4929 21.7649 20.4929C21.7649 20.4929 22.0899 20.6222 22.064 21.1023C22.0566 21.2427 22.3004 21.7819 21.3697 23.1522C20.5645 24.3415 18.0714 28.4708 17.8646 30.1772C17.6614 28.4708 15.0317 24.3267 14.2043 23.1522C13.2514 21.8041 13.473 21.2722 13.51 21.1023C13.5912 20.7551 13.8424 20.5298 13.8424 20.5298C13.8424 20.5298 13.6023 20.4375 13.1849 20.7921C12.9744 20.973 12.4167 21.3018 12.0954 21.8779C11.6152 22.7385 11.5894 23.2667 11.2496 23.5178C10.9098 23.769 13.9015 23.9684 13.9015 23.9684L12.0178 25.3904C12.0178 25.3904 14.1268 27.8023 15.5561 28.8438C15.9994 29.1651 16.4352 29.7598 16.7971 30.1698C17.2182 30.6388 17.5728 31.1153 17.9717 31.4625C18.3115 30.9048 18.3632 30.6388 18.7842 30.1698C19.1499 29.7635 19.582 29.1651 20.0252 28.8438C21.4509 27.8023 23.5636 25.3904 23.5636 25.3904L21.6799 23.9684C21.6799 23.9684 24.6716 23.7727 24.3318 23.5178H24.3281Z" fill="#E0E0E0"/>
<path d="M21.579 20.0054C21.4978 19.9722 21.4202 19.9833 21.3574 20.0313C21.3648 20.035 21.3685 20.0461 21.3722 20.0534C21.5606 20.3009 21.6086 20.3305 21.76 20.4967C21.8339 20.5779 21.9336 20.6592 22.0038 20.7589C24.1238 22.144 23.736 25.4348 23.5033 27.2705C23.4479 27.7063 23.4036 28.0498 23.4036 28.2899C23.4036 28.4192 23.507 28.5226 23.6363 28.5226C23.7656 28.5226 23.869 28.4192 23.869 28.2899C23.869 28.083 23.9133 27.7322 23.965 27.3296C24.2346 25.2058 24.7406 21.2501 21.5753 20.0054H21.579Z" fill="black"/>
<path d="M23.5074 29.8371C23.9419 29.8371 24.2941 29.4849 24.2941 29.0504C24.2941 28.6159 23.9419 28.2637 23.5074 28.2637C23.0729 28.2637 22.7207 28.6159 22.7207 29.0504C22.7207 29.4849 23.0729 29.8371 23.5074 29.8371Z" fill="#A3A3A3"/>
<path d="M24.0528 29.0508C24.0528 29.3537 23.8053 29.6011 23.5025 29.6011C23.1996 29.6011 22.9521 29.3537 22.9521 29.0508C22.9521 28.7479 23.1996 28.5005 23.5025 28.5005C23.8053 28.5005 24.0528 28.7479 24.0528 29.0508Z" fill="white"/>
<path d="M14.2808 20.0538C14.2808 20.0538 14.3177 20.0021 14.3177 19.9984C14.2623 19.9689 14.1589 20.0021 14.0961 20.028C13.6529 20.1942 11.4552 21.2837 11.5697 26.462C11.5697 26.5912 11.6805 26.691 11.8061 26.691H11.8209C11.9428 26.6799 12.0388 26.5765 12.0351 26.4546C11.9539 22.8608 13.073 21.2062 13.76 20.6263C13.9077 20.4859 14.1441 20.2311 14.2771 20.0538H14.2808Z" fill="black"/>
<path d="M11.3036 34.3143C11.3036 34.3143 11.2925 34.3143 11.2888 34.3143C10.4282 34.2183 10.3839 33.3688 10.358 32.9145V32.8221C10.2657 31.1305 10.214 30.1776 10.1992 29.9892C10.1992 29.9449 10.2288 29.908 10.2694 29.9043C10.3137 29.9043 10.3507 29.9338 10.3543 29.9745C10.3691 30.1665 10.4208 31.1194 10.5095 32.8111V32.8997C10.5353 33.3429 10.576 34.0742 11.3073 34.1555C11.3516 34.1592 11.3811 34.1998 11.3737 34.2404C11.37 34.2774 11.3405 34.3069 11.3036 34.3106V34.3143Z" fill="#E5E5E5"/>
<path d="M13.8398 34.1078C13.8398 34.1078 13.8509 34.1078 13.8546 34.1078C14.6893 33.8714 14.5969 33.0293 14.5452 32.575L14.5342 32.4826C14.3458 30.7984 14.2461 29.8529 14.2313 29.6608C14.2313 29.6165 14.1907 29.5869 14.1463 29.5906C14.102 29.5906 14.0725 29.6313 14.0762 29.6756C14.0909 29.8677 14.1944 30.8169 14.3827 32.5011L14.3938 32.5897C14.4418 33.0293 14.5231 33.7606 13.8176 33.96C13.777 33.9711 13.7511 34.0154 13.7659 34.056C13.777 34.093 13.8102 34.1151 13.8472 34.1114L13.8398 34.1078Z" fill="#E5E5E5"/>
<path d="M11.2691 34.321C11.2801 34.417 11.5719 34.6276 11.9376 34.5574C12.3032 34.4872 12.2441 34.1105 11.9523 34.0957C11.6606 34.0809 11.2395 34.044 11.2691 34.321Z" fill="black"/>
<path d="M13.8619 34.1111C13.8693 34.2071 13.6107 34.4619 13.2414 34.4546C12.8721 34.4472 12.8647 34.063 13.1528 34.0003C13.4408 33.9375 13.8471 33.8341 13.8619 34.1111Z" fill="black"/>
<path d="M14.2466 29.657L14.0287 29.6755C13.9622 29.6792 13.9031 29.6312 13.8957 29.5647C13.7775 28.4751 13.2309 26.8094 11.8422 26.9239C10.4793 27.0347 10.4977 29.2729 10.5236 29.838C10.5236 29.9082 10.4756 29.9673 10.4054 29.9747L10.2023 29.9895C10.1284 29.9968 10.0656 29.9414 10.0619 29.8676C10.0471 29.5499 10.0324 28.8149 10.2096 28.1095C10.531 26.8279 11.2549 26.5065 11.8052 26.4622C13.3491 26.3366 14.1949 27.8916 14.3611 29.5278C14.3685 29.598 14.3168 29.657 14.2466 29.6644V29.657Z" fill="black"/>
</g>
</svg>
