<svg width="49" height="48" viewBox="0 0 49 48" fill="none" xmlns="http://www.w3.org/2000/svg">
<path d="M30.9353 47.0971C40.8407 47.0971 48.8706 39.0672 48.8706 29.1618C48.8706 19.2565 40.8407 11.2266 30.9353 11.2266C21.0299 11.2266 13 19.2565 13 29.1618C13 39.0672 21.0299 47.0971 30.9353 47.0971Z" fill="#84D1C9"/>
<mask id="mask0_1372_2835" style="mask-type:alpha" maskUnits="userSpaceOnUse" x="13" y="11" width="36" height="37">
<path d="M30.9353 47.0971C40.8407 47.0971 48.8706 39.0672 48.8706 29.1618C48.8706 19.2565 40.8407 11.2266 30.9353 11.2266C21.0299 11.2266 13 19.2565 13 29.1618C13 39.0672 21.0299 47.0971 30.9353 47.0971Z" fill="#84D1C9"/>
</mask>
<g mask="url(#mask0_1372_2835)">
<path d="M39.7111 63.0218C39.4121 57.1562 40.0417 51.1752 39.9839 45.2729C40.1781 43.2268 39.8633 41.1439 39.05 39.2184C38.9976 39.0977 38.9451 38.9771 38.8454 38.8879C38.5359 38.6046 38.0007 38.7567 37.5915 38.9036C33.6356 40.3517 28.9663 40.0106 25.3619 37.9697C24.6484 38.9298 24.4437 40.1103 24.2706 41.2541C23.9873 43.0956 23.6778 44.9371 23.5991 46.7892V46.7997C23.5833 47.1984 23.5728 47.5971 23.5833 47.9958C23.6305 50.3043 24.1342 52.5813 24.5277 54.853C24.7848 56.3378 25.0104 57.833 25.0314 59.3388C25.0471 60.5717 24.853 61.6945 25.1625 62.9012C25.9285 65.8707 25.9285 69.1026 26.2538 72.135C26.6001 75.3826 26.9411 78.6303 27.2244 81.8831C27.2349 82.0143 27.2454 82.1402 27.2559 82.2714C27.4395 82.3133 30.2569 82.8904 30.2569 82.2451C30.4825 75.9335 30.7081 69.622 30.9337 63.3104C31.0281 60.6557 30.813 51.6789 31.5738 49.1501C31.8885 49.1763 32.1981 49.2078 32.5129 49.234C34.2338 57.5864 36.2694 72.219 37.985 80.5715C38.1371 81.306 38.3208 82.0982 38.8664 82.5756C39.4121 83.0478 40.4352 82.9167 40.5926 82.1821C40.0889 75.7971 40.0311 69.4174 39.7059 63.0324L39.7111 63.0218Z" fill="#2B2B2B"/>
</g>
<path d="M26.8826 18.8511C26.3422 18.5153 26.3579 16.6843 24.7052 18.2268C24.6475 18.2845 24.1543 18.935 24.0809 18.9665C24.0022 19.0033 23.53 19.7588 23.5038 19.8375C23.0473 21.1648 20.6287 28.1584 20.4398 29.5488C19.5007 28.6936 18.4881 27.9171 17.4703 27.1511C15.2615 25.4932 13.016 23.8825 10.7443 22.3138C10.5869 22.4922 10.4189 22.6601 10.2458 22.8227C10.2458 22.8227 10.2458 22.828 10.2458 22.8332C10.0097 23.127 9.75267 23.3736 9.42739 23.5415C9.28048 23.6726 9.12835 23.8038 8.98145 23.9297C12.4127 27.6442 16.4053 30.8342 20.7861 33.3525C21.1744 33.5729 21.337 33.6253 21.6255 33.9401C21.7357 34.0555 21.9246 34.0608 22.0715 33.9873C22.2131 33.9139 22.3128 33.7827 22.402 33.6515C23.0893 32.6232 23.2991 31.3641 23.488 30.1469C23.6192 29.3284 25.828 22.9434 26.169 22.1774C26.2634 21.957 26.3841 21.7315 26.3789 21.4901C26.3789 21.0442 27.2603 19.0767 26.8826 18.8406V18.8511Z" fill="#EDEDED"/>
<path d="M27.5283 16.7685C28.8609 16.2124 30.351 16.1862 31.799 16.1704C33.331 16.1547 35.0466 16.2071 36.1221 17.3036C36.8252 18.0224 37.098 19.0508 37.3445 20.0266C38.9815 26.5743 40.6184 33.1166 42.2605 39.6643C42.4442 40.3936 42.6225 41.1648 42.3969 41.8784C42.0821 42.8542 41.101 43.4418 40.1672 43.8668C34.7003 46.3798 29.4548 46.3552 23.5 45.5C24.5295 45.6362 22.8558 45.1779 22.5 45C21.5 44.5 20.4793 43.925 20.5003 43.5C20.7731 38.4476 21.8516 34.0296 22.4497 29.0034C22.7382 26.59 23.0688 24.1346 23.9502 21.8576C24.6899 19.9532 25.5137 17.6132 27.5388 16.7685H27.5283Z" fill="#333333"/>
<path d="M30.1413 24.8634C29.7059 22.0041 29.1812 19.1552 28.5674 16.3326C29.8056 16.1699 31.049 16.0703 32.2924 16.0231C32.5075 16.0178 32.9429 15.9654 33.1266 16.107C33.3627 16.2907 33.1738 16.5163 33.0741 16.7681C32.8118 17.4187 32.56 18.0692 32.3082 18.725C31.815 20.0104 31.348 21.3011 30.8968 22.6022C30.6397 23.3525 30.3879 24.1027 30.1413 24.8529V24.8634Z" fill="#EDEDED"/>
<path d="M36.328 24.6957C36.3909 24.6957 36.4591 24.6957 36.5168 24.659C36.5745 24.6275 36.6113 24.5698 36.6375 24.5069C36.7319 24.2917 36.6952 24.0242 36.5378 23.8405C36.3856 23.6622 36.1233 23.5782 35.8977 23.6359C35.819 23.6569 35.7404 23.6883 35.6669 23.6569C35.6144 23.6306 35.5829 23.5782 35.5514 23.5309C35.3468 23.2424 34.8799 23.1899 34.6123 23.426C34.5599 23.4733 34.5126 23.5257 34.4549 23.5625C34.2975 23.6569 34.1034 23.5834 33.9198 23.5625C33.7414 23.5362 33.5001 23.5992 33.4896 23.7828C33.306 23.4943 32.839 23.4942 32.5976 23.7356C32.4245 23.9035 32.2357 24.3862 32.3878 24.617C32.5505 24.8636 33.2482 24.7324 33.5315 24.7324C34.4602 24.7324 35.3941 24.7167 36.3227 24.6957H36.328Z" fill="white"/>
<path d="M36.7261 24.5439C36.81 24.5439 36.9097 24.544 36.9569 24.6174C36.9831 24.6541 36.9884 24.7066 36.9884 24.7538L37.0094 25.3257C35.3672 25.3624 33.7198 25.3991 32.0776 25.4358C32.0514 25.0318 31.9412 24.7801 32.3767 24.7014C32.8331 24.6174 33.3525 24.6646 33.8142 24.6489C34.7848 24.6121 35.7502 24.5807 36.7208 24.5439H36.7261Z" fill="#2E2E2E"/>
<path d="M25.4196 36.002C25.2517 36.1121 25.0838 36.2275 24.9632 36.3849C24.8425 36.5423 24.7743 36.7575 24.8425 36.9463C24.9107 37.1352 25.1363 37.2664 25.3199 37.1877C25.3199 37.2454 25.3461 37.3031 25.3881 37.3398C25.8131 37.3503 26.1489 37.004 26.4584 36.7207C26.6997 36.5004 26.9621 36.301 27.2401 36.1279C27.4762 35.981 27.7438 35.8288 27.8225 35.5613C27.8802 35.3671 27.812 35.1573 27.7071 34.9842C27.5969 34.811 27.45 34.6746 27.3188 34.5225C26.8624 34.7323 26.4112 34.9369 25.9548 35.1468C25.8813 35.1782 25.8026 35.215 25.7554 35.2832C25.7082 35.3514 25.6924 35.4511 25.7554 35.5088C25.8603 35.4931 25.9705 35.5193 26.0597 35.577C25.8446 35.7187 25.6347 35.8603 25.4196 36.002Z" fill="#FFE0D6"/>
<path d="M39.784 18.5202C38.7819 16.5371 35.9645 16.7731 36.1009 19.5538C36.2268 22.0721 36.6833 24.5642 36.1796 27.1507C35.9383 28.3942 35.2142 29.4645 34.0548 30.2042C31.741 31.6785 29.4011 33.1003 27.0244 34.4592C27.271 34.9733 27.5176 35.4927 27.7642 36.0069C30.9069 34.6952 34.0548 33.3783 37.1974 32.0667C37.8008 31.8149 38.4304 31.5473 38.913 31.0909C39.38 30.6449 39.658 30.073 39.8889 29.5064C41.4261 25.7604 41.3842 21.6996 39.784 18.5202Z" fill="#EDEDED"/>
<path d="M9.02817 23.6203C8.81831 23.5678 8.60322 23.5783 8.38811 23.5836C7.89494 23.5941 7.40173 23.5888 6.90856 23.5626C6.52556 23.5416 6.10057 23.4891 5.83825 23.211C5.64412 23.0012 5.57068 22.7074 5.51296 22.4293C5.42377 22.0148 5.35038 21.5269 5.63894 21.2121C5.85405 20.9813 6.19502 20.9236 6.50981 20.8973C7.10792 20.8449 7.7113 20.8238 8.3094 20.8396C8.58746 20.8448 8.87604 20.8659 9.11213 21.0128C9.32199 21.1439 9.4584 21.359 9.63678 21.5322C9.84664 21.7473 10.1142 21.8941 10.3503 22.083C10.5864 22.2719 10.7962 22.5185 10.8434 22.8123C10.8907 23.1428 10.7175 23.4786 10.4552 23.6937C10.2821 23.8354 9.91483 24.082 9.67873 24.0242C9.44264 23.9718 9.301 23.6885 9.03867 23.6255L9.02817 23.6203Z" fill="#FFE0D6"/>
<path d="M12.1558 22.5186C13.457 22.4294 14.7581 22.3087 16.0173 21.9624C16.458 21.8417 16.9774 21.5637 16.9354 21.1125C16.9092 20.8554 16.6993 20.6613 16.4895 20.5091C14.905 19.3759 12.7959 19.4704 10.8494 19.4494C8.02158 19.4179 5.16747 19.0401 2.38681 19.57C1.59984 19.7169 0.660687 19.9898 0.198994 20.7033C-0.346644 21.5375 0.319722 22.0254 1.11195 22.1933C3.39418 22.6707 5.81277 22.7179 8.13698 22.6917C9.48008 22.676 10.8232 22.613 12.1611 22.5186H12.1558Z" fill="#F2F2F2"/>
<path d="M14.2969 20.21C14.2602 19.5805 14.2182 18.9509 14.1814 18.3213C14.1447 17.718 14.108 17.1146 13.9559 16.5322C13.5729 15.0422 12.4449 13.7831 11.044 13.1588C10.3987 12.8702 9.70617 12.7233 9.00314 12.6866C9.09758 12.5816 9.11332 12.4295 9.07135 12.2931C8.95068 11.9048 8.31588 11.952 8.11651 12.2458C8.02207 12.3875 8.00635 12.5816 8.13226 12.7023C7.59187 12.7495 7.05672 12.8649 6.5478 13.0538C5.2729 13.5207 4.12914 14.4127 3.5153 15.6246C3.1428 16.3539 2.97492 17.1723 2.86474 17.9855C2.79653 18.4997 2.74929 19.0138 2.71257 19.528C2.69158 19.8375 2.49747 20.6245 2.66012 20.8921C2.95917 21.3853 4.66427 21.3223 5.20466 21.3643C7.19834 21.5164 9.20253 21.4325 11.1962 21.3486C12.1983 21.3066 13.2528 21.2436 14.0765 20.677C14.1552 20.6245 14.2339 20.5616 14.2707 20.4776C14.3074 20.3989 14.3022 20.3045 14.2969 20.2206V20.21Z" fill="#B7B7B7"/>
<path d="M5.14082 14.6645C3.96036 15.5617 3.32026 16.9625 3.47765 18.442C3.47765 18.4892 3.55111 18.4892 3.55111 18.442C3.51963 17.0149 4.1073 15.7191 5.24579 14.8481C5.35597 14.7642 5.24575 14.5806 5.13557 14.6645H5.14082Z" fill="#F2F2F2"/>
<path d="M5.76399 14.2868C5.66955 14.3392 5.56983 14.3812 5.4649 14.4179C5.3967 14.4442 5.41771 14.5492 5.49641 14.5334C5.60134 14.5124 5.70626 14.4861 5.81644 14.4809C5.99482 14.4704 5.91089 14.2028 5.76399 14.2868Z" fill="#F2F2F2"/>
<path d="M25.5766 3.99291C25.2408 4.90056 25.2093 5.90269 25.3404 6.86281C25.4768 7.82292 25.7706 8.75154 26.0697 9.67493C26.5209 8.31608 26.9721 6.94149 27.7276 5.72954C28.0791 5.15767 28.5146 4.57006 28.4988 3.89326C28.4883 3.44206 28.2522 3.00132 27.8902 2.74424C26.778 1.95726 25.949 2.99082 25.5817 3.98766L25.5766 3.99291Z" fill="black"/>
<path d="M26.181 11.1016C26.2177 11.705 26.2597 12.3241 26.4538 12.8802C26.8946 14.1289 28.0016 14.8267 29.0457 15.3828C29.8431 15.8077 30.7612 16.2169 31.5745 15.813C32.267 15.4667 32.671 14.6325 33.2009 14.0029C33.6048 13.5255 34.0928 13.153 34.4758 12.6546C35.3362 11.5318 35.546 9.91063 35.5513 8.39964C35.5565 6.48466 35.2208 4.3913 33.9773 3.15837C33.3268 2.51305 32.4926 2.17728 31.6584 1.98316C30.8767 1.79953 30.053 1.72607 29.2817 1.9779C28.3269 2.28745 27.5189 3.07445 26.9523 4.03456C25.5935 6.33254 26.0184 8.47834 26.181 11.0964V11.1016Z" fill="#FFE0D6"/>
<path d="M37.9897 3.98241C37.827 3.03804 37.6119 1.93106 36.7515 1.52708C36.2164 1.27525 35.5921 1.38544 35.0044 1.47463C34.4378 1.55857 33.8607 1.60577 33.2888 1.52183C32.1818 1.35919 31.2112 0.724338 30.1672 0.320356C29.1231 -0.0836259 27.8272 -0.204263 26.9983 0.551236C26.4789 1.02867 26.248 1.81038 26.4316 2.49767C26.547 2.93838 26.7569 3.24791 27.0245 3.46301C26.7202 4.78514 29.0077 5.70857 30.1567 5.803C31.1902 5.88695 32.2238 5.72952 33.2469 5.56687C33.4253 7.07787 33.6088 8.58888 33.7872 10.1051C33.9184 9.4598 34.2174 8.85123 34.6529 8.36331C34.9362 8.53644 35.0307 8.91416 34.9887 9.24469C34.9467 9.57522 34.7946 9.87954 34.6792 10.1891C34.2594 11.3381 34.3591 12.6654 33.7505 13.7252C33.8869 13.5993 34.0076 13.4629 34.123 13.3212C34.1178 13.3999 34.1125 13.4786 34.1073 13.5573C35.5973 12.5133 36.825 11.081 37.633 9.43881C37.953 8.79348 38.2101 8.10624 38.2993 7.38746C38.4462 6.25422 38.1786 5.11042 37.9844 3.98241H37.9897Z" fill="black"/>
<path d="M30.5183 46.495C30.5183 46.7101 30.5288 46.9515 30.702 47.0879C30.8436 47.198 31.0482 47.1928 31.2371 47.1718C32.5487 47.0512 33.8236 46.6839 35.088 46.3219C35.7229 46.1383 36.3892 45.9389 36.8509 45.493C37.4648 44.9001 37.5959 44.0082 37.6483 43.1792C37.853 39.7428 37.1289 36.322 36.4102 32.9485C36.2475 32.193 36.0902 31.4375 35.9275 30.682C35.8278 30.2256 35.4973 29.1605 35.0094 29.1238C34.7995 29.1081 34.5949 29.2025 34.4113 29.2969C33.1521 29.9212 32.0031 31.0388 30.7492 31.6736C29.5058 32.2979 29.2172 32.5603 29.4533 33.8824C29.936 36.5634 30.256 39.2653 30.4134 41.9778C30.5026 43.4835 30.5393 44.9893 30.5236 46.495H30.5183Z" fill="white"/>
</svg>
