<svg width="42" height="60" viewBox="0 0 42 60" fill="none" xmlns="http://www.w3.org/2000/svg">
<path style="mix-blend-mode:multiply" d="M20.9728 59.0224C32.092 59.0224 41.1059 50.0085 41.1059 38.8894C41.1059 27.7702 32.092 18.7563 20.9728 18.7563C9.8537 18.7563 0.839844 27.7702 0.839844 38.8894C0.839844 50.0085 9.8537 59.0224 20.9728 59.0224Z" fill="url(#paint0_radial_1372_2891)"/>
<mask id="mask0_1372_2891" style="mask-type:luminance" maskUnits="userSpaceOnUse" x="3" y="0" width="36" height="54">
<path d="M33.0239 21.7897C34.2427 19.7156 34.9448 17.3028 34.9448 14.7219C34.9448 7.00642 28.6903 0.751953 20.9748 0.751953C13.2593 0.751953 7.00481 7.00642 7.00481 14.7219C7.00481 17.3004 7.7069 19.7156 8.92565 21.7897C5.31141 25.0703 3.04199 29.8069 3.04199 35.0725C3.04199 44.9783 11.0715 53.0078 20.9773 53.0078C30.8831 53.0078 38.9126 44.9783 38.9126 35.0725C38.9126 29.8069 36.6431 25.0703 33.0289 21.7897H33.0239Z" fill="white"/>
</mask>
<g mask="url(#mask0_1372_2891)">
<path d="M21.2497 54.5795C31.1551 54.5795 39.185 46.5496 39.185 36.6443C39.185 26.7389 31.1551 18.709 21.2497 18.709C11.3443 18.709 3.31445 26.7389 3.31445 36.6443C3.31445 46.5496 11.3443 54.5795 21.2497 54.5795Z" fill="#FFCAAC"/>
<path d="M12.4029 27.2466C11.6873 29.1533 11.4571 31.2001 11.1568 33.2119C11.1268 33.3921 11.0967 33.5873 10.9716 33.7224C10.7164 33.9927 10.276 33.8776 9.91567 33.8075C9.64042 33.7525 9.34013 33.7424 9.0849 33.8676C8.82967 33.9877 8.63448 34.2729 8.69453 34.5482C8.75459 34.8484 9.05487 35.0236 9.33012 35.1537C10.6713 35.7943 12.0926 36.2547 13.554 36.5249C13.9143 36.59 14.2946 36.645 14.6399 36.5249C14.9852 36.4048 15.2805 36.0596 15.2205 35.6992C15.1954 35.5541 15.1154 35.424 15.0503 35.2888C14.3897 33.9977 14.76 32.4213 15.3906 31.1151C16.0212 29.8089 16.887 28.6028 17.2623 27.2065C17.5776 26.0304 17.3974 23.2129 15.5958 23.338C14.0644 23.4431 12.8733 26.0405 12.4129 27.2516L12.4029 27.2466Z" fill="#F7F7F7"/>
<path d="M6.07773 47.1096C5.87255 47.1496 5.65235 47.1897 5.45718 47.1096C5.20695 47.0045 5.07686 46.7242 4.98177 46.469C3.63556 42.9658 3.24522 39.1825 3 35.4391C3.79572 35.1238 4.66146 35.0537 5.51723 34.9886C7.83432 34.8085 10.1514 34.6334 12.4685 34.4532C13.8298 34.3481 15.211 34.243 16.5522 34.4932C16.7174 38.2966 16.8825 42.0951 17.0477 45.8985C17.0577 46.1338 6.97855 46.9445 6.08274 47.1146L6.07773 47.1096Z" fill="#E2E2E2"/>
<path d="M9.99169 40.7635C9.99169 40.7635 9.95166 40.7535 9.93164 40.7435C9.95666 40.7385 9.97668 40.7485 9.99169 40.7635Z" fill="white"/>
<path d="M11.3074 41.3795C10.822 40.5588 10.4316 39.698 10.1314 38.7922C10.0763 38.627 9.83107 38.612 9.78102 38.7922C9.51078 39.753 9.24054 40.7139 8.97029 41.6798C8.94027 41.7799 8.99535 41.8499 9.06541 41.885C9.10044 41.955 9.17046 42.0051 9.26554 41.9901C9.91113 41.895 10.5567 41.7848 11.1973 41.6497C11.3124 41.6247 11.3625 41.4796 11.3074 41.3795ZM10.867 41.3394C10.3666 41.4395 9.87113 41.5296 9.36567 41.6047C9.56585 40.884 9.77102 40.1584 9.9712 39.4378C10.2214 40.0933 10.5167 40.7289 10.862 41.3394H10.867Z" fill="white"/>
<path d="M13.0288 44.8176C13.0288 44.8176 11.4274 80.4498 11.4023 85.9298H14.8755C14.8755 85.9298 18.3286 59.1005 20.951 57.459C20.951 57.459 22.037 57.3339 22.4524 57.459C22.8728 57.5841 25.0647 84.2482 24.3641 86.2801H27.9323C27.9323 86.2801 32.3513 52.8498 31.9759 45.0378C31.9759 45.0378 32.2162 41.1142 23.8787 41.4645C15.5411 41.8198 13.8646 40.9141 13.0288 44.8126V44.8176Z" fill="#4D4D4D"/>
<path d="M31.686 50.2976C27.9426 49.8872 27.0068 46.1989 26.7666 43.031C26.7566 42.8809 26.5263 42.8758 26.5313 43.031C26.6464 46.4591 27.6974 50.2876 31.686 50.708C31.9513 50.738 31.9463 50.3276 31.686 50.2976Z" fill="#191919"/>
<path d="M17.5878 43.3968C17.4577 45.0383 17.4977 46.8299 16.9822 48.4063C16.4568 50.0277 14.5951 51.354 12.8935 51.4991C12.8285 51.5041 12.8285 51.5942 12.8935 51.5992C13.6592 51.6842 14.3799 51.2589 15.0305 50.8986C15.7511 50.5032 16.4117 50.0178 16.8371 49.2971C17.823 47.6056 17.7429 45.2935 17.898 43.4018C17.9131 43.2066 17.6078 43.2066 17.5878 43.4018V43.3968Z" fill="#191919"/>
<path d="M22.357 49.8072C22.2769 47.6052 21.9666 45.4282 21.9967 43.2162C21.9967 43.006 21.7514 43.006 21.7464 43.2162C21.7114 44.8077 21.8615 46.3741 21.9866 47.9506C22.0517 48.7363 22.1068 49.522 22.1218 50.3127C22.1268 50.648 22.1268 50.9883 22.1218 51.3236C22.1068 51.8641 22.1868 52.4046 21.7915 52.6848C21.276 53.0502 20.9807 52.6598 20.9056 51.9792C20.8706 51.6439 20.8956 51.2435 20.8956 50.9082C20.8856 50.0724 20.8706 49.2367 20.8506 48.4059C20.8156 46.7394 20.8206 45.058 20.7005 43.3965C20.6955 43.2964 20.5804 43.2914 20.5754 43.3965C20.4903 45.6485 20.5754 47.9355 20.6204 50.1926C20.6454 51.3937 20.2951 53.2203 21.6213 53.1652C22.7073 53.1202 22.392 50.703 22.357 49.8122V49.8072Z" fill="#191919"/>
<path d="M31.245 51.7993C31.2 51.6241 31.225 51.4289 31.23 51.2488C31.23 51.1537 31.0749 51.1236 31.0548 51.2237C31.0248 51.3989 31.0148 51.5941 30.9448 51.7542C30.8096 52.0495 31.3201 52.0795 31.245 51.7942V51.7993Z" fill="#191919"/>
<path d="M30.9709 53.4857C30.9659 53.2605 30.986 53.0303 31.001 52.8C31.001 52.745 30.9109 52.73 30.9009 52.785C30.8208 53.2454 30.7157 53.7059 30.6707 54.1663C30.6506 54.3915 31.041 54.3965 31.026 54.1663C31.016 53.9361 30.9709 53.7059 30.9659 53.4807L30.9709 53.4857Z" fill="#191919"/>
<path d="M21.958 20.9867C22.7637 20.9817 23.5044 20.5713 24.0599 20.0609C26.1418 18.1642 26.0817 15.1964 25.8766 12.5691C25.8565 12.2888 25.8265 11.9986 25.6464 11.7683C25.3711 11.413 24.8256 11.3179 24.3401 11.2729C22.2582 11.2729 21.3074 9.71152 19.2105 9.8016C19.0353 9.80661 17.7492 11.4631 17.6091 11.5582C17.4589 11.6583 17.4039 11.8334 17.3739 11.9985C17.2287 12.7542 17.509 13.5449 17.494 14.3156C17.484 15.1064 17.519 15.9071 17.6741 16.6878C17.9794 18.2092 18.7751 19.6205 20.2765 20.4863C20.7769 20.7765 21.3525 20.9917 21.953 20.9917L21.958 20.9867Z" fill="#F2E7D6"/>
<path d="M26.0416 14.6553C26.0166 14.8404 25.9966 15.0306 25.9766 15.2158C26.0166 15.0306 26.0366 14.8454 26.0416 14.6553Z" fill="#422E24"/>
<path d="M27.7228 13.0088C27.6827 11.7327 27.2223 10.4716 26.4116 9.4857C26.1363 9.1504 25.791 8.8251 25.3706 8.73001C25.3356 8.71 25.3106 8.68998 25.2755 8.66996C24.9152 8.49981 24.5099 8.44977 24.1095 8.42475C23.4389 8.38971 22.7683 8.43975 22.1027 8.35468C21.0918 8.22456 20.0508 7.78412 19.095 8.12944C18.6696 8.27957 18.3092 8.57483 17.9689 8.8701C17.6587 9.13534 17.3534 9.42061 17.1532 9.76592C16.968 9.9561 16.8279 10.1963 16.7378 10.4515C16.5927 10.8819 16.5677 11.3424 16.5226 11.7928C16.4425 12.5785 16.2875 13.3592 16.1323 14.1349C16.0472 14.5603 15.8921 15.0658 15.4717 15.1809C15.7219 15.1909 15.9721 15.0958 16.1523 14.9206C16.2123 15.7614 15.9772 16.6172 15.4917 17.3078C15.8721 17.0776 16.2274 16.8023 16.5376 16.482C16.5577 17.4579 17.0831 18.4087 17.8939 18.9492C17.8738 18.8391 17.8588 18.7341 17.8388 18.624C18.1441 19.3947 18.6045 20.1053 19.205 20.6808C19.5053 20.9711 19.8456 21.2263 20.231 21.3814C20.9566 21.6717 21.7674 21.5766 22.5431 21.4765C23.0736 21.4065 23.609 21.3364 24.0995 21.1262C24.5899 20.911 25.0304 20.5357 25.1955 20.0252C25.3156 19.6549 25.2755 19.2495 25.3506 18.8692C25.3606 18.8091 25.3807 18.754 25.3957 18.694C25.4507 18.8091 25.5208 18.9142 25.6109 19.0043C25.6259 18.2486 25.8811 17.4979 26.3265 16.8874C26.2965 17.2877 26.4116 17.6981 26.6518 18.0184C26.5267 17.1776 26.7269 16.2968 27.1923 15.5862C27.3324 15.9815 27.5926 16.3369 27.928 16.5871C27.4275 15.406 27.7628 14.2199 27.7228 12.9988V13.0088ZM24.0945 19.2095C23.564 19.6949 22.7783 19.9652 22.1177 19.6799C22.0276 19.5948 22.1177 19.3996 22.0076 19.3446C21.9726 19.3246 21.9326 19.3346 21.8925 19.3396C21.7224 19.3646 21.5472 19.3947 21.377 19.4197C21.377 19.5948 21.357 19.8 21.2068 19.8851C21.1418 19.9201 21.0718 19.9301 20.9967 19.9301C20.2961 19.9652 19.5854 19.6649 19.125 19.1344C18.9398 18.9242 18.7947 18.679 18.6495 18.4388C18.4594 18.1235 18.2742 17.8082 18.1591 17.4629C18.049 17.1276 18.029 16.7072 17.8338 16.4069C17.8038 16.3619 17.7738 16.3269 17.7488 16.3019C17.7588 15.8715 17.6587 15.441 17.6186 15.0107C17.5836 14.6854 17.5886 14.3601 17.6086 14.0348C17.6286 13.9047 17.6487 13.7745 17.6737 13.6444C17.8138 12.9288 18.1291 12.1581 18.8047 11.8878C19.0599 11.7877 19.3452 11.7728 19.6205 11.7377C20.0208 11.6927 20.4162 11.6076 20.7965 11.4875C20.9316 11.4475 21.0718 11.4024 21.1969 11.3273C21.297 11.2673 21.427 11.0671 21.5221 11.0321C21.7473 10.952 21.9676 11.2673 22.2378 11.3524C22.6131 11.4725 23.0135 11.4524 23.3988 11.5075C24.2346 11.6276 25.0153 12.1031 25.4958 12.7987C25.6709 13.0489 25.7961 13.3242 25.8911 13.6094C25.8661 13.9798 25.8411 14.3501 25.8161 14.7154C25.766 15.4311 25.7059 16.1617 25.5258 16.8524C25.4657 16.9775 25.4057 17.0976 25.3456 17.2227C25.3156 17.2827 25.2856 17.3428 25.2556 17.4078C24.9453 18.0534 24.6249 18.719 24.0945 19.1994V19.2095Z" fill="#422E24"/>
<path d="M30.6751 23.8883C32.0414 26.2555 33.3325 28.7227 34.3634 31.4001C34.6487 32.1358 34.9139 32.9015 34.984 33.7272C35.0541 34.553 34.899 35.4638 34.4536 36.0143C34.0732 36.4848 33.4977 36.6249 33.0223 36.3696C32.8121 36.2545 32.6219 36.0744 32.4367 35.8892C31.0655 34.553 29.6943 33.2118 28.323 31.8756C27.6924 31.26 27.0518 30.6345 26.5514 29.8137C26.0459 28.998 25.6856 27.957 25.7156 26.8761C25.7456 25.7951 26.156 24.8042 26.6215 23.9384C27.9777 21.4011 29.3339 21.5612 30.6701 23.8833L30.6751 23.8883Z" fill="#F7F7F7"/>
<path d="M31.911 40.1381C31.7809 39.0471 31.3455 39.0321 31.1553 37.9411C30.9351 36.665 30.9552 35.3687 30.9002 34.0826C30.7951 31.6154 30.5098 29.7237 30.3897 27.2565C30.3046 25.5299 30.1995 23.0576 27.5121 22.0467C26.1909 21.5513 24.6294 21.8015 23.2081 21.9367C21.2113 22.1218 19.2246 22.322 17.2428 22.5422C17.2028 22.5222 17.1577 22.5072 17.0976 22.5022C16.0967 22.4221 15.3511 22.7924 14.9857 23.378C14.3552 24.3889 14.4052 25.685 14.185 26.751C13.6696 29.2433 13.3242 31.1549 12.8538 33.6472C12.3984 36.0894 11.7478 37.5657 11.913 40.033C12.0381 41.8947 13.5044 42.8505 16.402 43.0957C20.0403 43.401 23.7386 43.1308 27.3569 42.8605C28.4779 42.7755 30.5949 42.8055 31.4306 42.26C32.1413 41.7946 31.9711 40.7086 31.9011 40.1381H31.911Z" fill="#F7F7F7"/>
<path d="M11.1871 47.3001C11.5925 47.255 11.9628 46.9948 12.1931 46.6545C12.4233 46.3142 12.5334 45.9038 12.5684 45.4985C12.5784 45.3884 12.5784 45.2782 12.5434 45.1731C12.4983 45.043 12.3932 44.9379 12.2781 44.8579C11.7877 44.5075 11.082 44.5025 10.5866 44.8428C9.59567 45.5234 9.68078 47.4702 11.1871 47.3001Z" fill="#B59D8E"/>
<path d="M17.6886 35.8298C17.7036 35.9349 17.7236 36.05 17.7886 36.1351C17.8787 36.2502 18.0289 36.2952 18.169 36.3252C18.8546 36.4804 19.5652 36.5454 20.2709 36.5104C20.411 36.5054 20.5561 36.4903 20.6712 36.4103C20.7964 36.3252 20.8614 36.1801 20.9165 36.0399C21.0916 35.5845 21.1867 35.1041 21.2818 34.6287C21.5871 33.1223 21.8924 31.616 22.1977 30.1096C22.2477 29.8544 22.2977 29.5691 22.1476 29.3539C21.9724 29.0987 21.6171 29.0637 21.3068 29.0587C20.0557 29.0286 18.8096 28.9986 17.5584 28.9685C17.3433 28.9635 17.113 28.9586 16.9179 29.0536C16.4124 29.2889 16.7477 29.8193 16.8128 30.2197C16.9129 30.8553 17.0129 31.4909 17.113 32.1264C17.3082 33.3625 17.4984 34.5987 17.6936 35.8298H17.6886Z" fill="#CEC1BA"/>
<path d="M19.8657 28.0523C19.9357 27.722 20.0108 27.3967 20.0709 27.0614C20.191 26.3858 20.256 25.7052 20.261 25.0195C20.4812 25.0596 20.7064 25.0996 20.9266 25.1396C20.6564 26.4758 20.3861 27.8171 20.1209 29.1533C19.7956 30.7647 19.4753 32.3762 19.155 33.9877C19.0999 34.2579 19.0499 34.5281 19.0199 34.7984C18.9998 34.9836 19.0499 35.2238 18.8147 35.0936C18.4844 34.9135 18.8047 33.9126 18.8497 33.6173C19.0249 32.4263 19.2301 31.2352 19.4553 30.0541C19.5854 29.3835 19.7205 28.7179 19.8657 28.0473V28.0523Z" fill="#C1B0A8"/>
<path d="M22.1367 29.4486C22.3569 29.4787 22.6471 29.4686 22.7172 29.2585C22.7622 29.1283 22.6772 28.9782 22.5621 28.9031C22.447 28.828 22.3018 28.808 22.1617 28.793C21.5761 28.733 20.9806 28.7229 20.3901 28.7079C19.2691 28.6829 18.143 28.6629 17.022 28.6378C16.5816 28.6278 16.0211 29.1383 16.6117 29.3035C16.8569 29.3735 17.2873 29.2584 17.5475 29.2434C17.8578 29.2284 18.1681 29.2234 18.4834 29.2184C19.7045 29.2084 20.9256 29.2835 22.1417 29.4436L22.1367 29.4486Z" fill="#191919"/>
<path d="M20.3357 30.2194C20.5709 30.1944 21.2566 30.2044 21.4517 30.3345C21.772 30.5547 21.742 30.89 21.6519 31.2704C21.5017 31.9009 21.3216 32.5816 21.1765 33.2121C21.0814 33.6075 20.9963 34.0429 20.9913 34.4483C20.9913 34.6985 20.9112 35.4042 20.8111 35.6344C20.656 35.9897 20.2356 36.1398 19.8553 36.2199C19.535 36.2849 18.8994 35.9046 18.5741 35.9246C18.4841 35.9296 18.389 35.9346 18.3089 35.8896C18.2438 35.8496 18.1988 35.7845 18.1637 35.7144C17.9185 35.234 17.9886 34.6585 17.9085 34.123C17.8635 33.8477 17.7834 33.5775 17.7033 33.3072C17.5482 32.7768 17.423 32.2363 17.328 31.6958C17.2779 31.4306 17.0027 30.5398 17.2179 30.3246C17.413 30.1244 18.4189 30.3246 18.7042 30.3246C19.2447 30.3246 19.7902 30.2895 20.3257 30.2345L20.3357 30.2194Z" fill="#7C5742"/>
<path d="M19.3051 34.023C19.3601 34.013 19.4201 33.9979 19.4752 34.023C19.5453 34.048 19.5853 34.1231 19.6153 34.1932C19.7154 34.4284 19.7755 34.6836 19.7855 34.9438C19.6303 34.9989 19.4752 35.0439 19.3151 35.079C19.1499 35.114 18.9648 35.129 18.8146 35.0539C18.6194 34.9538 18.4143 34.5735 18.5093 34.3533C18.6094 34.1231 19.0899 34.073 19.3 34.028L19.3051 34.023Z" fill="#8C6D5E"/>
<path d="M18.4888 32.0006C18.644 32.0056 18.8141 32.0607 18.8842 32.1958C18.9192 32.2609 18.9292 32.3409 18.9342 32.416C18.9493 32.6212 18.9442 32.8313 18.9192 33.0365C18.9192 33.0716 18.9092 33.1116 18.8842 33.1367C18.8542 33.1617 18.8141 33.1667 18.7791 33.1667C18.659 33.1667 18.5439 33.1667 18.4238 33.1717C18.2836 33.1717 18.1335 33.1716 18.0234 33.0866C17.9083 32.9965 17.8683 32.8364 17.8482 32.6912C17.8332 32.5761 17.8232 32.466 17.8132 32.3509C17.7832 31.8905 18.1535 31.9856 18.4888 32.0006Z" fill="#8C6D5E"/>
<path d="M32.7412 34.8784C32.571 34.3128 32.0256 33.9275 31.4601 33.7723C30.8945 33.6172 30.289 33.6472 29.6985 33.6472C27.1461 33.6572 24.6238 33.1118 22.1566 32.4512C22.0415 32.4211 21.9264 32.3911 21.8063 32.3811C21.7463 32.1059 21.5611 31.8706 21.3209 31.7255C21.1057 30.9598 19.4141 31.18 18.9287 31.4403C18.168 31.8406 18.3432 33.1518 19.1289 33.432C19.8095 33.6773 20.43 33.6822 21.1057 33.7073C21.8964 33.7373 22.592 34.3379 23.3527 34.6181C23.5529 34.7532 23.753 34.8834 23.9632 34.9985C24.6138 35.3538 25.2444 35.579 25.895 35.7241C27.0711 36.2396 28.6174 36.7901 29.7234 37.1354C30.2039 37.2855 30.6893 37.4306 31.1948 37.4606C31.6302 37.4857 32.0606 36.78 32.3658 36.4698C32.516 36.3196 32.6111 36.1245 32.6811 35.9243C32.7962 35.589 32.8413 35.2187 32.7412 34.8784Z" fill="#B59D8E"/>
<path d="M33.8029 35.8645C33.8279 36.0997 33.8329 36.3449 33.7228 36.5501C33.5577 36.8604 33.1873 36.9955 32.847 37.0905C32.5268 37.1756 32.1765 37.2407 31.8862 37.0905C31.4708 36.8753 31.3757 36.3399 31.2156 35.8995C31.0754 35.5191 30.8453 35.1689 30.555 34.8886C30.2697 34.6133 29.9294 34.3981 29.6792 34.0928C29.429 33.7876 29.2939 33.3372 29.494 32.9969C30.0345 32.081 31.6109 32.8067 32.2165 33.2421C33.0722 33.8526 33.6828 34.8185 33.8079 35.8695L33.8029 35.8645Z" fill="#F7F7F7"/>
</g>
<defs>
<radialGradient id="paint0_radial_1372_2891" cx="0" cy="0" r="1" gradientUnits="userSpaceOnUse" gradientTransform="translate(20.8402 -186.203) scale(20.0919)">
<stop stop-color="#ADADAE"/>
<stop offset="0.4" stop-color="#ADADAE" stop-opacity="0.99"/>
<stop offset="0.55" stop-color="#B1B1B2" stop-opacity="0.95"/>
<stop offset="0.65" stop-color="#B6B6B7" stop-opacity="0.88"/>
<stop offset="0.73" stop-color="#BEBEBF" stop-opacity="0.79"/>
<stop offset="0.81" stop-color="#C8C8C9" stop-opacity="0.66"/>
<stop offset="0.87" stop-color="#D5D5D6" stop-opacity="0.5"/>
<stop offset="0.93" stop-color="#E5E5E5" stop-opacity="0.32"/>
<stop offset="0.98" stop-color="#F6F6F6" stop-opacity="0.11"/>
<stop offset="1" stop-color="white" stop-opacity="0"/>
</radialGradient>
</defs>
</svg>
