<svg width="52" height="51" viewBox="0 0 52 51" fill="none" xmlns="http://www.w3.org/2000/svg">
<path d="M18.2468 50.2822C28.1522 50.2822 36.1821 42.2523 36.1821 32.3469C36.1821 22.4415 28.1522 14.4116 18.2468 14.4116C8.34142 14.4116 0.311523 22.4415 0.311523 32.3469C0.311523 42.2523 8.34142 50.2822 18.2468 50.2822Z" fill="#C0B2DA"/>
<mask id="mask0_1372_2453" style="mask-type:alpha" maskUnits="userSpaceOnUse" x="0" y="0" width="52" height="51">
<path d="M18.2468 50.2822C28.1522 50.2822 36.1821 42.2523 36.1821 32.3469C36.1821 22.4415 28.1522 14.4116 18.2468 14.4116C8.34142 14.4116 0.311523 22.4415 0.311523 32.3469C0.311523 42.2523 8.34142 50.2822 18.2468 50.2822Z" fill="#C0B2DA"/>
<path d="M21 36C30.9411 36 39 27.9411 39 18C39 8.05888 30.9411 0 21 0C11.0589 0 3 8.05888 3 18C3 27.9411 11.0589 36 21 36Z" fill="#C0B2DA"/>
<path d="M34 46C43.9411 46 52 37.9411 52 28C52 18.0589 43.9411 10 34 10C24.0589 10 16 18.0589 16 28C16 37.9411 24.0589 46 34 46Z" fill="#C0B2DA"/>
</mask>
<g mask="url(#mask0_1372_2453)">
<path d="M41.9851 34.8549C41.9851 34.8549 32.7622 35.879 29.1779 34.4027C28.1135 33.9642 25.6475 30.2435 24.1809 27.9138C23.4943 26.822 23.0264 26.0343 23.0264 26.0343L26.0761 19.7856L32.103 29.6186L41.9537 31.3304L41.9861 34.854L41.9851 34.8549Z" fill="#162739"/>
<path d="M29.1776 34.4024C28.1133 33.9639 25.6472 30.2431 24.1807 27.9134C24.4377 26.132 25.6177 18.4326 26.3476 22.2376C26.378 22.3936 26.4094 22.5555 26.4417 22.7212C27.3138 27.0904 29.1776 34.4033 29.1776 34.4033V34.4024Z" fill="#0B1821"/>
<path d="M13.1188 26.0108C13.1188 26.0108 12.6862 26.8231 12.0554 27.9551C10.8174 30.1798 8.8173 33.6426 7.85009 34.6108C7.59701 34.8639 7.07809 35.2366 6.39535 35.679C3.14254 37.7871 -3.85259 41.4853 -3.85259 41.4853L-5.80762 38.2207L3.35147 31.4109L10.07 19.7632L13.1197 26.0118L13.1188 26.0108Z" fill="#162739"/>
<path d="M12.0556 27.9553C10.8176 30.1801 8.81746 33.6428 7.85025 34.611C7.59716 34.8641 7.07825 35.2368 6.39551 35.6793C6.39551 35.6793 8.93714 30.5244 9.66108 23.8647L12.0556 27.9553Z" fill="#0B1821"/>
<path d="M26.457 41.0443L26.3482 45.0495L25.1553 88.8949H19.6444L18.4368 50.6988L18.4241 50.3172L18.3838 50.6949L14.308 88.8949H8.53418L10.4274 47.1576L10.6314 42.6403L10.7325 40.4313L17.0635 39.6445L26.457 41.0443Z" fill="#071116"/>
<path d="M15.9873 49.2988C15.9873 49.2988 17.5186 51.6384 20.842 50.0865C20.842 50.0865 18.5024 50.7859 15.9873 49.2988Z" fill="#020607"/>
<path d="M26.3485 45.0494C26.3485 45.0494 22.2825 49.7285 10.4277 47.1564L10.6327 42.6392C12.7124 42.0938 14.6978 41.7612 14.6978 41.7612L26.3495 45.0494H26.3485Z" fill="#020607"/>
<path d="M26.246 44.4438C26.246 44.4438 18.675 45.8593 9.66016 44.4438C9.66016 44.4438 10.8804 19.8975 11.5426 19.3463C11.8016 19.1304 12.8561 18.8636 14.042 18.6174C14.5433 18.5134 15.0681 18.4144 15.5654 18.3241C16.8966 18.0848 18.0394 17.9121 18.0394 17.9121C18.0394 17.9121 18.9311 18.0465 20.0572 18.2427C20.2514 18.277 20.4525 18.3133 20.6566 18.3506C21.1107 18.434 21.5826 18.5232 22.0358 18.6164C23.2217 18.8617 24.2782 19.1285 24.5372 19.3453C25.1993 19.8966 26.246 44.4428 26.246 44.4428V44.4438Z" fill="#F1FDFF"/>
<path d="M21.5195 18.5244L23.2499 34.9111L23.0567 46.5373C23.0567 46.5373 25.2893 47.4133 28.8825 46.5373L26.0927 19.8085C26.0927 19.8085 24.1288 18.9668 21.5195 18.5244Z" fill="#162739"/>
<path d="M15.4928 46.5366C15.4928 46.5366 10.8549 47.4126 7.2627 46.5366L10.0525 19.8078C10.0525 19.8078 13.0522 18.3511 15.4899 18.3511L16.4022 35.1753L15.4919 46.5356L15.4928 46.5366Z" fill="#162739"/>
<path d="M20.6936 13.8184V18.6368C20.6936 19.7992 19.7499 20.7409 18.5875 20.7389C17.428 20.737 16.4883 19.7962 16.4883 18.6368V13.8184H20.6926H20.6936Z" fill="#F7B289"/>
<path d="M20.6936 16.5984C20.6936 16.5984 20.0825 17.9648 16.4893 17.9923V13.8174H17.4673L20.4081 15.8882L20.6936 16.5974V16.5984Z" fill="#E58353"/>
<path d="M25.1028 6.54925C25.1028 6.54925 26.6507 16.9865 20.1049 16.5961C13.559 16.2057 14.7616 6.10292 14.7616 6.10292L18.2077 4.82965L23.3086 4.81592L25.1028 6.54925Z" fill="#F7B289"/>
<path d="M15.3245 11.5118C17.0304 11.0439 17.4424 8.10502 17.4424 8.10502C17.4424 8.10502 21.9675 9.94136 24.9093 8.364C27.8512 6.78663 25.8295 2.23799 23.381 3.11006C20.3067 4.20577 17.0137 2.97566 16.225 4.81689C16.225 4.81689 13.5431 4.95031 13.701 7.00932C13.859 9.06832 14.1219 11.8424 15.3245 11.5128V11.5118Z" fill="#191919"/>
<path d="M15.6462 12.0543C16.1351 11.607 16.0332 10.7001 15.4188 10.0286C14.8044 9.35718 13.91 9.17545 13.4212 9.62273C12.9324 10.07 13.0342 10.9769 13.6486 11.6484C14.2631 12.3199 15.1574 12.5016 15.6462 12.0543Z" fill="#F7B289"/>
<path d="M15.4712 11.0606C15.2623 10.577 14.7433 9.78051 13.6143 9.86683C13.6143 9.86683 14.6276 9.92962 14.9758 11.2274C15.0072 11.3461 15.1141 11.4285 15.2367 11.4256C15.4221 11.4206 15.5438 11.2303 15.4702 11.0606H15.4712Z" fill="#E58353"/>
<path d="M26.7295 31.8822L36.7979 29.7163L45.4077 32.0068L33.5235 33.9942L26.7295 31.8822Z" fill="#686868"/>
<path d="M45.4076 32.0071L33.5234 33.9945L36.1161 22.543H47.9993L45.4076 32.0071Z" fill="#BFC1C1"/>
<path d="M26.7295 31.8828V32.5263L33.5235 34.6873L45.4077 32.4675V32.0074L33.5235 33.9948L26.7295 31.8828Z" fill="#444444"/>
<path d="M45.5825 31.893C46.4398 33.0221 42.5043 36.0081 41.6479 34.879C40.7906 33.75 40.977 32.1657 42.0638 31.3417C43.1507 30.5177 44.7261 30.7649 45.5825 31.894V31.893Z" fill="#F7B289"/>
</g>
</svg>
